<svg width="15" height="14" viewBox="0 0 15 14" fill="none" xmlns="http://www.w3.org/2000/svg">
<path d="M1.26867 6.43663C1.3599 5.58375 1.93425 4.88818 2.77723 4.64451L8.89981 2.86041L8.8991 2.86109C9.65152 2.63983 10.4613 2.85382 11.0069 3.41862C11.5525 3.98359 11.7386 4.80093 11.4912 5.54527L11.4898 5.54524L9.49452 11.6005L9.4959 11.6005C9.38443 11.945 9.19707 12.2366 8.95444 12.4709C8.61628 12.7975 8.17678 12.9986 7.68958 13.0421L7.47877 13.0515L7.47809 13.0508C6.5458 13.0459 5.75977 12.4638 5.48095 11.576L4.95298 9.89336L4.91205 9.78491C4.80083 9.53821 4.58832 9.34083 4.32749 9.24706L4.32681 9.24635L2.66161 8.65649C1.78414 8.3468 1.22978 7.54095 1.25737 6.6091L1.26867 6.43663ZM2.6599 5.9457C2.48539 6.11422 2.39606 6.33806 2.37167 6.55258L2.36523 6.64432C2.35312 7.00186 2.52807 7.43766 3.03266 7.61803L4.69652 8.20511L4.92413 8.30163C5.43723 8.55557 5.83097 9.00996 6.00647 9.5616L6.00714 9.5623L6.53512 11.2449L6.5351 11.2463C6.69409 11.7582 7.12559 11.9455 7.48494 11.9459L7.6239 11.938C7.95136 11.8969 8.30025 11.7038 8.44727 11.2583L10.4433 5.20099L10.4788 5.06487C10.5391 4.74651 10.4448 4.42798 10.2151 4.19006C9.98536 3.95234 9.67076 3.84756 9.35066 3.89664L9.2127 3.9267L3.08334 5.70377C2.90281 5.75656 2.76526 5.84396 2.6599 5.9457Z" fill="#513BE2" stroke="#513BE2" stroke-width="0.375094"/>
<rect x="7.81634" y="7.3081" width="3.37584" height="1.12528" rx="0.562641" transform="rotate(136 7.81634 7.3081)" fill="#513BE2" stroke="#513BE2" stroke-width="0.375094"/>
</svg>
