<svg width="21" height="21" viewBox="0 0 21 21" fill="none" xmlns="http://www.w3.org/2000/svg">
<path d="M12.3 8.06998V10.68H14.64C14.82 10.68 14.91 10.86 14.91 11.04L14.55 12.75C14.55 12.84 14.37 12.93 14.28 12.93H12.3V19.5H9.60005V13.02H8.07005C7.89005 13.02 7.80005 12.93 7.80005 12.75V11.04C7.80005 10.86 7.89005 10.77 8.07005 10.77H9.60005V7.79998C9.60005 6.26998 10.77 5.09998 12.3 5.09998H14.73C14.91 5.09998 15 5.18998 15 5.36998V7.52998C15 7.70998 14.91 7.79998 14.73 7.79998H12.57C12.39 7.79998 12.3 7.88998 12.3 8.06998Z" stroke="#AEA3C8" stroke-width="1.5" stroke-miterlimit="10" stroke-linecap="round"/>
<path d="M13.2 19.5H7.8C3.3 19.5 1.5 17.7 1.5 13.2V7.8C1.5 3.3 3.3 1.5 7.8 1.5H13.2C17.7 1.5 19.5 3.3 19.5 7.8V13.2C19.5 17.7 17.7 19.5 13.2 19.5Z" stroke="#AEA3C8" stroke-width="1.5" stroke-linecap="round" stroke-linejoin="round"/>
</svg>
