<svg width="18" height="18" viewBox="0 0 18 18" fill="none" xmlns="http://www.w3.org/2000/svg">
<path d="M0 1.27797C0 0.572165 0.572164 0 1.27796 0H16.7265C17.4323 0 18.0045 0.572166 18.0045 1.27797V16.7265C18.0045 17.4323 17.4323 18.0045 16.7265 18.0045H1.27797C0.572165 18.0045 0 17.4323 0 16.7265V1.27797Z" fill="#AEA3C8"/>
<path d="M4.04089 5.59131C4.9035 5.59131 5.60278 4.89203 5.60278 4.02942C5.60278 3.16681 4.9035 2.46753 4.04089 2.46753C3.17828 2.46753 2.479 3.16681 2.479 4.02942C2.479 4.89203 3.17828 5.59131 4.04089 5.59131Z" fill="white"/>
<path d="M7.0332 6.74559H9.62175V7.93142C9.62175 7.93142 10.3242 6.52654 12.2354 6.52654C13.9403 6.52654 15.3527 7.36642 15.3527 9.92644V15.3248H12.6702V10.5806C12.6702 9.07041 11.8639 8.90431 11.2496 8.90431C9.97456 8.90431 9.75627 10.0041 9.75627 10.7776V15.3248H7.0332V6.74559Z" fill="white"/>
<path d="M2.67935 6.7456H5.40243V15.3248H2.67935V6.7456Z" fill="white"/>
</svg>
