<svg width="18" height="18" viewBox="0 0 18 18" fill="none" xmlns="http://www.w3.org/2000/svg">
<path fill-rule="evenodd" clip-rule="evenodd" d="M7.88149 1.92918H10.132C11.748 1.92918 12.8327 1.93175 13.6587 2.0282C14.4576 2.1208 14.8267 2.28541 15.0709 2.4706C15.3782 2.70523 15.6421 3.00676 15.8474 3.35796C16.0105 3.63703 16.1534 4.05885 16.2344 4.97194C16.3188 5.91589 16.3211 7.15563 16.3211 9.00237C16.3211 10.8491 16.3188 12.0889 16.2344 13.0328C16.1534 13.9459 16.0094 14.3677 15.8474 14.6468C15.6421 14.998 15.3782 15.2995 15.0709 15.5341C14.8267 15.7206 14.4576 15.884 13.6587 15.9765C12.8316 16.073 11.748 16.0756 10.132 16.0756H7.88149C6.26558 16.0756 5.18081 16.073 4.35485 15.9765C3.5559 15.884 3.18681 15.7193 2.94263 15.5341C2.63532 15.2995 2.37148 14.998 2.16618 14.6468C2.00302 14.3677 1.86011 13.9459 1.77909 13.0328C1.69469 12.0889 1.69244 10.8491 1.69244 9.00237C1.69244 7.15563 1.69469 5.91589 1.77909 4.97194C1.86011 4.05885 2.00414 3.63703 2.16618 3.35796C2.37148 3.00676 2.63532 2.70523 2.94263 2.4706C3.18681 2.28412 3.5559 2.1208 4.35485 2.0282C5.18081 1.93175 6.26558 1.92918 7.88149 1.92918ZM0.0045166 9.00237C0.0045166 5.3899 0.0045166 3.5843 0.762956 2.28669C1.09144 1.72477 1.51358 1.24232 2.00527 0.86691C3.14068 0.00012207 4.71945 0.00012207 7.88149 0.00012207H10.132C13.293 0.00012207 14.8729 0.00012207 16.0083 0.86691C16.5 1.24243 16.922 1.7247 17.2506 2.28669C18.009 3.5843 18.009 5.38861 18.009 9.00237C18.009 12.6161 18.009 14.4204 17.2506 15.7181C16.9221 16.28 16.5 16.7624 16.0083 17.1378C14.8729 18.0046 13.2941 18.0046 10.132 18.0046H7.88149C4.72057 18.0046 3.14068 18.0046 2.00527 17.1378C1.51358 16.7624 1.09144 16.28 0.762956 15.7181C0.0045166 14.4204 0.0045166 12.6161 0.0045166 9.00237ZM6.1463 5.6664C6.05852 5.58905 5.95828 5.53221 5.85128 5.49914C5.74428 5.46607 5.63263 5.45741 5.52271 5.47365C5.3007 5.50645 5.09919 5.6387 4.96251 5.8413C4.82582 6.0439 4.76515 6.30025 4.79385 6.55397C4.82255 6.80769 4.93827 7.03799 5.11554 7.19421L7.68344 9.45377L7.68794 9.45891C8.07082 9.78951 8.53759 9.96836 9.01746 9.96836C9.49732 9.96836 9.9641 9.78951 10.347 9.45891L10.3549 9.4512L12.9002 7.19163C12.9912 7.1154 13.0679 7.01909 13.1257 6.9084C13.1836 6.79772 13.2214 6.6749 13.237 6.54722C13.2526 6.41953 13.2457 6.28957 13.2166 6.16501C13.1875 6.04045 13.1368 5.92382 13.0676 5.82202C12.9984 5.72022 12.912 5.6353 12.8136 5.5723C12.7152 5.5093 12.6067 5.46949 12.4946 5.45522C12.3825 5.44095 12.269 5.45252 12.1608 5.48923C12.0527 5.52594 11.9521 5.58706 11.865 5.66897L9.3241 7.9221C9.23511 7.99709 9.12746 8.03755 9.01689 8.03755C8.90633 8.03755 8.79868 7.99709 8.70969 7.9221L6.1463 5.6664Z" fill="#1E0067" fill-opacity="0.36"/>
</svg>
