<svg width="19" height="18" viewBox="0 0 19 18" fill="none" xmlns="http://www.w3.org/2000/svg">
<path fill-rule="evenodd" clip-rule="evenodd" d="M9.75007 8.67861C11.7028 8.67861 13.2858 7.09561 13.2858 5.14289C13.2858 3.19017 11.7028 1.60718 9.75007 1.60718C7.79735 1.60718 6.21436 3.19017 6.21436 5.14289C6.21436 7.09561 7.79735 8.67861 9.75007 8.67861ZM9.75007 7.39289C10.9927 7.39289 12.0001 6.38553 12.0001 5.14289C12.0001 3.90025 10.9927 2.89289 9.75007 2.89289C8.50743 2.89289 7.50007 3.90025 7.50007 5.14289C7.50007 6.38553 8.50743 7.39289 9.75007 7.39289Z" fill="#06142D"/>
<path fill-rule="evenodd" clip-rule="evenodd" d="M12.9644 16.7143C15.0946 16.7143 16.8215 14.9874 16.8215 12.8572C16.8215 10.7269 15.0946 9.00004 12.9644 9.00004C10.8341 9.00004 9.10721 10.7269 9.10721 12.8572C9.10721 14.9874 10.8341 16.7143 12.9644 16.7143ZM13.6072 10.9286C13.6072 10.5736 13.3194 10.2857 12.9644 10.2857C12.6093 10.2857 12.3215 10.5736 12.3215 10.9286V12.2143H11.0358C10.6807 12.2143 10.3929 12.5021 10.3929 12.8572C10.3929 13.2122 10.6807 13.5 11.0358 13.5H12.3215V14.7858C12.3215 15.1408 12.6093 15.4286 12.9644 15.4286C13.3194 15.4286 13.6072 15.1408 13.6072 14.7858V13.5H14.8929C15.248 13.5 15.5358 13.2122 15.5358 12.8572C15.5358 12.5021 15.248 12.2143 14.8929 12.2143H13.6072V10.9286Z" fill="#06142D"/>
<path d="M7.94199 11.4034C8.29074 11.3369 8.51951 11.0002 8.45296 10.6515C8.38642 10.3027 8.04976 10.074 7.70101 10.1405C5.94744 10.4751 4.98323 11.2423 4.47339 12.0105C4.22443 12.3855 4.09734 12.7409 4.03256 13.009C4.00018 13.143 3.98317 13.256 3.97424 13.3399C3.96977 13.382 3.9673 13.4169 3.96595 13.4439C3.96527 13.4573 3.96487 13.4688 3.96464 13.4782L3.96441 13.4907L3.96437 13.4957L3.96436 13.498L3.96436 13.499C3.96436 13.499 3.96436 13.5 4.60721 13.5H3.96436V13.8214C3.96436 14.709 4.6839 15.4285 5.5715 15.4285H7.50007C7.85511 15.4285 8.14293 15.1407 8.14293 14.7857C8.14293 14.4307 7.85511 14.1428 7.50007 14.1428H5.5715C5.39398 14.1428 5.25007 13.9989 5.25007 13.8214V13.5078C5.25031 13.5032 5.25099 13.4923 5.25274 13.4759C5.25637 13.4418 5.26447 13.3848 5.28231 13.311C5.31798 13.1634 5.39179 12.9517 5.54461 12.7215C5.83834 12.2789 6.48127 11.6822 7.94199 11.4034Z" fill="#06142D"/>
</svg>
