<svg width="53" height="53" viewBox="0 0 53 53" fill="none" xmlns="http://www.w3.org/2000/svg">
<rect width="52.2342" height="52.2342" rx="11.7405" fill="#F2E4F8"/>
<path opacity="0.4" d="M37.657 27.8712C38.1662 27.8712 38.5711 27.4534 38.5711 26.931V25.7819C38.5711 20.6499 37.004 19.0959 31.8851 19.0959H23.6582V22.2691C24.1675 22.2691 24.5854 22.687 24.5854 23.1963V26.696C24.5854 27.2052 24.1675 27.6231 23.6582 27.6231V30.9008C24.1675 30.9008 24.5854 31.3187 24.5854 31.828V35.3277C24.5854 35.8369 24.1675 36.2548 23.6582 36.2548V39.4019H31.8851C37.004 39.4019 38.5711 37.8349 38.5711 32.7159C38.5711 32.2067 38.1662 31.7888 37.657 31.7888C36.56 31.7888 35.6851 30.9139 35.6851 29.83C35.6851 28.7461 36.56 27.8712 37.657 27.8712Z" fill="#AB46DD"/>
<path opacity="0.4" d="M30.3388 19.3698H22.1992L24.8229 16.7461C26.963 14.606 28.0375 14.606 30.1776 16.7461L30.7149 17.2834C30.1508 17.8475 30.0164 18.6803 30.3388 19.3698Z" stroke="#AB46DD" stroke-width="1.46756" stroke-linecap="round" stroke-linejoin="round"/>
<path d="M22.7358 23.2065V26.7062C22.7358 27.2155 23.1537 27.6334 23.663 27.6334V30.9111C23.1537 30.9111 22.7358 31.3289 22.7358 31.8382V35.3379C22.7358 35.8472 23.1537 36.2651 23.663 36.2651V39.4122H20.3461C15.2272 39.4122 13.6602 37.8452 13.6602 32.7262V32.1647C13.6602 31.6423 14.065 31.2375 14.5743 31.2375C15.6712 31.2375 16.5461 30.3495 16.5461 29.2657C16.5461 28.1818 15.6712 27.2938 14.5743 27.2938C14.065 27.2938 13.6602 26.889 13.6602 26.3667V25.8052C13.6602 20.6732 15.2272 19.1192 20.3461 19.1192H23.6499V22.2924C23.1537 22.2924 22.7358 22.7103 22.7358 23.2065Z" fill="#AB46DD"/>
</svg>
