<svg width="53" height="53" viewBox="0 0 53 53" fill="none" xmlns="http://www.w3.org/2000/svg">
<rect y="0.000213623" width="52.2342" height="52.2342" rx="11.7405" fill="#DBF4DA"/>
<path d="M19.4131 16.1809H21.9209V18.2424C21.921 18.8676 22.3727 19.3268 22.9199 19.5022V21.8899C22.3725 22.0652 21.9209 22.5253 21.9209 23.1506V28.0696C21.9209 28.6949 22.3726 29.155 22.9199 29.3303V31.717C22.3724 31.8923 21.9209 32.3534 21.9209 32.9788V35.0393H19.4131C16.4823 35.0393 14.7315 34.6518 13.6973 33.7717C12.6893 32.9137 12.2432 31.478 12.2432 29.011V28.4446C12.2432 28.321 12.4 28.0833 12.7529 28.0833C14.2248 28.0833 15.573 27.0399 15.5732 25.6106C15.5732 24.1812 14.2249 23.137 12.7529 23.137C12.4002 23.1369 12.2434 22.9002 12.2432 22.7766V22.2092C12.2432 19.7423 12.6892 18.3065 13.6973 17.4485C14.7315 16.5684 16.4823 16.1809 19.4131 16.1809Z" fill="#3CBD2C" stroke="#3CBD2C" stroke-width="0.978372"/>
<path d="M19.332 17.0201H20.8984V18.8628C20.8985 19.3351 21.1606 19.8042 21.583 20.0142V22.1978C21.1604 22.4077 20.8985 22.8777 20.8984 23.3501V27.8482C20.8984 28.3205 21.1606 28.7895 21.583 28.9995V31.1831C21.1604 31.393 20.8985 31.863 20.8984 32.3355V34.1783H19.332C17.3465 34.1782 16.2245 33.8297 15.5625 33.0786C14.8828 32.3074 14.5693 30.9855 14.5693 28.7085V28.19C14.5694 28.0961 14.6041 28.0168 14.6494 27.9654C14.6943 27.9146 14.738 27.9019 14.7656 27.9019C15.9687 27.9016 16.8525 26.8042 16.8525 25.5992C16.8525 24.3941 15.9686 23.2967 14.7656 23.2964C14.7379 23.2964 14.6943 23.2838 14.6494 23.2329C14.6041 23.1815 14.5694 23.1022 14.5693 23.0083V22.4898C14.5694 20.2129 14.8828 18.8909 15.5625 18.1197C16.2245 17.3686 17.3465 17.0201 19.332 17.0201Z" fill="#3CBD2C" stroke="#3CBD2C" stroke-width="0.978372"/>
<path opacity="0.4" d="M32.7363 16.1809C35.6672 16.1809 37.4179 16.5684 38.4521 17.4485C39.4604 18.3065 39.9072 19.7421 39.9072 22.2092V23.343C39.9072 23.4665 39.7501 23.7041 39.3975 23.7043C37.9255 23.7043 36.5772 24.7476 36.5771 26.177C36.5771 27.6064 37.9255 28.6497 39.3975 28.6497C39.7501 28.6499 39.9072 28.8875 39.9072 29.011C39.9072 31.4782 39.4604 32.9137 38.4521 33.7717C37.4179 34.6518 35.6673 35.0393 32.7363 35.0393H24.9004V32.9788C24.9004 32.3532 24.449 31.8923 23.9014 31.717V29.3303C24.4489 29.155 24.9004 28.695 24.9004 28.0696V23.1506C24.9004 22.5251 24.449 22.0641 23.9014 21.8889V19.5022C24.4487 19.3269 24.9003 18.8677 24.9004 18.2424V16.1809H32.7363Z" fill="#3CBD2C" stroke="#3CBD2C" stroke-width="0.978372"/>
<path d="M27.4473 21.5938L30.1119 23.8614L35.8449 19.3493" stroke="white" stroke-width="1.95674" stroke-linecap="round" stroke-linejoin="round"/>
</svg>
