<svg width="18" height="18" viewBox="0 0 18 18" fill="none" xmlns="http://www.w3.org/2000/svg">
<path d="M14.2816 10.9938C14.9657 10.311 15.333 9.36942 15.2826 8.40629L15.1097 4.81254C15.0449 3.37504 13.8999 2.23223 12.4668 2.16035L8.86616 1.98785C7.90118 1.94473 6.9578 2.3041 6.27367 2.98692L3.01146 6.24285C1.67201 7.57973 1.67201 9.75035 3.01146 11.0944L6.17285 14.2497C7.51231 15.5866 9.68711 15.5866 11.0338 14.2497L11.8475 13.4375" stroke="#A2A5A6" stroke-width="1.5" stroke-linecap="round" stroke-linejoin="round"/>
<path d="M8.78362 6.11656C8.69001 6.33219 8.6396 6.57656 8.6396 6.82813C8.6396 7.82 9.44615 8.625 10.4399 8.625C11.4337 8.625 12.2403 7.82 12.2403 6.82813C12.2403 5.83625 11.4337 5.03125 10.4399 5.03125" stroke="#A2A5A6" stroke-width="1.5" stroke-linecap="round"/>
<path d="M5.03942 9.34375L7.91996 12.2188" stroke="#A2A5A6" stroke-width="1.5" stroke-miterlimit="10" stroke-linecap="round" stroke-linejoin="round"/>
</svg>
