<svg width="67" height="67" viewBox="0 0 67 67" fill="none" xmlns="http://www.w3.org/2000/svg">
<circle cx="33.1486" cy="33.1486" r="33.1486" fill="#EFEFF0"/>
<path d="M22.8867 23.6738C22.8867 19.3149 26.4203 15.7812 30.7793 15.7812H31.5685C35.9274 15.7812 39.461 19.3149 39.461 23.6738V25.2523H22.8867V23.6738Z" fill="#E0E0E0"/>
<path d="M39.2954 28.4835C40.2797 26.0383 39.6673 21.1401 38.1114 19.0125C38.1114 19.0125 36.2167 16.8349 34.5598 16.2501C33.5322 15.8874 31.7974 15.8555 31.7974 15.8555C31.7974 15.8555 30.3391 15.6884 29.4296 15.8555C27.662 16.1802 26.7542 16.9524 25.4834 18.2233C24.2125 19.4941 23.5813 20.4337 23.1156 22.1695C22.6763 23.8068 22.6126 24.8915 23.1156 26.5104C23.547 27.8988 25.0887 29.6674 25.0887 29.6674C25.0887 29.6674 26.3748 30.963 26.6672 32.0352C26.9597 33.1073 26.7234 33.5955 26.2728 34.4029C25.8972 35.0757 25.0887 35.5868 25.0887 35.5868C25.0887 35.5868 23.6875 36.6167 22.721 37.1653C21.401 37.9146 20.4893 37.9946 19.1693 38.7438C19.1693 38.7438 17.4839 39.4451 16.8016 40.3223C16.3785 40.8664 16.2053 41.2392 16.0123 41.9008C15.7103 42.9365 15.6982 43.6312 16.0123 44.6632C16.274 45.5229 16.5452 46.0169 17.1962 46.6364C18.0465 47.4454 19.9587 48.2148 19.9587 48.2148C19.9587 48.2148 21.3172 48.7799 22.3264 49.0041C25.8781 49.7933 32.192 49.3988 32.192 49.3988" stroke="#737577" stroke-width="2.36776"/>
<rect x="40.034" y="29.2505" width="1.59711" height="1.61586" rx="0.798555" transform="rotate(-172.155 40.034 29.2505)" fill="#737577" stroke="#737577" stroke-width="0.789253"/>
<rect x="32.8026" y="48.5669" width="1.58033" height="1.4359" rx="0.717951" transform="rotate(86.4287 32.8026 48.5669)" fill="#737577" stroke="#737577" stroke-width="0.789253"/>
<path d="M45.6776 34.7006C46.8576 35.7181 47.6014 37.1973 47.6014 38.8389C47.6014 41.9084 45.0192 44.3966 41.83 44.3966C38.6408 44.3966 36.0586 41.9084 36.0586 38.8389C36.0586 35.7694 38.6408 33.2812 41.83 33.2812" stroke="#737577" stroke-width="2.36776" stroke-linecap="round" stroke-linejoin="round"/>
<path d="M38.0007 43.1305L37.9922 49.4405C37.9922 50.2101 38.5309 50.5863 39.1978 50.2699L41.4892 49.184C41.6773 49.09 41.9937 49.09 42.1818 49.184L44.4818 50.2699C45.1402 50.5777 45.6874 50.2101 45.6874 49.4405V42.9766" stroke="#737577" stroke-width="2.36776" stroke-linecap="round" stroke-linejoin="round"/>
<circle cx="41.8293" cy="38.673" r="4.73552" fill="#E0E0E0"/>
</svg>
