<svg width="18" height="19" viewBox="0 0 18 19" fill="none" xmlns="http://www.w3.org/2000/svg">
<path d="M12.4106 7.10921C12.8909 5.92116 12.5921 3.5413 11.8329 2.50754C11.8329 2.50754 10.9085 1.44953 10.1 1.16538C9.5986 0.989168 8.75216 0.973648 8.75216 0.973648C8.75216 0.973648 8.04061 0.892487 7.59687 0.973648C6.73439 1.1314 6.29146 1.50661 5.67139 2.12407C5.05132 2.74153 4.74334 3.19805 4.51611 4.04144C4.30177 4.83696 4.27066 5.36399 4.51611 6.15055C4.72661 6.82513 5.47885 7.68445 5.47885 7.68445C5.47885 7.68445 6.10636 8.31394 6.24904 8.83487C6.39171 9.35579 6.27644 9.59296 6.05656 9.98526C5.87332 10.3122 5.47885 10.5605 5.47885 10.5605C5.47885 10.5605 4.79512 11.0609 4.32356 11.3274C3.6795 11.6915 3.23469 11.7304 2.59063 12.0944C2.59063 12.0944 1.76825 12.4351 1.43535 12.8613C1.22889 13.1257 1.14441 13.3068 1.05025 13.6283C0.902869 14.1315 0.896993 14.469 1.05025 14.9705C1.17791 15.3881 1.31024 15.6282 1.62789 15.9291C2.04277 16.3222 2.9758 16.6961 2.9758 16.6961C2.9758 16.6961 3.6386 16.9706 4.13101 17.0796C5.86401 17.463 8.9447 17.2713 8.9447 17.2713" stroke="#616265" stroke-width="1.87505"/>
<rect x="-0.24941" y="-0.329123" width="1.2208" height="0.584332" rx="0.292166" transform="matrix(-0.990719 -0.13593 0.13706 -0.990563 12.8142 7.05322)" fill="#616265" stroke="#616265" stroke-width="0.584332"/>
<rect x="-0.253921" y="0.287726" width="1.22322" height="0.542844" rx="0.271422" transform="matrix(0.0625521 0.998042 -0.998074 0.0620286 9.45538 16.8828)" fill="#616265" stroke="#616265" stroke-width="0.542844"/>
<path d="M12.4106 7.10921C12.8909 5.92116 12.5921 3.5413 11.8329 2.50754C11.8329 2.50754 10.9085 1.44953 10.1 1.16538C9.5986 0.989168 8.75216 0.973648 8.75216 0.973648C8.75216 0.973648 8.04061 0.892487 7.59687 0.973648C6.73439 1.1314 6.29146 1.50661 5.67139 2.12407C5.05132 2.74153 4.74334 3.19805 4.51611 4.04144C4.30177 4.83696 4.27066 5.36399 4.51611 6.15055C4.72661 6.82513 5.47885 7.68445 5.47885 7.68445C5.47885 7.68445 6.10636 8.31394 6.24904 8.83487C6.39171 9.35579 6.27644 9.59296 6.05656 9.98526C5.87332 10.3122 5.47885 10.5605 5.47885 10.5605C5.47885 10.5605 4.79512 11.0609 4.32356 11.3274C3.6795 11.6915 3.23469 11.7304 2.59063 12.0944C2.59063 12.0944 1.76825 12.4351 1.43535 12.8613C1.22889 13.1257 1.14441 13.3068 1.05025 13.6283C0.902869 14.1315 0.896993 14.469 1.05025 14.9705C1.17791 15.3881 1.31024 15.6282 1.62789 15.9291C2.04277 16.3222 2.9758 16.6961 2.9758 16.6961C2.9758 16.6961 3.6386 16.9706 4.13101 17.0796C5.86401 17.463 8.9447 17.2713 8.9447 17.2713" stroke="#616265" stroke-width="1.87505"/>
<rect x="-0.24941" y="-0.329123" width="1.2208" height="0.584332" rx="0.292166" transform="matrix(-0.990719 -0.13593 0.13706 -0.990563 12.8142 7.05322)" fill="#616265" stroke="#616265" stroke-width="0.584332"/>
<rect x="-0.253921" y="0.287726" width="1.22322" height="0.542844" rx="0.271422" transform="matrix(0.0625521 0.998042 -0.998074 0.0620286 9.45538 16.8828)" fill="#616265" stroke="#616265" stroke-width="0.542844"/>
<path d="M12.6855 10.9745C12.6855 10.6273 12.9673 10.3454 13.3146 10.3454C13.6614 10.3458 13.9428 10.6269 13.9429 10.9738L13.9423 13.4342L16.4026 13.4335C16.7498 13.4336 17.0317 13.7154 17.0317 14.0626C17.0317 14.4097 16.7498 14.6915 16.4026 14.6917L13.9423 14.691L13.9429 17.1513C13.9428 17.4982 13.6614 17.7794 13.3146 17.7797C12.9673 17.7797 12.6855 17.4979 12.6855 17.1506L12.6848 14.6917L10.2258 14.691C9.87858 14.691 9.59742 14.4098 9.59742 14.0626C9.59743 13.7154 9.87858 13.4342 10.2258 13.4342L12.6848 13.4335L12.6855 10.9745Z" fill="#616265" stroke="#616265" stroke-width="0.375009"/>
</svg>
