<svg width="11" height="11" viewBox="0 0 11 11" fill="none" xmlns="http://www.w3.org/2000/svg">
<path d="M9.74902 0.828125C10.399 1.49429 10.5438 2.45809 10.1064 3.28516L7.1377 8.92773V8.92676C6.77424 9.6216 6.05764 10.0547 5.27246 10.0547C4.48732 10.0547 3.7717 9.62152 3.4082 8.92676L3.40723 8.92773L0.4375 3.28516L0.438477 3.28418C0.268658 2.96518 0.1875 2.62868 0.1875 2.29199C0.187625 1.75516 0.397811 1.23687 0.795898 0.828125C1.44687 0.16115 2.41108 0.000109412 3.24316 0.416016L4.82031 1.20508C5.06345 1.32665 5.35264 1.34177 5.61133 1.25L5.71973 1.2041L7.30176 0.416016C8.13382 0.000178507 9.09808 0.161179 9.74902 0.828125ZM9.25195 2.29688C9.25181 2.01994 9.12302 1.77277 8.95508 1.60059H8.9541C8.70528 1.34347 8.27041 1.16625 7.79004 1.4043V1.40332L6.21289 2.19238C5.69426 2.44936 5.09372 2.48172 4.55469 2.28906L4.32715 2.19238L2.75 1.40332H2.74902C2.27027 1.16194 1.83584 1.34235 1.58594 1.60059C1.33429 1.86067 1.16289 2.29517 1.41211 2.76953L4.38184 8.41211L4.45508 8.53223C4.64213 8.7968 4.93684 8.94922 5.26758 8.94922C5.59831 8.9492 5.89304 8.79682 6.08008 8.53223L6.15332 8.41211L9.13184 2.77051C9.21925 2.604 9.25195 2.44331 9.25195 2.29688Z" fill="#A9AAAA" stroke="#A9AAAA" stroke-width="0.375"/>
<rect x="4.6875" y="5.0625" width="3.375" height="1.125" rx="0.5625" transform="rotate(-90 4.6875 5.0625)" fill="#A9AAAA" stroke="#A9AAAA" stroke-width="0.375"/>
</svg>
