<svg width="10" height="10" viewBox="0 0 10 10" fill="none" xmlns="http://www.w3.org/2000/svg">
<path d="M8.81836 9.13184C8.19285 9.74233 7.28648 9.87868 6.50977 9.46777L1.24609 6.69727L1.12695 6.62988C0.544598 6.27211 0.187588 5.63749 0.1875 4.94629C0.1875 4.209 0.593602 3.53564 1.24609 3.19434L1.24707 3.19531L6.50977 0.423828L6.51074 0.424805C6.81032 0.265249 7.12607 0.189453 7.44238 0.189453C7.94666 0.189457 8.43366 0.386185 8.81738 0.759766H8.81836C9.44466 1.37104 9.59475 2.2773 9.2041 3.05859L8.46875 4.53027C8.34103 4.78572 8.34026 5.09604 8.46875 5.35742L9.2041 6.83301L9.27148 6.98145C9.57437 7.72682 9.40528 8.55882 8.81836 9.13184ZM7.4375 8.64648C7.69214 8.64648 7.92019 8.52806 8.0791 8.37305L8.08008 8.37207C8.31677 8.14275 8.47875 7.74275 8.25977 7.30078H8.26074L7.52441 5.8291C7.28303 5.34195 7.25247 4.77775 7.43359 4.27148L7.52441 4.05859L8.26074 2.58691V2.58594C8.48273 2.14562 8.31785 1.74604 8.08008 1.51562C7.84017 1.28346 7.43961 1.12595 7.00293 1.35547L1.73828 4.12598L1.62793 4.19434C1.38447 4.36652 1.24319 4.63703 1.24316 4.94141C1.24316 5.24597 1.38421 5.51726 1.62793 5.68945L1.73828 5.75684L7.00293 8.53613C7.15623 8.61659 7.30293 8.64644 7.4375 8.64648Z" fill="#8E8E90" stroke="#8E8E90" stroke-width="0.375009"/>
<rect x="4.84082" y="4.38281" width="3.17413" height="1.07479" rx="0.537395" fill="#919091" stroke="#8E8E90" stroke-width="0.375009"/>
</svg>
