<svg width="13" height="13" viewBox="0 0 13 13" fill="none" xmlns="http://www.w3.org/2000/svg">
<path d="M1.25309 0.932591C2.09148 0.155445 3.28022 0.0072136 4.28199 0.570019L11.1164 4.3947C11.9582 4.86301 12.4676 5.75738 12.4427 6.72161C12.4177 7.68558 11.864 8.55187 10.9994 8.97621L10.9985 8.97521L3.97717 12.444L3.97622 12.443C3.57897 12.6416 3.16353 12.7308 2.74993 12.7202C2.0906 12.7032 1.46039 12.4288 0.970927 11.927L0.96995 11.927C0.171426 11.1064 0.00543628 9.91686 0.542645 8.90815L1.56095 6.99624C1.74035 6.65941 1.75133 6.24434 1.58844 5.89111L1.58846 5.89013L0.670992 3.92446C0.186565 2.88964 0.413767 1.71093 1.25309 0.932591ZM3.04244 1.58923C2.7023 1.5805 2.39472 1.73057 2.17788 1.93134L2.17688 1.93229C1.85341 2.22959 1.62239 2.7582 1.89894 3.35529L2.81749 5.31709L2.81844 5.31809C3.1603 6.05523 3.13811 6.91417 2.75883 7.63276L2.75783 7.63371L1.73952 9.54562L1.7395 9.5466C1.42801 10.1268 1.63469 10.666 1.94384 10.981C2.25528 11.2984 2.7839 11.522 3.37441 11.2309L10.3977 7.76305L10.5474 7.67606C10.8779 7.45476 11.0751 7.09839 11.0856 6.69252C11.0976 6.2285 10.8627 5.81614 10.4537 5.58799L10.4527 5.58797L3.61856 1.7506L3.61858 1.74962C3.41723 1.63741 3.22198 1.59385 3.04244 1.58923Z" fill="black" stroke="black" stroke-width="0.46063"/>
<rect x="6.28876" y="7.25765" width="4.14586" height="1.38194" rx="0.690969" transform="rotate(-178.525 6.28876 7.25765)" fill="black" stroke="black" stroke-width="0.46063"/>
</svg>
