<svg width="15" height="15" viewBox="0 0 15 15" fill="none" xmlns="http://www.w3.org/2000/svg">
<path d="M0.650504 5.91734C0.813796 4.96204 1.53695 4.24975 2.50118 4.11163L9.10004 3.15585L9.09925 3.15642C9.9072 3.0373 10.7107 3.37572 11.1914 4.03731C11.6719 4.69887 11.745 5.56695 11.3821 6.29847L11.3835 6.29869L8.43493 12.2771C8.27005 12.6161 8.0361 12.8903 7.75209 13.0967C7.35623 13.3843 6.87379 13.5278 6.36511 13.502L6.14549 13.4805C5.18497 13.3403 4.45933 12.6263 4.30049 11.6705L3.9978 9.85162C3.9441 9.52869 3.73604 9.24082 3.44101 9.08526L1.80183 8.23137C0.942004 7.78486 0.487025 6.87414 0.650504 5.91734ZM2.18528 5.42632C1.97816 5.57688 1.85202 5.79733 1.79521 6.01754L1.77542 6.11159C1.71035 6.48293 1.82883 6.96417 2.32946 7.22638L3.96577 8.07632C4.57606 8.39594 5.00404 8.98516 5.11952 9.66433L5.1201 9.66512L5.42279 11.484L5.422 11.4846C5.51278 12.0426 5.93696 12.3023 6.31181 12.3554C6.68907 12.4086 7.16611 12.2851 7.4162 11.7787L10.3636 5.79877L10.3644 5.7982C10.5425 5.43805 10.5079 5.03217 10.2739 4.70998C10.0398 4.38779 9.66442 4.22955 9.26687 4.28761L9.26608 4.28818L2.66226 5.2355C2.46642 5.26414 2.31015 5.3356 2.18528 5.42632Z" fill="#5D646F" stroke="#5D646F" stroke-width="0.37461"/>
<rect x="7.3283" y="7.59049" width="3.5114" height="1.15881" rx="0.579404" transform="rotate(144 7.3283 7.59049)" fill="#5D646F" stroke="#5D646F" stroke-width="0.37461"/>
</svg>
