<svg width="75" height="75" viewBox="0 0 75 75" fill="none" xmlns="http://www.w3.org/2000/svg">
<path opacity="0.4" d="M28.1289 12.5C19.9414 12.5 13.2852 19.1563 13.2852 27.3438C13.2852 35.375 19.5664 41.875 27.7539 42.1562C28.0039 42.125 28.2539 42.125 28.4414 42.1562C28.5039 42.1562 28.5352 42.1562 28.5977 42.1562C28.6289 42.1562 28.6289 42.1562 28.6602 42.1562C36.6602 41.875 42.9414 35.375 42.9727 27.3438C42.9727 19.1563 36.3164 12.5 28.1289 12.5Z" fill="#A3A5A5"/>
<path d="M44 44.2188C35.2812 38.4062 21.0625 38.4062 12.2812 44.2188C8.3125 46.875 6.125 50.4687 6.125 54.3125C6.125 58.1562 8.3125 61.7188 12.25 64.3438C16.625 67.2813 22.375 68.75 28.125 68.75C33.875 68.75 39.625 67.2813 44 64.3438C47.9375 61.6875 50.125 58.125 50.125 54.25C50.0938 50.4063 47.9375 46.8438 44 44.2188Z" fill="#A3A5A5"/>
<path opacity="0.4" d="M62.4657 29.5967C62.9657 35.6592 58.6532 40.9717 52.6845 41.6905C52.6532 41.6905 52.6532 41.6905 52.622 41.6905H52.5282C52.3407 41.6905 52.1532 41.6905 51.997 41.753C48.9657 41.9092 41.3557 41.607 44.0907 39.1592C47.3095 36.2842 49.1532 31.9717 48.7782 27.2842C48.5595 24.753 47.6845 22.4405 46.372 20.4717C47.5595 19.878 48.9345 19.503 50.3407 19.378C56.4657 18.8467 61.9345 23.4092 62.4657 29.5967Z" fill="#A3A5A5"/>
<path d="M68.5664 52.1262C68.3164 55.1575 66.3789 57.7825 63.1289 59.5637C60.0039 61.2825 56.0664 62.095 52.1602 62.0012C54.4102 59.97 55.7227 57.4387 55.9727 54.7512C56.2852 50.8762 54.4414 47.1575 50.7539 44.1887C48.6602 42.5325 45.312 42.188 43.5664 40.2512C50.4727 38.2512 59.1602 39.595 64.5039 43.9075C67.3789 46.22 68.8477 49.1262 68.5664 52.1262Z" fill="#A3A5A5"/>
</svg>
