<svg width="75" height="65" viewBox="0 0 75 65" fill="none" xmlns="http://www.w3.org/2000/svg">
<path d="M0 32.25C0 14.5769 14.3269 0.25 32 0.25C49.6731 0.25 64 14.5769 64 32.25C64 49.9231 49.6731 64.25 32 64.25C14.3269 64.25 0 49.9231 0 32.25Z" fill="#EBEBEB"/>
<g clip-path="url(#clip0_2275_21976)">
<ellipse cx="31.9984" cy="62.6531" rx="25.6" ry="19.2" fill="white" fill-opacity="0.72"/>
<circle opacity="0.9" cx="31.9992" cy="25.8469" r="12.8" fill="white"/>
</g>
<g filter="url(#filter0_d_2275_21976)">
<circle cx="58" cy="14.25" r="12.25" fill="white"/>
<circle cx="58" cy="14.25" r="10.5" fill="#7B7B7B"/>
<path fill-rule="evenodd" clip-rule="evenodd" d="M58.825 13.425L63.25 13.425L63.25 15.075H58.825V19.5H57.175V15.075H52.75L52.75 13.425H57.175V9L58.825 9V13.425Z" fill="white"/>
</g>
<defs>
<filter id="filter0_d_2275_21976" x="40" y="-1.75" width="36" height="36" filterUnits="userSpaceOnUse" color-interpolation-filters="sRGB">
<feFlood flood-opacity="0" result="BackgroundImageFix"/>
<feColorMatrix in="SourceAlpha" type="matrix" values="0 0 0 0 0 0 0 0 0 0 0 0 0 0 0 0 0 0 127 0" result="hardAlpha"/>
<feOffset dy="2"/>
<feGaussianBlur stdDeviation="2"/>
<feColorMatrix type="matrix" values="0 0 0 0 0.105882 0 0 0 0 0.109804 0 0 0 0 0.113725 0 0 0 0.04 0"/>
<feBlend mode="normal" in2="BackgroundImageFix" result="effect1_dropShadow_2275_21976"/>
<feBlend mode="normal" in="SourceGraphic" in2="effect1_dropShadow_2275_21976" result="shape"/>
</filter>
<clipPath id="clip0_2275_21976">
<rect y="0.25" width="64" height="64" rx="32" fill="white"/>
</clipPath>
</defs>
</svg>
