<svg width="20" height="20" viewBox="0 0 20 20" fill="none" xmlns="http://www.w3.org/2000/svg">
<path d="M9.9998 18.9588C9.4998 18.9588 9.00814 18.8421 8.60814 18.6171L4.66647 16.3421C3.03314 15.2421 2.9248 15.0421 2.9248 13.3171V9.18379C2.9248 7.45879 3.03314 7.25879 4.63314 6.18379L8.61647 3.88379C9.40814 3.42546 10.5998 3.42546 11.3915 3.88379L15.3331 6.15879C16.9665 7.25879 17.0748 7.45879 17.0748 9.18379V13.3171C17.0748 15.0421 16.9665 15.2421 15.3665 16.3171L11.3831 18.6171C10.9915 18.8505 10.4915 18.9588 9.9998 18.9588ZM9.9998 4.79212C9.71647 4.79212 9.43314 4.85046 9.23314 4.96712L5.29147 7.24212C4.1748 8.00046 4.1748 8.00046 4.1748 9.18379V13.3171C4.1748 14.5005 4.1748 14.5005 5.33314 15.2838L9.24147 17.5338C9.64147 17.7671 10.3665 17.7671 10.7665 17.5338L14.7081 15.2588C15.8248 14.5005 15.8248 14.5005 15.8248 13.3171V9.18379C15.8248 8.00046 15.8248 8.00046 14.6665 7.21712L10.7581 4.96712C10.5665 4.85046 10.2831 4.79212 9.9998 4.79212Z" fill="#AA5C00"/>
<path d="M14.5832 6.98366C14.2415 6.98366 13.9582 6.70033 13.9582 6.35866V4.16699C13.9582 2.85033 13.3998 2.29199 12.0832 2.29199H7.9165C6.59984 2.29199 6.0415 2.85033 6.0415 4.16699V6.30033C6.0415 6.64199 5.75817 6.92533 5.4165 6.92533C5.07484 6.92533 4.7915 6.65033 4.7915 6.30033V4.16699C4.7915 2.15033 5.89984 1.04199 7.9165 1.04199H12.0832C14.0998 1.04199 15.2082 2.15033 15.2082 4.16699V6.35866C15.2082 6.70033 14.9248 6.98366 14.5832 6.98366Z" fill="#AA5C00"/>
<path d="M11.3584 14.6913C11.1834 14.6913 11 14.6579 10.8167 14.5829L10 14.2663L9.18337 14.5913C8.7417 14.7663 8.2917 14.7246 7.95837 14.4829C7.62504 14.2413 7.45004 13.8246 7.47504 13.3496L7.52503 12.4746L6.9667 11.7996C6.6667 11.4246 6.5667 10.9913 6.70004 10.5913C6.82504 10.1996 7.1667 9.89961 7.62503 9.78294L8.47504 9.56628L8.95004 8.82461C9.45837 8.02461 10.55 8.02461 11.0584 8.82461L11.5334 9.56628L12.3834 9.78294C12.8417 9.89961 13.1834 10.1996 13.3084 10.5913C13.4334 10.9829 13.3334 11.4246 13.0334 11.7913L12.475 12.4663L12.525 13.3413C12.55 13.8163 12.375 14.2246 12.0417 14.4746C11.8417 14.6163 11.6084 14.6913 11.3584 14.6913ZM7.93337 10.9996L8.4917 11.6746C8.68337 11.8996 8.7917 12.2579 8.77504 12.5496L8.72504 13.4246L9.5417 13.0996C9.8167 12.9913 10.1834 12.9913 10.4584 13.0996L11.275 13.4246L11.225 12.5496C11.2084 12.2579 11.3167 11.9079 11.5084 11.6746L12.0667 10.9996L11.2167 10.7829C10.9334 10.7079 10.6334 10.4913 10.475 10.2496L10.0084 9.51628L9.53337 10.2496C9.37503 10.4996 9.07504 10.7163 8.7917 10.7913L7.93337 10.9996Z" fill="#AA5C00"/>
</svg>
