<svg width="30" height="30" viewBox="0 0 30 30" fill="none" xmlns="http://www.w3.org/2000/svg">
<circle cx="14.6008" cy="14.6008" r="14.6008" fill="#D8D8DD"/>
<path d="M18.8262 19.1543C18.1682 19.7965 17.2156 19.9407 16.3984 19.5088L10.8584 16.5928H10.8594C10.1728 16.2336 9.74512 15.5258 9.74512 14.75C9.74515 13.9743 10.1729 13.2674 10.8594 12.9082L16.3984 9.99316L16.3975 9.99219C16.7129 9.82399 17.0458 9.74417 17.3789 9.74414C17.9097 9.74414 18.4223 9.95235 18.8262 10.3457C19.4851 10.9889 19.6443 11.9416 19.2334 12.7637L18.459 14.3125C18.3246 14.5812 18.3239 14.9076 18.459 15.1826L19.2334 16.7363C19.6444 17.5584 19.4852 18.5111 18.8262 19.1543ZM17.374 18.6445C17.6419 18.6445 17.8816 18.5194 18.0488 18.3564L18.0498 18.3555C18.2991 18.1142 18.4699 17.6929 18.2393 17.2275L17.4658 15.6797L17.4648 15.6787C17.1748 15.0931 17.1747 14.402 17.4648 13.8164L17.4658 13.8154L18.2402 12.2676V12.2666C18.474 11.8029 18.3003 11.382 18.0498 11.1396C17.7974 10.8954 17.3764 10.7304 16.917 10.9717L11.377 13.8877C11.0498 14.0593 10.8565 14.3791 10.8564 14.7451C10.8564 15.1112 11.0497 15.4309 11.377 15.6025V15.6035L16.917 18.5283V18.5293C17.078 18.6136 17.2326 18.6445 17.374 18.6445Z" fill="#8E8E90" stroke="#8E8E90" stroke-width="0.394617"/>
<rect x="14.6464" y="14.1621" width="3.34009" height="1.13098" rx="0.565492" fill="#919091" stroke="#8E8E90" stroke-width="0.394617"/>
</svg>
