<svg width="20" height="20" viewBox="0 0 20 20" fill="none" xmlns="http://www.w3.org/2000/svg">
<path d="M17.4993 9.79178H2.49935C1.69935 9.79178 1.04102 9.13345 1.04102 8.33345V5.56677C1.04102 5.00011 1.43266 4.42511 1.95766 4.21678L9.45766 1.2168C9.77433 1.0918 10.2244 1.0918 10.541 1.2168L18.041 4.21678C18.566 4.42511 18.9577 5.00844 18.9577 5.56677V8.33345C18.9577 9.13345 18.2993 9.79178 17.4993 9.79178ZM9.99935 2.3668C9.96602 2.3668 9.9327 2.36676 9.91604 2.37509L2.42433 5.37512C2.37433 5.40012 2.29102 5.50844 2.29102 5.56677V8.33345C2.29102 8.45011 2.38268 8.54178 2.49935 8.54178H17.4993C17.616 8.54178 17.7077 8.45011 17.7077 8.33345V5.56677C17.7077 5.50844 17.6327 5.40012 17.5744 5.37512L10.0744 2.37509C10.0577 2.36676 10.0327 2.3668 9.99935 2.3668Z" fill="#2A2D32"/>
<path d="M18.3327 18.9583H1.66602C1.32435 18.9583 1.04102 18.675 1.04102 18.3333V15.8333C1.04102 15.0333 1.69935 14.375 2.49935 14.375H17.4993C18.2993 14.375 18.9577 15.0333 18.9577 15.8333V18.3333C18.9577 18.675 18.6743 18.9583 18.3327 18.9583ZM2.29102 17.7083H17.7077V15.8333C17.7077 15.7167 17.616 15.625 17.4993 15.625H2.49935C2.38268 15.625 2.29102 15.7167 2.29102 15.8333V17.7083Z" fill="#2A2D32"/>
<path d="M3.33398 15.6251C2.99232 15.6251 2.70898 15.3417 2.70898 15.0001V9.16675C2.70898 8.82508 2.99232 8.54175 3.33398 8.54175C3.67565 8.54175 3.95898 8.82508 3.95898 9.16675V15.0001C3.95898 15.3417 3.67565 15.6251 3.33398 15.6251Z" fill="#2A2D32"/>
<path d="M6.66602 15.6251C6.32435 15.6251 6.04102 15.3417 6.04102 15.0001V9.16675C6.04102 8.82508 6.32435 8.54175 6.66602 8.54175C7.00768 8.54175 7.29102 8.82508 7.29102 9.16675V15.0001C7.29102 15.3417 7.00768 15.6251 6.66602 15.6251Z" fill="#2A2D32"/>
<path d="M10 15.6251C9.65833 15.6251 9.375 15.3417 9.375 15.0001V9.16675C9.375 8.82508 9.65833 8.54175 10 8.54175C10.3417 8.54175 10.625 8.82508 10.625 9.16675V15.0001C10.625 15.3417 10.3417 15.6251 10 15.6251Z" fill="#2A2D32"/>
<path d="M13.334 15.6251C12.9923 15.6251 12.709 15.3417 12.709 15.0001V9.16675C12.709 8.82508 12.9923 8.54175 13.334 8.54175C13.6757 8.54175 13.959 8.82508 13.959 9.16675V15.0001C13.959 15.3417 13.6757 15.6251 13.334 15.6251Z" fill="#2A2D32"/>
<path d="M16.666 15.6251C16.3243 15.6251 16.041 15.3417 16.041 15.0001V9.16675C16.041 8.82508 16.3243 8.54175 16.666 8.54175C17.0077 8.54175 17.291 8.82508 17.291 9.16675V15.0001C17.291 15.3417 17.0077 15.6251 16.666 15.6251Z" fill="#2A2D32"/>
<path d="M19.1673 18.9583H0.833984C0.492318 18.9583 0.208984 18.6749 0.208984 18.3333C0.208984 17.9916 0.492318 17.7083 0.833984 17.7083H19.1673C19.509 17.7083 19.7923 17.9916 19.7923 18.3333C19.7923 18.6749 19.509 18.9583 19.1673 18.9583Z" fill="#2A2D32"/>
<path d="M10 7.70825C8.96667 7.70825 8.125 6.86659 8.125 5.83325C8.125 4.79992 8.96667 3.95825 10 3.95825C11.0333 3.95825 11.875 4.79992 11.875 5.83325C11.875 6.86659 11.0333 7.70825 10 7.70825ZM10 5.20825C9.65833 5.20825 9.375 5.49159 9.375 5.83325C9.375 6.17492 9.65833 6.45825 10 6.45825C10.3417 6.45825 10.625 6.17492 10.625 5.83325C10.625 5.49159 10.3417 5.20825 10 5.20825Z" fill="#2A2D32"/>
</svg>
