<svg width="18" height="18" viewBox="0 0 18 18" fill="none" xmlns="http://www.w3.org/2000/svg">
<g clip-path="url(#clip0_44_1498)">
<path d="M9.16044 17.0357C9.16044 16.9286 9.10686 16.875 8.99972 16.875C8.60463 16.875 8.26479 16.7327 7.98019 16.4481C7.69559 16.1635 7.55329 15.8237 7.55329 15.4286C7.55329 15.3214 7.49972 15.2679 7.39258 15.2679C7.28544 15.2679 7.23186 15.3214 7.23186 15.4286C7.23186 15.9174 7.4043 16.3343 7.74916 16.6791C8.09403 17.024 8.51088 17.1964 8.99972 17.1964C9.10686 17.1964 9.16044 17.1429 9.16044 17.0357ZM2.4707 14.1429H15.5287C13.7475 12.1339 12.8569 9.34821 12.8569 5.78571C12.8569 5.4442 12.7765 5.09263 12.6158 4.73103C12.4551 4.36942 12.2241 4.02455 11.9227 3.69643C11.6214 3.3683 11.2146 3.09877 10.7023 2.88783C10.19 2.6769 9.62249 2.57143 8.99972 2.57143C8.37695 2.57143 7.80943 2.6769 7.29715 2.88783C6.78488 3.09877 6.37807 3.3683 6.07673 3.69643C5.77539 4.02455 5.54436 4.36942 5.38365 4.73103C5.22294 5.09263 5.14258 5.4442 5.14258 5.78571C5.14258 9.34821 4.25195 12.1339 2.4707 14.1429ZM17.3569 14.1429C17.3569 14.4911 17.2296 14.7924 16.9752 15.0469C16.7207 15.3013 16.4194 15.4286 16.0712 15.4286H11.5712C11.5712 16.1384 11.32 16.7444 10.8178 17.2467C10.3156 17.7489 9.70954 18 8.99972 18C8.2899 18 7.68387 17.7489 7.18164 17.2467C6.67941 16.7444 6.42829 16.1384 6.42829 15.4286H1.92829C1.58008 15.4286 1.27874 15.3013 1.02427 15.0469C0.76981 14.7924 0.642578 14.4911 0.642578 14.1429C0.9774 13.8616 1.28209 13.567 1.55664 13.2589C1.83119 12.9509 2.11579 12.5508 2.41044 12.0586C2.70508 11.5664 2.95452 11.0357 3.15876 10.4665C3.363 9.89732 3.53041 9.20759 3.66099 8.39732C3.79157 7.58705 3.85686 6.71652 3.85686 5.78571C3.85686 4.76786 4.24861 3.82199 5.03209 2.9481C5.81557 2.07422 6.84347 1.54353 8.11579 1.35603C8.06222 1.22879 8.03544 1.09821 8.03544 0.964286C8.03544 0.696429 8.12919 0.46875 8.31669 0.28125C8.50419 0.09375 8.73186 0 8.99972 0C9.26758 0 9.49526 0.09375 9.68276 0.28125C9.87026 0.46875 9.96401 0.696429 9.96401 0.964286C9.96401 1.09821 9.93722 1.22879 9.88365 1.35603C11.156 1.54353 12.1839 2.07422 12.9674 2.9481C13.7508 3.82199 14.1426 4.76786 14.1426 5.78571C14.1426 6.71652 14.2079 7.58705 14.3384 8.39732C14.469 9.20759 14.6364 9.89732 14.8407 10.4665C15.0449 11.0357 15.2944 11.5664 15.589 12.0586C15.8837 12.5508 16.1682 12.9509 16.4428 13.2589C16.7174 13.567 17.022 13.8616 17.3569 14.1429Z" fill="#AA5C00"/>
</g>
<defs>
<clipPath id="clip0_44_1498">
<rect width="18" height="18" fill="white"/>
</clipPath>
</defs>
</svg>
