<svg width="18" height="20" viewBox="0 0 18 20" fill="none" xmlns="http://www.w3.org/2000/svg">
<path d="M13.0599 7.48111C13.5652 6.23091 13.2508 3.72656 12.4519 2.63873C12.4519 2.63873 11.4791 1.52536 10.6284 1.22636C10.1007 1.04092 9.21002 1.02459 9.21002 1.02459C9.21002 1.02459 8.46126 0.939185 7.9943 1.02459C7.0867 1.19059 6.62061 1.58543 5.9681 2.23519C5.31559 2.88495 4.9915 3.36535 4.75238 4.25286C4.52683 5.09 4.4941 5.6446 4.75238 6.4723C4.97389 7.18217 5.76548 8.08644 5.76548 8.08644C5.76548 8.08644 6.42583 8.74886 6.57596 9.29704C6.7261 9.84522 6.6048 10.0948 6.37342 10.5076C6.18059 10.8516 5.76548 11.1129 5.76548 11.1129C5.76548 11.1129 5.04599 11.6395 4.54976 11.92C3.87201 12.3031 3.40393 12.344 2.72618 12.7271C2.72618 12.7271 1.86078 13.0856 1.51046 13.5341C1.2932 13.8123 1.2043 14.0029 1.10522 14.3412C0.950129 14.8707 0.943947 15.2259 1.10522 15.7536C1.23956 16.1931 1.37881 16.4457 1.71308 16.7624C2.14966 17.1761 3.1315 17.5695 3.1315 17.5695C3.1315 17.5695 3.82897 17.8584 4.34714 17.973C6.1708 18.3765 9.41264 18.1748 9.41264 18.1748" stroke="#A9AAAA" stroke-width="1.97313"/>
<rect x="-0.262457" y="-0.34634" width="1.28466" height="0.614899" rx="0.30745" transform="matrix(-0.990719 -0.13593 0.13706 -0.990563 13.4842 7.42561)" fill="#A9AAAA" stroke="#A9AAAA" stroke-width="0.614899"/>
<rect x="-0.267204" y="0.302778" width="1.2872" height="0.571241" rx="0.28562" transform="matrix(0.0625521 0.998042 -0.998074 0.0620286 9.94843 17.7639)" fill="#A9AAAA" stroke="#A9AAAA" stroke-width="0.571241"/>
<path d="M13.0599 7.48111C13.5652 6.23091 13.2508 3.72656 12.4519 2.63873C12.4519 2.63873 11.4791 1.52536 10.6284 1.22636C10.1007 1.04092 9.21002 1.02459 9.21002 1.02459C9.21002 1.02459 8.46126 0.939185 7.9943 1.02459C7.0867 1.19059 6.62061 1.58543 5.9681 2.23519C5.31559 2.88495 4.9915 3.36535 4.75238 4.25286C4.52683 5.09 4.4941 5.6446 4.75238 6.4723C4.97389 7.18217 5.76548 8.08644 5.76548 8.08644C5.76548 8.08644 6.42583 8.74886 6.57596 9.29704C6.7261 9.84522 6.6048 10.0948 6.37342 10.5076C6.18059 10.8516 5.76548 11.1129 5.76548 11.1129C5.76548 11.1129 5.04599 11.6395 4.54976 11.92C3.87201 12.3031 3.40393 12.344 2.72618 12.7271C2.72618 12.7271 1.86078 13.0856 1.51046 13.5341C1.2932 13.8123 1.2043 14.0029 1.10522 14.3412C0.950129 14.8707 0.943947 15.2259 1.10522 15.7536C1.23956 16.1931 1.37881 16.4457 1.71308 16.7624C2.14966 17.1761 3.1315 17.5695 3.1315 17.5695C3.1315 17.5695 3.82897 17.8584 4.34714 17.973C6.1708 18.3765 9.41264 18.1748 9.41264 18.1748" stroke="#A9AAAA" stroke-width="1.97313"/>
<rect x="-0.262457" y="-0.34634" width="1.28466" height="0.614899" rx="0.30745" transform="matrix(-0.990719 -0.13593 0.13706 -0.990563 13.4842 7.42561)" fill="#A9AAAA" stroke="#A9AAAA" stroke-width="0.614899"/>
<rect x="-0.267204" y="0.302778" width="1.2872" height="0.571241" rx="0.28562" transform="matrix(0.0625521 0.998042 -0.998074 0.0620286 9.94843 17.7639)" fill="#A9AAAA" stroke="#A9AAAA" stroke-width="0.571241"/>
<path d="M15.8333 12.0296C16.0916 11.7715 16.5105 11.7715 16.7688 12.0296C17.0271 12.2879 17.0269 12.7068 16.7688 12.9651L14.9377 14.7952L16.7688 16.6263C17.0271 16.8847 17.0271 17.3035 16.7688 17.5618C16.5104 17.8202 16.0916 17.8201 15.8333 17.5618L14.0022 15.7308L12.1721 17.5618C11.9137 17.8199 11.4949 17.8201 11.2366 17.5618C10.9785 17.3035 10.9785 16.8846 11.2366 16.6263L13.0667 14.7952L11.2366 12.9661C10.9782 12.7078 10.9782 12.288 11.2366 12.0296C11.4948 11.7714 11.9137 11.7717 12.1721 12.0296L14.0022 13.8597L15.8333 12.0296Z" fill="#A9AAAA" stroke="#A9AAAA" stroke-width="0.394627"/>
</svg>
