<svg width="20" height="20" viewBox="0 0 20 20" fill="none" xmlns="http://www.w3.org/2000/svg">
<path d="M12.5003 18.9557H7.50033C2.97533 18.9557 1.04199 17.0224 1.04199 12.4974V7.4974C1.04199 2.9724 2.97533 1.03906 7.50033 1.03906H12.5003C17.0253 1.03906 18.9587 2.9724 18.9587 7.4974V12.4974C18.9587 17.0224 17.0253 18.9557 12.5003 18.9557ZM7.50033 2.28906C3.65866 2.28906 2.29199 3.65573 2.29199 7.4974V12.4974C2.29199 16.3391 3.65866 17.7057 7.50033 17.7057H12.5003C16.342 17.7057 17.7087 16.3391 17.7087 12.4974V7.4974C17.7087 3.65573 16.342 2.28906 12.5003 2.28906H7.50033Z" fill="#A9AAAA"/>
<path d="M7.23301 12.7729C6.88301 12.7729 6.55801 12.6896 6.27467 12.5312C5.58301 12.1396 5.20801 11.3646 5.20801 10.3479V2.03125C5.20801 1.68958 5.49134 1.40625 5.83301 1.40625C6.17467 1.40625 6.45801 1.68958 6.45801 2.03125V10.3479C6.45801 10.8896 6.61634 11.2896 6.89134 11.4396C7.18301 11.6062 7.63301 11.5229 8.12467 11.2312L9.22467 10.5729C9.67467 10.3062 10.3163 10.3062 10.7663 10.5729L11.8663 11.2312C12.3663 11.5312 12.8163 11.6062 13.0997 11.4396C13.3747 11.2812 13.533 10.8812 13.533 10.3479V2.03125C13.533 1.68958 13.8163 1.40625 14.158 1.40625C14.4997 1.40625 14.783 1.68958 14.783 2.03125V10.3479C14.783 11.3646 14.408 12.1396 13.7163 12.5312C13.0247 12.9229 12.1163 12.8396 11.2247 12.3062L10.1247 11.6479C10.0747 11.6146 9.91634 11.6146 9.86634 11.6479L8.76634 12.3062C8.24967 12.6146 7.71634 12.7729 7.23301 12.7729Z" fill="#A9AAAA"/>
<path d="M12.5003 18.9557H7.50033C2.97533 18.9557 1.04199 17.0224 1.04199 12.4974V7.4974C1.04199 2.9724 2.97533 1.03906 7.50033 1.03906H12.5003C17.0253 1.03906 18.9587 2.9724 18.9587 7.4974V12.4974C18.9587 17.0224 17.0253 18.9557 12.5003 18.9557ZM7.50033 2.28906C3.65866 2.28906 2.29199 3.65573 2.29199 7.4974V12.4974C2.29199 16.3391 3.65866 17.7057 7.50033 17.7057H12.5003C16.342 17.7057 17.7087 16.3391 17.7087 12.4974V7.4974C17.7087 3.65573 16.342 2.28906 12.5003 2.28906H7.50033Z" fill="#A9AAAA"/>
<path d="M7.23301 12.7729C6.88301 12.7729 6.55801 12.6896 6.27467 12.5312C5.58301 12.1396 5.20801 11.3646 5.20801 10.3479V2.03125C5.20801 1.68958 5.49134 1.40625 5.83301 1.40625C6.17467 1.40625 6.45801 1.68958 6.45801 2.03125V10.3479C6.45801 10.8896 6.61634 11.2896 6.89134 11.4396C7.18301 11.6062 7.63301 11.5229 8.12467 11.2312L9.22467 10.5729C9.67467 10.3062 10.3163 10.3062 10.7663 10.5729L11.8663 11.2312C12.3663 11.5312 12.8163 11.6062 13.0997 11.4396C13.3747 11.2812 13.533 10.8812 13.533 10.3479V2.03125C13.533 1.68958 13.8163 1.40625 14.158 1.40625C14.4997 1.40625 14.783 1.68958 14.783 2.03125V10.3479C14.783 11.3646 14.408 12.1396 13.7163 12.5312C13.0247 12.9229 12.1163 12.8396 11.2247 12.3062L10.1247 11.6479C10.0747 11.6146 9.91634 11.6146 9.86634 11.6479L8.76634 12.3062C8.24967 12.6146 7.71634 12.7729 7.23301 12.7729Z" fill="#A9AAAA"/>
</svg>
