<svg width="20" height="20" viewBox="0 0 20 20" fill="none" xmlns="http://www.w3.org/2000/svg">
<path d="M9.99979 11.0814C9.89146 11.0814 9.78312 11.0564 9.68312 10.9981L2.3248 6.73979C2.0248 6.56479 1.92478 6.18144 2.09978 5.88144C2.27478 5.58144 2.64978 5.48142 2.95811 5.65642L9.99979 9.73143L16.9998 5.68144C17.2998 5.50644 17.6831 5.61479 17.8581 5.90646C18.0331 6.20646 17.9248 6.58977 17.6331 6.76477L10.3248 10.9981C10.2165 11.0481 10.1081 11.0814 9.99979 11.0814Z" fill="#A9AAAA"/>
<path d="M10 18.6365C9.65833 18.6365 9.375 18.3531 9.375 18.0115V10.4531C9.375 10.1115 9.65833 9.82812 10 9.82812C10.3417 9.82812 10.625 10.1115 10.625 10.4531V18.0115C10.625 18.3531 10.3417 18.6365 10 18.6365Z" fill="#A9AAAA"/>
<path d="M10.0001 18.9563C9.26673 18.9563 8.53339 18.7979 7.96672 18.4729L3.51673 16.0063C2.3084 15.3396 1.3584 13.7313 1.3584 12.3479V7.63123C1.3584 6.2479 2.3084 4.64793 3.51673 3.97293L7.96672 1.50625C9.10006 0.872917 10.8834 0.872917 12.0251 1.50625L16.475 3.97293C17.6834 4.6396 18.6334 6.2479 18.6334 7.63123V12.3479C18.6334 12.4063 18.6334 12.4896 18.6084 12.5979C18.5584 12.8146 18.4 12.9896 18.1917 13.0562C17.9834 13.1229 17.7501 13.0813 17.5834 12.9313C16.6334 12.0979 15.1501 12.0646 14.1334 12.8729C13.4917 13.3813 13.1167 14.1562 13.1167 14.9812C13.1167 15.4729 13.2501 15.9563 13.5084 16.3729C13.5751 16.4896 13.6417 16.5813 13.7167 16.6646C13.8417 16.8063 13.8917 16.9979 13.8584 17.1812C13.8251 17.3646 13.7084 17.5313 13.5417 17.6146L12.0167 18.4563C11.4584 18.7979 10.7334 18.9563 10.0001 18.9563ZM10.0001 2.28959C9.48339 2.28959 8.95838 2.39792 8.58338 2.60626L4.13339 5.07294C3.32505 5.52294 2.62506 6.71456 2.62506 7.63123V12.3479C2.62506 13.2646 3.33339 14.4646 4.13339 14.9063L8.58338 17.3729C9.34172 17.7979 10.6667 17.7979 11.4251 17.3729L12.3584 16.8562C12.05 16.2979 11.8834 15.6479 11.8834 14.9812C11.8834 13.7646 12.4251 12.6396 13.3667 11.8896C14.5084 10.9813 16.1251 10.7896 17.3917 11.3396V7.62294C17.3917 6.70627 16.6834 5.50627 15.8834 5.0646L11.4334 2.59791C11.0417 2.39791 10.5167 2.28959 10.0001 2.28959Z" fill="#A9AAAA"/>
<path d="M15.8333 18.9557C13.65 18.9557 11.875 17.1807 11.875 14.9974C11.875 13.7807 12.4167 12.6557 13.3583 11.9057C14.0583 11.3474 14.9417 11.0391 15.8333 11.0391C18.0167 11.0391 19.7917 12.8141 19.7917 14.9974C19.7917 16.1307 19.3 17.2141 18.4417 17.9641C17.7167 18.6057 16.7917 18.9557 15.8333 18.9557ZM15.8333 12.2891C15.2167 12.2891 14.6333 12.4974 14.1417 12.889C13.5 13.3974 13.125 14.1724 13.125 14.9974C13.125 16.4891 14.3417 17.7057 15.8333 17.7057C16.4833 17.7057 17.1167 17.4641 17.625 17.0307C18.2083 16.5141 18.5417 15.7807 18.5417 14.9974C18.5417 13.5057 17.325 12.2891 15.8333 12.2891Z" fill="#A9AAAA"/>
<path d="M14.9996 16.4609C14.7913 16.4609 14.5829 16.3526 14.4662 16.161C14.2912 15.861 14.3829 15.4776 14.6829 15.3026L15.4246 14.861V13.9609C15.4246 13.6193 15.7079 13.3359 16.0496 13.3359C16.3913 13.3359 16.6746 13.6193 16.6746 13.9609V15.2109C16.6746 15.4276 16.5579 15.636 16.3746 15.7443L15.3329 16.3693C15.2162 16.436 15.1079 16.4609 14.9996 16.4609Z" fill="#A9AAAA"/>
</svg>
