<svg width="20" height="20" viewBox="0 0 20 20" fill="none" xmlns="http://www.w3.org/2000/svg">
<path d="M9.99979 11.0814C9.89145 11.0814 9.78312 11.0564 9.68312 10.9981L2.3248 6.73979C2.0248 6.56479 1.92478 6.18144 2.09978 5.88144C2.27478 5.58144 2.65813 5.48142 2.9498 5.65642L9.99145 9.73143L16.9915 5.68144C17.2915 5.50644 17.6748 5.61479 17.8415 5.90646C18.0165 6.20646 17.9081 6.58977 17.6165 6.76477L10.3081 10.9981C10.2165 11.0481 10.1081 11.0814 9.99979 11.0814Z" fill="#A9AAAA"/>
<path d="M10 18.6365C9.65833 18.6365 9.375 18.3531 9.375 18.0115V10.4531C9.375 10.1115 9.65833 9.82812 10 9.82812C10.3417 9.82812 10.625 10.1115 10.625 10.4531V18.0115C10.625 18.3531 10.3417 18.6365 10 18.6365Z" fill="#A9AAAA"/>
<path d="M10.0001 18.9547C9.26673 18.9547 8.53339 18.7963 7.96672 18.4713L3.51673 16.0047C2.3084 15.338 1.3584 13.7297 1.3584 12.3464V7.62967C1.3584 6.24633 2.3084 4.64637 3.51673 3.97137L7.96672 1.50469C9.10006 0.863021 10.8834 0.863021 12.0251 1.50469L16.475 3.97137C17.6834 4.63804 18.6334 6.24633 18.6334 7.62967V12.3464C18.6334 12.4297 18.6334 12.4963 18.6167 12.5797C18.5751 12.7963 18.4167 12.9797 18.2084 13.0463C18.0001 13.1213 17.7667 13.0714 17.5917 12.9297C16.6334 12.0964 15.1501 12.063 14.1417 12.8714C13.5001 13.3797 13.1251 14.1547 13.1251 14.9797C13.1251 15.4713 13.2584 15.9547 13.5167 16.3714C13.5834 16.488 13.6501 16.5797 13.7251 16.6714C13.8501 16.813 13.9001 17.0047 13.8667 17.188C13.8334 17.3714 13.7167 17.5297 13.5501 17.6214L12.0251 18.463C11.4584 18.7963 10.7334 18.9547 10.0001 18.9547ZM10.0001 2.28802C9.48339 2.28802 8.95838 2.39636 8.58338 2.60469L4.13339 5.07138C3.32505 5.51304 2.62506 6.713 2.62506 7.62967V12.3464C2.62506 13.263 3.33339 14.463 4.13339 14.9047L8.58338 17.3713C9.34172 17.7963 10.6667 17.7963 11.4251 17.3713L12.3584 16.8547C12.05 16.2963 11.8834 15.6463 11.8834 14.9797C11.8834 13.763 12.4251 12.638 13.3667 11.888C14.5001 10.9797 16.1251 10.788 17.3917 11.3297V7.61303C17.3917 6.69637 16.6834 5.49636 15.8834 5.0547L11.4334 2.58801C11.0417 2.39634 10.5167 2.28802 10.0001 2.28802Z" fill="#A9AAAA"/>
<path d="M15.8333 18.9557C14.45 18.9557 13.15 18.2224 12.45 17.0307C12.075 16.4307 11.875 15.7224 11.875 14.9974C11.875 13.7807 12.4167 12.6557 13.3583 11.9057C14.0583 11.3474 14.9417 11.0391 15.8333 11.0391C18.0167 11.0391 19.7917 12.8141 19.7917 14.9974C19.7917 15.7224 19.5917 16.4307 19.2167 17.0391C19.0167 17.3891 18.7417 17.7057 18.425 17.9724C17.7333 18.6057 16.8083 18.9557 15.8333 18.9557ZM15.8333 12.2891C15.2167 12.2891 14.6333 12.4974 14.1417 12.889C13.5 13.3974 13.125 14.1724 13.125 14.9974C13.125 15.4891 13.2583 15.9724 13.5167 16.389C14.0083 17.2224 14.875 17.7057 15.8333 17.7057C16.4917 17.7057 17.125 17.4641 17.6083 17.0307C17.825 16.8474 18.0083 16.6307 18.1417 16.3974C18.4083 15.9724 18.5417 15.4891 18.5417 14.9974C18.5417 13.5057 17.325 12.2891 15.8333 12.2891Z" fill="#A9AAAA"/>
<path d="M16.725 16.4906C16.5667 16.4906 16.4083 16.4323 16.2833 16.3073L14.525 14.549C14.2833 14.3073 14.2833 13.9073 14.525 13.6656C14.7667 13.424 15.1667 13.424 15.4083 13.6656L17.1667 15.4239C17.4083 15.6656 17.4083 16.0656 17.1667 16.3073C17.0417 16.4323 16.8833 16.4906 16.725 16.4906Z" fill="#A9AAAA"/>
<path d="M14.9413 16.5141C14.7829 16.5141 14.6246 16.4557 14.4996 16.3307C14.2579 16.089 14.2579 15.6891 14.4996 15.4474L16.258 13.6891C16.4996 13.4474 16.8996 13.4474 17.1413 13.6891C17.383 13.9307 17.383 14.3307 17.1413 14.5724L15.3829 16.3307C15.2579 16.4557 15.0996 16.5141 14.9413 16.5141Z" fill="#A9AAAA"/>
</svg>
