<svg width="20" height="20" viewBox="0 0 20 20" fill="none" xmlns="http://www.w3.org/2000/svg">
<path d="M15.8332 18.9559C14.4832 18.9559 13.2082 18.2559 12.4915 17.1059C12.1082 16.5142 11.8916 15.8058 11.8749 15.0808C11.8499 13.8642 12.3666 12.7309 13.2916 11.9642C13.9832 11.3892 14.8499 11.0642 15.7416 11.0392C16.8249 11.0309 17.7999 11.4059 18.5666 12.1392C19.3332 12.8725 19.7665 13.8559 19.7832 14.9142C19.7999 15.6392 19.6166 16.3475 19.2499 16.9725C19.0499 17.3225 18.7916 17.6475 18.4832 17.9225C17.7999 18.5642 16.8832 18.9392 15.9082 18.9559C15.8916 18.9559 15.8666 18.9559 15.8332 18.9559ZM15.8332 12.2892C15.8166 12.2892 15.7916 12.2892 15.7749 12.2892C15.1582 12.3059 14.5749 12.5225 14.0916 12.9225C13.4582 13.4475 13.1082 14.2225 13.1249 15.0559C13.1332 15.5475 13.2832 16.0308 13.5416 16.4392C14.0499 17.2558 14.9332 17.7559 15.8832 17.7059C16.5416 17.6892 17.1666 17.4392 17.6416 16.9976C17.8582 16.8059 18.0332 16.5892 18.1665 16.3559C18.4165 15.9225 18.5415 15.4392 18.5332 14.9475C18.5165 14.2225 18.2249 13.5475 17.6999 13.0475C17.1999 12.5558 16.5332 12.2892 15.8332 12.2892Z" fill="#A9AAAA"/>
<path d="M15.3751 16.4574C15.2167 16.4574 15.0667 16.3991 14.9417 16.2824L14.1001 15.4824C13.8501 15.2408 13.8417 14.8491 14.0834 14.5991C14.325 14.3491 14.7167 14.3408 14.9667 14.5824L15.3751 14.9741L16.6834 13.7074C16.9334 13.4658 17.325 13.4741 17.5667 13.7241C17.8084 13.9741 17.8001 14.3658 17.5501 14.6074L15.8084 16.2907C15.6834 16.3991 15.5251 16.4574 15.3751 16.4574Z" fill="#A9AAAA"/>
<path d="M9.99979 11.0814C9.89145 11.0814 9.78312 11.0564 9.68312 10.9981L2.3248 6.73979C2.0248 6.56479 1.92478 6.18144 2.09978 5.88144C2.27478 5.58144 2.65813 5.48142 2.9498 5.65642L9.99145 9.73143L16.9915 5.68144C17.2915 5.50644 17.6748 5.61479 17.8415 5.90646C18.0165 6.20646 17.9081 6.58977 17.6165 6.76477L10.3081 10.9981C10.2165 11.0481 10.1081 11.0814 9.99979 11.0814Z" fill="#A9AAAA"/>
<path d="M10 18.6365C9.65833 18.6365 9.375 18.3531 9.375 18.0115V10.4531C9.375 10.1115 9.65833 9.82812 10 9.82812C10.3417 9.82812 10.625 10.1115 10.625 10.4531V18.0115C10.625 18.3531 10.3417 18.6365 10 18.6365Z" fill="#A9AAAA"/>
<path d="M10.0001 18.9547C9.26673 18.9547 8.53339 18.7963 7.96672 18.4713L3.51673 16.0047C2.3084 15.338 1.3584 13.7297 1.3584 12.3464V7.62967C1.3584 6.24633 2.3084 4.64637 3.51673 3.97137L7.96672 1.50469C9.10006 0.863021 10.8834 0.863021 12.0251 1.50469L16.475 3.97137C17.6834 4.63804 18.6334 6.24633 18.6334 7.62967V12.3464C18.6334 12.4297 18.6334 12.4963 18.6167 12.5797C18.5751 12.7963 18.4167 12.9797 18.2084 13.0463C18.0001 13.1213 17.7667 13.0714 17.5917 12.9297C16.6334 12.0964 15.1501 12.063 14.1417 12.8714C13.5001 13.3797 13.1251 14.1547 13.1251 14.9797C13.1251 15.4713 13.2584 15.9547 13.5167 16.3714C13.5834 16.488 13.6501 16.5797 13.7251 16.6714C13.8501 16.813 13.9001 17.0047 13.8667 17.188C13.8334 17.3714 13.7167 17.5297 13.5501 17.6214L12.0251 18.463C11.4584 18.7963 10.7334 18.9547 10.0001 18.9547ZM10.0001 2.28802C9.48339 2.28802 8.95838 2.39636 8.58338 2.60469L4.13339 5.07138C3.32505 5.51304 2.62506 6.713 2.62506 7.62967V12.3464C2.62506 13.263 3.33339 14.463 4.13339 14.9047L8.58338 17.3713C9.34172 17.7963 10.6667 17.7963 11.4251 17.3713L12.3584 16.8547C12.05 16.2963 11.8834 15.6463 11.8834 14.9797C11.8834 13.763 12.4251 12.638 13.3667 11.888C14.5001 10.9797 16.1167 10.788 17.3917 11.3297V7.61303C17.3917 6.69637 16.6834 5.49636 15.8834 5.0547L11.4334 2.58801C11.0417 2.39634 10.5167 2.28802 10.0001 2.28802Z" fill="#A9AAAA"/>
</svg>
