<svg width="20" height="20" viewBox="0 0 20 20" fill="none" xmlns="http://www.w3.org/2000/svg">
<path d="M9.99991 11.0814C9.89157 11.0814 9.78324 11.0564 9.68324 10.9981L2.32491 6.73976C2.03324 6.56476 1.92491 6.18142 2.09991 5.88142C2.27491 5.58142 2.65824 5.48142 2.95824 5.65642L9.99991 9.73142L16.9999 5.68142C17.2999 5.50642 17.6832 5.61476 17.8582 5.90642C18.0332 6.20642 17.9249 6.58976 17.6332 6.76476L10.3249 10.9981C10.2166 11.0481 10.1082 11.0814 9.99991 11.0814Z" fill="#A2A5A6"/>
<path d="M10 18.6365C9.65833 18.6365 9.375 18.3531 9.375 18.0115V10.4531C9.375 10.1115 9.65833 9.82812 10 9.82812C10.3417 9.82812 10.625 10.1115 10.625 10.4531V18.0115C10.625 18.3531 10.3417 18.6365 10 18.6365Z" fill="#A2A5A6"/>
<path d="M9.99954 18.9557C9.26621 18.9557 8.54121 18.7974 7.96621 18.4807L3.51621 16.0057C2.30788 15.3391 1.36621 13.7307 1.36621 12.3474V7.63906C1.36621 6.25573 2.30788 4.65573 3.51621 3.98073L7.96621 1.51406C9.10788 0.880729 10.8912 0.880729 12.0329 1.51406L16.4829 3.98906C17.6912 4.65573 18.6329 6.26406 18.6329 7.6474V12.3557C18.6329 13.7391 17.6912 15.3391 16.4829 16.0141L12.0329 18.4807C11.4579 18.7974 10.7329 18.9557 9.99954 18.9557ZM9.99954 2.28906C9.47454 2.28906 8.95788 2.3974 8.57454 2.60573L4.12454 5.08073C3.32454 5.5224 2.61621 6.7224 2.61621 7.63906V12.3474C2.61621 13.2641 3.32454 14.4641 4.12454 14.9141L8.57454 17.3891C9.33288 17.8141 10.6662 17.8141 11.4245 17.3891L15.8745 14.9141C16.6745 14.4641 17.3829 13.2724 17.3829 12.3474V7.63906C17.3829 6.7224 16.6745 5.5224 15.8745 5.0724L11.4245 2.5974C11.0412 2.3974 10.5245 2.28906 9.99954 2.28906Z" fill="#A2A5A6"/>
</svg>
