<svg width="44" height="44" viewBox="0 0 44 44" fill="none" xmlns="http://www.w3.org/2000/svg">
<g filter="url(#filter0_d_1_50287)">
<path d="M2 21C2 9.95431 10.9543 1 22 1C33.0457 1 42 9.95431 42 21C42 32.0457 33.0457 41 22 41C10.9543 41 2 32.0457 2 21Z" fill="#E2E8FC"/>
<path d="M27.8334 29.9583C26.4834 29.9583 25.2084 29.2583 24.4917 28.1083C24.1084 27.5166 23.8917 26.8082 23.8751 26.0832C23.8501 24.8666 24.3668 23.7332 25.2918 22.9666C25.9834 22.3916 26.8501 22.0666 27.7418 22.0416C28.8251 22.0333 29.8001 22.4083 30.5667 23.1416C31.3334 23.8749 31.7667 24.8583 31.7834 25.9166C31.8001 26.6416 31.6167 27.3499 31.2501 27.9749C31.0501 28.3249 30.7917 28.6499 30.4834 28.9249C29.8001 29.5666 28.8834 29.9416 27.9084 29.9583C27.8917 29.9583 27.8667 29.9583 27.8334 29.9583ZM27.8334 23.2916C27.8167 23.2916 27.7917 23.2916 27.7751 23.2916C27.1584 23.3083 26.5751 23.5249 26.0917 23.9249C25.4584 24.4499 25.1084 25.2249 25.1251 26.0583C25.1334 26.5499 25.2834 27.0332 25.5417 27.4416C26.0501 28.2582 26.9334 28.7583 27.8834 28.7083C28.5417 28.6916 29.1668 28.4416 29.6418 27.9999C29.8584 27.8083 30.0334 27.5916 30.1667 27.3583C30.4167 26.9249 30.5417 26.4416 30.5334 25.9499C30.5167 25.2249 30.2251 24.5499 29.7001 24.0499C29.2001 23.5582 28.5334 23.2916 27.8334 23.2916Z" fill="#003BFF"/>
<path d="M27.3749 27.4583C27.2165 27.4583 27.0665 27.3999 26.9415 27.2833L26.0999 26.4833C25.8499 26.2416 25.8415 25.85 26.0832 25.6C26.3249 25.35 26.7165 25.3416 26.9665 25.5833L27.3749 25.9749L28.6832 24.7083C28.9332 24.4666 29.3249 24.4749 29.5665 24.7249C29.8082 24.9749 29.7999 25.3666 29.5499 25.6083L27.8082 27.2916C27.6832 27.3999 27.5249 27.4583 27.3749 27.4583Z" fill="#003BFF"/>
<path d="M21.9998 22.0832C21.8915 22.0832 21.7832 22.0582 21.6832 21.9999L14.3249 17.7416C14.0249 17.5666 13.9248 17.1832 14.0998 16.8832C14.2748 16.5832 14.6582 16.4832 14.9499 16.6582L21.9915 20.7332L28.9915 16.6832C29.2915 16.5082 29.6749 16.6166 29.8415 16.9082C30.0165 17.2082 29.9082 17.5916 29.6165 17.7666L22.3082 21.9999C22.2165 22.0499 22.1082 22.0832 21.9998 22.0832Z" fill="#003BFF"/>
<path d="M22 29.6332C21.6583 29.6332 21.375 29.3498 21.375 29.0082V21.4498C21.375 21.1082 21.6583 20.8248 22 20.8248C22.3417 20.8248 22.625 21.1082 22.625 21.4498V29.0082C22.625 29.3498 22.3417 29.6332 22 29.6332Z" fill="#003BFF"/>
<path d="M21.9999 29.9583C21.2665 29.9583 20.5332 29.7999 19.9665 29.4749L15.5165 27.0083C14.3082 26.3416 13.3582 24.7333 13.3582 23.3499V18.6333C13.3582 17.2499 14.3082 15.65 15.5165 14.975L19.9665 12.5083C21.0999 11.8666 22.8832 11.8666 24.0249 12.5083L28.4749 14.975C29.6832 15.6416 30.6332 17.2499 30.6332 18.6333V23.3499C30.6332 23.4333 30.6332 23.4999 30.6165 23.5833C30.5749 23.7999 30.4165 23.9833 30.2082 24.0499C29.9999 24.1249 29.7665 24.075 29.5915 23.9333C28.6332 23.1 27.1499 23.0666 26.1415 23.875C25.4999 24.3833 25.1249 25.1583 25.1249 25.9833C25.1249 26.4749 25.2582 26.9583 25.5165 27.375C25.5832 27.4916 25.6499 27.5833 25.7249 27.6749C25.8499 27.8166 25.8999 28.0083 25.8666 28.1916C25.8332 28.3749 25.7166 28.5333 25.5499 28.625L24.0249 29.4666C23.4582 29.7999 22.7332 29.9583 21.9999 29.9583ZM21.9999 13.2916C21.4832 13.2916 20.9582 13.3999 20.5832 13.6083L16.1332 16.075C15.3249 16.5166 14.6249 17.7166 14.6249 18.6333V23.3499C14.6249 24.2666 15.3332 25.4666 16.1332 25.9083L20.5832 28.3749C21.3415 28.7999 22.6665 28.7999 23.4249 28.3749L24.3582 27.8583C24.0499 27.2999 23.8832 26.6499 23.8832 25.9833C23.8832 24.7666 24.4249 23.6416 25.3666 22.8916C26.4999 21.9833 28.1165 21.7916 29.3915 22.3333V18.6166C29.3915 17.7 28.6832 16.4999 27.8832 16.0583L23.4332 13.5916C23.0415 13.3999 22.5165 13.2916 21.9999 13.2916Z" fill="#003BFF"/>
</g>
<defs>
<filter id="filter0_d_1_50287" x="0" y="0" width="44" height="44" filterUnits="userSpaceOnUse" color-interpolation-filters="sRGB">
<feFlood flood-opacity="0" result="BackgroundImageFix"/>
<feColorMatrix in="SourceAlpha" type="matrix" values="0 0 0 0 0 0 0 0 0 0 0 0 0 0 0 0 0 0 127 0" result="hardAlpha"/>
<feOffset dy="1"/>
<feGaussianBlur stdDeviation="1"/>
<feComposite in2="hardAlpha" operator="out"/>
<feColorMatrix type="matrix" values="0 0 0 0 0.0392157 0 0 0 0 0.0509804 0 0 0 0 0.0784314 0 0 0 0.03 0"/>
<feBlend mode="normal" in2="BackgroundImageFix" result="effect1_dropShadow_1_50287"/>
<feBlend mode="normal" in="SourceGraphic" in2="effect1_dropShadow_1_50287" result="shape"/>
</filter>
</defs>
</svg>
