<svg width="44" height="44" viewBox="0 0 44 44" fill="none" xmlns="http://www.w3.org/2000/svg">
<g filter="url(#filter0_d_6399_70733)">
<path d="M2 21C2 9.95431 10.9543 1 22 1C33.0457 1 42 9.95431 42 21C42 32.0457 33.0457 41 22 41C10.9543 41 2 32.0457 2 21Z" fill="#0E7270" fill-opacity="0.1" shape-rendering="crispEdges"/>
<path d="M18.543 29.9609H16.293C14.0763 29.9609 13.043 28.9276 13.043 26.7109V24.4609C13.043 22.2443 14.0763 21.2109 16.293 21.2109H18.543C20.7596 21.2109 21.793 22.2443 21.793 24.4609V26.7109C21.793 28.9276 20.7596 29.9609 18.543 29.9609ZM16.293 22.4609C14.7596 22.4609 14.293 22.9276 14.293 24.4609V26.7109C14.293 28.2443 14.7596 28.7109 16.293 28.7109H18.543C20.0763 28.7109 20.543 28.2443 20.543 26.7109V24.4609C20.543 22.9276 20.0763 22.4609 18.543 22.4609H16.293Z" fill="#0E7270"/>
<path d="M24.5008 29.9583C24.2758 29.9583 24.0675 29.8333 23.9591 29.6417C23.8508 29.45 23.8508 29.2083 23.9675 29.0167L24.8425 27.5583C25.0175 27.2583 25.4008 27.1667 25.7008 27.3417C26.0008 27.5167 26.0925 27.9 25.9175 28.2L25.6925 28.575C27.9925 28.0333 29.7175 25.9667 29.7175 23.5C29.7175 23.1583 30.0008 22.875 30.3425 22.875C30.6841 22.875 30.9675 23.1583 30.9675 23.5C30.9591 27.0583 28.0591 29.9583 24.5008 29.9583Z" fill="#0E7270"/>
<path d="M13.668 19.1224C13.3263 19.1224 13.043 18.8391 13.043 18.4974C13.043 14.9391 15.943 12.0391 19.5013 12.0391C19.7263 12.0391 19.9346 12.1641 20.043 12.3557C20.1513 12.5474 20.1513 12.7891 20.0346 12.9807L19.1596 14.4474C18.9846 14.7391 18.6013 14.8391 18.3013 14.6557C18.0096 14.4807 17.9096 14.0974 18.093 13.7974L18.318 13.4224C16.0096 13.9641 14.293 16.0307 14.293 18.4974C14.293 18.8391 14.0096 19.1224 13.668 19.1224Z" fill="#0E7270"/>
<path d="M26.582 20.7891C24.1737 20.7891 22.207 18.8224 22.207 16.4141C22.207 14.0057 24.1737 12.0391 26.582 12.0391C28.9904 12.0391 30.957 14.0057 30.957 16.4141C30.957 18.8224 28.9904 20.7891 26.582 20.7891ZM26.582 13.2891C24.857 13.2891 23.457 14.6891 23.457 16.4141C23.457 18.1391 24.857 19.5391 26.582 19.5391C28.307 19.5391 29.707 18.1391 29.707 16.4141C29.707 14.6891 28.307 13.2891 26.582 13.2891Z" fill="#0E7270"/>
</g>
<defs>
<filter id="filter0_d_6399_70733" x="0" y="0" width="44" height="44" filterUnits="userSpaceOnUse" color-interpolation-filters="sRGB">
<feFlood flood-opacity="0" result="BackgroundImageFix"/>
<feColorMatrix in="SourceAlpha" type="matrix" values="0 0 0 0 0 0 0 0 0 0 0 0 0 0 0 0 0 0 127 0" result="hardAlpha"/>
<feOffset dy="1"/>
<feGaussianBlur stdDeviation="1"/>
<feComposite in2="hardAlpha" operator="out"/>
<feColorMatrix type="matrix" values="0 0 0 0 0.0392157 0 0 0 0 0.0509804 0 0 0 0 0.0784314 0 0 0 0.03 0"/>
<feBlend mode="normal" in2="BackgroundImageFix" result="effect1_dropShadow_6399_70733"/>
<feBlend mode="normal" in="SourceGraphic" in2="effect1_dropShadow_6399_70733" result="shape"/>
</filter>
</defs>
</svg>
