<svg width="44" height="44" viewBox="0 0 44 44" fill="none" xmlns="http://www.w3.org/2000/svg">
<g filter="url(#filter0_d_1_50318)">
<path d="M2 21C2 9.95431 10.9543 1 22 1C33.0457 1 42 9.95431 42 21C42 32.0457 33.0457 41 22 41C10.9543 41 2 32.0457 2 21Z" fill="#FBDEEC"/>
<path d="M24.4085 26.1833H17.0835C16.6502 26.1833 16.2418 26.1417 15.8751 26.0583C15.6835 26.0333 15.4502 25.9667 15.2085 25.875C14.1002 25.4583 12.7918 24.4333 12.7918 21.8833V17.5917C12.7918 14.8667 14.3585 13.3 17.0835 13.3H24.4085C26.7085 13.3 28.1918 14.4 28.5918 16.4C28.6668 16.7667 28.7002 17.1583 28.7002 17.5917V21.8833C28.7002 24.625 27.1418 26.1833 24.4085 26.1833ZM17.0918 14.5667C15.0418 14.5667 14.0501 15.5583 14.0501 17.6083V21.9C14.0501 23.3917 14.5752 24.3084 15.6502 24.7167C15.8168 24.775 15.9752 24.8167 16.1252 24.8417C16.4418 24.9083 16.7501 24.9417 17.0918 24.9417H24.4168C26.4668 24.9417 27.4585 23.95 27.4585 21.9V17.6083C27.4585 17.2583 27.4335 16.95 27.3752 16.6667C27.0918 15.25 26.1251 14.5667 24.4168 14.5667H17.0918Z" fill="#FF007B"/>
<path d="M26.9084 28.6833H19.5834C18.8751 28.6833 18.2417 28.5833 17.7001 28.375C16.4751 27.9166 15.6751 26.95 15.4001 25.5666C15.3584 25.3583 15.4251 25.1416 15.5751 25C15.7251 24.85 15.9418 24.7916 16.1501 24.8416C16.4251 24.9 16.7334 24.9333 17.0834 24.9333H24.4084C26.4584 24.9333 27.4501 23.9416 27.4501 21.8916V17.6C27.4501 17.25 27.4251 16.9416 27.3667 16.6583C27.3251 16.45 27.3918 16.2416 27.5334 16.0916C27.6834 15.9416 27.8917 15.875 28.1001 15.925C30.1001 16.3333 31.2001 17.8166 31.2001 20.1V24.3916C31.2001 27.125 29.6418 28.6833 26.9084 28.6833ZM16.9334 26.1833C17.2001 26.6666 17.6001 27.0083 18.1501 27.2083C18.5501 27.3583 19.0334 27.4333 19.5917 27.4333H26.9167C28.9667 27.4333 29.9584 26.4416 29.9584 24.3916V20.1C29.9584 18.7833 29.5501 17.9083 28.7084 17.45C28.7084 17.5 28.7084 17.55 28.7084 17.6V21.8916C28.7084 24.6166 27.1417 26.1833 24.4167 26.1833H17.0917C17.0334 26.1833 16.9834 26.1833 16.9334 26.1833Z" fill="#FF007B"/>
<path d="M20.7499 22.575C19.1916 22.575 17.9249 21.3083 17.9249 19.75C17.9249 18.1917 19.1916 16.925 20.7499 16.925C22.3082 16.925 23.5749 18.1917 23.5749 19.75C23.5749 21.3083 22.3082 22.575 20.7499 22.575ZM20.7499 18.175C19.8832 18.175 19.1749 18.8833 19.1749 19.75C19.1749 20.6167 19.8832 21.325 20.7499 21.325C21.6166 21.325 22.3249 20.6167 22.3249 19.75C22.3249 18.8833 21.6166 18.175 20.7499 18.175Z" fill="#FF007B"/>
<path d="M15.9836 22.2084C15.6419 22.2084 15.3586 21.9251 15.3586 21.5834V17.9167C15.3586 17.5751 15.6419 17.2917 15.9836 17.2917C16.3252 17.2917 16.6086 17.5751 16.6086 17.9167V21.5834C16.6086 21.9251 16.3336 22.2084 15.9836 22.2084Z" fill="#FF007B"/>
<path d="M25.5083 22.2084C25.1666 22.2084 24.8833 21.9251 24.8833 21.5834V17.9167C24.8833 17.5751 25.1666 17.2917 25.5083 17.2917C25.85 17.2917 26.1333 17.5751 26.1333 17.9167V21.5834C26.1333 21.9251 25.8583 22.2084 25.5083 22.2084Z" fill="#FF007B"/>
</g>
<defs>
<filter id="filter0_d_1_50318" x="0" y="0" width="44" height="44" filterUnits="userSpaceOnUse" color-interpolation-filters="sRGB">
<feFlood flood-opacity="0" result="BackgroundImageFix"/>
<feColorMatrix in="SourceAlpha" type="matrix" values="0 0 0 0 0 0 0 0 0 0 0 0 0 0 0 0 0 0 127 0" result="hardAlpha"/>
<feOffset dy="1"/>
<feGaussianBlur stdDeviation="1"/>
<feComposite in2="hardAlpha" operator="out"/>
<feColorMatrix type="matrix" values="0 0 0 0 0.0392157 0 0 0 0 0.0509804 0 0 0 0 0.0784314 0 0 0 0.03 0"/>
<feBlend mode="normal" in2="BackgroundImageFix" result="effect1_dropShadow_1_50318"/>
<feBlend mode="normal" in="SourceGraphic" in2="effect1_dropShadow_1_50318" result="shape"/>
</filter>
</defs>
</svg>
