<svg width="44" height="44" viewBox="0 0 44 44" fill="none" xmlns="http://www.w3.org/2000/svg">
<g filter="url(#filter0_d_1_50335)">
<path d="M2 21C2 9.95431 10.9543 1 22 1C33.0457 1 42 9.95431 42 21C42 32.0457 33.0457 41 22 41C10.9543 41 2 32.0457 2 21Z" fill="#EAAB26" fill-opacity="0.15" shape-rendering="crispEdges"/>
<path d="M22.133 20.6833C22.108 20.6833 22.0913 20.6833 22.0663 20.6833C22.0247 20.675 21.9663 20.675 21.9163 20.6833C19.4997 20.6083 17.6747 18.7083 17.6747 16.3667C17.6747 13.9833 19.6163 12.0417 21.9997 12.0417C24.383 12.0417 26.3247 13.9833 26.3247 16.3667C26.3163 18.7083 24.483 20.6083 22.158 20.6833C22.1497 20.6833 22.1413 20.6833 22.133 20.6833ZM21.9997 13.2917C20.308 13.2917 18.9247 14.675 18.9247 16.3667C18.9247 18.0333 20.2247 19.375 21.883 19.4333C21.9247 19.425 22.0413 19.425 22.1497 19.4333C23.783 19.3583 25.0663 18.0167 25.0747 16.3667C25.0747 14.675 23.6913 13.2917 21.9997 13.2917Z" fill="#EAAB26"/>
<path d="M22.1413 29.7917C20.508 29.7917 18.8663 29.375 17.6247 28.5417C16.4663 27.775 15.833 26.725 15.833 25.5833C15.833 24.4417 16.4663 23.3833 17.6247 22.6083C20.1247 20.95 24.1747 20.95 26.658 22.6083C27.808 23.375 28.4497 24.425 28.4497 25.5667C28.4497 26.7083 27.8163 27.7667 26.658 28.5417C25.408 29.375 23.7747 29.7917 22.1413 29.7917ZM18.3163 23.6583C17.5163 24.1917 17.083 24.875 17.083 25.5917C17.083 26.3 17.5247 26.9833 18.3163 27.5083C20.3913 28.9 23.8913 28.9 25.9663 27.5083C26.7663 26.975 27.1997 26.2917 27.1997 25.575C27.1997 24.8667 26.758 24.1833 25.9663 23.6583C23.8913 22.275 20.3913 22.275 18.3163 23.6583Z" fill="#EAAB26"/>
</g>
<defs>
<filter id="filter0_d_1_50335" x="0" y="0" width="44" height="44" filterUnits="userSpaceOnUse" color-interpolation-filters="sRGB">
<feFlood flood-opacity="0" result="BackgroundImageFix"/>
<feColorMatrix in="SourceAlpha" type="matrix" values="0 0 0 0 0 0 0 0 0 0 0 0 0 0 0 0 0 0 127 0" result="hardAlpha"/>
<feOffset dy="1"/>
<feGaussianBlur stdDeviation="1"/>
<feComposite in2="hardAlpha" operator="out"/>
<feColorMatrix type="matrix" values="0 0 0 0 0.0392157 0 0 0 0 0.0509804 0 0 0 0 0.0784314 0 0 0 0.03 0"/>
<feBlend mode="normal" in2="BackgroundImageFix" result="effect1_dropShadow_1_50335"/>
<feBlend mode="normal" in="SourceGraphic" in2="effect1_dropShadow_1_50335" result="shape"/>
</filter>
</defs>
</svg>
