<svg width="41" height="41" viewBox="0 0 41 41" fill="none" xmlns="http://www.w3.org/2000/svg">
<g filter="url(#filter0_d_2_39701)">
<path d="M1.8418 19.3466C1.8418 9.17063 10.091 0.921387 20.267 0.921387C30.4429 0.921387 38.6922 9.17063 38.6922 19.3466C38.6922 29.5225 30.4429 37.7718 20.267 37.7718C10.091 37.7718 1.8418 29.5225 1.8418 19.3466Z" fill="#E2E8FC"/>
<path d="M22.4877 24.1219H15.7391C15.3399 24.1219 14.9637 24.0836 14.6258 24.0068C14.4493 23.9838 14.2343 23.9223 14.0116 23.8379C12.9905 23.454 11.7852 22.5097 11.7852 20.1603V16.2064C11.7852 13.6958 13.2285 12.2524 15.7391 12.2524H22.4877C24.6067 12.2524 25.9733 13.2659 26.3418 15.1085C26.4109 15.4463 26.4416 15.8071 26.4416 16.2064V20.1603C26.4416 22.6863 25.0059 24.1219 22.4877 24.1219ZM15.7468 13.4194C13.8581 13.4194 12.9445 14.333 12.9445 16.2217V20.1757C12.9445 21.55 13.4282 22.3945 14.4186 22.7707C14.5721 22.8245 14.718 22.8628 14.8562 22.8859C15.1479 22.9473 15.432 22.978 15.7468 22.978H22.4954C24.384 22.978 25.2977 22.0644 25.2977 20.1757V16.2217C25.2977 15.8993 25.2746 15.6152 25.2209 15.3542C24.9599 14.049 24.0693 13.4194 22.4954 13.4194H15.7468Z" fill="#146AEB"/>
<path d="M24.7898 26.4252H18.0412C17.3886 26.4252 16.8051 26.3331 16.306 26.1412C15.1774 25.7189 14.4404 24.8283 14.187 23.5538C14.1486 23.3619 14.2101 23.1623 14.3483 23.0318C14.4865 22.8936 14.6861 22.8398 14.878 22.8859C15.1314 22.9396 15.4154 22.9703 15.7379 22.9703H22.4865C24.3752 22.9703 25.2888 22.0567 25.2888 20.1681V16.2141C25.2888 15.8916 25.2658 15.6076 25.212 15.3465C25.1736 15.1546 25.2351 14.9626 25.3656 14.8244C25.5038 14.6862 25.6957 14.6248 25.8877 14.6709C27.7303 15.0471 28.7437 16.4137 28.7437 18.5174V22.4713C28.7437 24.9896 27.308 26.4252 24.7898 26.4252ZM15.5997 24.122C15.8454 24.5673 16.2139 24.8821 16.7206 25.0663C17.0892 25.2045 17.5344 25.2736 18.0488 25.2736H24.7974C26.6861 25.2736 27.5997 24.36 27.5997 22.4713V18.5174C27.5997 17.3043 27.2235 16.4982 26.4481 16.0759C26.4481 16.122 26.4481 16.168 26.4481 16.2141V20.1681C26.4481 22.6786 25.0047 24.122 22.4942 24.122H15.7456C15.6918 24.122 15.6458 24.122 15.5997 24.122Z" fill="#146AEB"/>
<path d="M19.1164 20.7977C17.6807 20.7977 16.5137 19.6307 16.5137 18.195C16.5137 16.7593 17.6807 15.5923 19.1164 15.5923C20.5521 15.5923 21.7191 16.7593 21.7191 18.195C21.7191 19.6307 20.5521 20.7977 19.1164 20.7977ZM19.1164 16.7439C18.3179 16.7439 17.6653 17.3965 17.6653 18.195C17.6653 18.9935 18.3179 19.6461 19.1164 19.6461C19.9148 19.6461 20.5675 18.9935 20.5675 18.195C20.5675 17.3965 19.9148 16.7439 19.1164 16.7439Z" fill="#146AEB"/>
<path d="M14.7243 20.4595C14.4095 20.4595 14.1484 20.1984 14.1484 19.8837V16.5055C14.1484 16.1907 14.4095 15.9297 14.7243 15.9297C15.039 15.9297 15.3001 16.1907 15.3001 16.5055V19.8837C15.3001 20.1984 15.0467 20.4595 14.7243 20.4595Z" fill="#146AEB"/>
<path d="M23.4996 20.4595C23.1849 20.4595 22.9238 20.1984 22.9238 19.8837V16.5055C22.9238 16.1907 23.1849 15.9297 23.4996 15.9297C23.8144 15.9297 24.0755 16.1907 24.0755 16.5055V19.8837C24.0755 20.1984 23.8221 20.4595 23.4996 20.4595Z" fill="#146AEB"/>
</g>
<defs>
<filter id="filter0_d_2_39701" x="-0.000722528" y="0.000127017" width="40.5346" height="40.5356" filterUnits="userSpaceOnUse" color-interpolation-filters="sRGB">
<feFlood flood-opacity="0" result="BackgroundImageFix"/>
<feColorMatrix in="SourceAlpha" type="matrix" values="0 0 0 0 0 0 0 0 0 0 0 0 0 0 0 0 0 0 127 0" result="hardAlpha"/>
<feOffset dy="0.92126"/>
<feGaussianBlur stdDeviation="0.92126"/>
<feComposite in2="hardAlpha" operator="out"/>
<feColorMatrix type="matrix" values="0 0 0 0 0.0392157 0 0 0 0 0.0509804 0 0 0 0 0.0784314 0 0 0 0.03 0"/>
<feBlend mode="normal" in2="BackgroundImageFix" result="effect1_dropShadow_2_39701"/>
<feBlend mode="normal" in="SourceGraphic" in2="effect1_dropShadow_2_39701" result="shape"/>
</filter>
</defs>
</svg>
