<svg width="44" height="44" viewBox="0 0 44 44" fill="none" xmlns="http://www.w3.org/2000/svg">
<g filter="url(#filter0_d_1_50257)">
<path d="M2 21C2 9.95431 10.9543 1 22 1C33.0457 1 42 9.95431 42 21C42 32.0457 33.0457 41 22 41C10.9543 41 2 32.0457 2 21Z" fill="#E3F4E1"/>
<path d="M22 22.0833C21.8917 22.0833 21.7833 22.0583 21.6833 22L14.325 17.7417C14.0333 17.5667 13.925 17.1833 14.1 16.8833C14.275 16.5833 14.6583 16.4833 14.9583 16.6583L22 20.7333L29 16.6833C29.3 16.5083 29.6833 16.6167 29.8583 16.9083C30.0333 17.2083 29.925 17.5917 29.6333 17.7667L22.325 22C22.2167 22.05 22.1083 22.0833 22 22.0833Z" fill="#3CBD2C"/>
<path d="M22 29.6333C21.6583 29.6333 21.375 29.35 21.375 29.0083V21.45C21.375 21.1083 21.6583 20.825 22 20.825C22.3417 20.825 22.625 21.1083 22.625 21.45V29.0083C22.625 29.35 22.3417 29.6333 22 29.6333Z" fill="#3CBD2C"/>
<path d="M22 29.9583C21.2667 29.9583 20.5417 29.8 19.9667 29.4833L15.5167 27.0083C14.3083 26.3417 13.3667 24.7333 13.3667 23.35V18.6417C13.3667 17.2583 14.3083 15.6583 15.5167 14.9833L19.9667 12.5167C21.1083 11.8833 22.8917 11.8833 24.0333 12.5167L28.4833 14.9917C29.6917 15.6583 30.6333 17.2667 30.6333 18.65V23.3583C30.6333 24.7417 29.6917 26.3417 28.4833 27.0167L24.0333 29.4833C23.4583 29.8 22.7333 29.9583 22 29.9583ZM22 13.2917C21.475 13.2917 20.9583 13.4 20.575 13.6083L16.125 16.0833C15.325 16.525 14.6167 17.725 14.6167 18.6417V23.35C14.6167 24.2667 15.325 25.4667 16.125 25.9167L20.575 28.3917C21.3333 28.8167 22.6667 28.8167 23.425 28.3917L27.875 25.9167C28.675 25.4667 29.3833 24.275 29.3833 23.35V18.6417C29.3833 17.725 28.675 16.525 27.875 16.075L23.425 13.6C23.0417 13.4 22.525 13.2917 22 13.2917Z" fill="#3CBD2C"/>
</g>
<defs>
<filter id="filter0_d_1_50257" x="0" y="0" width="44" height="44" filterUnits="userSpaceOnUse" color-interpolation-filters="sRGB">
<feFlood flood-opacity="0" result="BackgroundImageFix"/>
<feColorMatrix in="SourceAlpha" type="matrix" values="0 0 0 0 0 0 0 0 0 0 0 0 0 0 0 0 0 0 127 0" result="hardAlpha"/>
<feOffset dy="1"/>
<feGaussianBlur stdDeviation="1"/>
<feComposite in2="hardAlpha" operator="out"/>
<feColorMatrix type="matrix" values="0 0 0 0 0.0392157 0 0 0 0 0.0509804 0 0 0 0 0.0784314 0 0 0 0.03 0"/>
<feBlend mode="normal" in2="BackgroundImageFix" result="effect1_dropShadow_1_50257"/>
<feBlend mode="normal" in="SourceGraphic" in2="effect1_dropShadow_1_50257" result="shape"/>
</filter>
</defs>
</svg>
