<svg width="44" height="44" viewBox="0 0 44 44" fill="none" xmlns="http://www.w3.org/2000/svg">
<g filter="url(#filter0_d_1_50272)">
<path d="M2 21C2 9.95431 10.9543 1 22 1C33.0457 1 42 9.95431 42 21C42 32.0457 33.0457 41 22 41C10.9543 41 2 32.0457 2 21Z" fill="#F2E4F8"/>
<path d="M22 29.9583C17.0583 29.9583 13.0417 25.9417 13.0417 21C13.0417 16.0583 17.0583 12.0417 22 12.0417C26.9417 12.0417 30.9583 16.0583 30.9583 21C30.9583 25.9417 26.9417 29.9583 22 29.9583ZM22 13.2917C17.75 13.2917 14.2917 16.75 14.2917 21C14.2917 25.25 17.75 28.7083 22 28.7083C26.25 28.7083 29.7083 25.25 29.7083 21C29.7083 16.75 26.25 13.2917 22 13.2917Z" fill="#B200FF"/>
<path d="M25.0917 24.275C24.9833 24.275 24.875 24.25 24.775 24.1833L22.1917 22.6417C21.55 22.2583 21.075 21.4167 21.075 20.675V17.2583C21.075 16.9167 21.3583 16.6333 21.7 16.6333C22.0417 16.6333 22.325 16.9167 22.325 17.2583V20.675C22.325 20.975 22.575 21.4167 22.8333 21.5667L25.4167 23.1083C25.7167 23.2833 25.8083 23.6667 25.6333 23.9667C25.5083 24.1667 25.3 24.275 25.0917 24.275Z" fill="#B200FF"/>
</g>
<defs>
<filter id="filter0_d_1_50272" x="0" y="0" width="44" height="44" filterUnits="userSpaceOnUse" color-interpolation-filters="sRGB">
<feFlood flood-opacity="0" result="BackgroundImageFix"/>
<feColorMatrix in="SourceAlpha" type="matrix" values="0 0 0 0 0 0 0 0 0 0 0 0 0 0 0 0 0 0 127 0" result="hardAlpha"/>
<feOffset dy="1"/>
<feGaussianBlur stdDeviation="1"/>
<feComposite in2="hardAlpha" operator="out"/>
<feColorMatrix type="matrix" values="0 0 0 0 0.0392157 0 0 0 0 0.0509804 0 0 0 0 0.0784314 0 0 0 0.03 0"/>
<feBlend mode="normal" in2="BackgroundImageFix" result="effect1_dropShadow_1_50272"/>
<feBlend mode="normal" in="SourceGraphic" in2="effect1_dropShadow_1_50272" result="shape"/>
</filter>
</defs>
</svg>
