<svg width="44" height="44" viewBox="0 0 44 44" fill="none" xmlns="http://www.w3.org/2000/svg">
<g filter="url(#filter0_d_1_50380)">
<path d="M2 21C2 9.95431 10.9543 1 22 1C33.0457 1 42 9.95431 42 21C42 32.0457 33.0457 41 22 41C10.9543 41 2 32.0457 2 21Z" fill="#0E7270" fill-opacity="0.1" shape-rendering="crispEdges"/>
<path d="M18.5417 29.9583H16.2917C14.075 29.9583 13.0417 28.925 13.0417 26.7083V24.4583C13.0417 22.2417 14.075 21.2083 16.2917 21.2083H18.5417C20.7584 21.2083 21.7917 22.2417 21.7917 24.4583V26.7083C21.7917 28.925 20.7584 29.9583 18.5417 29.9583ZM16.2917 22.4583C14.7584 22.4583 14.2917 22.925 14.2917 24.4583V26.7083C14.2917 28.2417 14.7584 28.7083 16.2917 28.7083H18.5417C20.075 28.7083 20.5417 28.2417 20.5417 26.7083V24.4583C20.5417 22.925 20.075 22.4583 18.5417 22.4583H16.2917Z" fill="#0E7270"/>
<path d="M24.5 29.9583C24.275 29.9583 24.0667 29.8333 23.9584 29.6417C23.85 29.45 23.85 29.2083 23.9667 29.0167L24.8417 27.5583C25.0167 27.2583 25.4 27.1667 25.7 27.3417C26 27.5167 26.0917 27.9 25.9167 28.2L25.6917 28.575C27.9917 28.0333 29.7167 25.9667 29.7167 23.5C29.7167 23.1583 30 22.875 30.3417 22.875C30.6834 22.875 30.9667 23.1583 30.9667 23.5C30.9583 27.0583 28.0584 29.9583 24.5 29.9583Z" fill="#0E7270"/>
<path d="M13.6667 19.125C13.325 19.125 13.0417 18.8417 13.0417 18.5C13.0417 14.9417 15.9417 12.0417 19.5 12.0417C19.725 12.0417 19.9334 12.1667 20.0417 12.3583C20.15 12.55 20.15 12.7917 20.0334 12.9833L19.1584 14.45C18.9834 14.7417 18.6 14.8417 18.3 14.6583C18.0084 14.4833 17.9084 14.1 18.0917 13.8L18.3167 13.425C16.0084 13.9667 14.2917 16.0333 14.2917 18.5C14.2917 18.8417 14.0084 19.125 13.6667 19.125Z" fill="#0E7270"/>
<path d="M26.5833 20.7917C24.175 20.7917 22.2083 18.825 22.2083 16.4167C22.2083 14.0083 24.175 12.0417 26.5833 12.0417C28.9916 12.0417 30.9583 14.0083 30.9583 16.4167C30.9583 18.825 28.9916 20.7917 26.5833 20.7917ZM26.5833 13.2917C24.8583 13.2917 23.4583 14.6917 23.4583 16.4167C23.4583 18.1417 24.8583 19.5417 26.5833 19.5417C28.3083 19.5417 29.7083 18.1417 29.7083 16.4167C29.7083 14.6917 28.3083 13.2917 26.5833 13.2917Z" fill="#0E7270"/>
</g>
<defs>
<filter id="filter0_d_1_50380" x="0" y="0" width="44" height="44" filterUnits="userSpaceOnUse" color-interpolation-filters="sRGB">
<feFlood flood-opacity="0" result="BackgroundImageFix"/>
<feColorMatrix in="SourceAlpha" type="matrix" values="0 0 0 0 0 0 0 0 0 0 0 0 0 0 0 0 0 0 127 0" result="hardAlpha"/>
<feOffset dy="1"/>
<feGaussianBlur stdDeviation="1"/>
<feComposite in2="hardAlpha" operator="out"/>
<feColorMatrix type="matrix" values="0 0 0 0 0.0392157 0 0 0 0 0.0509804 0 0 0 0 0.0784314 0 0 0 0.03 0"/>
<feBlend mode="normal" in2="BackgroundImageFix" result="effect1_dropShadow_1_50380"/>
<feBlend mode="normal" in="SourceGraphic" in2="effect1_dropShadow_1_50380" result="shape"/>
</filter>
</defs>
</svg>
