<svg width="46" height="42" viewBox="0 0 46 42" fill="none" xmlns="http://www.w3.org/2000/svg">
<g filter="url(#filter0_d_2_47613)">
<path d="M2.45703 19.7285C2.45703 9.51125 10.7398 1.22852 20.957 1.22852H24.4729C34.6902 1.22852 42.9729 9.51125 42.9729 19.7285C42.9729 29.9458 34.6902 38.2285 24.4729 38.2285H20.957C10.7398 38.2285 2.45703 29.9458 2.45703 19.7285Z" fill="#E2E8FC"/>
<path d="M22.7155 28.5312C22.0767 28.5312 21.4544 28.2037 21.0285 27.6304L20.2014 26.5249C20.0295 26.2956 19.8002 26.1646 19.5545 26.1482C19.3088 26.14 19.0632 26.2465 18.8666 26.4512L18.3999 26.0336L18.8503 26.4512C17.671 27.7123 16.7621 27.6141 16.328 27.4421C15.8858 27.2701 15.1406 26.7051 15.1406 24.8871V15.6663C15.1406 12.0303 16.1888 10.9248 19.62 10.9248H25.8109C29.2421 10.9248 30.2903 12.0303 30.2903 15.6663V24.8871C30.2903 26.6969 29.5451 27.2619 29.1029 27.4421C28.6689 27.6141 27.7681 27.7123 26.5807 26.4512C26.3842 26.2383 26.1467 26.1237 25.8846 26.1482C25.639 26.1646 25.4015 26.2956 25.2295 26.5249L24.4024 27.6304C23.9766 28.2037 23.3542 28.5312 22.7155 28.5312ZM19.5054 24.9117C19.5381 24.9117 19.5791 24.9117 19.6118 24.9117C20.2178 24.9444 20.7911 25.2638 21.1759 25.7797L22.003 26.8852C22.4043 27.4175 23.0185 27.4175 23.4197 26.8852L24.2468 25.7797C24.6399 25.2638 25.205 24.9444 25.8191 24.9117C26.4251 24.8789 27.0311 25.1328 27.4733 25.6077C28.0957 26.2711 28.5051 26.353 28.6443 26.2956C28.8409 26.2137 29.0538 25.7388 29.0538 24.8871V15.6663C29.0538 12.71 28.5379 12.1532 25.8028 12.1532H19.62C16.8849 12.1532 16.369 12.71 16.369 15.6663V24.8871C16.369 25.747 16.5819 26.2219 16.7784 26.2956C16.9176 26.353 17.3271 26.2711 17.9495 25.6077C18.3917 25.1574 18.9403 24.9117 19.5054 24.9117Z" fill="#003BFF"/>
<path d="M25.9916 16.2479H19.4403C19.1046 16.2479 18.8262 15.9695 18.8262 15.6337C18.8262 15.298 19.1046 15.0195 19.4403 15.0195H25.9916C26.3273 15.0195 26.6058 15.298 26.6058 15.6337C26.6058 15.9695 26.3273 16.2479 25.9916 16.2479Z" fill="#003BFF"/>
<path d="M25.1721 19.5233H20.2587C19.923 19.5233 19.6445 19.2449 19.6445 18.9091C19.6445 18.5733 19.923 18.2949 20.2587 18.2949H25.1721C25.5079 18.2949 25.7863 18.5733 25.7863 18.9091C25.7863 19.2449 25.5079 19.5233 25.1721 19.5233Z" fill="#003BFF"/>
</g>
<defs>
<filter id="filter0_d_2_47613" x="0.000320196" y="0.000160098" width="45.429" height="41.9134" filterUnits="userSpaceOnUse" color-interpolation-filters="sRGB">
<feFlood flood-opacity="0" result="BackgroundImageFix"/>
<feColorMatrix in="SourceAlpha" type="matrix" values="0 0 0 0 0 0 0 0 0 0 0 0 0 0 0 0 0 0 127 0" result="hardAlpha"/>
<feOffset dy="1.22836"/>
<feGaussianBlur stdDeviation="1.22836"/>
<feComposite in2="hardAlpha" operator="out"/>
<feColorMatrix type="matrix" values="0 0 0 0 0.0392157 0 0 0 0 0.0509804 0 0 0 0 0.0784314 0 0 0 0.03 0"/>
<feBlend mode="normal" in2="BackgroundImageFix" result="effect1_dropShadow_2_47613"/>
<feBlend mode="normal" in="SourceGraphic" in2="effect1_dropShadow_2_47613" result="shape"/>
</filter>
</defs>
</svg>