<svg width="18" height="18" viewBox="0 0 18 18" fill="none" xmlns="http://www.w3.org/2000/svg">
<path opacity="0.4" d="M5.02119 13.5003H3.10865C2.03613 13.5003 1.49609 12.9603 1.49609 11.8877V3.11256C1.49609 2.04003 2.03613 1.5 3.10865 1.5H6.33372C7.40625 1.5 7.94624 2.04003 7.94624 3.11256V4.50008" stroke="#A1A2A2" stroke-width="1.12503" stroke-miterlimit="10" stroke-linecap="round" stroke-linejoin="round"/>
<path d="M13.0222 6.31503V14.6853C13.0222 15.8928 12.4222 16.5003 11.2147 16.5003H6.83456C5.62703 16.5003 5.01953 15.8928 5.01953 14.6853V6.31503C5.01953 5.1075 5.62703 4.5 6.83456 4.5H11.2147C12.4222 4.5 13.0222 5.1075 13.0222 6.31503Z" stroke="#A1A2A2" stroke-width="1.12503" stroke-miterlimit="10" stroke-linecap="round" stroke-linejoin="round"/>
<path opacity="0.4" d="M10.0508 4.50008V3.11256C10.0508 2.04003 10.5908 1.5 11.6633 1.5H14.8884C15.9609 1.5 16.5009 2.04003 16.5009 3.11256V11.8877C16.5009 12.9603 15.9609 13.5003 14.8884 13.5003H13.0283" stroke="#A1A2A2" stroke-width="1.12503" stroke-miterlimit="10" stroke-linecap="round" stroke-linejoin="round"/>
<path opacity="0.4" d="M7.50781 8.25H10.5079" stroke="#A1A2A2" stroke-width="1.12503" stroke-miterlimit="10" stroke-linecap="round" stroke-linejoin="round"/>
<path opacity="0.4" d="M7.50781 10.5H10.5079" stroke="#A1A2A2" stroke-width="1.12503" stroke-miterlimit="10" stroke-linecap="round" stroke-linejoin="round"/>
<path d="M9 16.5001V14.25" stroke="#A1A2A2" stroke-width="1.12503" stroke-miterlimit="10" stroke-linecap="round" stroke-linejoin="round"/>
</svg>
