<svg width="45" height="44" viewBox="0 0 45 44" fill="none" xmlns="http://www.w3.org/2000/svg">
<path d="M21.2901 31.5004C20.2056 31.5004 19.2627 31.2618 18.4615 30.7845C17.6683 30.2996 17.0087 29.6443 16.4826 28.8185C15.9646 27.9928 15.5842 27.0533 15.3414 26.0003C15.0986 24.9397 14.9853 23.8336 15.0015 22.682C15.0258 20.9623 15.3172 19.4736 15.8756 18.216C16.4341 16.9508 17.2029 15.9735 18.1822 15.2841C19.1616 14.5947 20.2946 14.25 21.5815 14.25C22.6903 14.25 23.6372 14.4735 24.4223 14.9205C25.2155 15.3599 25.8589 15.9697 26.3526 16.7501C26.8463 17.5304 27.2064 18.4357 27.4331 19.466C27.6597 20.4964 27.7649 21.5987 27.7487 22.7729C27.7325 24.4851 27.4614 25.9965 26.9353 27.3071C26.4092 28.6178 25.6646 29.6443 24.7015 30.3868C23.7465 31.1292 22.6094 31.5004 21.2901 31.5004ZM21.363 29.7958C22.7631 29.8261 23.8517 29.2314 24.6287 28.0117C25.4056 26.792 25.7982 25.0685 25.8063 22.8411C25.8144 21.4623 25.6727 20.2577 25.3814 19.2274C25.09 18.1971 24.6246 17.3978 23.9852 16.8296C23.3459 16.2614 22.5041 15.9773 21.4601 15.9773C20.0923 15.9773 18.9997 16.5569 18.1822 17.716C17.3729 18.8751 16.9601 20.5002 16.9439 22.5911C16.9359 23.9321 17.0856 25.1442 17.3931 26.2276C17.7007 27.3109 18.1782 28.1746 18.8257 28.8185C19.4812 29.4549 20.327 29.7807 21.363 29.7958Z" fill="#DADADA"/>
<path d="M13.25 3.625V9.06264" stroke="#DADADA" stroke-width="4.50011" stroke-miterlimit="10" stroke-linecap="round" stroke-linejoin="round"/>
<path d="M30.25 3.625V9.06264" stroke="#DADADA" stroke-width="4.50011" stroke-miterlimit="10" stroke-linecap="round" stroke-linejoin="round"/>
<g filter="url(#filter0_d_4195_44838)">
<path d="M38.7196 15.4065V30.8131C38.7196 36.2507 35.9539 39.8758 29.5006 39.8758H14.7502C8.29694 39.8758 5.53125 36.2507 5.53125 30.8131V15.4065C5.53125 9.96884 8.29694 6.34375 14.7502 6.34375H29.5006C35.9539 6.34375 38.7196 9.96884 38.7196 15.4065Z" stroke="#DADADA" stroke-width="1.50004" stroke-miterlimit="10" stroke-linecap="round" stroke-linejoin="round" shape-rendering="crispEdges"/>
</g>
<defs>
<filter id="filter0_d_4195_44838" x="4.40624" y="5.59375" width="36.1875" height="36.5313" filterUnits="userSpaceOnUse" color-interpolation-filters="sRGB">
<feFlood flood-opacity="0" result="BackgroundImageFix"/>
<feColorMatrix in="SourceAlpha" type="matrix" values="0 0 0 0 0 0 0 0 0 0 0 0 0 0 0 0 0 0 127 0" result="hardAlpha"/>
<feOffset dx="0.375009" dy="0.750019"/>
<feGaussianBlur stdDeviation="0.375009"/>
<feComposite in2="hardAlpha" operator="out"/>
<feColorMatrix type="matrix" values="0 0 0 0 0 0 0 0 0 0 0 0 0 0 0 0 0 0 0.25 0"/>
<feBlend mode="normal" in2="BackgroundImageFix" result="effect1_dropShadow_4195_44838"/>
<feBlend mode="normal" in="SourceGraphic" in2="effect1_dropShadow_4195_44838" result="shape"/>
</filter>
</defs>
</svg>
