<svg width="28" height="28" viewBox="0 0 28 28" fill="none" xmlns="http://www.w3.org/2000/svg">
<mask id="mask0_3956_40868" style="mask-type:luminance" maskUnits="userSpaceOnUse" x="0" y="0" width="28" height="28">
<path d="M28 0H0V28H28V0Z" fill="white"/>
</mask>
<g mask="url(#mask0_3956_40868)">
<path d="M0 14C0 2.471 2.471 0 14 0C25.529 0 28 2.471 28 14C28 25.529 25.529 28 14 28C2.471 28 0 25.529 0 14Z" fill="#1EB4EB" fill-opacity="0.2"/>
<g opacity="0.6" filter="url(#filter0_f_3956_40868)">
<path d="M14 25C19.5228 25 24 23.6569 24 22C24 20.3431 19.5228 19 14 19C8.47715 19 4 20.3431 4 22C4 23.6569 8.47715 25 14 25Z" fill="url(#paint0_linear_3956_40868)"/>
</g>
</g>
<path d="M19.8327 9H18.9993V7.33333C18.9993 6.875 18.6243 6.5 18.166 6.5C17.7077 6.5 17.3327 6.875 17.3327 7.33333V9H10.666V7.33333C10.666 6.875 10.291 6.5 9.83269 6.5C9.37436 6.5 8.99936 6.875 8.99936 7.33333V9H8.16602C6.79102 9 5.66602 10.125 5.66602 11.5V19C5.66602 20.375 6.79102 21.5 8.16602 21.5H19.8327C21.2077 21.5 22.3327 20.375 22.3327 19V11.5C22.3327 10.125 21.2077 9 19.8327 9ZM9.83269 18.1667C9.37436 18.1667 8.99936 17.7917 8.99936 17.3333C8.99936 16.875 9.37436 16.5 9.83269 16.5C10.291 16.5 10.666 16.875 10.666 17.3333C10.666 17.7917 10.291 18.1667 9.83269 18.1667ZM9.83269 14.8333C9.37436 14.8333 8.99936 14.4583 8.99936 14C8.99936 13.5417 9.37436 13.1667 9.83269 13.1667C10.291 13.1667 10.666 13.5417 10.666 14C10.666 14.4583 10.291 14.8333 9.83269 14.8333ZM13.9993 18.1667C13.541 18.1667 13.166 17.7917 13.166 17.3333C13.166 16.875 13.541 16.5 13.9993 16.5C14.4577 16.5 14.8327 16.875 14.8327 17.3333C14.8327 17.7917 14.4577 18.1667 13.9993 18.1667ZM13.9993 14.8333C13.541 14.8333 13.166 14.4583 13.166 14C13.166 13.5417 13.541 13.1667 13.9993 13.1667C14.4577 13.1667 14.8327 13.5417 14.8327 14C14.8327 14.4583 14.4577 14.8333 13.9993 14.8333ZM18.166 18.1667C17.7077 18.1667 17.3327 17.7917 17.3327 17.3333C17.3327 16.875 17.7077 16.5 18.166 16.5C18.6243 16.5 18.9993 16.875 18.9993 17.3333C18.9993 17.7917 18.6243 18.1667 18.166 18.1667ZM18.166 14.8333C17.7077 14.8333 17.3327 14.4583 17.3327 14C17.3327 13.5417 17.7077 13.1667 18.166 13.1667C18.6243 13.1667 18.9993 13.5417 18.9993 14C18.9993 14.4583 18.6243 14.8333 18.166 14.8333Z" fill="url(#paint1_radial_3956_40868)"/>
<defs>
<filter id="filter0_f_3956_40868" x="0" y="15" width="28" height="14" filterUnits="userSpaceOnUse" color-interpolation-filters="sRGB">
<feFlood flood-opacity="0" result="BackgroundImageFix"/>
<feBlend mode="normal" in="SourceGraphic" in2="BackgroundImageFix" result="shape"/>
<feGaussianBlur stdDeviation="2" result="effect1_foregroundBlur_3956_40868"/>
</filter>
<linearGradient id="paint0_linear_3956_40868" x1="14" y1="19" x2="14" y2="25" gradientUnits="userSpaceOnUse">
<stop stop-color="#1EB4EB" stop-opacity="0"/>
<stop offset="1" stop-color="#1EB4EB"/>
</linearGradient>
<radialGradient id="paint1_radial_3956_40868" cx="0" cy="0" r="1" gradientUnits="userSpaceOnUse" gradientTransform="translate(5.66569 6.50032) rotate(41.559) scale(22.2734 13.9033)">
<stop stop-color="#8ED9F5"/>
<stop offset="0.5" stop-color="#1EB4EB"/>
</radialGradient>
</defs>
</svg>
