<svg width="20" height="20" viewBox="0 0 20 20" fill="none" xmlns="http://www.w3.org/2000/svg">
<path d="M5.83366 8.95573H4.16699C2.15033 8.95573 1.04199 7.8474 1.04199 5.83073V4.16406C1.04199 2.1474 2.15033 1.03906 4.16699 1.03906H5.83366C7.85033 1.03906 8.95866 2.1474 8.95866 4.16406V5.83073C8.95866 7.8474 7.85033 8.95573 5.83366 8.95573ZM4.16699 2.28906C2.85033 2.28906 2.29199 2.8474 2.29199 4.16406V5.83073C2.29199 7.1474 2.85033 7.70573 4.16699 7.70573H5.83366C7.15033 7.70573 7.70866 7.1474 7.70866 5.83073V4.16406C7.70866 2.8474 7.15033 2.28906 5.83366 2.28906H4.16699Z" fill="#A9AAAA"/>
<path d="M15.8337 8.95573H14.167C12.1503 8.95573 11.042 7.8474 11.042 5.83073V4.16406C11.042 2.1474 12.1503 1.03906 14.167 1.03906H15.8337C17.8503 1.03906 18.9587 2.1474 18.9587 4.16406V5.83073C18.9587 7.8474 17.8503 8.95573 15.8337 8.95573ZM14.167 2.28906C12.8503 2.28906 12.292 2.8474 12.292 4.16406V5.83073C12.292 7.1474 12.8503 7.70573 14.167 7.70573H15.8337C17.1503 7.70573 17.7087 7.1474 17.7087 5.83073V4.16406C17.7087 2.8474 17.1503 2.28906 15.8337 2.28906H14.167Z" fill="#A9AAAA"/>
<path d="M15.8337 18.9557H14.167C12.1503 18.9557 11.042 17.8474 11.042 15.8307V14.1641C11.042 12.1474 12.1503 11.0391 14.167 11.0391H15.8337C17.8503 11.0391 18.9587 12.1474 18.9587 14.1641V15.8307C18.9587 17.8474 17.8503 18.9557 15.8337 18.9557ZM14.167 12.2891C12.8503 12.2891 12.292 12.8474 12.292 14.1641V15.8307C12.292 17.1474 12.8503 17.7057 14.167 17.7057H15.8337C17.1503 17.7057 17.7087 17.1474 17.7087 15.8307V14.1641C17.7087 12.8474 17.1503 12.2891 15.8337 12.2891H14.167Z" fill="#768387"/>
<path d="M5.83366 18.9557H4.16699C2.15033 18.9557 1.04199 17.8474 1.04199 15.8307V14.1641C1.04199 12.1474 2.15033 11.0391 4.16699 11.0391H5.83366C7.85033 11.0391 8.95866 12.1474 8.95866 14.1641V15.8307C8.95866 17.8474 7.85033 18.9557 5.83366 18.9557ZM4.16699 12.2891C2.85033 12.2891 2.29199 12.8474 2.29199 14.1641V15.8307C2.29199 17.1474 2.85033 17.7057 4.16699 17.7057H5.83366C7.15033 17.7057 7.70866 17.1474 7.70866 15.8307V14.1641C7.70866 12.8474 7.15033 12.2891 5.83366 12.2891H4.16699Z" fill="#A9AAAA"/>
</svg>
