<svg width="89" height="32" viewBox="0 0 89 32" fill="none" xmlns="http://www.w3.org/2000/svg">
<path d="M1.32357 30.0202H0.155747C0.0697303 30.0202 0 30.09 0 30.176C0 30.262 0.0697303 30.3317 0.155747 30.3317H73.98C82.1516 30.3317 88.776 23.7073 88.776 15.5357V4.14343C88.776 2.26363 87.2521 0.739746 85.3723 0.739746C84.2859 0.739746 83.2647 1.25837 82.6239 2.13562L73.8027 14.2106C73.1876 15.0525 72.2076 15.5502 71.165 15.5502C69.8771 15.5502 68.7093 14.7935 68.1833 13.6179L63.7724 3.76074C62.95 1.92285 61.1244 0.739746 59.1109 0.739746C56.974 0.739746 55.0629 2.07028 54.3214 4.07446L51.7267 11.0869C50.7341 13.7694 49.0796 15.5502 46.2193 15.5502C43.6859 15.5502 40.4569 16.9515 39.273 19.1913L36.4966 24.4438C35.9419 25.4932 34.8522 26.1498 33.6651 26.1498C32.4713 26.1498 31.3766 25.4859 30.8249 24.4272L27.2652 17.5966C26.6098 16.339 25.3094 15.5502 23.8912 15.5502C22.2897 15.5502 20.8596 14.5473 20.3141 13.0416L16.8945 3.60336C16.2718 1.88456 14.6394 0.739746 12.8112 0.739746C10.8026 0.739746 9.05604 2.11712 8.58782 4.0704L2.61067 29.0052C2.46798 29.6005 1.93571 30.0202 1.32357 30.0202Z" fill="url(#paint0_linear_2_39445)" fill-opacity="0.06"/>
<path d="M0 30.3317C1.38762 30.3317 2.59347 29.3784 2.91371 28.0283L8.59619 4.07052C9.05926 2.1182 10.8029 0.739746 12.8094 0.739746C14.6374 0.739746 16.2686 1.88776 16.8855 3.60857L20.3231 13.1976C20.8629 14.7033 22.2901 15.7078 23.8896 15.7078C25.3077 15.7078 26.6071 16.4997 27.2571 17.7601L30.8324 24.6937C31.3791 25.754 32.4721 26.4201 33.6651 26.4201C34.8513 26.4201 35.9394 25.7613 36.4892 24.7101L39.2876 19.3597C40.4617 17.1148 43.6896 15.7078 46.223 15.7078C49.0797 15.7078 50.7283 13.924 51.7104 11.2414L54.3332 4.07764C55.0672 2.07287 56.9749 0.739746 59.1098 0.739746C61.1226 0.739746 62.9461 1.9266 63.761 3.76705L68.1916 13.7737C68.7122 14.9495 69.8772 15.7078 71.1632 15.7078C72.2063 15.7078 73.1859 15.2071 73.797 14.3618L80.6369 4.89921C82.5252 2.28692 85.5527 0.739746 88.776 0.739746" stroke="#335CFF" stroke-width="1.4796"/>
<defs>
<linearGradient id="paint0_linear_2_39445" x1="44.388" y1="11.9154" x2="44.388" y2="30.3317" gradientUnits="userSpaceOnUse">
<stop stop-color="#CFD1D3"/>
<stop offset="1" stop-color="#E4E5E7" stop-opacity="0"/>
</linearGradient>
</defs>
</svg>
