<svg width="50" height="50" viewBox="0 0 50 50" fill="none" xmlns="http://www.w3.org/2000/svg">
<g clip-path="url(#clip0_3222_25411)">
<mask id="mask0_3222_25411" style="mask-type:luminance" maskUnits="userSpaceOnUse" x="0" y="0" width="50" height="50">
<path d="M50 0H0V50H50V0Z" fill="white"/>
</mask>
<g mask="url(#mask0_3222_25411)">
<mask id="mask1_3222_25411" style="mask-type:luminance" maskUnits="userSpaceOnUse" x="0" y="0" width="50" height="50">
<path d="M50 0H0V50H50V0Z" fill="white"/>
</mask>
<g mask="url(#mask1_3222_25411)">
<path d="M0 25C0 4.4125 4.4125 0 25 0C45.5875 0 50 4.4125 50 25C50 45.5875 45.5875 50 25 50C4.4125 50 0 45.5875 0 25Z" fill="#00B59C" fill-opacity="0.2"/>
<g opacity="0.6" filter="url(#filter0_f_3222_25411)">
<path d="M24.9997 44.644C34.8619 44.644 42.8569 42.2455 42.8569 39.2868C42.8569 36.3282 34.8619 33.9297 24.9997 33.9297C15.1375 33.9297 7.14258 36.3282 7.14258 39.2868C7.14258 42.2455 15.1375 44.644 24.9997 44.644Z" fill="url(#paint0_linear_3222_25411)"/>
</g>
</g>
<path d="M26.153 25.0032H17.2244C16.406 25.0032 15.7363 25.6728 15.7363 26.4913C15.7363 27.3097 16.406 27.9794 17.2244 27.9794H26.153C26.9714 27.9794 27.6411 27.3097 27.6411 26.4913C27.6411 25.6728 26.9714 25.0032 26.153 25.0032ZM32.1054 19.0508H17.2244C16.406 19.0508 15.7363 19.7204 15.7363 20.5389C15.7363 21.3573 16.406 22.027 17.2244 22.027H32.1054C32.9238 22.027 33.5935 21.3573 33.5935 20.5389C33.5935 19.7204 32.9238 19.0508 32.1054 19.0508ZM32.1054 19.0508H17.2244C16.406 19.0508 15.7363 19.7204 15.7363 20.5389C15.7363 21.3573 16.406 22.027 17.2244 22.027H32.1054C32.9238 22.027 33.5935 21.3573 33.5935 20.5389C33.5935 19.7204 32.9238 19.0508 32.1054 19.0508ZM26.153 25.0032H17.2244C16.406 25.0032 15.7363 25.6728 15.7363 26.4913C15.7363 27.3097 16.406 27.9794 17.2244 27.9794H26.153C26.9714 27.9794 27.6411 27.3097 27.6411 26.4913C27.6411 25.6728 26.9714 25.0032 26.153 25.0032ZM32.1054 19.0508H17.2244C16.406 19.0508 15.7363 19.7204 15.7363 20.5389C15.7363 21.3573 16.406 22.027 17.2244 22.027H32.1054C32.9238 22.027 33.5935 21.3573 33.5935 20.5389C33.5935 19.7204 32.9238 19.0508 32.1054 19.0508ZM26.153 25.0032H17.2244C16.406 25.0032 15.7363 25.6728 15.7363 26.4913C15.7363 27.3097 16.406 27.9794 17.2244 27.9794H26.153C26.9714 27.9794 27.6411 27.3097 27.6411 26.4913C27.6411 25.6728 26.9714 25.0032 26.153 25.0032Z" fill="url(#paint1_linear_3222_25411)"/>
<path d="M35.0808 13.0938H14.2475C11.7921 13.0938 9.7832 15.1027 9.7832 17.558V36.9033C9.7832 37.4985 10.1403 38.0491 10.7058 38.2723C10.8844 38.3616 11.0778 38.3914 11.2713 38.3914C11.6582 38.3914 12.0451 38.2426 12.3278 37.9598L16.3457 33.9271H35.0808C37.5362 33.9271 39.5451 31.9182 39.5451 29.4628V17.558C39.5451 15.1027 37.5362 13.0938 35.0808 13.0938ZM15.7356 26.4866C15.7356 25.6682 16.4052 24.9985 17.2237 24.9985H26.1523C26.9707 24.9985 27.6403 25.6682 27.6403 26.4866C27.6403 27.3051 26.9707 27.9747 26.1523 27.9747H17.2237C16.4052 27.9747 15.7356 27.3051 15.7356 26.4866ZM32.1046 22.0223H17.2237C16.4052 22.0223 15.7356 21.3527 15.7356 20.5342C15.7356 19.7158 16.4052 19.0461 17.2237 19.0461H32.1046C32.9231 19.0461 33.5927 19.7158 33.5927 20.5342C33.5927 21.3527 32.9231 22.0223 32.1046 22.0223Z" fill="url(#paint2_linear_3222_25411)"/>
</g>
</g>
<defs>
<filter id="filter0_f_3222_25411" x="-0.00027895" y="26.7868" width="50.0006" height="25.0006" filterUnits="userSpaceOnUse" color-interpolation-filters="sRGB">
<feFlood flood-opacity="0" result="BackgroundImageFix"/>
<feBlend mode="normal" in="SourceGraphic" in2="BackgroundImageFix" result="shape"/>
<feGaussianBlur stdDeviation="3.57143" result="effect1_foregroundBlur_3222_25411"/>
</filter>
<linearGradient id="paint0_linear_3222_25411" x1="24.9997" y1="33.9297" x2="24.9997" y2="44.644" gradientUnits="userSpaceOnUse">
<stop stop-color="#9CFFAC" stop-opacity="0"/>
<stop offset="1" stop-color="#00B59C"/>
</linearGradient>
<linearGradient id="paint1_linear_3222_25411" x1="24.6649" y1="19.0508" x2="24.6649" y2="27.9794" gradientUnits="userSpaceOnUse">
<stop stop-color="#9CFFAC"/>
<stop offset="1" stop-color="#00B59C"/>
</linearGradient>
<linearGradient id="paint2_linear_3222_25411" x1="24.6642" y1="13.0938" x2="24.6642" y2="38.3914" gradientUnits="userSpaceOnUse">
<stop stop-color="#F0FFF4"/>
<stop offset="1" stop-color="#C3FFE8"/>
</linearGradient>
<clipPath id="clip0_3222_25411">
<rect width="50" height="50" fill="white"/>
</clipPath>
</defs>
</svg>
