<svg width="32" height="32" viewBox="0 0 32 32" fill="none" xmlns="http://www.w3.org/2000/svg">
<circle cx="15.7539" cy="15.7539" r="15.7539" fill="#DFF1DE"/>
<path d="M13.3184 6.87305C13.7342 6.87326 14.0771 7.21694 14.0771 7.63281C14.0771 8.04876 13.7343 8.39237 13.3184 8.39258H11.2861C9.68677 8.39263 8.38872 9.69068 8.38867 11.29V13.3223C8.38846 13.7382 8.04485 14.0811 7.62891 14.0811C7.21303 14.081 6.86935 13.7381 6.86914 13.3223V11.29C6.86919 8.85022 8.85481 6.8731 11.2861 6.87305H13.3184Z" fill="#3CBD2C" stroke="#3CBD2C" stroke-width="0.300075"/>
<path d="M20.2275 6.87305C22.6588 6.87322 24.6435 8.8503 24.6436 11.29V13.3223C24.6433 13.738 24.3005 14.0808 23.8848 14.0811C23.4688 14.0811 23.1252 13.7382 23.125 13.3223V11.29C23.125 9.69075 21.8268 8.39275 20.2275 8.39258H18.1953C17.7793 8.39249 17.4355 8.04883 17.4355 7.63281C17.4356 7.21686 17.7794 6.87313 18.1953 6.87305H20.2275Z" fill="#3CBD2C" stroke="#3CBD2C" stroke-width="0.300075"/>
<path d="M23.8838 18.248C24.2998 18.248 24.6435 18.5918 24.6436 19.0078V20.2266C24.6436 22.6665 22.658 24.6436 20.2266 24.6436H19.0078C18.5918 24.6435 18.248 24.2998 18.248 23.8838C18.2483 23.4679 18.5919 23.1251 19.0078 23.125H20.2266C21.826 23.125 23.125 21.826 23.125 20.2266V19.0078C23.1251 18.5919 23.4679 18.2483 23.8838 18.248Z" fill="#3CBD2C" stroke="#3CBD2C" stroke-width="0.300075"/>
<path d="M7.62891 17.4355C8.04493 17.4355 8.38859 17.7793 8.38867 18.1953V20.2275C8.38884 21.8268 9.68685 23.125 11.2861 23.125H13.3184C13.7343 23.1252 14.0771 23.4688 14.0771 23.8848C14.0769 24.3005 13.7341 24.6433 13.3184 24.6436H11.2861C8.85489 24.6435 6.86931 22.6673 6.86914 20.2275V18.1953C6.86922 17.7794 7.21295 17.4356 7.62891 17.4355Z" fill="#3CBD2C" stroke="#3CBD2C" stroke-width="0.300075"/>
<rect x="11.2539" y="15.9062" width="1.73311" height="4.80754" rx="0.866557" transform="rotate(-45 11.2539 15.9062)" fill="#3CBD2C"/>
<rect x="19.5078" y="12.0078" width="1.73311" height="8.5896" rx="0.866557" transform="rotate(45 19.5078 12.0078)" fill="#3CBD2C"/>
</svg>
