<svg width="18" height="18" viewBox="0 0 18 18" fill="none" xmlns="http://www.w3.org/2000/svg">
<path d="M10.5004 12.6791C10.3579 12.6791 10.2154 12.6266 10.1029 12.5141L7.13285 9.54406C6.91535 9.32656 6.91535 8.96656 7.13285 8.74906C7.35035 8.53156 7.71035 8.53156 7.92785 8.74906L10.8979 11.7191C11.1154 11.9366 11.1154 12.2966 10.8979 12.5141C10.7854 12.6191 10.6429 12.6791 10.5004 12.6791Z" fill="#A9AAAA"/>
<path d="M7.50008 12.7103C7.35758 12.7103 7.21508 12.6578 7.10258 12.5453C6.88508 12.3278 6.88508 11.9678 7.10258 11.7503L10.0726 8.78031C10.2901 8.56281 10.6501 8.56281 10.8676 8.78031C11.0851 8.99781 11.0851 9.35781 10.8676 9.57531L7.89758 12.5453C7.78508 12.6578 7.64258 12.7103 7.50008 12.7103Z" fill="#A9AAAA"/>
<path d="M10.5 5.0625H7.5C6.78 5.0625 5.4375 5.0625 5.4375 3C5.4375 0.9375 6.78 0.9375 7.5 0.9375H10.5C11.22 0.9375 12.5625 0.9375 12.5625 3C12.5625 3.72 12.5625 5.0625 10.5 5.0625ZM7.5 2.0625C6.7575 2.0625 6.5625 2.0625 6.5625 3C6.5625 3.9375 6.7575 3.9375 7.5 3.9375H10.5C11.4375 3.9375 11.4375 3.7425 11.4375 3C11.4375 2.0625 11.2425 2.0625 10.5 2.0625H7.5Z" fill="#A9AAAA"/>
<path d="M11.25 17.0638H6.75C2.535 17.0638 1.6875 15.1288 1.6875 12.0013V7.50129C1.6875 4.08129 2.925 2.61879 5.97 2.46129C6.285 2.44629 6.5475 2.67879 6.5625 2.99379C6.5775 3.30879 6.3375 3.56379 6.03 3.57879C3.9 3.69879 2.8125 4.33629 2.8125 7.50129V12.0013C2.8125 14.7763 3.36 15.9388 6.75 15.9388H11.25C14.64 15.9388 15.1875 14.7763 15.1875 12.0013V7.50129C15.1875 4.33629 14.1 3.69879 11.97 3.57879C11.6625 3.56379 11.4225 3.29379 11.4375 2.98629C11.4525 2.67879 11.7225 2.43879 12.03 2.45379C15.075 2.61879 16.3125 4.08129 16.3125 7.49379V11.9938C16.3125 15.1288 15.465 17.0638 11.25 17.0638Z" fill="#A9AAAA"/>
</svg>
