<svg width="18" height="18" viewBox="0 0 18 18" fill="none" xmlns="http://www.w3.org/2000/svg">
<path d="M8.1075 12.7091C7.965 12.7091 7.8225 12.6566 7.71 12.5441L6.585 11.4191C6.3675 11.2016 6.3675 10.8416 6.585 10.6241C6.8025 10.4066 7.1625 10.4066 7.38 10.6241L8.1075 11.3516L10.71 8.74906C10.9275 8.53156 11.2875 8.53156 11.505 8.74906C11.7225 8.96656 11.7225 9.32656 11.505 9.54406L8.505 12.5441C8.4 12.6566 8.25 12.7091 8.1075 12.7091Z" fill="#A9AAAA"/>
<path d="M10.5 5.0625H7.5C6.78 5.0625 5.4375 5.0625 5.4375 3C5.4375 0.9375 6.78 0.9375 7.5 0.9375H10.5C11.22 0.9375 12.5625 0.9375 12.5625 3C12.5625 3.72 12.5625 5.0625 10.5 5.0625ZM7.5 2.0625C6.7575 2.0625 6.5625 2.0625 6.5625 3C6.5625 3.9375 6.7575 3.9375 7.5 3.9375H10.5C11.4375 3.9375 11.4375 3.7425 11.4375 3C11.4375 2.0625 11.2425 2.0625 10.5 2.0625H7.5Z" fill="#A9AAAA"/>
<path d="M11.25 17.0638H6.75C2.535 17.0638 1.6875 15.1288 1.6875 12.0013V7.50129C1.6875 4.08129 2.925 2.61879 5.97 2.46129C6.2775 2.44629 6.5475 2.67879 6.5625 2.99379C6.5775 3.30879 6.3375 3.56379 6.03 3.57879C3.9 3.69879 2.8125 4.33629 2.8125 7.50129V12.0013C2.8125 14.7763 3.36 15.9388 6.75 15.9388H11.25C14.64 15.9388 15.1875 14.7763 15.1875 12.0013V7.50129C15.1875 4.33629 14.1 3.69879 11.97 3.57879C11.6625 3.56379 11.4225 3.29379 11.4375 2.98629C11.4525 2.67879 11.715 2.43879 12.03 2.45379C15.075 2.61879 16.3125 4.08129 16.3125 7.49379V11.9938C16.3125 15.1288 15.465 17.0638 11.25 17.0638Z" fill="#A9AAAA"/>
</svg>
