<svg width="20" height="20" viewBox="0 0 20 20" fill="none" xmlns="http://www.w3.org/2000/svg">
<path d="M10.0003 18.9557C5.05866 18.9557 1.04199 14.9391 1.04199 9.9974C1.04199 5.05573 5.05866 1.03906 10.0003 1.03906C14.942 1.03906 18.9587 5.05573 18.9587 9.9974C18.9587 14.9391 14.942 18.9557 10.0003 18.9557ZM10.0003 2.28906C5.75033 2.28906 2.29199 5.7474 2.29199 9.9974C2.29199 14.2474 5.75033 17.7057 10.0003 17.7057C14.2503 17.7057 17.7087 14.2474 17.7087 9.9974C17.7087 5.7474 14.2503 2.28906 10.0003 2.28906Z" fill="#A9AAAA"/>
<path d="M13.0919 13.2745C12.9835 13.2745 12.8752 13.2495 12.7752 13.1828L10.1919 11.6411C9.55019 11.2578 9.0752 10.4161 9.0752 9.67448V6.25781C9.0752 5.91615 9.35853 5.63281 9.7002 5.63281C10.0419 5.63281 10.3252 5.91615 10.3252 6.25781V9.67448C10.3252 9.97448 10.5752 10.4161 10.8335 10.5661L13.4169 12.1078C13.7169 12.2828 13.8085 12.6661 13.6335 12.9661C13.5085 13.1661 13.3002 13.2745 13.0919 13.2745Z" fill="#A9AAAA"/>
</svg>
