<svg width="49" height="41" viewBox="0 0 49 41" fill="none" xmlns="http://www.w3.org/2000/svg">
<rect width="48.3075" height="40.1841" rx="8.03682" fill="#FBDEEC"/>
<path d="M33.8784 20.7914C33.4322 20.7914 33.0565 20.5082 32.9977 20.137C32.7159 17.9294 31.2833 15.927 29.0758 14.6572C28.6765 14.4228 28.5826 13.9734 28.8526 13.6413C29.1345 13.3092 29.6864 13.2311 30.0739 13.4558C32.7042 14.9698 34.3951 17.3531 34.7356 19.9807C34.7826 20.3812 34.4421 20.7426 33.9489 20.7914C33.9371 20.7914 33.9019 20.7914 33.8784 20.7914Z" fill="#F31A7C"/>
<path d="M13.7638 20.8321C13.7286 20.8321 13.7051 20.8321 13.6699 20.8321C13.1884 20.7833 12.8361 20.4219 12.8831 20.0214C13.2002 17.3938 14.8793 15.0203 17.4744 13.4867C17.8737 13.2523 18.4256 13.3304 18.7074 13.6625C18.9892 13.9946 18.8953 14.4537 18.496 14.6881C16.3119 15.9677 14.9028 17.9701 14.6327 20.1777C14.5975 20.5489 14.21 20.8321 13.7638 20.8321Z" fill="#F31A7C"/>
<path d="M23.8185 30.124C22.0807 30.124 20.425 29.7919 18.875 29.1473C18.4405 28.9617 18.2644 28.5221 18.4875 28.1607C18.7106 27.7993 19.239 27.6528 19.6735 27.8384C22.2098 28.9031 25.2629 28.9226 27.8227 27.897C28.2572 27.7211 28.7856 27.8774 28.997 28.2388C29.2083 28.6003 29.0205 29.0398 28.586 29.2156C27.083 29.8212 25.486 30.124 23.8185 30.124Z" fill="#F31A7C"/>
<path d="M23.8189 16.2867C21.5291 16.2867 19.6738 14.7434 19.6738 12.8387C19.6738 10.9339 21.5291 9.39062 23.8189 9.39062C26.1087 9.39062 27.964 10.9339 27.964 12.8387C27.964 14.7434 26.097 16.2867 23.8189 16.2867ZM23.8189 10.8656C22.5038 10.8656 21.4352 11.7544 21.4352 12.8485C21.4352 13.9425 22.5038 14.8313 23.8189 14.8313C25.1341 14.8313 26.2027 13.9425 26.2027 12.8485C26.2027 11.7544 25.1223 10.8656 23.8189 10.8656Z" fill="#F31A7C"/>
<path d="M15.3404 28.2477C13.0506 28.2477 11.1953 26.7044 11.1953 24.7996C11.1953 22.9047 13.0506 21.3516 15.3404 21.3516C17.6302 21.3516 19.4855 22.8949 19.4855 24.7996C19.4855 26.6946 17.6302 28.2477 15.3404 28.2477ZM15.3404 22.8167C14.0253 22.8167 12.9567 23.7056 12.9567 24.7996C12.9567 25.8936 14.0253 26.7825 15.3404 26.7825C16.6556 26.7825 17.7241 25.8936 17.7241 24.7996C17.7241 23.7056 16.6556 22.8167 15.3404 22.8167Z" fill="#F31A7C"/>
<path d="M32.1685 28.2477C29.8788 28.2477 28.0234 26.7044 28.0234 24.7996C28.0234 22.9047 29.8788 21.3516 32.1685 21.3516C34.4583 21.3516 36.3136 22.8949 36.3136 24.7996C36.3019 26.6946 34.4466 28.2477 32.1685 28.2477ZM32.1685 22.8167C30.8534 22.8167 29.7848 23.7056 29.7848 24.7996C29.7848 25.8936 30.8534 26.7825 32.1685 26.7825C33.4837 26.7825 34.5523 25.8936 34.5523 24.7996C34.5405 23.7056 33.4837 22.8167 32.1685 22.8167Z" fill="#F31A7C"/>
</svg>
