<svg width="18" height="18" viewBox="0 0 18 18" fill="none" xmlns="http://www.w3.org/2000/svg">
<path d="M11.9876 9.66336V12.8101C11.9876 15.4324 10.9387 16.4813 8.31643 16.4813H5.16971C2.54744 16.4813 1.49854 15.4324 1.49854 12.8101V9.66336C1.49854 7.04109 2.54744 5.99219 5.16971 5.99219H8.31643C10.9387 5.99219 11.9876 7.04109 11.9876 9.66336Z" stroke="#292D32" stroke-width="1.12383" stroke-linecap="round" stroke-linejoin="round"/>
<path opacity="0.4" d="M16.4827 5.17118V8.3179C16.4827 10.9402 15.4338 11.9891 12.8116 11.9891H11.9874V9.66649C11.9874 7.04422 10.9385 5.99532 8.31623 5.99532H5.99365V5.17118C5.99365 2.54891 7.04256 1.5 9.66483 1.5H12.8116C15.4338 1.5 16.4827 2.54891 16.4827 5.17118Z" stroke="#292D32" stroke-width="1.12383" stroke-linecap="round" stroke-linejoin="round"/>
</svg>
