<svg width="21" height="18" viewBox="0 0 21 18" fill="none" xmlns="http://www.w3.org/2000/svg">
<rect y="2.25" width="20.2289" height="14.9844" rx="3.7461" fill="#F8712B"/>
<path d="M8.26389 11.7397C8.12405 11.6046 7.99733 11.4217 7.88371 11.191C7.77446 10.9604 7.71328 10.7001 7.70017 10.4101C7.69143 10.186 7.77009 9.98833 7.93615 9.81699C8.10657 9.64564 8.3207 9.48912 8.57852 9.34744C8.84072 9.20575 9.1051 9.069 9.37166 8.9372C9.63822 8.8021 9.86764 8.66206 10.0599 8.51707C10.2566 8.3688 10.3724 8.20075 10.4073 8.01293C10.5821 7.43299 10.4401 6.98651 9.98126 6.67348C9.52242 6.35715 8.83635 6.19898 7.92304 6.19898C7.59529 6.19898 7.33747 6.21052 7.14956 6.23358C6.96166 6.25665 6.82619 6.27642 6.74316 6.29289V5.46253C6.79997 5.43288 6.8983 5.40157 7.03813 5.36862C7.18234 5.33567 7.35495 5.30766 7.55597 5.2846C7.75698 5.26153 7.96892 5.25 8.19179 5.25C8.95215 5.25 9.59015 5.32579 10.1058 5.47736C10.6215 5.62893 11.0257 5.83488 11.3185 6.09519C11.6156 6.35221 11.8122 6.64217 11.9084 6.96509C12.0045 7.28801 12.0133 7.61916 11.9346 7.95856C11.8909 8.20569 11.7948 8.42152 11.6462 8.60604C11.4976 8.79057 11.3206 8.95203 11.1153 9.09042C10.9099 9.22552 10.6957 9.35073 10.4729 9.46606C10.2544 9.57809 10.0468 9.68848 9.85016 9.79721C9.65352 9.90266 9.48965 10.0163 9.35855 10.1383C9.23182 10.2569 9.15972 10.3936 9.14224 10.5485C9.11165 10.7627 9.12695 10.9554 9.18812 11.1268C9.2493 11.2981 9.32359 11.5024 9.41099 11.7397H8.26389ZM9.01114 14.2406C8.7708 14.2406 8.55449 14.1698 8.36221 14.0281C8.17431 13.8864 8.07598 13.7085 8.06724 13.4943C8.06287 13.346 8.11094 13.2093 8.21145 13.0841C8.31196 12.9588 8.44306 12.8583 8.60474 12.7826C8.76643 12.7035 8.93685 12.6639 9.11602 12.6639C9.42191 12.6639 9.6557 12.7364 9.81739 12.8814C9.98345 13.0264 10.0687 13.1961 10.073 13.3905C10.0818 13.5487 10.0359 13.692 9.93538 13.8205C9.83487 13.949 9.70159 14.0512 9.53553 14.127C9.37384 14.2027 9.19905 14.2406 9.01114 14.2406Z" fill="white"/>
<rect x="2.24512" width="14.9844" height="1.49844" rx="0.74922" fill="#F8712B"/>
<rect x="15.7314" y="3.75" width="3.7461" height="1.49844" rx="0.74922" transform="rotate(-90 15.7314 3.75)" fill="#F8712B"/>
<rect x="2.24512" y="3.75" width="3.7461" height="1.49844" rx="0.74922" transform="rotate(-90 2.24512 3.75)" fill="#F8712B"/>
</svg>
