<svg width="41" height="41" viewBox="0 0 41 41" fill="none" xmlns="http://www.w3.org/2000/svg">
<path d="M33.4103 25.7747C35.0108 24.1741 35.87 21.9671 35.7521 19.7095L35.3477 11.2856C35.1961 7.91603 32.5173 5.23723 29.1646 5.06875L20.7407 4.6644C18.4831 4.56332 16.276 5.4057 14.6755 7.00624L7.04346 14.6383C3.90977 17.772 3.90977 22.86 7.04346 26.0106L14.4396 33.4067C17.5733 36.5404 22.6614 36.5404 25.8119 33.4067L27.7157 31.5029" stroke="#737577" stroke-width="2.37851" stroke-linecap="round" stroke-linejoin="round"/>
<path d="M20.5548 14.3409C20.3358 14.8463 20.2178 15.4192 20.2178 16.0088C20.2178 18.3338 22.1048 20.2208 24.4298 20.2208C26.7548 20.2208 28.6417 18.3338 28.6417 16.0088C28.6417 13.6838 26.7548 11.7969 24.4298 11.7969" stroke="#737577" stroke-width="2.37851" stroke-linecap="round"/>
<path d="M11.7932 21.9062L18.5324 28.6454" stroke="#737577" stroke-width="2.37851" stroke-miterlimit="10" stroke-linecap="round" stroke-linejoin="round"/>
</svg>
