<svg width="37" height="40" viewBox="0 0 37 40" fill="none" xmlns="http://www.w3.org/2000/svg">
<path d="M33.282 16.4433V24.6647C33.282 32.8861 30.2566 36.1746 22.6929 36.1746H13.6165C6.05281 36.1746 3.02734 32.8861 3.02734 24.6647V14.799C3.02734 6.57762 6.05281 3.28906 13.6165 3.28906H21.1802" fill="url(#paint0_linear_1640_5566)"/>
<path d="M33.282 16.4433V24.6647C33.282 32.8861 30.2566 36.1746 22.6929 36.1746H13.6165C6.05281 36.1746 3.02734 32.8861 3.02734 24.6647V14.799C3.02734 6.57762 6.05281 3.28906 13.6165 3.28906H21.1802" stroke="#5B5C5E" stroke-width="2.36776" stroke-linecap="round" stroke-linejoin="round"/>
<path d="M33.2816 16.4433H27.2306C22.6924 16.4433 21.1797 14.799 21.1797 9.86617V3.28906L33.2816 16.4433Z" fill="#5B5C5E" stroke="#5B5C5E" stroke-width="2.36776" stroke-linecap="round" stroke-linejoin="round"/>
<path d="M12.373 25.0605C12.6888 25.0605 12.9603 25.0783 13.1846 25.1133L13.1855 25.1123C13.4038 25.1434 13.5878 25.1781 13.7344 25.2168C13.8699 25.2526 13.9779 25.2801 14.0586 25.2988L14.2383 25.3408L14.209 25.5225L14.0664 26.3916L14.0186 26.6846L13.7676 26.5273C13.7345 26.5067 13.6675 26.4725 13.5596 26.4229C13.4701 26.3817 13.3348 26.3391 13.1465 26.2988H13.1436C12.9687 26.259 12.7346 26.2373 12.4365 26.2373C12.0685 26.2373 11.757 26.3249 11.4951 26.4932H11.4941C11.2318 26.6593 11.0239 26.8987 10.874 27.2197C10.7272 27.5376 10.6504 27.9238 10.6504 28.3818C10.6504 28.8301 10.7255 29.2209 10.8711 29.5576H10.8721C11.02 29.8905 11.2282 30.1465 11.4961 30.332C11.7593 30.5142 12.077 30.6094 12.457 30.6094C12.6503 30.6094 12.8424 30.5911 13.0332 30.5547H13.0342C13.2316 30.5175 13.4026 30.4706 13.5488 30.417H13.5508C13.7046 30.3615 13.7954 30.3117 13.8408 30.2734L14.165 29.999V31.3818L14.04 31.4307L13.6357 31.5791C13.4799 31.6329 13.3033 31.6764 13.1074 31.7109C12.9054 31.75 12.6714 31.7695 12.4072 31.7695C11.7849 31.7695 11.2325 31.632 10.7578 31.3506H10.7568C10.2848 31.0677 9.91856 30.6731 9.66016 30.1729C9.40144 29.669 9.27539 29.0891 9.27539 28.4395C9.27542 27.9072 9.35501 27.4286 9.51855 27.0078V27.0068C9.68317 26.5909 9.91054 26.235 10.2012 25.9424C10.4896 25.652 10.8209 25.4311 11.1943 25.2822H11.1953C11.5694 25.1344 11.9624 25.0606 12.373 25.0605ZM18.5273 25.0605C18.9158 25.0606 19.2485 25.0998 19.5205 25.1816C19.7723 25.2549 19.9749 25.3326 20.1094 25.4219L20.2256 25.499L20.1914 25.6338L20 26.4033L19.9346 26.667L19.7041 26.5234C19.5763 26.4435 19.4218 26.3703 19.2402 26.3047L19.2373 26.3037V26.3027C19.0803 26.243 18.8475 26.208 18.5273 26.208C18.3414 26.208 18.1731 26.2321 18.0215 26.2783C17.8746 26.3232 17.766 26.3885 17.6875 26.4688C17.6222 26.5355 17.585 26.6228 17.585 26.7471C17.585 26.9117 17.6185 27.0353 17.6738 27.1279C17.7345 27.2221 17.8385 27.3223 17.999 27.4248C18.1707 27.5316 18.3987 27.6587 18.6846 27.8066L19.001 27.9775C19.1052 28.0358 19.2088 28.0955 19.3115 28.1572L19.4678 28.2539C19.6209 28.3538 19.7635 28.4628 19.8945 28.5801H19.8936C20.078 28.7427 20.2261 28.9306 20.335 29.1445H20.334C20.4504 29.3647 20.5068 29.6123 20.5068 29.8828C20.5068 30.2915 20.4095 30.649 20.2031 30.9414L20.2021 30.9404C20.0273 31.1891 19.7944 31.3816 19.5068 31.5176L19.3799 31.5723C19.0409 31.705 18.6549 31.7695 18.2266 31.7695C17.9465 31.7695 17.6789 31.7478 17.4248 31.7041V31.7031C17.1797 31.6633 16.9642 31.6148 16.7803 31.5557C16.6049 31.4993 16.4613 31.4417 16.3643 31.3809L16.2422 31.3047L16.2783 31.165L16.4824 30.3701L16.5479 30.1191L16.7725 30.249C16.8655 30.3027 16.987 30.3574 17.1387 30.4131C17.2857 30.4671 17.4486 30.5128 17.6279 30.5498H17.6289C17.8058 30.5835 17.9855 30.6006 18.168 30.6006C18.5323 30.6006 18.7797 30.539 18.9346 30.4404C19.0651 30.3573 19.1435 30.2207 19.1436 29.9834C19.1436 29.8246 19.1033 29.7061 19.0342 29.6162L19.0332 29.6152C18.9538 29.5097 18.8264 29.401 18.6406 29.293L18.6396 29.292C18.4488 29.1795 18.2066 29.053 17.9121 28.9131L17.9102 28.9121C17.6463 28.7821 17.3896 28.6264 17.1416 28.4453L17.1406 28.4443C16.8861 28.2563 16.6752 28.0337 16.5088 27.7773C16.3333 27.507 16.2471 27.199 16.2471 26.8594C16.2471 26.5349 16.31 26.2475 16.4482 26.0078L16.4492 26.0068C16.5849 25.7742 16.7675 25.5862 16.9951 25.4443C17.2153 25.3072 17.4587 25.2085 17.7236 25.1484H17.7246C17.9866 25.0898 18.2545 25.0605 18.5273 25.0605ZM23.3994 25.127L23.4453 25.2588L24.8564 29.2812L24.8604 29.292L24.958 29.6357L25.0615 29.29L25.0635 29.2842L26.4121 25.2617L26.457 25.127H27.9072L27.8105 25.3916L25.5449 31.6182L25.4971 31.748H24.4043L24.3564 31.6201L22.0352 25.3936L21.9365 25.127H23.3994Z" fill="#88888A"/>
<path d="M12.373 25.0605C12.6888 25.0605 12.9603 25.0783 13.1846 25.1133L13.1855 25.1123C13.4038 25.1434 13.5878 25.1781 13.7344 25.2168C13.8699 25.2526 13.9779 25.2801 14.0586 25.2988L14.2383 25.3408L14.209 25.5225L14.0664 26.3916L14.0186 26.6846L13.7676 26.5273C13.7345 26.5067 13.6675 26.4725 13.5596 26.4229C13.4701 26.3817 13.3348 26.3391 13.1465 26.2988H13.1436C12.9687 26.259 12.7346 26.2373 12.4365 26.2373C12.0685 26.2373 11.757 26.3249 11.4951 26.4932H11.4941C11.2318 26.6593 11.0239 26.8987 10.874 27.2197C10.7272 27.5376 10.6504 27.9238 10.6504 28.3818C10.6504 28.8301 10.7255 29.2209 10.8711 29.5576H10.8721C11.02 29.8905 11.2282 30.1465 11.4961 30.332C11.7593 30.5142 12.077 30.6094 12.457 30.6094C12.6503 30.6094 12.8424 30.5911 13.0332 30.5547H13.0342C13.2316 30.5175 13.4026 30.4706 13.5488 30.417H13.5508C13.7046 30.3615 13.7954 30.3117 13.8408 30.2734L14.165 29.999V31.3818L14.04 31.4307L13.6357 31.5791C13.4799 31.6329 13.3033 31.6764 13.1074 31.7109C12.9054 31.75 12.6714 31.7695 12.4072 31.7695C11.7849 31.7695 11.2325 31.632 10.7578 31.3506H10.7568C10.2848 31.0677 9.91856 30.6731 9.66016 30.1729C9.40144 29.669 9.27539 29.0891 9.27539 28.4395C9.27542 27.9072 9.35501 27.4286 9.51855 27.0078V27.0068C9.68317 26.5909 9.91054 26.235 10.2012 25.9424C10.4896 25.652 10.8209 25.4311 11.1943 25.2822H11.1953C11.5694 25.1344 11.9624 25.0606 12.373 25.0605ZM18.5273 25.0605C18.9158 25.0606 19.2485 25.0998 19.5205 25.1816C19.7723 25.2549 19.9749 25.3326 20.1094 25.4219L20.2256 25.499L20.1914 25.6338L20 26.4033L19.9346 26.667L19.7041 26.5234C19.5763 26.4435 19.4218 26.3703 19.2402 26.3047L19.2373 26.3037V26.3027C19.0803 26.243 18.8475 26.208 18.5273 26.208C18.3414 26.208 18.1731 26.2321 18.0215 26.2783C17.8746 26.3232 17.766 26.3885 17.6875 26.4688C17.6222 26.5355 17.585 26.6228 17.585 26.7471C17.585 26.9117 17.6185 27.0353 17.6738 27.1279C17.7345 27.2221 17.8385 27.3223 17.999 27.4248C18.1707 27.5316 18.3987 27.6587 18.6846 27.8066L19.001 27.9775C19.1052 28.0358 19.2088 28.0955 19.3115 28.1572L19.4678 28.2539C19.6209 28.3538 19.7635 28.4628 19.8945 28.5801H19.8936C20.078 28.7427 20.2261 28.9306 20.335 29.1445H20.334C20.4504 29.3647 20.5068 29.6123 20.5068 29.8828C20.5068 30.2915 20.4095 30.649 20.2031 30.9414L20.2021 30.9404C20.0273 31.1891 19.7944 31.3816 19.5068 31.5176L19.3799 31.5723C19.0409 31.705 18.6549 31.7695 18.2266 31.7695C17.9465 31.7695 17.6789 31.7478 17.4248 31.7041V31.7031C17.1797 31.6633 16.9642 31.6148 16.7803 31.5557C16.6049 31.4993 16.4613 31.4417 16.3643 31.3809L16.2422 31.3047L16.2783 31.165L16.4824 30.3701L16.5479 30.1191L16.7725 30.249C16.8655 30.3027 16.987 30.3574 17.1387 30.4131C17.2857 30.4671 17.4486 30.5128 17.6279 30.5498H17.6289C17.8058 30.5835 17.9855 30.6006 18.168 30.6006C18.5323 30.6006 18.7797 30.539 18.9346 30.4404C19.0651 30.3573 19.1435 30.2207 19.1436 29.9834C19.1436 29.8246 19.1033 29.7061 19.0342 29.6162L19.0332 29.6152C18.9538 29.5097 18.8264 29.401 18.6406 29.293L18.6396 29.292C18.4488 29.1795 18.2066 29.053 17.9121 28.9131L17.9102 28.9121C17.6463 28.7821 17.3896 28.6264 17.1416 28.4453L17.1406 28.4443C16.8861 28.2563 16.6752 28.0337 16.5088 27.7773C16.3333 27.507 16.2471 27.199 16.2471 26.8594C16.2471 26.5349 16.31 26.2475 16.4482 26.0078L16.4492 26.0068C16.5849 25.7742 16.7675 25.5862 16.9951 25.4443C17.2153 25.3072 17.4587 25.2085 17.7236 25.1484H17.7246C17.9866 25.0898 18.2545 25.0605 18.5273 25.0605ZM23.3994 25.127L23.4453 25.2588L24.8564 29.2812L24.8604 29.292L24.958 29.6357L25.0615 29.29L25.0635 29.2842L26.4121 25.2617L26.457 25.127H27.9072L27.8105 25.3916L25.5449 31.6182L25.4971 31.748H24.4043L24.3564 31.6201L22.0352 25.3936L21.9365 25.127H23.3994Z" fill="#242628"/>
<path d="M12.373 25.0605C12.6888 25.0605 12.9603 25.0783 13.1846 25.1133L13.1855 25.1123C13.4038 25.1434 13.5878 25.1781 13.7344 25.2168C13.8699 25.2526 13.9779 25.2801 14.0586 25.2988L14.2383 25.3408L14.209 25.5225L14.0664 26.3916L14.0186 26.6846L13.7676 26.5273C13.7345 26.5067 13.6675 26.4725 13.5596 26.4229C13.4701 26.3817 13.3348 26.3391 13.1465 26.2988H13.1436C12.9687 26.259 12.7346 26.2373 12.4365 26.2373C12.0685 26.2373 11.757 26.3249 11.4951 26.4932H11.4941C11.2318 26.6593 11.0239 26.8987 10.874 27.2197C10.7272 27.5376 10.6504 27.9238 10.6504 28.3818C10.6504 28.8301 10.7255 29.2209 10.8711 29.5576H10.8721C11.02 29.8905 11.2282 30.1465 11.4961 30.332C11.7593 30.5142 12.077 30.6094 12.457 30.6094C12.6503 30.6094 12.8424 30.5911 13.0332 30.5547H13.0342C13.2316 30.5175 13.4026 30.4706 13.5488 30.417H13.5508C13.7046 30.3615 13.7954 30.3117 13.8408 30.2734L14.165 29.999V31.3818L14.04 31.4307L13.6357 31.5791C13.4799 31.6329 13.3033 31.6764 13.1074 31.7109C12.9054 31.75 12.6714 31.7695 12.4072 31.7695C11.7849 31.7695 11.2325 31.632 10.7578 31.3506H10.7568C10.2848 31.0677 9.91856 30.6731 9.66016 30.1729C9.40144 29.669 9.27539 29.0891 9.27539 28.4395C9.27542 27.9072 9.35501 27.4286 9.51855 27.0078V27.0068C9.68317 26.5909 9.91054 26.235 10.2012 25.9424C10.4896 25.652 10.8209 25.4311 11.1943 25.2822H11.1953C11.5694 25.1344 11.9624 25.0606 12.373 25.0605ZM18.5273 25.0605C18.9158 25.0606 19.2485 25.0998 19.5205 25.1816C19.7723 25.2549 19.9749 25.3326 20.1094 25.4219L20.2256 25.499L20.1914 25.6338L20 26.4033L19.9346 26.667L19.7041 26.5234C19.5763 26.4435 19.4218 26.3703 19.2402 26.3047L19.2373 26.3037V26.3027C19.0803 26.243 18.8475 26.208 18.5273 26.208C18.3414 26.208 18.1731 26.2321 18.0215 26.2783C17.8746 26.3232 17.766 26.3885 17.6875 26.4688C17.6222 26.5355 17.585 26.6228 17.585 26.7471C17.585 26.9117 17.6185 27.0353 17.6738 27.1279C17.7345 27.2221 17.8385 27.3223 17.999 27.4248C18.1707 27.5316 18.3987 27.6587 18.6846 27.8066L19.001 27.9775C19.1052 28.0358 19.2088 28.0955 19.3115 28.1572L19.4678 28.2539C19.6209 28.3538 19.7635 28.4628 19.8945 28.5801H19.8936C20.078 28.7427 20.2261 28.9306 20.335 29.1445H20.334C20.4504 29.3647 20.5068 29.6123 20.5068 29.8828C20.5068 30.2915 20.4095 30.649 20.2031 30.9414L20.2021 30.9404C20.0273 31.1891 19.7944 31.3816 19.5068 31.5176L19.3799 31.5723C19.0409 31.705 18.6549 31.7695 18.2266 31.7695C17.9465 31.7695 17.6789 31.7478 17.4248 31.7041V31.7031C17.1797 31.6633 16.9642 31.6148 16.7803 31.5557C16.6049 31.4993 16.4613 31.4417 16.3643 31.3809L16.2422 31.3047L16.2783 31.165L16.4824 30.3701L16.5479 30.1191L16.7725 30.249C16.8655 30.3027 16.987 30.3574 17.1387 30.4131C17.2857 30.4671 17.4486 30.5128 17.6279 30.5498H17.6289C17.8058 30.5835 17.9855 30.6006 18.168 30.6006C18.5323 30.6006 18.7797 30.539 18.9346 30.4404C19.0651 30.3573 19.1435 30.2207 19.1436 29.9834C19.1436 29.8246 19.1033 29.7061 19.0342 29.6162L19.0332 29.6152C18.9538 29.5097 18.8264 29.401 18.6406 29.293L18.6396 29.292C18.4488 29.1795 18.2066 29.053 17.9121 28.9131L17.9102 28.9121C17.6463 28.7821 17.3896 28.6264 17.1416 28.4453L17.1406 28.4443C16.8861 28.2563 16.6752 28.0337 16.5088 27.7773C16.3333 27.507 16.2471 27.199 16.2471 26.8594C16.2471 26.5349 16.31 26.2475 16.4482 26.0078L16.4492 26.0068C16.5849 25.7742 16.7675 25.5862 16.9951 25.4443C17.2153 25.3072 17.4587 25.2085 17.7236 25.1484H17.7246C17.9866 25.0898 18.2545 25.0605 18.5273 25.0605ZM23.3994 25.127L23.4453 25.2588L24.8564 29.2812L24.8604 29.292L24.958 29.6357L25.0615 29.29L25.0635 29.2842L26.4121 25.2617L26.457 25.127H27.9072L27.8105 25.3916L25.5449 31.6182L25.4971 31.748H24.4043L24.3564 31.6201L22.0352 25.3936L21.9365 25.127H23.3994Z" fill="#242628"/>
<path d="M12.373 25.0605C12.6888 25.0605 12.9603 25.0783 13.1846 25.1133L13.1855 25.1123C13.4038 25.1434 13.5878 25.1781 13.7344 25.2168C13.8699 25.2526 13.9779 25.2801 14.0586 25.2988L14.2383 25.3408L14.209 25.5225L14.0664 26.3916L14.0186 26.6846L13.7676 26.5273C13.7345 26.5067 13.6675 26.4725 13.5596 26.4229C13.4701 26.3817 13.3348 26.3391 13.1465 26.2988H13.1436C12.9687 26.259 12.7346 26.2373 12.4365 26.2373C12.0685 26.2373 11.757 26.3249 11.4951 26.4932H11.4941C11.2318 26.6593 11.0239 26.8987 10.874 27.2197C10.7272 27.5376 10.6504 27.9238 10.6504 28.3818C10.6504 28.8301 10.7255 29.2209 10.8711 29.5576H10.8721C11.02 29.8905 11.2282 30.1465 11.4961 30.332C11.7593 30.5142 12.077 30.6094 12.457 30.6094C12.6503 30.6094 12.8424 30.5911 13.0332 30.5547H13.0342C13.2316 30.5175 13.4026 30.4706 13.5488 30.417H13.5508C13.7046 30.3615 13.7954 30.3117 13.8408 30.2734L14.165 29.999V31.3818L14.04 31.4307L13.6357 31.5791C13.4799 31.6329 13.3033 31.6764 13.1074 31.7109C12.9054 31.75 12.6714 31.7695 12.4072 31.7695C11.7849 31.7695 11.2325 31.632 10.7578 31.3506H10.7568C10.2848 31.0677 9.91856 30.6731 9.66016 30.1729C9.40144 29.669 9.27539 29.0891 9.27539 28.4395C9.27542 27.9072 9.35501 27.4286 9.51855 27.0078V27.0068C9.68317 26.5909 9.91054 26.235 10.2012 25.9424C10.4896 25.652 10.8209 25.4311 11.1943 25.2822H11.1953C11.5694 25.1344 11.9624 25.0606 12.373 25.0605ZM18.5273 25.0605C18.9158 25.0606 19.2485 25.0998 19.5205 25.1816C19.7723 25.2549 19.9749 25.3326 20.1094 25.4219L20.2256 25.499L20.1914 25.6338L20 26.4033L19.9346 26.667L19.7041 26.5234C19.5763 26.4435 19.4218 26.3703 19.2402 26.3047L19.2373 26.3037V26.3027C19.0803 26.243 18.8475 26.208 18.5273 26.208C18.3414 26.208 18.1731 26.2321 18.0215 26.2783C17.8746 26.3232 17.766 26.3885 17.6875 26.4688C17.6222 26.5355 17.585 26.6228 17.585 26.7471C17.585 26.9117 17.6185 27.0353 17.6738 27.1279C17.7345 27.2221 17.8385 27.3223 17.999 27.4248C18.1707 27.5316 18.3987 27.6587 18.6846 27.8066L19.001 27.9775C19.1052 28.0358 19.2088 28.0955 19.3115 28.1572L19.4678 28.2539C19.6209 28.3538 19.7635 28.4628 19.8945 28.5801H19.8936C20.078 28.7427 20.2261 28.9306 20.335 29.1445H20.334C20.4504 29.3647 20.5068 29.6123 20.5068 29.8828C20.5068 30.2915 20.4095 30.649 20.2031 30.9414L20.2021 30.9404C20.0273 31.1891 19.7944 31.3816 19.5068 31.5176L19.3799 31.5723C19.0409 31.705 18.6549 31.7695 18.2266 31.7695C17.9465 31.7695 17.6789 31.7478 17.4248 31.7041V31.7031C17.1797 31.6633 16.9642 31.6148 16.7803 31.5557C16.6049 31.4993 16.4613 31.4417 16.3643 31.3809L16.2422 31.3047L16.2783 31.165L16.4824 30.3701L16.5479 30.1191L16.7725 30.249C16.8655 30.3027 16.987 30.3574 17.1387 30.4131C17.2857 30.4671 17.4486 30.5128 17.6279 30.5498H17.6289C17.8058 30.5835 17.9855 30.6006 18.168 30.6006C18.5323 30.6006 18.7797 30.539 18.9346 30.4404C19.0651 30.3573 19.1435 30.2207 19.1436 29.9834C19.1436 29.8246 19.1033 29.7061 19.0342 29.6162L19.0332 29.6152C18.9538 29.5097 18.8264 29.401 18.6406 29.293L18.6396 29.292C18.4488 29.1795 18.2066 29.053 17.9121 28.9131L17.9102 28.9121C17.6463 28.7821 17.3896 28.6264 17.1416 28.4453L17.1406 28.4443C16.8861 28.2563 16.6752 28.0337 16.5088 27.7773C16.3333 27.507 16.2471 27.199 16.2471 26.8594C16.2471 26.5349 16.31 26.2475 16.4482 26.0078L16.4492 26.0068C16.5849 25.7742 16.7675 25.5862 16.9951 25.4443C17.2153 25.3072 17.4587 25.2085 17.7236 25.1484H17.7246C17.9866 25.0898 18.2545 25.0605 18.5273 25.0605ZM23.3994 25.127L23.4453 25.2588L24.8564 29.2812L24.8604 29.292L24.958 29.6357L25.0615 29.29L25.0635 29.2842L26.4121 25.2617L26.457 25.127H27.9072L27.8105 25.3916L25.5449 31.6182L25.4971 31.748H24.4043L24.3564 31.6201L22.0352 25.3936L21.9365 25.127H23.3994Z" fill="#5B5C5E"/>
<path d="M12.373 25.0605C12.6888 25.0605 12.9603 25.0783 13.1846 25.1133L13.1855 25.1123C13.4038 25.1434 13.5878 25.1781 13.7344 25.2168C13.8699 25.2526 13.9779 25.2801 14.0586 25.2988L14.2383 25.3408L14.209 25.5225L14.0664 26.3916L14.0186 26.6846L13.7676 26.5273C13.7345 26.5067 13.6675 26.4725 13.5596 26.4229C13.4701 26.3817 13.3348 26.3391 13.1465 26.2988H13.1436C12.9687 26.259 12.7346 26.2373 12.4365 26.2373C12.0685 26.2373 11.757 26.3249 11.4951 26.4932H11.4941C11.2318 26.6593 11.0239 26.8987 10.874 27.2197C10.7272 27.5376 10.6504 27.9238 10.6504 28.3818C10.6504 28.8301 10.7255 29.2209 10.8711 29.5576H10.8721C11.02 29.8905 11.2282 30.1465 11.4961 30.332C11.7593 30.5142 12.077 30.6094 12.457 30.6094C12.6503 30.6094 12.8424 30.5911 13.0332 30.5547H13.0342C13.2316 30.5175 13.4026 30.4706 13.5488 30.417H13.5508C13.7046 30.3615 13.7954 30.3117 13.8408 30.2734L14.165 29.999V31.3818L14.04 31.4307L13.6357 31.5791C13.4799 31.6329 13.3033 31.6764 13.1074 31.7109C12.9054 31.75 12.6714 31.7695 12.4072 31.7695C11.7849 31.7695 11.2325 31.632 10.7578 31.3506H10.7568C10.2848 31.0677 9.91856 30.6731 9.66016 30.1729C9.40144 29.669 9.27539 29.0891 9.27539 28.4395C9.27542 27.9072 9.35501 27.4286 9.51855 27.0078V27.0068C9.68317 26.5909 9.91054 26.235 10.2012 25.9424C10.4896 25.652 10.8209 25.4311 11.1943 25.2822H11.1953C11.5694 25.1344 11.9624 25.0606 12.373 25.0605ZM18.5273 25.0605C18.9158 25.0606 19.2485 25.0998 19.5205 25.1816C19.7723 25.2549 19.9749 25.3326 20.1094 25.4219L20.2256 25.499L20.1914 25.6338L20 26.4033L19.9346 26.667L19.7041 26.5234C19.5763 26.4435 19.4218 26.3703 19.2402 26.3047L19.2373 26.3037V26.3027C19.0803 26.243 18.8475 26.208 18.5273 26.208C18.3414 26.208 18.1731 26.2321 18.0215 26.2783C17.8746 26.3232 17.766 26.3885 17.6875 26.4688C17.6222 26.5355 17.585 26.6228 17.585 26.7471C17.585 26.9117 17.6185 27.0353 17.6738 27.1279C17.7345 27.2221 17.8385 27.3223 17.999 27.4248C18.1707 27.5316 18.3987 27.6587 18.6846 27.8066L19.001 27.9775C19.1052 28.0358 19.2088 28.0955 19.3115 28.1572L19.4678 28.2539C19.6209 28.3538 19.7635 28.4628 19.8945 28.5801H19.8936C20.078 28.7427 20.2261 28.9306 20.335 29.1445H20.334C20.4504 29.3647 20.5068 29.6123 20.5068 29.8828C20.5068 30.2915 20.4095 30.649 20.2031 30.9414L20.2021 30.9404C20.0273 31.1891 19.7944 31.3816 19.5068 31.5176L19.3799 31.5723C19.0409 31.705 18.6549 31.7695 18.2266 31.7695C17.9465 31.7695 17.6789 31.7478 17.4248 31.7041V31.7031C17.1797 31.6633 16.9642 31.6148 16.7803 31.5557C16.6049 31.4993 16.4613 31.4417 16.3643 31.3809L16.2422 31.3047L16.2783 31.165L16.4824 30.3701L16.5479 30.1191L16.7725 30.249C16.8655 30.3027 16.987 30.3574 17.1387 30.4131C17.2857 30.4671 17.4486 30.5128 17.6279 30.5498H17.6289C17.8058 30.5835 17.9855 30.6006 18.168 30.6006C18.5323 30.6006 18.7797 30.539 18.9346 30.4404C19.0651 30.3573 19.1435 30.2207 19.1436 29.9834C19.1436 29.8246 19.1033 29.7061 19.0342 29.6162L19.0332 29.6152C18.9538 29.5097 18.8264 29.401 18.6406 29.293L18.6396 29.292C18.4488 29.1795 18.2066 29.053 17.9121 28.9131L17.9102 28.9121C17.6463 28.7821 17.3896 28.6264 17.1416 28.4453L17.1406 28.4443C16.8861 28.2563 16.6752 28.0337 16.5088 27.7773C16.3333 27.507 16.2471 27.199 16.2471 26.8594C16.2471 26.5349 16.31 26.2475 16.4482 26.0078L16.4492 26.0068C16.5849 25.7742 16.7675 25.5862 16.9951 25.4443C17.2153 25.3072 17.4587 25.2085 17.7236 25.1484H17.7246C17.9866 25.0898 18.2545 25.0605 18.5273 25.0605ZM23.3994 25.127L23.4453 25.2588L24.8564 29.2812L24.8604 29.292L24.958 29.6357L25.0615 29.29L25.0635 29.2842L26.4121 25.2617L26.457 25.127H27.9072L27.8105 25.3916L25.5449 31.6182L25.4971 31.748H24.4043L24.3564 31.6201L22.0352 25.3936L21.9365 25.127H23.3994Z" stroke="#5B5C5E" stroke-width="0.394627"/>
<defs>
<linearGradient id="paint0_linear_1640_5566" x1="18.1547" y1="3.28906" x2="18.1547" y2="36.1746" gradientUnits="userSpaceOnUse">
<stop offset="0.5849" stop-color="#D9D9D9"/>
<stop offset="0.585" stop-color="#FEFEFE"/>
</linearGradient>
</defs>
</svg>
