<svg width="20" height="20" viewBox="0 0 20 20" fill="none" xmlns="http://www.w3.org/2000/svg">
<path d="M14.166 17.7084H5.83268C2.79102 17.7084 1.04102 15.9584 1.04102 12.9167V7.08341C1.04102 4.04175 2.79102 2.29175 5.83268 2.29175H14.166C17.2077 2.29175 18.9577 4.04175 18.9577 7.08341V12.9167C18.9577 15.9584 17.2077 17.7084 14.166 17.7084ZM5.83268 3.54175C3.44935 3.54175 2.29102 4.70008 2.29102 7.08341V12.9167C2.29102 15.3001 3.44935 16.4584 5.83268 16.4584H14.166C16.5493 16.4584 17.7077 15.3001 17.7077 12.9167V7.08341C17.7077 4.70008 16.5493 3.54175 14.166 3.54175H5.83268Z" fill="#2A2D32"/>
<path d="M10 13.125C8.275 13.125 6.875 11.725 6.875 10C6.875 8.275 8.275 6.875 10 6.875C11.725 6.875 13.125 8.275 13.125 10C13.125 11.725 11.725 13.125 10 13.125ZM10 8.125C8.96667 8.125 8.125 8.96667 8.125 10C8.125 11.0333 8.96667 11.875 10 11.875C11.0333 11.875 11.875 11.0333 11.875 10C11.875 8.96667 11.0333 8.125 10 8.125Z" fill="#2A2D32"/>
<path d="M4.58398 12.7084C4.24232 12.7084 3.95898 12.4251 3.95898 12.0834V7.91675C3.95898 7.57508 4.24232 7.29175 4.58398 7.29175C4.92565 7.29175 5.20898 7.57508 5.20898 7.91675V12.0834C5.20898 12.4251 4.92565 12.7084 4.58398 12.7084Z" fill="#2A2D32"/>
<path d="M15.416 12.7084C15.0743 12.7084 14.791 12.4251 14.791 12.0834V7.91675C14.791 7.57508 15.0743 7.29175 15.416 7.29175C15.7577 7.29175 16.041 7.57508 16.041 7.91675V12.0834C16.041 12.4251 15.7577 12.7084 15.416 12.7084Z" fill="#2A2D32"/>
</svg>
