<svg width="21" height="22" viewBox="0 0 21 22" fill="none" xmlns="http://www.w3.org/2000/svg">
<path fill-rule="evenodd" clip-rule="evenodd" d="M10.5 1.14575C8.20457 1.14575 6.34375 3.09518 6.34375 5.49992V5.72909H3.5C3.13756 5.72909 2.84375 6.03689 2.84375 6.41659C2.84375 6.79628 3.13756 7.10409 3.5 7.10409H17.5C17.8624 7.10409 18.1562 6.79628 18.1562 6.41659C18.1562 6.03689 17.8624 5.72909 17.5 5.72909H14.6562V5.49992C14.6562 3.09518 12.7954 1.14575 10.5 1.14575ZM10.5 2.52075C12.0706 2.52075 13.3438 3.85457 13.3438 5.49992V5.72909H7.65625V5.49992C7.65625 3.85457 8.92944 2.52075 10.5 2.52075Z" fill="#FF0004"/>
<path d="M5.02831 8.18489C4.99403 7.8069 4.67374 7.52959 4.31293 7.5655C3.95212 7.60142 3.68741 7.93695 3.72169 8.31495C3.80435 9.22637 3.95354 10.3494 4.1453 11.7929L4.39165 13.6474C4.62717 15.4209 4.76074 16.4267 5.04971 17.2506C5.58749 18.7841 6.5468 20.0133 7.78055 20.5588C8.45051 20.8549 9.21683 20.8546 10.3577 20.8541H10.6423C11.7832 20.8546 12.5495 20.8549 13.2194 20.5588C14.4532 20.0133 15.4125 18.7841 15.9503 17.2506C16.2393 16.4267 16.3728 15.4209 16.6084 13.6473L16.8547 11.7929C17.0465 10.3494 17.1956 9.22637 17.2783 8.31495C17.3126 7.93695 17.0479 7.60142 16.6871 7.5655C16.3263 7.52959 16.006 7.8069 15.9717 8.18489C15.8921 9.06302 15.7469 10.1566 15.5526 11.6197L15.323 13.3476C15.0688 15.2613 14.9524 16.109 14.7183 16.7765C14.2669 18.0636 13.5163 18.9351 12.7092 19.2919C12.3152 19.4661 11.838 19.4791 10.5 19.4791C9.16198 19.4791 8.68476 19.4661 8.29083 19.2919C7.4837 18.9351 6.73309 18.0636 6.28169 16.7765C6.04761 16.109 5.93119 15.2613 5.67698 13.3476L5.44744 11.6197C5.25308 10.1566 5.10795 9.06303 5.02831 8.18489Z" fill="#FF0004"/>
<path fill-rule="evenodd" clip-rule="evenodd" d="M10.5 1.14575C8.20457 1.14575 6.34375 3.09518 6.34375 5.49992V5.72909H3.5C3.13756 5.72909 2.84375 6.03689 2.84375 6.41659C2.84375 6.79628 3.13756 7.10409 3.5 7.10409H17.5C17.8624 7.10409 18.1562 6.79628 18.1562 6.41659C18.1562 6.03689 17.8624 5.72909 17.5 5.72909H14.6562V5.49992C14.6562 3.09518 12.7954 1.14575 10.5 1.14575ZM10.5 2.52075C12.0706 2.52075 13.3438 3.85457 13.3438 5.49992V5.72909H7.65625V5.49992C7.65625 3.85457 8.92944 2.52075 10.5 2.52075Z" stroke="#FF0004"/>
<path d="M5.02831 8.18489C4.99403 7.8069 4.67374 7.52959 4.31293 7.5655C3.95212 7.60142 3.68741 7.93695 3.72169 8.31495C3.80435 9.22637 3.95354 10.3494 4.1453 11.7929L4.39165 13.6474C4.62717 15.4209 4.76074 16.4267 5.04971 17.2506C5.58749 18.7841 6.5468 20.0133 7.78055 20.5588C8.45051 20.8549 9.21683 20.8546 10.3577 20.8541H10.6423C11.7832 20.8546 12.5495 20.8549 13.2194 20.5588C14.4532 20.0133 15.4125 18.7841 15.9503 17.2506C16.2393 16.4267 16.3728 15.4209 16.6084 13.6473L16.8547 11.7929C17.0465 10.3494 17.1956 9.22637 17.2783 8.31495C17.3126 7.93695 17.0479 7.60142 16.6871 7.5655C16.3263 7.52959 16.006 7.8069 15.9717 8.18489C15.8921 9.06302 15.7469 10.1566 15.5526 11.6197L15.323 13.3476C15.0688 15.2613 14.9524 16.109 14.7183 16.7765C14.2669 18.0636 13.5163 18.9351 12.7092 19.2919C12.3152 19.4661 11.838 19.4791 10.5 19.4791C9.16198 19.4791 8.68476 19.4661 8.29083 19.2919C7.4837 18.9351 6.73309 18.0636 6.28169 16.7765C6.04761 16.109 5.93119 15.2613 5.67698 13.3476L5.44744 11.6197C5.25308 10.1566 5.10795 9.06303 5.02831 8.18489Z" stroke="#FF0004"/>
</svg>
