<svg width="14" height="14" viewBox="0 0 14 14" fill="none" xmlns="http://www.w3.org/2000/svg">
<rect x="3.44727" y="7.14062" width="6.61076" height="5.02418" fill="#CECECF"/>
<path d="M11.8 3.35908C9.92884 3.17365 8.04642 3.07812 6.16963 3.07812C5.05703 3.07812 3.94444 3.13432 2.83185 3.2467L1.68555 3.35908" stroke="#A9AAAA" stroke-width="1.49844" stroke-linecap="round" stroke-linejoin="round"/>
<path opacity="0.34" d="M4.77637 2.79389L4.89999 2.05778C4.98989 1.52396 5.05732 1.125 6.00696 1.125H7.47918C8.42881 1.125 8.50186 1.54644 8.58615 2.0634L8.70977 2.79389" stroke="#A9AAAA" stroke-width="1.49844" stroke-linecap="round" stroke-linejoin="round"/>
<path d="M10.584 5.13281L10.2187 10.7913C10.1569 11.6735 10.1063 12.359 8.5386 12.359H4.93111C3.36337 12.359 3.3128 11.6735 3.25099 10.7913L2.88574 5.13281" stroke="#A9AAAA" stroke-width="1.49844" stroke-linecap="round" stroke-linejoin="round"/>
<path opacity="0.34" d="M5.80664 9.27344H7.67782" stroke="#A9AAAA" stroke-width="1.49844" stroke-linecap="round" stroke-linejoin="round"/>
<path opacity="0.34" d="M5.33789 7.02344H8.14746" stroke="#A9AAAA" stroke-width="1.49844" stroke-linecap="round" stroke-linejoin="round"/>
</svg>
