<svg width="18" height="18" viewBox="0 0 18 18" fill="none" xmlns="http://www.w3.org/2000/svg">
<path d="M8.47168 0.96875C8.6804 0.760025 9.00599 0.690052 9.28711 0.807617L9.28809 0.806641L9.29004 0.808594H9.29297L9.29199 0.80957C9.57544 0.923019 9.75195 1.20299 9.75195 1.49902V5.99902C9.75195 6.41009 9.41302 6.74902 9.00195 6.74902C8.59095 6.74895 8.25196 6.41004 8.25195 5.99902V3.30957L8.03223 3.5293C7.74149 3.81994 7.26238 3.82 6.97168 3.5293C6.68098 3.23859 6.68104 2.75949 6.97168 2.46875L8.47168 0.96875Z" fill="#616265" stroke="#616265" stroke-width="0.375009"/>
<path d="M8.47168 0.967773C8.76238 0.677073 9.24149 0.677135 9.53223 0.967773L11.0322 2.46777C11.323 2.7585 11.323 3.23759 11.0322 3.52832C10.8827 3.67784 10.6915 3.74805 10.502 3.74805C10.3124 3.74801 10.1212 3.67781 9.97168 3.52832L8.47168 2.02832C8.18104 1.73758 8.18098 1.25847 8.47168 0.967773Z" fill="#616265" stroke="#616265" stroke-width="0.375009"/>
<path d="M12.7656 8.25018C14.5754 8.25024 15.5437 8.73138 16.0391 9.48944C16.5206 10.2264 16.5156 11.1784 16.5156 12.0002V12.7512C16.508 14.2128 16.1342 15.3464 15.3652 16.1135C14.5961 16.8806 13.462 17.2502 12 17.2502H6C3.81502 17.2502 2.65843 16.6703 2.06934 15.7687C1.49404 14.8883 1.5 13.7483 1.5 12.7502V12.0002C1.5 11.1785 1.49425 10.2264 1.97559 9.48944C2.47092 8.73132 3.44 8.2502 5.25 8.25018C5.71165 8.25018 6.04231 8.30601 6.32227 8.41425C6.53087 8.49493 6.70484 8.60243 6.87695 8.72382L7.0498 8.84979L7.06055 8.8576L7.07227 8.86932C7.07413 8.87081 7.07684 8.87269 7.08008 8.87518C7.08296 8.8774 7.0868 8.88081 7.09082 8.88397C7.10483 8.89498 7.12545 8.91399 7.14746 8.93964L7.14941 8.93866L7.91406 9.74921C8.48511 10.3532 9.53058 10.3533 10.1016 9.74921L10.8662 8.93866L10.8701 8.93475L10.9648 8.84979C11.1984 8.67278 11.4156 8.51804 11.6943 8.41132C11.9744 8.30411 12.3049 8.25018 12.7656 8.25018ZM12.75 9.75018C12.4843 9.7502 12.3472 9.76768 12.2422 9.80389C12.1407 9.83891 12.0557 9.89543 11.9014 10.0099L11.1846 10.7717H11.1836C10.6085 11.3786 9.83198 11.715 9 11.715C8.21999 11.715 7.48893 11.4192 6.92676 10.882L6.81641 10.7717L6.10059 10.0119C5.9449 9.89634 5.85978 9.83905 5.75781 9.80389C5.65279 9.76771 5.51576 9.75018 5.25 9.75018C4.0302 9.75019 3.51092 9.94691 3.2666 10.2678C3.14277 10.4305 3.07326 10.6455 3.03711 10.9367C3.00076 11.2297 3 11.5784 3 12.0002V12.7502C3 13.2675 3.0008 13.7109 3.04883 14.092C3.09664 14.4712 3.18984 14.7694 3.3623 15.0031C3.7022 15.4637 4.4111 15.7502 6 15.7502H12C13.0961 15.7502 13.8334 15.5163 14.2998 15.05C14.7662 14.5836 15 13.8463 15 12.7502V12.0002C15 11.5784 15.0002 11.2297 14.9639 10.9367C14.9277 10.6456 14.8581 10.4305 14.7344 10.2678C14.4901 9.94682 13.97 9.75018 12.75 9.75018Z" fill="#616265" stroke="#616265" stroke-width="0.375009"/>
<path d="M5.92969 3.79102C6.33747 3.74311 6.70958 4.0554 6.74902 4.46875L6.75293 4.54492C6.75136 4.92397 6.46254 5.25073 6.07031 5.28809H6.06934C5.2147 5.36546 4.86343 5.5725 4.69336 5.87598C4.60314 6.03708 4.55249 6.24434 4.52637 6.51758C4.50021 6.79158 4.5 7.11476 4.5 7.50195V9.00195C4.49989 9.41293 4.161 9.75195 3.75 9.75195C3.33901 9.75195 3.00011 9.41292 3 9.00195V7.50195C3 6.78491 2.99651 5.92044 3.36621 5.20605C3.74801 4.4684 4.50447 3.92562 5.92969 3.79004V3.79102Z" fill="#616265" stroke="#616265" stroke-width="0.375009"/>
<path d="M12.085 3.79004L12.084 3.79102C13.5072 3.9271 14.263 4.46895 14.6445 5.20605C15.0142 5.92043 15.0107 6.78493 15.0107 7.50195V9.00586C15.0008 9.41244 14.6649 9.75195 14.2529 9.75195C13.842 9.75188 13.503 9.41288 13.5029 9.00195V7.50195C13.5029 7.11477 13.5027 6.79171 13.4766 6.51758C13.4505 6.24423 13.3999 6.03666 13.3096 5.875C13.1605 5.60835 12.8725 5.41568 12.2305 5.31738L11.9326 5.28125C11.5206 5.24105 11.2218 4.87001 11.2617 4.46094C11.3014 4.05448 11.6602 3.73962 12.085 3.79004Z" fill="#616265" stroke="#616265" stroke-width="0.375009"/>
</svg>
