<svg width="73" height="73" viewBox="0 0 73 73" fill="none" xmlns="http://www.w3.org/2000/svg">
<g filter="url(#filter0_d_1_4163)">
<path d="M64.5617 37.0703H54.013C51.0424 37.0703 48.4052 38.7072 47.0714 41.3747L44.5252 46.4066C43.9189 47.6191 42.7064 48.3769 41.3727 48.3769H31.4302C30.4905 48.3769 29.1567 48.1647 28.2777 46.4066L25.7314 41.405C24.3977 38.7678 21.7302 37.1006 18.7898 37.1006H8.18047C6.99828 37.1006 6.05859 38.0403 6.05859 39.2225V49.1044C6.05859 60.1078 12.6667 66.6856 23.7005 66.6856H49.1024C59.4995 66.6856 65.8955 60.9869 66.6836 50.8625V39.1922C66.6836 38.0403 65.7439 37.0703 64.5617 37.0703Z" fill="#FCFCFC"/>
<path d="M49.072 6.06244H23.6702C12.6364 6.06244 6.05859 12.6403 6.05859 23.674V32.889C6.72547 32.6465 7.45297 32.5253 8.18047 32.5253H18.7898C23.4883 32.5253 27.7017 35.1321 29.7933 39.3456L32.0667 43.8015H40.7361L43.0095 39.3153C45.1011 35.1321 49.3145 32.5253 54.013 32.5253H64.5617C65.2892 32.5253 66.0167 32.6465 66.6836 32.889V23.674C66.6836 12.6403 60.1058 6.06244 49.072 6.06244ZM31.6727 16.399H41.0695C42.2214 16.399 43.1914 17.3387 43.1914 18.4906C43.1914 19.6728 42.2214 20.6124 41.0695 20.6124H31.6727C30.5208 20.6124 29.5508 19.6728 29.5508 18.4906C29.5508 17.3387 30.5208 16.399 31.6727 16.399ZM43.4339 29.0696H29.3083C28.1564 29.0696 27.2167 28.1299 27.2167 26.9781C27.2167 25.7959 28.1564 24.8562 29.3083 24.8562H43.4339C44.5858 24.8562 45.5255 25.7959 45.5255 26.9781C45.5255 28.1299 44.5858 29.0696 43.4339 29.0696Z" fill="#FCFCFC"/>
</g>
<defs>
<filter id="filter0_d_1_4163" x="3.05859" y="6.06244" width="66.625" height="66.6232" filterUnits="userSpaceOnUse" color-interpolation-filters="sRGB">
<feFlood flood-opacity="0" result="BackgroundImageFix"/>
<feColorMatrix in="SourceAlpha" type="matrix" values="0 0 0 0 0 0 0 0 0 0 0 0 0 0 0 0 0 0 127 0" result="hardAlpha"/>
<feOffset dy="3"/>
<feGaussianBlur stdDeviation="1.5"/>
<feComposite in2="hardAlpha" operator="out"/>
<feColorMatrix type="matrix" values="0 0 0 0 0 0 0 0 0 0 0 0 0 0 0 0 0 0 0.15 0"/>
<feBlend mode="normal" in2="BackgroundImageFix" result="effect1_dropShadow_1_4163"/>
<feBlend mode="normal" in="SourceGraphic" in2="effect1_dropShadow_1_4163" result="shape"/>
</filter>
</defs>
</svg>
