<svg width="25" height="24" viewBox="0 0 25 24" fill="none" xmlns="http://www.w3.org/2000/svg">
<path d="M20.7499 7.2397C22.0236 9.44571 22.6604 10.5487 22.7203 11.7549C22.7285 11.9201 22.7285 12.0856 22.7203 12.2508C22.6604 13.457 22.0236 14.56 20.7499 16.766C19.4763 18.972 18.8395 20.075 17.8248 20.73C17.6859 20.8197 17.5425 20.9024 17.3954 20.9779C16.3209 21.5291 15.0472 21.5291 12.4999 21.5291C9.95265 21.5291 8.67901 21.5291 7.60448 20.9779C7.45732 20.9024 7.314 20.8196 7.17504 20.73C6.1604 20.075 5.52357 18.972 4.24993 16.766C2.97629 14.56 2.33947 13.457 2.27959 12.2508C2.27139 12.0856 2.27139 11.9201 2.27959 11.7549C2.33947 10.5487 2.97629 9.44571 4.24994 7.2397C5.52358 5.03369 6.1604 3.93069 7.17504 3.27573C7.314 3.18603 7.45732 3.10329 7.60448 3.02779C8.67901 2.47656 9.95265 2.47656 12.4999 2.47656C15.0472 2.47656 16.3209 2.47656 17.3954 3.02779C17.5425 3.10329 17.6859 3.18603 17.8248 3.27573C18.8395 3.93069 19.4763 5.03369 20.7499 7.2397Z" stroke="#808080" stroke-width="1.5"/>
<path d="M10.516 11.1067C10.719 10.6136 11.1107 10.222 11.6038 10.0189L14.2807 8.91664C15.1026 8.5782 15.9246 9.40013 15.5861 10.2221L14.4839 12.8989C14.2808 13.3921 13.8892 13.7837 13.396 13.9868L10.7192 15.089C9.89722 15.4275 9.07529 14.6056 9.41373 13.7836L10.516 11.1067Z" stroke="#808080" stroke-width="1.5"/>
</svg>
