<svg width="19" height="18" viewBox="0 0 19 18" fill="none" xmlns="http://www.w3.org/2000/svg">
<path fill-rule="evenodd" clip-rule="evenodd" d="M12.2968 7.31756C12.7904 6.1189 11.5918 4.92024 10.3931 5.41381L8.16236 6.33234C7.59728 6.56502 7.14854 7.01376 6.91586 7.57884L5.99732 9.80957C5.50376 11.0082 6.70241 12.2069 7.90107 11.7133L10.1318 10.7948C10.6969 10.5621 11.1456 10.1134 11.3783 9.54829L12.2968 7.31756ZM10.869 6.56966C11.0403 6.49915 11.2115 6.67038 11.141 6.84162L10.2225 9.07235C10.1167 9.3292 9.91272 9.53318 9.65586 9.63894L7.42513 10.5575C7.2539 10.628 7.08266 10.4568 7.15317 10.2855L8.07171 8.05478C8.17747 7.79793 8.38144 7.59396 8.6383 7.48819L10.869 6.56966Z" fill="#768387"/>
<path fill-rule="evenodd" clip-rule="evenodd" d="M11.7027 0.0599005C11.0322 -9.18905e-06 10.2129 -5.0673e-06 9.17643 9.84391e-08H9.11774C8.08122 -5.16664e-06 7.26193 -9.38773e-06 6.59145 0.0599003C5.90274 0.121439 5.32669 0.248974 4.78226 0.528263C4.64123 0.60061 4.50388 0.67991 4.37071 0.76587C3.85663 1.09771 3.45816 1.53282 3.06051 2.09849C2.67338 2.64919 2.26374 3.35872 1.74549 4.25637L1.71614 4.3072C1.19788 5.20484 0.788231 5.91437 0.504875 6.52497C0.213812 7.15219 0.0362367 7.71483 0.00589479 8.32596C-0.00196492 8.48427 -0.00196492 8.64287 0.00589474 8.80117C0.0362366 9.41231 0.213812 9.97494 0.504875 10.6022C0.788228 11.2128 1.19787 11.9223 1.71613 12.8199L1.74548 12.8707C2.26373 13.7684 2.67338 14.4779 3.06051 15.0286C3.45816 15.5943 3.85663 16.0294 4.37071 16.3613C4.50388 16.4472 4.64123 16.5265 4.78226 16.5989C5.32669 16.8782 5.90273 17.0057 6.59145 17.0672C7.26192 17.1271 8.0812 17.1271 9.11768 17.1271H9.17642C10.2129 17.1271 11.0322 17.1271 11.7027 17.0672C12.3914 17.0057 12.9675 16.8782 13.5119 16.5989C13.6529 16.5265 13.7903 16.4472 13.9234 16.3613C14.4375 16.0294 14.836 15.5943 15.2337 15.0286C15.6208 14.478 16.0304 13.7684 16.5487 12.8708L16.578 12.8199C17.0963 11.9223 17.5059 11.2128 17.7893 10.6022C18.0804 9.97494 18.2579 9.41231 18.2883 8.80117C18.2961 8.64287 18.2961 8.48427 18.2883 8.32596C18.2579 7.71483 18.0804 7.15219 17.7893 6.52497C17.5059 5.91437 17.0963 5.20483 16.578 4.30718L16.5486 4.25632C16.0304 3.35869 15.6208 2.64918 15.2337 2.09849C14.836 1.53282 14.4375 1.09771 13.9234 0.76587C13.7903 0.679911 13.6529 0.600611 13.5119 0.528264C12.9675 0.248974 12.3914 0.12144 11.7027 0.0599005ZM5.35281 1.64046C5.70383 1.46039 6.10619 1.35824 6.7027 1.30494C7.31113 1.25057 8.07476 1.25 9.14708 1.25C10.2194 1.25 10.983 1.25057 11.5915 1.30494C12.188 1.35824 12.5903 1.46039 12.9413 1.64046C13.0456 1.69393 13.1471 1.75254 13.2455 1.81608C13.577 2.03003 13.8666 2.32741 14.211 2.81736C14.5623 3.31709 14.9447 3.97812 15.4808 4.90678C16.017 5.83544 16.3983 6.49705 16.6554 7.05115C16.9075 7.5944 17.0202 7.99392 17.0398 8.38794C17.0456 8.50495 17.0456 8.62218 17.0398 8.73919C17.0202 9.13321 16.9075 9.53274 16.6554 10.076C16.3983 10.6301 16.017 11.2917 15.4808 12.2203C14.9447 13.149 14.5623 13.81 14.211 14.3098C13.8666 14.7997 13.577 15.0971 13.2455 15.3111C13.1471 15.3746 13.0456 15.4332 12.9413 15.4867C12.5903 15.6667 12.188 15.7689 11.5915 15.8222C10.983 15.8766 10.2194 15.8771 9.14708 15.8771C8.07476 15.8771 7.31113 15.8766 6.7027 15.8222C6.10619 15.7689 5.70383 15.6667 5.35281 15.4867C5.24858 15.4332 5.14706 15.3746 5.04863 15.3111C4.71717 15.0971 4.42753 14.7997 4.08312 14.3098C3.73182 13.81 3.34951 13.149 2.81335 12.2203C2.27719 11.2917 1.89587 10.6301 1.63874 10.076C1.38664 9.53274 1.27392 9.13321 1.25436 8.73919C1.24855 8.62218 1.24855 8.50495 1.25436 8.38794C1.27392 7.99392 1.38664 7.5944 1.63874 7.05115C1.89587 6.49705 2.27719 5.83544 2.81335 4.90678C3.34951 3.97812 3.73182 3.31709 4.08312 2.81736C4.42753 2.32741 4.71717 2.03003 5.04863 1.81608C5.14705 1.75254 5.24858 1.69393 5.35281 1.64046Z" fill="#768387"/>
<path fill-rule="evenodd" clip-rule="evenodd" d="M12.2968 7.31756C12.7904 6.1189 11.5918 4.92024 10.3931 5.41381L8.16236 6.33234C7.59728 6.56502 7.14854 7.01376 6.91586 7.57884L5.99732 9.80957C5.50376 11.0082 6.70241 12.2069 7.90107 11.7133L10.1318 10.7948C10.6969 10.5621 11.1456 10.1134 11.3783 9.54829L12.2968 7.31756ZM10.869 6.56966C11.0403 6.49915 11.2115 6.67038 11.141 6.84162L10.2225 9.07235C10.1167 9.3292 9.91272 9.53318 9.65586 9.63894L7.42513 10.5575C7.2539 10.628 7.08266 10.4568 7.15317 10.2855L8.07171 8.05478C8.17747 7.79793 8.38144 7.59396 8.6383 7.48819L10.869 6.56966Z" stroke="#768387"/>
<path fill-rule="evenodd" clip-rule="evenodd" d="M11.7027 0.0599005C11.0322 -9.18905e-06 10.2129 -5.0673e-06 9.17643 9.84391e-08H9.11774C8.08122 -5.16664e-06 7.26193 -9.38773e-06 6.59145 0.0599003C5.90274 0.121439 5.32669 0.248974 4.78226 0.528263C4.64123 0.60061 4.50388 0.67991 4.37071 0.76587C3.85663 1.09771 3.45816 1.53282 3.06051 2.09849C2.67338 2.64919 2.26374 3.35872 1.74549 4.25637L1.71614 4.3072C1.19788 5.20484 0.788231 5.91437 0.504875 6.52497C0.213812 7.15219 0.0362367 7.71483 0.00589479 8.32596C-0.00196492 8.48427 -0.00196492 8.64287 0.00589474 8.80117C0.0362366 9.41231 0.213812 9.97494 0.504875 10.6022C0.788228 11.2128 1.19787 11.9223 1.71613 12.8199L1.74548 12.8707C2.26373 13.7684 2.67338 14.4779 3.06051 15.0286C3.45816 15.5943 3.85663 16.0294 4.37071 16.3613C4.50388 16.4472 4.64123 16.5265 4.78226 16.5989C5.32669 16.8782 5.90273 17.0057 6.59145 17.0672C7.26192 17.1271 8.0812 17.1271 9.11768 17.1271H9.17642C10.2129 17.1271 11.0322 17.1271 11.7027 17.0672C12.3914 17.0057 12.9675 16.8782 13.5119 16.5989C13.6529 16.5265 13.7903 16.4472 13.9234 16.3613C14.4375 16.0294 14.836 15.5943 15.2337 15.0286C15.6208 14.478 16.0304 13.7684 16.5487 12.8708L16.578 12.8199C17.0963 11.9223 17.5059 11.2128 17.7893 10.6022C18.0804 9.97494 18.2579 9.41231 18.2883 8.80117C18.2961 8.64287 18.2961 8.48427 18.2883 8.32596C18.2579 7.71483 18.0804 7.15219 17.7893 6.52497C17.5059 5.91437 17.0963 5.20483 16.578 4.30718L16.5486 4.25632C16.0304 3.35869 15.6208 2.64918 15.2337 2.09849C14.836 1.53282 14.4375 1.09771 13.9234 0.76587C13.7903 0.679911 13.6529 0.600611 13.5119 0.528264C12.9675 0.248974 12.3914 0.12144 11.7027 0.0599005ZM5.35281 1.64046C5.70383 1.46039 6.10619 1.35824 6.7027 1.30494C7.31113 1.25057 8.07476 1.25 9.14708 1.25C10.2194 1.25 10.983 1.25057 11.5915 1.30494C12.188 1.35824 12.5903 1.46039 12.9413 1.64046C13.0456 1.69393 13.1471 1.75254 13.2455 1.81608C13.577 2.03003 13.8666 2.32741 14.211 2.81736C14.5623 3.31709 14.9447 3.97812 15.4808 4.90678C16.017 5.83544 16.3983 6.49705 16.6554 7.05115C16.9075 7.5944 17.0202 7.99392 17.0398 8.38794C17.0456 8.50495 17.0456 8.62218 17.0398 8.73919C17.0202 9.13321 16.9075 9.53274 16.6554 10.076C16.3983 10.6301 16.017 11.2917 15.4808 12.2203C14.9447 13.149 14.5623 13.81 14.211 14.3098C13.8666 14.7997 13.577 15.0971 13.2455 15.3111C13.1471 15.3746 13.0456 15.4332 12.9413 15.4867C12.5903 15.6667 12.188 15.7689 11.5915 15.8222C10.983 15.8766 10.2194 15.8771 9.14708 15.8771C8.07476 15.8771 7.31113 15.8766 6.7027 15.8222C6.10619 15.7689 5.70383 15.6667 5.35281 15.4867C5.24858 15.4332 5.14706 15.3746 5.04863 15.3111C4.71717 15.0971 4.42753 14.7997 4.08312 14.3098C3.73182 13.81 3.34951 13.149 2.81335 12.2203C2.27719 11.2917 1.89587 10.6301 1.63874 10.076C1.38664 9.53274 1.27392 9.13321 1.25436 8.73919C1.24855 8.62218 1.24855 8.50495 1.25436 8.38794C1.27392 7.99392 1.38664 7.5944 1.63874 7.05115C1.89587 6.49705 2.27719 5.83544 2.81335 4.90678C3.34951 3.97812 3.73182 3.31709 4.08312 2.81736C4.42753 2.32741 4.71717 2.03003 5.04863 1.81608C5.14705 1.75254 5.24858 1.69393 5.35281 1.64046Z" stroke="#768387"/>
</svg>
