<svg width="28" height="27" viewBox="0 0 28 27" fill="none" xmlns="http://www.w3.org/2000/svg">
<path fill-rule="evenodd" clip-rule="evenodd" d="M18.5468 11.9509C19.2872 10.153 17.4892 8.35497 15.6912 9.09532L12.3451 10.4731C11.4975 10.8221 10.8244 11.4953 10.4754 12.3429L9.09755 15.689C8.3572 17.487 10.1552 19.2849 11.9532 18.5446L15.2993 17.1668C16.1469 16.8178 16.82 16.1447 17.169 15.297L18.5468 11.9509ZM16.4051 10.8291C16.662 10.7233 16.9188 10.9802 16.8131 11.237L15.4352 14.5831C15.2766 14.9684 14.9706 15.2744 14.5854 15.433L11.2393 16.8108C10.9824 16.9166 10.7256 16.6597 10.8313 16.4029L12.2091 13.0568C12.3678 12.6715 12.6737 12.3655 13.059 12.2069L16.4051 10.8291Z" fill="white"/>
<path fill-rule="evenodd" clip-rule="evenodd" d="M17.6556 1.06446C16.6499 0.974596 15.421 0.974602 13.8662 0.97461H13.7782C12.2234 0.974602 10.9945 0.974595 9.98874 1.06446C8.95567 1.15677 8.0916 1.34807 7.27496 1.767C7.06341 1.87552 6.85739 1.99447 6.65763 2.12341C5.88651 2.62118 5.2888 3.27384 4.69232 4.12235C4.11164 4.94839 3.49717 6.01269 2.7198 7.35916L2.67578 7.4354C1.89839 8.78187 1.28391 9.84616 0.858875 10.7621C0.422281 11.7029 0.155918 12.5468 0.110405 13.4635C0.0986151 13.701 0.0986151 13.9389 0.110405 14.1764C0.155917 15.0931 0.42228 15.937 0.858875 16.8778C1.2839 17.7937 1.89837 18.858 2.67575 20.2045L2.71978 20.2807C3.49715 21.6272 4.11164 22.6915 4.69232 23.5176C5.2888 24.3661 5.8865 25.0187 6.65763 25.5165C6.85738 25.6454 7.06341 25.7644 7.27495 25.8729C8.0916 26.2918 8.95566 26.4831 9.98874 26.5755C10.9944 26.6653 12.2234 26.6653 13.7781 26.6653H13.8662C15.4209 26.6653 16.6499 26.6653 17.6556 26.5755C18.6887 26.4831 19.5528 26.2918 20.3694 25.8729C20.581 25.7644 20.787 25.6454 20.9867 25.5165C21.7579 25.0187 22.3556 24.3661 22.952 23.5176C23.5327 22.6915 24.1472 21.6273 24.9245 20.2808L24.9686 20.2045C25.746 18.8581 26.3605 17.7938 26.7855 16.8778C27.2221 15.937 27.4885 15.0931 27.534 14.1764C27.5458 13.9389 27.5458 13.701 27.534 13.4635C27.4885 12.5468 27.2221 11.7029 26.7855 10.7621C26.3605 9.84616 25.746 8.78186 24.9686 7.43538L24.9245 7.35908C24.1472 6.01265 23.5327 4.94838 22.952 4.12235C22.3556 3.27384 21.7579 2.62118 20.9867 2.12342C20.787 1.99448 20.581 1.87553 20.3694 1.76701C19.5528 1.34807 18.6887 1.15677 17.6556 1.06446ZM8.13078 3.43529C8.6573 3.16519 9.26084 3.01197 10.1556 2.93202C11.0683 2.85047 12.2137 2.84961 13.8222 2.84961C15.4307 2.84961 16.5761 2.85047 17.4888 2.93202C18.3835 3.01197 18.9871 3.16519 19.5136 3.43529C19.6699 3.5155 19.8222 3.60342 19.9699 3.69873C20.467 4.01966 20.9015 4.46573 21.4181 5.20064C21.9451 5.95025 22.5185 6.9418 23.3228 8.33479C24.127 9.72777 24.699 10.7202 25.0847 11.5513C25.4628 12.3662 25.6319 12.9655 25.6613 13.5565C25.67 13.732 25.67 13.9079 25.6613 14.0834C25.6319 14.6744 25.4628 15.2737 25.0847 16.0886C24.699 16.9197 24.127 17.9121 23.3228 19.3051C22.5185 20.6981 21.9451 21.6897 21.4181 22.4393C20.9015 23.1742 20.467 23.6203 19.9699 23.9412C19.8222 24.0365 19.6699 24.1244 19.5136 24.2046C18.9871 24.4747 18.3835 24.6279 17.4888 24.7079C16.5761 24.7894 15.4307 24.7903 13.8222 24.7903C12.2137 24.7903 11.0683 24.7894 10.1556 24.7079C9.26084 24.6279 8.6573 24.4747 8.13078 24.2046C7.97443 24.1244 7.82215 24.0365 7.6745 23.9412C7.17732 23.6203 6.74286 23.1742 6.22624 22.4393C5.69929 21.6897 5.12583 20.6981 4.32158 19.3051C3.51734 17.9121 2.94537 16.9197 2.55967 16.0886C2.18152 15.2737 2.01244 14.6744 1.9831 14.0834C1.97438 13.9079 1.97438 13.732 1.9831 13.5565C2.01244 12.9655 2.18152 12.3662 2.55967 11.5513C2.94537 10.7202 3.51734 9.72777 4.32158 8.33478C5.12583 6.94179 5.69929 5.95025 6.22624 5.20064C6.74286 4.46573 7.17732 4.01966 7.6745 3.69873C7.82214 3.60342 7.97443 3.5155 8.13078 3.43529Z" fill="white"/>
<path fill-rule="evenodd" clip-rule="evenodd" d="M18.5468 11.9509C19.2872 10.153 17.4892 8.35497 15.6912 9.09532L12.3451 10.4731C11.4975 10.8221 10.8244 11.4953 10.4754 12.3429L9.09755 15.689C8.3572 17.487 10.1552 19.2849 11.9532 18.5446L15.2993 17.1668C16.1469 16.8178 16.82 16.1447 17.169 15.297L18.5468 11.9509ZM16.4051 10.8291C16.662 10.7233 16.9188 10.9802 16.8131 11.237L15.4352 14.5831C15.2766 14.9684 14.9706 15.2744 14.5854 15.433L11.2393 16.8108C10.9824 16.9166 10.7256 16.6597 10.8313 16.4029L12.2091 13.0568C12.3678 12.6715 12.6737 12.3655 13.059 12.2069L16.4051 10.8291Z" stroke="white"/>
<path fill-rule="evenodd" clip-rule="evenodd" d="M17.6556 1.06446C16.6499 0.974596 15.421 0.974602 13.8662 0.97461H13.7782C12.2234 0.974602 10.9945 0.974595 9.98874 1.06446C8.95567 1.15677 8.0916 1.34807 7.27496 1.767C7.06341 1.87552 6.85739 1.99447 6.65763 2.12341C5.88651 2.62118 5.2888 3.27384 4.69232 4.12235C4.11164 4.94839 3.49717 6.01269 2.7198 7.35916L2.67578 7.4354C1.89839 8.78187 1.28391 9.84616 0.858875 10.7621C0.422281 11.7029 0.155918 12.5468 0.110405 13.4635C0.0986151 13.701 0.0986151 13.9389 0.110405 14.1764C0.155917 15.0931 0.42228 15.937 0.858875 16.8778C1.2839 17.7937 1.89837 18.858 2.67575 20.2045L2.71978 20.2807C3.49715 21.6272 4.11164 22.6915 4.69232 23.5176C5.2888 24.3661 5.8865 25.0187 6.65763 25.5165C6.85738 25.6454 7.06341 25.7644 7.27495 25.8729C8.0916 26.2918 8.95566 26.4831 9.98874 26.5755C10.9944 26.6653 12.2234 26.6653 13.7781 26.6653H13.8662C15.4209 26.6653 16.6499 26.6653 17.6556 26.5755C18.6887 26.4831 19.5528 26.2918 20.3694 25.8729C20.581 25.7644 20.787 25.6454 20.9867 25.5165C21.7579 25.0187 22.3556 24.3661 22.952 23.5176C23.5327 22.6915 24.1472 21.6273 24.9245 20.2808L24.9686 20.2045C25.746 18.8581 26.3605 17.7938 26.7855 16.8778C27.2221 15.937 27.4885 15.0931 27.534 14.1764C27.5458 13.9389 27.5458 13.701 27.534 13.4635C27.4885 12.5468 27.2221 11.7029 26.7855 10.7621C26.3605 9.84616 25.746 8.78186 24.9686 7.43538L24.9245 7.35908C24.1472 6.01265 23.5327 4.94838 22.952 4.12235C22.3556 3.27384 21.7579 2.62118 20.9867 2.12342C20.787 1.99448 20.581 1.87553 20.3694 1.76701C19.5528 1.34807 18.6887 1.15677 17.6556 1.06446ZM8.13078 3.43529C8.6573 3.16519 9.26084 3.01197 10.1556 2.93202C11.0683 2.85047 12.2137 2.84961 13.8222 2.84961C15.4307 2.84961 16.5761 2.85047 17.4888 2.93202C18.3835 3.01197 18.9871 3.16519 19.5136 3.43529C19.6699 3.5155 19.8222 3.60342 19.9699 3.69873C20.467 4.01966 20.9015 4.46573 21.4181 5.20064C21.9451 5.95025 22.5185 6.9418 23.3228 8.33479C24.127 9.72777 24.699 10.7202 25.0847 11.5513C25.4628 12.3662 25.6319 12.9655 25.6613 13.5565C25.67 13.732 25.67 13.9079 25.6613 14.0834C25.6319 14.6744 25.4628 15.2737 25.0847 16.0886C24.699 16.9197 24.127 17.9121 23.3228 19.3051C22.5185 20.6981 21.9451 21.6897 21.4181 22.4393C20.9015 23.1742 20.467 23.6203 19.9699 23.9412C19.8222 24.0365 19.6699 24.1244 19.5136 24.2046C18.9871 24.4747 18.3835 24.6279 17.4888 24.7079C16.5761 24.7894 15.4307 24.7903 13.8222 24.7903C12.2137 24.7903 11.0683 24.7894 10.1556 24.7079C9.26084 24.6279 8.6573 24.4747 8.13078 24.2046C7.97443 24.1244 7.82215 24.0365 7.6745 23.9412C7.17732 23.6203 6.74286 23.1742 6.22624 22.4393C5.69929 21.6897 5.12583 20.6981 4.32158 19.3051C3.51734 17.9121 2.94537 16.9197 2.55967 16.0886C2.18152 15.2737 2.01244 14.6744 1.9831 14.0834C1.97438 13.9079 1.97438 13.732 1.9831 13.5565C2.01244 12.9655 2.18152 12.3662 2.55967 11.5513C2.94537 10.7202 3.51734 9.72777 4.32158 8.33478C5.12583 6.94179 5.69929 5.95025 6.22624 5.20064C6.74286 4.46573 7.17732 4.01966 7.6745 3.69873C7.82214 3.60342 7.97443 3.5155 8.13078 3.43529Z" stroke="white"/>
</svg>
