<svg width="27" height="25" viewBox="0 0 27 25" fill="none" xmlns="http://www.w3.org/2000/svg">
<path fill-rule="evenodd" clip-rule="evenodd" d="M18.221 10.8933C18.9221 9.19065 17.2195 7.488 15.5168 8.18909L12.3482 9.49383C11.5455 9.82434 10.9081 10.4618 10.5776 11.2644L9.27283 14.4331C8.57175 16.1357 10.2744 17.8384 11.977 17.1373L15.1457 15.8325C15.9483 15.502 16.5858 14.8646 16.9163 14.0619L18.221 10.8933ZM16.1929 9.83092C16.4361 9.73077 16.6793 9.974 16.5792 10.2172L15.2744 13.3859C15.1242 13.7507 14.8345 14.0405 14.4696 14.1907L11.301 15.4954C11.0577 15.5956 10.8145 15.3524 10.9147 15.1091L12.2194 11.9405C12.3696 11.5756 12.6594 11.2859 13.0242 11.1357L16.1929 9.83092Z" fill="#F5FAFC"/>
<path fill-rule="evenodd" clip-rule="evenodd" d="M17.3771 0.584109C16.4247 0.49901 15.2609 0.499016 13.7886 0.499024H13.7052C12.2329 0.499016 11.0691 0.49901 10.1168 0.584109C9.13847 0.671523 8.32023 0.852679 7.54689 1.2494C7.34657 1.35216 7.15147 1.4648 6.96231 1.58691C6.23207 2.05828 5.66606 2.67632 5.10122 3.47984C4.55133 4.26207 3.96945 5.26993 3.2333 6.545L3.19161 6.6172C2.45544 7.89226 1.87355 8.90011 1.47106 9.76745C1.05762 10.6584 0.805379 11.4576 0.76228 12.3257C0.751115 12.5505 0.751115 12.7758 0.762279 13.0007C0.805379 13.8688 1.05762 14.668 1.47106 15.5589C1.87355 16.4262 2.45543 17.4341 3.19159 18.7091L3.23328 18.7813C3.96943 20.0564 4.55132 21.0643 5.10122 21.8465C5.66606 22.65 6.23207 23.2681 6.96231 23.7395C7.15146 23.8616 7.34656 23.9742 7.54689 24.077C8.32023 24.4737 9.13847 24.6548 10.1168 24.7422C11.0691 24.8273 12.2329 24.8273 13.7052 24.8273H13.7886C15.2609 24.8273 16.4247 24.8273 17.3771 24.7422C18.3554 24.6548 19.1736 24.4737 19.9469 24.077C20.1473 23.9742 20.3424 23.8616 20.5315 23.7395C21.2618 23.2681 21.8278 22.65 22.3926 21.8465C22.9425 21.0643 23.5244 20.0565 24.2605 18.7814L24.3022 18.7092C25.0384 17.4341 25.6203 16.4262 26.0228 15.5589C26.4362 14.668 26.6885 13.8688 26.7316 13.0007C26.7427 12.7758 26.7427 12.5505 26.7316 12.3257C26.6885 11.4576 26.4362 10.6584 26.0228 9.76745C25.6203 8.90011 25.0384 7.89225 24.3022 6.61718L24.2605 6.54493C23.5244 5.26989 22.9425 4.26206 22.3926 3.47984C21.8278 2.67632 21.2618 2.05828 20.5315 1.58691C20.3424 1.46481 20.1473 1.35216 19.9469 1.2494C19.1736 0.85268 18.3554 0.671523 17.3771 0.584109ZM8.35733 2.82922C8.85593 2.57344 9.42747 2.42834 10.2748 2.35263C11.139 2.27541 12.2237 2.27459 13.7469 2.27459C15.2701 2.27459 16.3548 2.27541 17.2191 2.35263C18.0664 2.42834 18.6379 2.57344 19.1365 2.82922C19.2846 2.90517 19.4288 2.98843 19.5686 3.07868C20.0394 3.38259 20.4508 3.80501 20.9401 4.50095C21.4391 5.2108 21.9821 6.14977 22.7437 7.46889C23.5053 8.788 24.0469 9.72778 24.4122 10.5149C24.7703 11.2865 24.9304 11.854 24.9582 12.4137C24.9664 12.5799 24.9664 12.7464 24.9582 12.9126C24.9304 13.4723 24.7703 14.0398 24.4122 14.8115C24.0469 15.5986 23.5053 16.5384 22.7437 17.8575C21.9821 19.1766 21.4391 20.1156 20.94 20.8254C20.4508 21.5214 20.0394 21.9438 19.5686 22.2477C19.4288 22.3379 19.2846 22.4212 19.1365 22.4971C18.6379 22.7529 18.0664 22.898 17.2191 22.9737C16.3548 23.051 15.2701 23.0518 13.7469 23.0518C12.2237 23.0518 11.139 23.051 10.2748 22.9737C9.42747 22.898 8.85593 22.7529 8.35733 22.4971C8.20927 22.4212 8.06506 22.3379 7.92525 22.2477C7.45444 21.9438 7.04302 21.5214 6.55379 20.8254C6.05478 20.1156 5.51173 19.1766 4.75014 17.8575C3.98854 16.5384 3.4469 15.5986 3.08166 14.8115C2.72356 14.0398 2.56345 13.4723 2.53566 12.9126C2.52741 12.7464 2.52741 12.5799 2.53566 12.4137C2.56345 11.854 2.72356 11.2865 3.08166 10.5149C3.4469 9.72778 3.98854 8.788 4.75014 7.46889C5.51173 6.14977 6.05478 5.2108 6.55379 4.50095C7.04302 3.805 7.45444 3.38259 7.92525 3.07868C8.06506 2.98843 8.20927 2.90517 8.35733 2.82922Z" fill="#F5FAFC"/>
<path fill-rule="evenodd" clip-rule="evenodd" d="M18.221 10.8933C18.9221 9.19065 17.2195 7.488 15.5168 8.18909L12.3482 9.49383C11.5455 9.82434 10.9081 10.4618 10.5776 11.2644L9.27283 14.4331C8.57175 16.1357 10.2744 17.8384 11.977 17.1373L15.1457 15.8325C15.9483 15.502 16.5858 14.8646 16.9163 14.0619L18.221 10.8933ZM16.1929 9.83092C16.4361 9.73077 16.6793 9.974 16.5792 10.2172L15.2744 13.3859C15.1242 13.7507 14.8345 14.0405 14.4696 14.1907L11.301 15.4954C11.0577 15.5956 10.8145 15.3524 10.9147 15.1091L12.2194 11.9405C12.3696 11.5756 12.6594 11.2859 13.0242 11.1357L16.1929 9.83092Z" stroke="#F5FAFC"/>
<path fill-rule="evenodd" clip-rule="evenodd" d="M17.3771 0.584109C16.4247 0.49901 15.2609 0.499016 13.7886 0.499024H13.7052C12.2329 0.499016 11.0691 0.49901 10.1168 0.584109C9.13847 0.671523 8.32023 0.852679 7.54689 1.2494C7.34657 1.35216 7.15147 1.4648 6.96231 1.58691C6.23207 2.05828 5.66606 2.67632 5.10122 3.47984C4.55133 4.26207 3.96945 5.26993 3.2333 6.545L3.19161 6.6172C2.45544 7.89226 1.87355 8.90011 1.47106 9.76745C1.05762 10.6584 0.805379 11.4576 0.76228 12.3257C0.751115 12.5505 0.751115 12.7758 0.762279 13.0007C0.805379 13.8688 1.05762 14.668 1.47106 15.5589C1.87355 16.4262 2.45543 17.4341 3.19159 18.7091L3.23328 18.7813C3.96943 20.0564 4.55132 21.0643 5.10122 21.8465C5.66606 22.65 6.23207 23.2681 6.96231 23.7395C7.15146 23.8616 7.34656 23.9742 7.54689 24.077C8.32023 24.4737 9.13847 24.6548 10.1168 24.7422C11.0691 24.8273 12.2329 24.8273 13.7052 24.8273H13.7886C15.2609 24.8273 16.4247 24.8273 17.3771 24.7422C18.3554 24.6548 19.1736 24.4737 19.9469 24.077C20.1473 23.9742 20.3424 23.8616 20.5315 23.7395C21.2618 23.2681 21.8278 22.65 22.3926 21.8465C22.9425 21.0643 23.5244 20.0565 24.2605 18.7814L24.3022 18.7092C25.0384 17.4341 25.6203 16.4262 26.0228 15.5589C26.4362 14.668 26.6885 13.8688 26.7316 13.0007C26.7427 12.7758 26.7427 12.5505 26.7316 12.3257C26.6885 11.4576 26.4362 10.6584 26.0228 9.76745C25.6203 8.90011 25.0384 7.89225 24.3022 6.61718L24.2605 6.54493C23.5244 5.26989 22.9425 4.26206 22.3926 3.47984C21.8278 2.67632 21.2618 2.05828 20.5315 1.58691C20.3424 1.46481 20.1473 1.35216 19.9469 1.2494C19.1736 0.85268 18.3554 0.671523 17.3771 0.584109ZM8.35733 2.82922C8.85593 2.57344 9.42747 2.42834 10.2748 2.35263C11.139 2.27541 12.2237 2.27459 13.7469 2.27459C15.2701 2.27459 16.3548 2.27541 17.2191 2.35263C18.0664 2.42834 18.6379 2.57344 19.1365 2.82922C19.2846 2.90517 19.4288 2.98843 19.5686 3.07868C20.0394 3.38259 20.4508 3.80501 20.9401 4.50095C21.4391 5.2108 21.9821 6.14977 22.7437 7.46889C23.5053 8.788 24.0469 9.72778 24.4122 10.5149C24.7703 11.2865 24.9304 11.854 24.9582 12.4137C24.9664 12.5799 24.9664 12.7464 24.9582 12.9126C24.9304 13.4723 24.7703 14.0398 24.4122 14.8115C24.0469 15.5986 23.5053 16.5384 22.7437 17.8575C21.9821 19.1766 21.4391 20.1156 20.94 20.8254C20.4508 21.5214 20.0394 21.9438 19.5686 22.2477C19.4288 22.3379 19.2846 22.4212 19.1365 22.4971C18.6379 22.7529 18.0664 22.898 17.2191 22.9737C16.3548 23.051 15.2701 23.0518 13.7469 23.0518C12.2237 23.0518 11.139 23.051 10.2748 22.9737C9.42747 22.898 8.85593 22.7529 8.35733 22.4971C8.20927 22.4212 8.06506 22.3379 7.92525 22.2477C7.45444 21.9438 7.04302 21.5214 6.55379 20.8254C6.05478 20.1156 5.51173 19.1766 4.75014 17.8575C3.98854 16.5384 3.4469 15.5986 3.08166 14.8115C2.72356 14.0398 2.56345 13.4723 2.53566 12.9126C2.52741 12.7464 2.52741 12.5799 2.53566 12.4137C2.56345 11.854 2.72356 11.2865 3.08166 10.5149C3.4469 9.72778 3.98854 8.788 4.75014 7.46889C5.51173 6.14977 6.05478 5.2108 6.55379 4.50095C7.04302 3.805 7.45444 3.38259 7.92525 3.07868C8.06506 2.98843 8.20927 2.90517 8.35733 2.82922Z" stroke="#F5FAFC"/>
</svg>
