<svg width="19" height="19" viewBox="0 0 19 19" fill="none" xmlns="http://www.w3.org/2000/svg">
<path d="M16.1792 8.04992H13.8983C12.0277 8.04992 10.5045 6.52666 10.5045 4.65613V2.37519C10.5045 1.9411 10.1493 1.58594 9.71523 1.58594H6.3688C3.9379 1.58594 1.97266 3.16444 1.97266 5.98208V12.9749C1.97266 15.7925 3.9379 17.371 6.3688 17.371H12.5723C15.0032 17.371 16.9685 15.7925 16.9685 12.9749V8.83917C16.9685 8.40508 16.6133 8.04992 16.1792 8.04992ZM9.69155 12.4618L8.11305 14.0404C8.0578 14.0956 7.98676 14.143 7.91573 14.1666C7.8447 14.1982 7.77367 14.214 7.69474 14.214C7.61582 14.214 7.54478 14.1982 7.47375 14.1666C7.41061 14.143 7.34747 14.0956 7.30011 14.0482C7.29222 14.0404 7.28433 14.0404 7.28433 14.0325L5.70582 12.454C5.47694 12.2251 5.47694 11.8462 5.70582 11.6173C5.93471 11.3885 6.31355 11.3885 6.54243 11.6173L7.1028 12.1935V8.88653C7.1028 8.56293 7.37115 8.29459 7.69474 8.29459C8.01834 8.29459 8.28668 8.56293 8.28668 8.88653V12.1935L8.85494 11.6252C9.08383 11.3964 9.46267 11.3964 9.69155 11.6252C9.92043 11.8541 9.92043 12.233 9.69155 12.4618Z" fill="#A6A7A7"/>
<path d="M13.7603 6.95661C14.5101 6.9645 15.5519 6.9645 16.4437 6.9645C16.8936 6.9645 17.1304 6.4357 16.8147 6.12C15.6782 4.97559 13.6419 2.91564 12.4738 1.74754C12.1502 1.42395 11.5898 1.64494 11.5898 2.09481V4.84931C11.5898 6.00161 12.5685 6.95661 13.7603 6.95661Z" fill="#A6A7A7"/>
</svg>
