<svg width="47" height="47" viewBox="0 0 47 47" fill="none" xmlns="http://www.w3.org/2000/svg">
<rect width="46.713" height="46.713" rx="8.99063" fill="#F2E4F8"/>
<path opacity="0.4" d="M33.0463 24.247C33.4891 24.247 33.8411 23.8837 33.8411 23.4295V22.4304C33.8411 17.9683 32.4786 16.6172 28.0279 16.6172H20.875V19.3762C21.3178 19.3762 21.6811 19.7395 21.6811 20.1823V23.2251C21.6811 23.6679 21.3178 24.0313 20.875 24.0313V26.8811C21.3178 26.8811 21.6811 27.2444 21.6811 27.6872V30.73C21.6811 31.1728 21.3178 31.5362 20.875 31.5362V34.2724H28.0279C32.4786 34.2724 33.8411 32.91 33.8411 28.4593C33.8411 28.0165 33.4891 27.6531 33.0463 27.6531C32.0926 27.6531 31.3319 26.8924 31.3319 25.9501C31.3319 25.0077 32.0926 24.247 33.0463 24.247Z" fill="#AB46DD"/>
<path opacity="0.4" d="M26.5848 16.9033H19.5078L21.789 14.6221C23.6497 12.7614 24.584 12.7614 26.4447 14.6221L26.9118 15.0892C26.4213 15.5797 26.3046 16.3038 26.5848 16.9033Z" stroke="#AB46DD" stroke-width="1.12383" stroke-linecap="round" stroke-linejoin="round"/>
<path d="M20.0706 20.2803V23.3232C20.0706 23.766 20.4339 24.1293 20.8767 24.1293V26.9791C20.4339 26.9791 20.0706 27.3424 20.0706 27.7852V30.8281C20.0706 31.2709 20.4339 31.6342 20.8767 31.6342V34.3705H17.9929C13.5422 34.3705 12.1797 33.008 12.1797 28.5573V28.0691C12.1797 27.6149 12.5317 27.2629 12.9745 27.2629C13.9282 27.2629 14.6889 26.4909 14.6889 25.5485C14.6889 24.6061 13.9282 23.8341 12.9745 23.8341C12.5317 23.8341 12.1797 23.4821 12.1797 23.028V22.5397C12.1797 18.0777 13.5422 16.7266 17.9929 16.7266H20.8654V19.4856C20.4339 19.4856 20.0706 19.8489 20.0706 20.2803Z" fill="#AB46DD"/>
</svg>
