<svg width="16" height="16" viewBox="0 0 16 16" fill="none" xmlns="http://www.w3.org/2000/svg">
<path d="M8.71429 2.03586L1.88395 8.94718C1.62391 9.2103 1.36387 9.72777 1.31187 10.1049L0.939145 12.7449C0.800458 13.7009 1.46789 14.3675 2.4127 14.2359L5.02175 13.8588C5.3858 13.8062 5.89721 13.543 6.16592 13.2799L12.9963 6.36859C14.1751 5.17577 14.7298 3.79 12.9963 2.03586C11.2627 0.281714 9.89313 0.84304 8.71429 2.03586Z" fill="black" stroke="white" stroke-width="1.84177" stroke-miterlimit="10" stroke-linecap="round" stroke-linejoin="round"/>
<path d="M7.73438 3.0127C8.31513 5.1089 9.93603 6.74902 12.0163 7.34543L7.73438 3.0127Z" fill="black"/>
<path d="M7.73438 3.0127C8.31513 5.1089 9.93603 6.74902 12.0163 7.34543" stroke="white" stroke-width="1.84177" stroke-miterlimit="10" stroke-linecap="round" stroke-linejoin="round"/>
<rect x="10.0274" y="13.6372" width="5.19049" height="0.877071" fill="black" stroke="black" stroke-width="0.877071"/>
</svg>
