<svg width="20" height="17" viewBox="0 0 20 17" fill="none" xmlns="http://www.w3.org/2000/svg">
<path d="M8.87344 1.375H7.26007C3.22665 1.375 1.61328 2.75403 1.61328 6.20162V10.3387C1.61328 13.7863 3.22665 15.1653 7.26007 15.1653H12.1002C16.1336 15.1653 17.747 13.7863 17.747 10.3387V8.95969" stroke="#A9AAAA" stroke-width="1.37903" stroke-linecap="round" stroke-linejoin="round"/>
<path d="M8.87344 1.375H7.26007C3.22665 1.375 1.61328 2.75403 1.61328 6.20162V10.3387C1.61328 13.7863 3.22665 15.1653 7.26007 15.1653H12.1002C16.1336 15.1653 17.747 13.7863 17.747 10.3387V8.95969" stroke="#A9AAAA" stroke-width="1.37903" stroke-linecap="round" stroke-linejoin="round"/>
<path d="M8.87344 1.375H7.26007C3.22665 1.375 1.61328 2.75403 1.61328 6.20162V10.3387C1.61328 13.7863 3.22665 15.1653 7.26007 15.1653H12.1002C16.1336 15.1653 17.747 13.7863 17.747 10.3387V8.95969" stroke="#A9AAAA" stroke-width="1.37903" stroke-linecap="round" stroke-linejoin="round"/>
<path d="M12.9424 2.07966L6.58572 7.51306C6.34371 7.71991 6.10171 8.12673 6.05331 8.42322L5.70643 10.4987C5.57737 11.2502 6.19851 11.7743 7.0778 11.6708L9.50591 11.3744C9.84472 11.333 10.3207 11.1261 10.5707 10.9193L16.9274 5.48588C18.0245 4.54813 18.5408 3.4587 16.9274 2.07966C15.314 0.700625 14.0395 1.14192 12.9424 2.07966Z" stroke="#A9AAAA" stroke-width="1.37903" stroke-miterlimit="10" stroke-linecap="round" stroke-linejoin="round"/>
<path d="M12.9424 2.07966L6.58572 7.51306C6.34371 7.71991 6.10171 8.12673 6.05331 8.42322L5.70643 10.4987C5.57737 11.2502 6.19851 11.7743 7.0778 11.6708L9.50591 11.3744C9.84472 11.333 10.3207 11.1261 10.5707 10.9193L16.9274 5.48588C18.0245 4.54813 18.5408 3.4587 16.9274 2.07966C15.314 0.700625 14.0395 1.14192 12.9424 2.07966Z" stroke="#A9AAAA" stroke-width="1.37903" stroke-miterlimit="10" stroke-linecap="round" stroke-linejoin="round"/>
<path d="M12.9424 2.07966L6.58572 7.51306C6.34371 7.71991 6.10171 8.12673 6.05331 8.42322L5.70643 10.4987C5.57737 11.2502 6.19851 11.7743 7.0778 11.6708L9.50591 11.3744C9.84472 11.333 10.3207 11.1261 10.5707 10.9193L16.9274 5.48588C18.0245 4.54813 18.5408 3.4587 16.9274 2.07966C15.314 0.700625 14.0395 1.14192 12.9424 2.07966Z" stroke="#A9AAAA" stroke-width="1.37903" stroke-miterlimit="10" stroke-linecap="round" stroke-linejoin="round"/>
<path d="M12.0332 2.86719C12.5737 4.51525 14.0823 5.80474 16.0185 6.27365" stroke="#A9AAAA" stroke-width="1.37903" stroke-miterlimit="10" stroke-linecap="round" stroke-linejoin="round"/>
<path d="M12.0332 2.86719C12.5737 4.51525 14.0823 5.80474 16.0185 6.27365" stroke="#A9AAAA" stroke-width="1.37903" stroke-miterlimit="10" stroke-linecap="round" stroke-linejoin="round"/>
<path d="M12.0332 2.86719C12.5737 4.51525 14.0823 5.80474 16.0185 6.27365" stroke="#A9AAAA" stroke-width="1.37903" stroke-miterlimit="10" stroke-linecap="round" stroke-linejoin="round"/>
</svg>
