<svg width="21" height="21" viewBox="0 0 21 21" fill="none" xmlns="http://www.w3.org/2000/svg">
<path d="M20.8919 16.557L17.4252 20.714C17.3498 20.8043 17.2586 20.8763 17.1573 20.9255C17.056 20.9747 16.9467 21.0001 16.8362 21H0.402457C0.324042 21 0.247336 20.9744 0.181765 20.9263C0.116192 20.8782 0.0646093 20.8098 0.0333538 20.7294C0.0020984 20.649 -0.00746811 20.5601 0.00582972 20.4737C0.0191275 20.3873 0.0547104 20.3071 0.108206 20.243L3.5775 16.086C3.65267 15.9959 3.74355 15.9241 3.84454 15.8749C3.94554 15.8257 4.05449 15.8002 4.16467 15.8H20.5975C20.6759 15.8 20.7526 15.8256 20.8183 15.8737C20.8838 15.9218 20.9353 15.9902 20.9667 16.0706C20.9979 16.1511 21.0075 16.2399 20.9942 16.3263C20.9809 16.4127 20.9453 16.4929 20.8919 16.557ZM17.4252 8.18599C17.3498 8.09569 17.2586 8.02369 17.1573 7.97449C17.056 7.9253 16.9467 7.89994 16.8362 7.90001H0.402457C0.324042 7.90001 0.247336 7.92562 0.181765 7.9737C0.116192 8.02179 0.0646093 8.09023 0.0333538 8.17062C0.0020984 8.25104 -0.00746811 8.33991 0.00582972 8.42632C0.0191275 8.51271 0.0547104 8.59289 0.108206 8.65701L3.5775 12.814C3.65267 12.9041 3.74355 12.9759 3.84454 13.0251C3.94554 13.0743 4.05449 13.0998 4.16467 13.1H20.5975C20.6759 13.1 20.7526 13.0744 20.8183 13.0263C20.8838 12.9782 20.9353 12.9098 20.9667 12.8294C20.9979 12.749 21.0075 12.6601 20.9942 12.5737C20.9809 12.4873 20.9453 12.4071 20.8919 12.343L17.4252 8.18599ZM0.402457 5.20001H16.8362C16.9467 5.20005 17.056 5.17471 17.1573 5.1255C17.2586 5.0763 17.3498 5.0043 17.4252 4.914L20.8919 0.757C20.9453 0.692897 20.9809 0.612718 20.9942 0.526312C21.0075 0.439907 20.9979 0.351041 20.9667 0.270633C20.9353 0.190224 20.8838 0.121775 20.8183 0.0736964C20.7526 0.0256174 20.6759 2.96086e-06 20.5975 0H4.16467C4.05449 0.000209617 3.94554 0.0257009 3.84454 0.0748955C3.74355 0.12409 3.65267 0.195941 3.5775 0.286001L0.109101 4.443C0.0556564 4.50703 0.0200893 4.58714 0.00676127 4.67343C-0.00656674 4.75975 0.00292386 4.84854 0.034069 4.92891C0.0652143 5.00929 0.11666 5.07773 0.182098 5.12589C0.247536 5.17404 0.324119 5.19979 0.402457 5.20001Z" fill="url(#paint0_linear_4032_38712)"/>
<defs>
<linearGradient id="paint0_linear_4032_38712" x1="1.77264" y1="21.5005" x2="21.1794" y2="1.93432" gradientUnits="userSpaceOnUse">
<stop offset="0.08" stop-color="#9945FF"/>
<stop offset="0.3" stop-color="#8752F3"/>
<stop offset="0.5" stop-color="#5497D5"/>
<stop offset="0.6" stop-color="#43B4CA"/>
<stop offset="0.72" stop-color="#28E0B9"/>
<stop offset="0.97" stop-color="#19FB9B"/>
</linearGradient>
</defs>
</svg>
