<svg width="20" height="20" viewBox="0 0 20 20" fill="none" xmlns="http://www.w3.org/2000/svg">
<path d="M14.166 17.5333H5.83268C3.19102 17.5333 1.04102 15.3833 1.04102 12.7416V4.75829C1.04102 3.67496 1.54102 3.29996 1.84102 3.17496C2.14102 3.04996 2.75768 2.95829 3.52435 3.72496L5.68268 5.88329C5.76602 5.96663 5.89935 5.96663 5.97435 5.88329L8.96602 2.89163C9.51602 2.34163 10.4827 2.34163 11.0243 2.89163L14.016 5.88329C14.0993 5.96663 14.2327 5.96663 14.3077 5.88329L16.466 3.72496C17.2327 2.95829 17.8493 3.05829 18.1493 3.17496C18.4493 3.29996 18.9493 3.66663 18.9493 4.75829V12.75C18.9577 15.6083 17.0327 17.5333 14.166 17.5333ZM2.34102 4.36663C2.31602 4.43329 2.29102 4.55829 2.29102 4.75829V12.75C2.29102 14.7 3.88268 16.2916 5.83268 16.2916H14.166C16.316 16.2916 17.7077 14.9 17.7077 12.75V4.75829C17.7077 4.55829 17.6827 4.44163 17.6577 4.37496C17.591 4.40829 17.491 4.47496 17.3493 4.61663L15.191 6.77496C14.641 7.32496 13.6743 7.32496 13.1327 6.77496L10.141 3.78329C10.0577 3.69996 9.92435 3.69996 9.84935 3.78329L6.86602 6.76663C6.31602 7.31663 5.34935 7.31663 4.80768 6.76663L2.64935 4.60829C2.50768 4.46663 2.39935 4.39996 2.34102 4.36663Z" fill="#2A2D32"/>
</svg>
