<svg width="23" height="23" viewBox="0 0 23 23" fill="none" xmlns="http://www.w3.org/2000/svg">
<path d="M22.1656 13.9652C20.6644 19.9883 14.564 23.6662 8.52985 22.1641C2.50672 20.6583 -1.16529 14.5579 0.335892 8.53482C1.83707 2.51171 7.93379 -1.16621 13.9532 0.335881C19.9911 1.81957 23.6631 7.93839 22.1656 13.9652Z" fill="#627EEA"/>
<path d="M11.5096 11.6134L7.09028 11.234L11.5089 8.73409V11.6134H11.5096ZM11.5096 14.5461V19.1094C9.97291 16.7173 8.2791 14.0845 6.91406 11.9534C8.52502 12.8608 10.207 13.809 11.5096 14.5461ZM11.5096 7.92597L6.91406 10.4904L11.5096 3.35938V7.92597Z" fill="white"/>
<path d="M15.931 11.234L11.5117 11.6134V8.73409L15.931 11.234ZM11.5117 14.5467C12.8136 13.8103 14.495 12.8608 16.1066 11.9534C14.7415 14.0851 13.0477 16.7179 11.5117 19.1087V14.5467ZM11.5117 7.92597V3.35938L16.1066 10.4904L11.5117 7.92597Z" fill="white" fill-opacity="0.601"/>
<path opacity="0.2" fill-rule="evenodd" clip-rule="evenodd" d="M11.5117 11.6138L15.9303 11.2344L11.5117 13.7166V11.6138Z" fill="white"/>
<path opacity="0.603" fill-rule="evenodd" clip-rule="evenodd" d="M11.5091 11.6138L7.08984 11.2344L11.5091 13.7166V11.6138Z" fill="white"/>
</svg>
