<svg width="24" height="24" viewBox="0 0 24 24" fill="none" xmlns="http://www.w3.org/2000/svg">
<rect x="6.10352e-05" width="23.3471" height="24" rx="3.15789" fill="url(#paint0_linear_1_10516)"/>
<path d="M8.54585 5.47461H7.37826C6.03245 5.47461 5.32574 6.20091 5.32574 7.57771V8.77768C5.32574 10.1545 6.03245 10.8808 7.37211 10.8808H8.53971C9.87937 10.8808 10.5861 10.1545 10.5861 8.77768V7.57771C10.5922 6.20091 9.88552 5.47461 8.54585 5.47461Z" fill="#2A2D32"/>
<path d="M15.5699 5.47461H14.4023C13.0626 5.47461 12.3559 6.20091 12.3559 7.57771V8.77768C12.3559 10.1545 13.0626 10.8808 14.4023 10.8808H15.5699C16.9095 10.8808 17.6162 10.1545 17.6162 8.77768V7.57771C17.6162 6.20091 16.9095 5.47461 15.5699 5.47461Z" fill="#2A2D32"/>
<path d="M15.5699 12.6934H14.4023C13.0626 12.6934 12.3559 13.4197 12.3559 14.7965V15.9964C12.3559 17.3732 13.0626 18.0995 14.4023 18.0995H15.5699C16.9095 18.0995 17.6162 17.3732 17.6162 15.9964V14.7965C17.6162 13.4197 16.9095 12.6934 15.5699 12.6934Z" fill="#2A2D32"/>
<path d="M8.54585 12.6934H7.37826C6.03245 12.6934 5.32574 13.4197 5.32574 14.7965V15.9964C5.32574 17.3796 6.03245 18.1059 7.37211 18.1059H8.53971C9.87937 18.1059 10.5861 17.3796 10.5861 16.0028V14.8028C10.5922 13.4197 9.88552 12.6934 8.54585 12.6934Z" fill="#2A2D32"/>
<defs>
<linearGradient id="paint0_linear_1_10516" x1="-7.13377" y1="23.3333" x2="23.4115" y2="17.3272" gradientUnits="userSpaceOnUse">
<stop offset="0.170668" stop-color="#513BE2"/>
<stop offset="0.335282" stop-color="#DB3EC6"/>
<stop offset="0.632408" stop-color="#E3F4E1"/>
<stop offset="0.902115" stop-color="#EE9CB0"/>
<stop offset="1" stop-color="#5FC5FF"/>
</linearGradient>
</defs>
</svg>
