<svg width="25" height="24" viewBox="0 0 25 24" fill="none" xmlns="http://www.w3.org/2000/svg">
<path d="M8.87988 11.9981L11.2899 14.4181L16.1199 9.57812" stroke="#808080" stroke-width="1.5" stroke-linecap="round" stroke-linejoin="round"/>
<path d="M11.2499 2.45031C11.9399 1.86031 13.0699 1.86031 13.7699 2.45031L15.3499 3.81031C15.6499 4.07031 16.2099 4.28031 16.6099 4.28031H18.3099C19.3699 4.28031 20.2399 5.15031 20.2399 6.21031V7.91031C20.2399 8.30031 20.4499 8.87031 20.7099 9.17031L22.0699 10.7503C22.6599 11.4403 22.6599 12.5703 22.0699 13.2703L20.7099 14.8503C20.4499 15.1503 20.2399 15.7103 20.2399 16.1103V17.8103C20.2399 18.8703 19.3699 19.7403 18.3099 19.7403H16.6099C16.2199 19.7403 15.6499 19.9503 15.3499 20.2103L13.7699 21.5703C13.0799 22.1603 11.9499 22.1603 11.2499 21.5703L9.66988 20.2103C9.36988 19.9503 8.80988 19.7403 8.40988 19.7403H6.67988C5.61988 19.7403 4.74988 18.8703 4.74988 17.8103V16.1003C4.74988 15.7103 4.53988 15.1503 4.28988 14.8503L2.93988 13.2603C2.35988 12.5703 2.35988 11.4503 2.93988 10.7603L4.28988 9.17031C4.53988 8.87031 4.74988 8.31031 4.74988 7.92031V6.20031C4.74988 5.14031 5.61988 4.27031 6.67988 4.27031H8.40988C8.79988 4.27031 9.36988 4.06031 9.66988 3.80031L11.2499 2.45031Z" stroke="#808080" stroke-width="1.5" stroke-linecap="round" stroke-linejoin="round"/>
</svg>
