<svg width="18" height="18" viewBox="0 0 18 18" fill="none" xmlns="http://www.w3.org/2000/svg">
<path d="M11.3688 16.5761H6.51147C2.85355 16.5761 1.28906 15.0117 1.28906 11.3537V11.2569C1.28906 7.94911 2.5928 6.35482 5.51318 6.07918C5.81118 6.05683 6.09427 6.28032 6.12407 6.58577C6.15387 6.89122 5.93038 7.16687 5.61748 7.19667C3.2782 7.41272 2.40655 8.51531 2.40655 11.2643V11.3612C2.40655 14.3933 3.47935 15.4661 6.51147 15.4661H11.3688C14.401 15.4661 15.4738 14.3933 15.4738 11.3612V11.2643C15.4738 8.50041 14.5872 7.39782 12.2032 7.19667C11.8978 7.16687 11.6668 6.89867 11.6966 6.59322C11.7264 6.28778 11.9872 6.05683 12.3001 6.08663C15.2652 6.33992 16.5912 7.94166 16.5912 11.2718V11.3686C16.5912 15.0117 15.0268 16.5761 11.3688 16.5761Z" fill="black"/>
<path d="M8.9396 11.7336C8.63416 11.7336 8.38086 11.4803 8.38086 11.1749V2.69687C8.38086 2.39142 8.63416 2.13812 8.9396 2.13812C9.24505 2.13812 9.49835 2.39142 9.49835 2.69687V11.1749C9.49835 11.4803 9.24505 11.7336 8.9396 11.7336Z" fill="black"/>
<path d="M11.4351 4.91696C11.2935 4.91696 11.152 4.86481 11.0402 4.75306L8.93933 2.65218L6.83845 4.75306C6.6224 4.96911 6.2648 4.96911 6.04875 4.75306C5.83271 4.53702 5.83271 4.17942 6.04875 3.96337L8.54449 1.46764C8.76053 1.25159 9.11813 1.25159 9.33418 1.46764L11.8299 3.96337C12.046 4.17942 12.046 4.53702 11.8299 4.75306C11.7256 4.86481 11.5766 4.91696 11.4351 4.91696Z" fill="black"/>
</svg>
