<svg width="43" height="42" viewBox="0 0 43 42" fill="none" xmlns="http://www.w3.org/2000/svg">
<circle cx="21.5" cy="21" r="21" fill="url(#paint0_linear_4998_19174)"/>
<path d="M6.61148 35.8457C2.84639 32.0374 0.528197 26.7972 0.54549 21.0189C0.580215 9.42093 10.0103 0.0471059 21.6083 0.0818309C29.5239 0.105546 36.4019 4.50658 39.9615 10.9855C36.1693 7.14842 30.9094 4.76302 25.0885 4.74559C13.4907 4.711 4.06056 14.0849 4.02568 25.6826C4.01465 29.3664 4.9544 32.8309 6.61148 35.8457Z" fill="#B4BEFB"/>
<circle cx="13.9219" cy="16.9141" r="1.75" fill="#292D32"/>
<circle cx="22.0898" cy="16.9141" r="1.75" fill="#292D32"/>
<path d="M21.4376 25.6641H14.5524C13.883 25.6641 13.3379 25.9879 13.3379 26.3913C13.3379 27.9197 15.4322 29.1641 18.0046 29.1641C20.577 29.1641 22.6712 27.9197 22.6712 26.3913C22.6617 25.9936 22.107 25.6641 21.4376 25.6641Z" fill="#292D32"/>
<defs>
<linearGradient id="paint0_linear_4998_19174" x1="31.4167" y1="21" x2="6.91667" y2="37.3333" gradientUnits="userSpaceOnUse">
<stop stop-color="#84A2F4"/>
<stop offset="1" stop-color="#B6C1F9"/>
</linearGradient>
</defs>
</svg>
