<svg width="99" height="98" viewBox="0 0 99 98" fill="none" xmlns="http://www.w3.org/2000/svg">
<circle cx="49.625" cy="49.25" r="48.75" fill="#F4EEEC"/>
<circle cx="49.625" cy="49.2578" r="45" fill="url(#paint0_linear_4985_67865)"/>
<path d="M17.6849 80.9737C9.64263 72.8168 4.69203 61.6071 4.72904 49.2473C4.80347 24.3946 25.0109 4.30783 49.8636 4.38224C66.8592 4.43318 81.6235 13.9009 89.2379 27.8293C81.109 19.584 69.822 14.4568 57.3287 14.4193C32.476 14.3449 12.2686 34.4317 12.1941 59.2844C12.1706 67.142 14.1642 74.5343 17.6849 80.9737Z" fill="#EE9A5F"/>
<circle cx="43.1431" cy="40.479" r="3.49462" fill="#292D32"/>
<circle cx="59.4477" cy="40.479" r="3.49462" fill="#292D32"/>
<path d="M58.0238 51.5703H44.9339C43.6613 51.5703 42.625 53.0024 42.625 54.7861C42.625 61.5444 46.6065 67.0465 51.497 67.0465C56.3875 67.0465 60.369 61.5444 60.369 54.7861C60.3509 53.0275 59.2964 51.5703 58.0238 51.5703Z" fill="#292D32"/>
<defs>
<linearGradient id="paint0_linear_4985_67865" x1="70.875" y1="49.2578" x2="18.375" y2="84.2578" gradientUnits="userSpaceOnUse">
<stop stop-color="#E26824"/>
<stop offset="1" stop-color="#F08423"/>
</linearGradient>
</defs>
</svg>
