<svg width="28" height="28" viewBox="0 0 28 28" fill="none" xmlns="http://www.w3.org/2000/svg">
<g clip-path="url(#clip0_5756_63459)">
<mask id="mask0_5756_63459" style="mask-type:luminance" maskUnits="userSpaceOnUse" x="0" y="0" width="28" height="28">
<path d="M28 0H0V28H28V0Z" fill="white"/>
</mask>
<g mask="url(#mask0_5756_63459)">
<mask id="mask1_5756_63459" style="mask-type:luminance" maskUnits="userSpaceOnUse" x="0" y="0" width="28" height="28">
<path d="M28 0H0V28H28V0Z" fill="white"/>
</mask>
<g mask="url(#mask1_5756_63459)">
<path d="M0 14C0 2.471 2.471 0 14 0C25.529 0 28 2.471 28 14C28 25.529 25.529 28 14 28C2.471 28 0 25.529 0 14Z" fill="#00B59C" fill-opacity="0.2"/>
<g opacity="0.6" filter="url(#filter0_f_5756_63459)">
<path d="M14 25C19.5228 25 24 23.6569 24 22C24 20.3431 19.5228 19 14 19C8.47715 19 4 20.3431 4 22C4 23.6569 8.47715 25 14 25Z" fill="url(#paint0_linear_5756_63459)"/>
</g>
</g>
<path d="M14.6458 14.0013H9.64583C9.1875 14.0013 8.8125 14.3763 8.8125 14.8346C8.8125 15.293 9.1875 15.668 9.64583 15.668H14.6458C15.1042 15.668 15.4792 15.293 15.4792 14.8346C15.4792 14.3763 15.1042 14.0013 14.6458 14.0013ZM17.9792 10.668H9.64583C9.1875 10.668 8.8125 11.043 8.8125 11.5013C8.8125 11.9596 9.1875 12.3346 9.64583 12.3346H17.9792C18.4375 12.3346 18.8125 11.9596 18.8125 11.5013C18.8125 11.043 18.4375 10.668 17.9792 10.668ZM17.9792 10.668H9.64583C9.1875 10.668 8.8125 11.043 8.8125 11.5013C8.8125 11.9596 9.1875 12.3346 9.64583 12.3346H17.9792C18.4375 12.3346 18.8125 11.9596 18.8125 11.5013C18.8125 11.043 18.4375 10.668 17.9792 10.668ZM14.6458 14.0013H9.64583C9.1875 14.0013 8.8125 14.3763 8.8125 14.8346C8.8125 15.293 9.1875 15.668 9.64583 15.668H14.6458C15.1042 15.668 15.4792 15.293 15.4792 14.8346C15.4792 14.3763 15.1042 14.0013 14.6458 14.0013ZM17.9792 10.668H9.64583C9.1875 10.668 8.8125 11.043 8.8125 11.5013C8.8125 11.9596 9.1875 12.3346 9.64583 12.3346H17.9792C18.4375 12.3346 18.8125 11.9596 18.8125 11.5013C18.8125 11.043 18.4375 10.668 17.9792 10.668ZM14.6458 14.0013H9.64583C9.1875 14.0013 8.8125 14.3763 8.8125 14.8346C8.8125 15.293 9.1875 15.668 9.64583 15.668H14.6458C15.1042 15.668 15.4792 15.293 15.4792 14.8346C15.4792 14.3763 15.1042 14.0013 14.6458 14.0013Z" fill="url(#paint1_linear_5756_63459)"/>
<path d="M19.6452 7.33203H7.97852C6.60352 7.33203 5.47852 8.45703 5.47852 9.83203V20.6654C5.47852 20.9987 5.67852 21.307 5.99518 21.432C6.09518 21.482 6.20352 21.4987 6.31185 21.4987C6.52852 21.4987 6.74518 21.4154 6.90352 21.257L9.15352 18.9987H19.6452C21.0202 18.9987 22.1452 17.8737 22.1452 16.4987V9.83203C22.1452 8.45703 21.0202 7.33203 19.6452 7.33203ZM8.81185 14.832C8.81185 14.3737 9.18685 13.9987 9.64518 13.9987H14.6452C15.1035 13.9987 15.4785 14.3737 15.4785 14.832C15.4785 15.2904 15.1035 15.6654 14.6452 15.6654H9.64518C9.18685 15.6654 8.81185 15.2904 8.81185 14.832ZM17.9785 12.332H9.64518C9.18685 12.332 8.81185 11.957 8.81185 11.4987C8.81185 11.0404 9.18685 10.6654 9.64518 10.6654H17.9785C18.4368 10.6654 18.8118 11.0404 18.8118 11.4987C18.8118 11.957 18.4368 12.332 17.9785 12.332Z" fill="url(#paint2_linear_5756_63459)"/>
</g>
</g>
<defs>
<filter id="filter0_f_5756_63459" x="0" y="15" width="28" height="14" filterUnits="userSpaceOnUse" color-interpolation-filters="sRGB">
<feFlood flood-opacity="0" result="BackgroundImageFix"/>
<feBlend mode="normal" in="SourceGraphic" in2="BackgroundImageFix" result="shape"/>
<feGaussianBlur stdDeviation="2" result="effect1_foregroundBlur_5756_63459"/>
</filter>
<linearGradient id="paint0_linear_5756_63459" x1="14" y1="19" x2="14" y2="25" gradientUnits="userSpaceOnUse">
<stop stop-color="#9CFFAC" stop-opacity="0"/>
<stop offset="1" stop-color="#00B59C"/>
</linearGradient>
<linearGradient id="paint1_linear_5756_63459" x1="13.8125" y1="10.668" x2="13.8125" y2="15.668" gradientUnits="userSpaceOnUse">
<stop stop-color="#9CFFAC"/>
<stop offset="1" stop-color="#00B59C"/>
</linearGradient>
<linearGradient id="paint2_linear_5756_63459" x1="13.8118" y1="7.33203" x2="13.8118" y2="21.4987" gradientUnits="userSpaceOnUse">
<stop stop-color="#F0FFF4"/>
<stop offset="1" stop-color="#C3FFE8"/>
</linearGradient>
<clipPath id="clip0_5756_63459">
<rect width="28" height="28" fill="white"/>
</clipPath>
</defs>
</svg>
