<svg width="1179" height="1179" viewBox="0 0 1179 1179" fill="none" xmlns="http://www.w3.org/2000/svg">
<rect width="1179" height="1179" fill="white"/>
<path d="M865.964 429.877C907.061 429.877 940.009 439.247 964.73 458.069L965.893 458.944C990.188 477.405 1007.68 501.788 1018.37 532.069L1018.88 533.501C1029.6 563.602 1034.74 596.21 1034.29 631.318V631.322C1033.62 671.724 1025.6 705.86 1010.21 733.697L1010.21 733.698C995.058 761.295 974.347 782.237 948.086 796.5L948.087 796.501C922.06 810.759 892.427 817.878 859.208 817.878C828.492 817.878 802.354 812.458 780.824 801.58C759.658 790.886 742.429 776.345 729.148 757.961L728.519 757.083C715.171 738.306 705.45 716.822 699.348 692.641L699.346 692.632C693.475 668.245 690.653 642.622 690.879 615.765V615.758L690.916 613.868C691.808 574.293 699.81 540.897 714.961 513.715C730.342 486.12 751.164 465.29 777.426 451.253L778.659 450.59C804.598 436.776 833.706 429.877 865.964 429.877ZM443.172 303.548C468.445 303.548 491.592 306.255 512.606 311.678L514.569 312.175C534.77 317.405 552.339 325.61 567.263 336.801L568.72 337.875C583.661 349.074 595.195 363.571 603.318 381.352L603.719 382.205C612.071 400.19 616.23 421.984 616.23 447.558C616.23 477.345 611.307 502.59 601.424 523.263L600.949 524.243C590.753 545.088 576.132 561.527 557.088 573.543L557.087 573.542C548.279 579.166 538.681 583.916 528.294 587.796C536.222 593.536 543.528 601.134 550.213 610.578L551.206 611.962C561.437 626.33 570.813 642.914 579.337 661.709L581.021 665.305C589.417 683.298 597.418 701.588 605.021 720.175L606.586 723.865C613.905 740.987 621.48 756.727 629.311 771.086L630.992 774.142L630.999 774.152H630.998C634.374 780.454 637.75 786.756 641.126 793.058L646.192 802.178C647.881 805.218 649.571 808.258 651.26 811.298L651.913 812.474H560.964L560.73 812.113C557.964 807.857 555.595 803.499 553.624 799.038L553.235 798.146C551.216 793.433 547.619 785.677 542.44 774.868L542.436 774.859C535.443 759.746 528.566 742.722 521.804 723.788L521.803 723.785C515.054 704.665 507.631 686.107 499.534 668.113L499.531 668.106C491.674 650.146 482.59 635.013 472.289 622.696L472.284 622.691C463.37 611.84 453.143 604.983 441.599 602.066C435.937 602.302 429.713 602.52 422.928 602.714H422.916C407.302 602.937 386.169 603.049 359.519 603.051V812.474H278.22V308.952H314.141C330.101 308.952 348.994 308.053 370.822 306.253C392.691 304.449 416.808 303.548 443.172 303.548ZM863.92 487.193C834.002 486.533 811.429 497.117 796.072 518.905L795.347 519.951C779.935 542.511 772.178 574.755 772.178 616.784C772.178 642.842 775.323 666.75 781.604 688.512C787.88 710.253 797.617 727.691 810.79 740.864L811.408 741.476C824.442 754.202 841.037 760.798 861.252 761.237H861.251C891.858 761.683 914.782 750.196 930.155 726.803L930.156 726.802L930.885 725.685C946.047 702.082 953.67 669.636 953.67 628.269C953.67 602.21 950.525 578.644 944.245 557.562L944.244 557.56C937.971 536.274 928.126 519.29 914.734 506.567L914.729 506.562C901.609 493.887 884.698 487.417 863.929 487.193H863.92ZM431.688 363.229C418.65 363.229 405.724 363.791 392.912 364.915L392.899 364.916C380.579 365.796 369.453 367.216 359.519 369.17V544.821C364.207 545.45 371.15 545.981 380.362 546.41H380.363C390.265 546.635 400.28 546.748 410.407 546.748H434.39C466.692 546.748 491.471 538.898 508.844 523.31L509.65 522.563C526.459 506.767 534.932 482.943 534.932 450.936C534.932 431.654 531.679 415.57 525.219 402.649L525.217 402.645C518.781 389.55 508.014 379.765 492.853 373.299L492.846 373.297L492.839 373.294C477.895 366.603 457.529 363.23 431.688 363.229Z" fill="url(#paint0_linear_1370_23356)" stroke="url(#paint1_linear_1370_23356)" stroke-width="1.58333"/>
<circle cx="589" cy="590" r="464.444" stroke="url(#paint2_linear_1370_23356)" stroke-width="21.1111"/>
<defs>
<linearGradient id="paint0_linear_1370_23356" x1="219.554" y1="568.909" x2="1169.55" y2="568.909" gradientUnits="userSpaceOnUse">
<stop stop-color="#DB3EC6"/>
<stop offset="1" stop-color="#513BE2"/>
</linearGradient>
<linearGradient id="paint1_linear_1370_23356" x1="219.554" y1="568.909" x2="1169.55" y2="568.909" gradientUnits="userSpaceOnUse">
<stop stop-color="#DB3EC6"/>
<stop offset="1" stop-color="#513BE2"/>
</linearGradient>
<linearGradient id="paint2_linear_1370_23356" x1="589" y1="115" x2="589" y2="1065" gradientUnits="userSpaceOnUse">
<stop stop-color="#DB3EC6"/>
<stop offset="1" stop-color="#513BE2"/>
</linearGradient>
</defs>
</svg>
8 40 39 C39.34 39 38.68 39 38 39 C38 39.66 38 40.32 38 41 C38.99 41.33 39.98 41.66 41 42 C40.505 42.99 40.505 42.99 40 44 C42.42381048 46.42381048 43.52894921 46.44016497 46.875 46.8125 C47.73867187 46.92207031 48.60234375 47.03164062 49.4921875 47.14453125 C52.57714581 46.9667377 53.64238986 45.90760986 56 44 C59.25 43.8125 59.25 43.8125 62 44 C61.01 42.02 60.02 40.04 59 38 C60.175625 38.33 61.35125 38.66 62.5625 39 C72.81120865 41.23079147 83.79914927 41.52375017 93 36 C98.08620746 32.40307589 101.69175739 28.91487169 104 23 C104.66 23 105.32 23 106 23 C107.57170996 26.14341993 107.23175783 29.55771451 107 33 C106.67 33.99 106.34 34.98 106 36 C107.65 35.34 109.3 34.68 111 34 C110.63265306 40.36734694 110.63265306 40.36734694 107.625 43.375 C105 45 105 45 102 46 C103.98 46.495 103.98 46.495 106 47 C105.78125 48.87109375 105.78125 48.87109375 105 51 C102.96875 52.16015625 102.96875 52.16015625 100.5 53.0625 C98.0666176 53.9059671 98.0666176 53.9059671 96 55 C95.67 55.99 95.34 56.98 95 58 C91.78548731 59.60725635 88.56387464 59.05748185 85 59 C84.67 59.99 84.34 60.98 84 62 C78.158256 62.35050464 74.1468192 62.16727335 69 59 C68.01 59.99 68.01 59.99 67 61 C63.42779828 61.23296968 60.43358947 60.92900148 57 60 C57.495 61.175625 57.99 62.35125 58.5 63.5625 C60.64475486 69.41183143 60.66223451 73.85661313 58.25 79.625 C56.27310248 83.73302108 54.2156033 87.89219835 50 90 C43.44973346 90.69224803 37.89042677 89.41476062 31.75 87.25 C30.58597656 86.87101562 30.58597656 86.87101562 29.3984375 86.484375 C24.90529206 84.95087826 21.5523398 83.26815261 18 80 C19.98 80 21.96 80 24 80 C24.2475 79.484375 24.495 78.96875 24.75 78.4375 C25.75000181 76.48749648 26.83106606 74.57914513 27.9375 72.6875 C32.17595199 65.32131423 32.17595199 65.32131423 33 57 C33.99 57 34.98 57 36 57 C35.85128718 64.98993405 35.06350528 71.5716685 30 78 C27.83203125 79.74609375 27.83203125 79.74609375 26 81 C27.32 81.33 28.64 81.66 30 82 C30 81.01 30 80.02 30 79 C30.98548369 77.65590191 31.98767284 76.3239983 33 75 C33.78233233 73.27311258 34.51162313 71.52126353 35.1875 69.75 C35.53167969 68.85796875 35.87585938 67.9659375 36.23046875 67.046875 C36.48441406 66.37140625 36.73835938 65.6959375 37 65 C37.99 65 38.98 65 40 65 C39.01 64.67 38.02 64.34 37 64 C37.020625 62.906875 37.04125 61.81375 37.0625 60.6875 C37.18544452 57.05615809 37.18544452 57.05615809 36 54 C37.32 54.33 38.64 54.66 40 55 C40.33 54.01 40.66 53.02 41 52 C37.37 52 33.74 52 30 52 C29.505 52.99 29.505 52.99 29 54 C28.0925 54.185625 27.185 54.37125 26.25 54.5625 C22.11125614 56.39309824 20.92230884 58.31349739 18.90234375 62.26953125 C17.29907956 67.12096706 17.61615412 71.95882408 18 77 C19.32 77.66 20.64 78.32 22 79 C19.625 79.125 19.625 79.125 17 79 C14.281484 76.281484 14.63738395 74.67205652 14.5625 70.875 C14.65905373 63.60128576 16.67321528 59.41248643 21.66796875 54.2890625 C22.10753906 53.86367187 22.54710938 53.43828125 23 53 C21.02 52.01 19.04 51.02 17 50 C17 49.34 17 48.68 17 48 C15.741875 48.061875 14.48375 48.12375 13.1875 48.1875 C9.24378462 48.1805812 9.24378462 48.1805812 7.3125 46.75 C6.879375 46.1725 6.44625 45.595 6 45 C4.7625 44.071875 4.7625 44.071875 3.5 43.125 C0.93297093 40.94302529 -0.43829557 38.95901892 -2 36 C-1.505 35.505 -1.505 35.505 -1 35 C-1.969375 34.278125 -2.93875 33.55625 -3.9375 32.8125 C-6.29913506 30.86762407 -6.93412331 30.2117465 -7.875 27.1875 C-7.91625 26.465625 -7.9575 25.74375 -8 25 C-6.35 25 -4.7 25 -3 25 C-3.804375 24.38125 -4.60875 23.7625 -5.4375 23.125 C-8 21 -8 21 -9 19 C-9.23076923 13.46153846 -9.23076923 13.46153846 -8 11 C-5.11562221 12.29299694 -3.12780579 13.65941363 -1 16 C-1.7425 14.948125 -1.7425 14.948125 -2.5 13.875 C-4.25771576 10.50604479 -4.54675527 8.74917903 -4 5 C-2.125 2.125 -2.125 2.125 0 0 Z " fill="#F7F7F6" transform="translate(49,55)"/>
<path d="M0 0 C0.99 0 1.98 0 3 0 C2.85128718 7.98993405 2.06350528 14.5716685 -3 21 C-5.16796875 22.74609375 -5.16796875 22.74609375 -7 24 C-5.68 24.33 -4.36 24.66 -3 25 C-3 24.01 -3 23.02 -3 22 C-2.01451631 20.65590191 -1.01232716 19.3239983 0 18 C0.78233233 16.27311258 1.51162313 14.52126353 2.1875 12.75 C2.53167969 11.85796875 2.87585938 10.9659375 3.23046875 10.046875 C3.61138672 9.03367187 3.61138672 9.03367187 4 8 C10.86476118 9.08918967 16.77470211 10.90238801 23 14 C23 12.35 23 10.7 23 9 C22.01 8.67 21.02 8.34 20 8 C20.66 7.67 21.32 7.34 22 7 C22.66 7.33 23.32 7.66 24 8 C24.33 6.68 24.66 5.36 25 4 C27.53518191 11.76399459 27.74671312 17.43679472 24.1484375 24.9140625 C22.30113279 28.26937105 20.47936349 31.26031825 17 33 C10.44973346 33.69224803 4.89042677 32.41476062 -1.25 30.25 C-2.02601562 29.99734375 -2.80203125 29.7446875 -3.6015625 29.484375 C-8.09470794 27.95087826 -11.4476602 26.26815261 -15 23 C-13.02 23 -11.04 23 -9 23 C-8.7525 22.484375 -8.505 21.96875 -8.25 21.4375 C-7.24999819 19.48749648 -6.16893394 17.57914513 -5.0625 15.6875 C-0.82404801 8.32131423 -0.82404801 8.32131423 0 0 Z " fill="#EBECEB" transform="translate(82,112)"/>
<path d="M0 0 C1.19109375 -0.00386719 1.19109375 -0.00386719 2.40625 -0.0078125 C4.5 0.125 4.5 0.125 6.5 1.125 C6.17 2.445 5.84 3.765 5.5 5.125 C4.51 4.795 3.52 4.465 2.5 4.125 C2.83 5.115 3.16 6.105 3.5 7.125 C3.22428861 9.13375442 2.89764263 11.13678687 2.5 13.125 C4.975 13.62 4.975 13.62 7.5 14.125 C4.5 15.125 4.5 15.125 2.5 15.125 C2.32984375 15.87265625 2.1596875 16.6203125 1.984375 17.390625 C1.74203125 18.37546875 1.4996875 19.3603125 1.25 20.375 C1.01796875 21.34953125 0.7859375 22.3240625 0.546875 23.328125 C-0.61799266 26.44023411 -2.01330545 27.96712456 -4.5 30.125 C-2.025 31.115 -2.025 31.115 0.5 32.125 C-3.67587745 33.51695915 -5.63474776 31.94823219 -9.5 30.125 C-7.85 28.805 -6.2 27.485 -4.5 26.125 C-4.83 25.465 -5.16 24.805 -5.5 24.125 C-4.51 24.125 -3.52 24.125 -2.5 24.125 C-1.48888907 21.07586772 -1.48888907 21.07586772 -2.5 18.125 C-1.51 18.125 -0.52 18.125 0.5 18.125 C0.83 14.165 1.16 10.205 1.5 6.125 C0.51 6.125 -0.48 6.125 -1.5 6.125 C-1.17 8.105 -0.84 10.085 -0.5 12.125 C-1.16 12.125 -1.82 12.125 -2.5 12.125 C-2.7475 13.32125 -2.995 14.5175 -3.25 15.75 C-4.26057498 19.82839187 -5.97946225 22.73802739 -8.5 26.125 C-9.16 27.115 -9.82 28.105 -10.5 29.125 C-11.16 29.125 -11.82 29.125 -12.5 29.125 C-12.5 28.465 -12.5 27.805 -12.5 27.125 C-14.15 26.795 -15.8 26.465 -17.5 26.125 C-18.13568793 17.77629852 -17.55713069 11.95978875 -12.5 5.125 C-10.52805885 3.15305885 -8.99095467 2.292635 -6.5 1.125 C-4.13386544 -0.05806728 -2.63219264 -0.00854608 0 0 Z " fill="#161F0D" transform="translate(83.5,105.875)"/>
<path d="M0 0 C0.99 0 1.98 0 3 0 C2.85128718 7.98993405 2.06350528 14.5716685 -3 21 C-4.32 21.99 -5.64 22.98 -7 24 C3.89 26.97 3.89 26.97 15 30 C20.4269605 22.4022553 22.08061296 17.88740805 23 9 C22.01 8.67 21.02 8.34 20 8 C20.66 7.67 21.32 7.34 22 7 C22.66 7.33 23.32 7.66 24 8 C24.33 6.68 24.66 5.36 25 4 C27.53518191 11.76399459 27.74671312 17.43679472 24.1484375 24.9140625 C22.30113279 28.26937105 20.47936349 31.26031825 17 33 C10.44973346 33.69224803 4.89042677 32.41476062 -1.25 30.25 C-2.02601562 29.99734375 -2.80203125 29.7446875 -3.6015625 29.484375 C-8.09470794 27.95087826 -11.4476602 26.26815261 -15 23 C-13.02 23 -11.04 23 -9 23 C-8.7525 22.484375 -8.505 21.96875 -8.25 21.4375 C-7.24999819 19.48749648 -6.16893394 17.57914513 -5.0625 15.6875 C-0.82404801 8.32131423 -0.82404801 8.32131423 0 0 Z " fill="#DFE1DE" transform="translate(82,112)"/>
<path d="M0 0 C6.84394556 0.69254211 12.88556515 2.95755174 19 6 C18.67 7.98 18.34 9.96 18 12 C13.73493961 13.4216868 10.79962257 11.65386682 6.8125 10.0625 C6.06291016 9.77181641 5.31332031 9.48113281 4.54101562 9.18164062 C2.69075523 8.46274964 0.84493352 7.73245347 -1 7 C-1.04254356 5.00045254 -1.04080783 2.99958364 -1 1 C-0.67 0.67 -0.34 0.34 0 0 Z " fill="#E3E4E2" transform="translate(86,120)"/>
<path d="M0 0 C8.75 -0.125 8.75 -0.125 11 1 C10.67 2.32 10.34 3.64 10 5 C9.01 4.67 8.02 4.34 7 4 C7.33 4.99 7.66 5.98 8 7 C7.72428861 9.00875442 7.39764263 11.01178687 7 13 C8.65 13.33 10.3 13.66 12 14 C9 15 9 15 7 15 C6.82984375 15.74765625 6.6596875 16.4953125 6.484375 17.265625 C6.24203125 18.25046875 5.9996875 19.2353125 5.75 20.25 C5.51796875 21.22453125 5.2859375 22.1990625 5.046875 23.203125 C3.88200734 26.31523411 2.48669455 27.84212456 0 30 C2.475 30.99 2.475 30.99 5 32 C0.82412255 33.39195915 -1.13474776 31.82323219 -5 30 C-3.35 28.68 -1.7 27.36 0 26 C-0.33 25.34 -0.66 24.68 -1 24 C-0.01 24 0.98 24 2 24 C3.01111093 20.95086772 3.01111093 20.95086772 2 18 C2.99 18 3.98 18 5 18 C5.33 14.04 5.66 10.08 6 6 C5.01 6 4.02 6 3 6 C3.33 7.98 3.66 9.96 4 12 C3.34 12 2.68 12 2 12 C1.34 8.04 0.68 4.08 0 0 Z " fill="#565D50" transform="translate(79,106)"/>
<path d="M0 0 C6.37732315 1.87724961 12.70695459 3.85671642 19 6 C17.25 9.875 17.25 9.875 15 11 C13.21240234 10.56274414 13.21240234 10.56274414 11.0859375 9.78515625 C9.94511719 9.37426758 9.94511719 9.37426758 8.78125 8.95507812 C7.59015625 8.51325195 7.59015625 8.51325195 6.375 8.0625 C5.57320312 7.77181641 4.77140625 7.48113281 3.9453125 7.18164062 C1.96107862 6.46117475 -0.01978837 5.73144862 -2 5 C-2 2 -2 2 0 0 Z " fill="#FCFCFC" transform="translate(81,132)"/>
<path d="M0 0 C4.6889493 0.55619669 8.19924267 1.88182673 12.375 4.0625 C13.43460938 4.61035156 14.49421875 5.15820312 15.5859375 5.72265625 C16.38257812 6.14417969 17.17921875 6.56570312 18 7 C18 8.65 18 10.3 18 12 C11.54646385 9.94235079 5.2638737 7.57616518 -1 5 C-0.67 3.35 -0.34 1.7 0 0 Z " fill="#FCFCFC" transform="translate(87,114)"/>
<path d="M0 0 C2.5085974 4.84995498 3.44485479 8.48380056 3 14 C1.38641686 18.73690497 -0.69525276 23.19954067 -4 27 C-4.99 26.67 -5.98 26.34 -7 26 C-6.01 24.515 -6.01 24.515 -5 23 C-4.34 23 -3.68 23 -3 23 C-3.04125 22.071875 -3.0825 21.14375 -3.125 20.1875 C-3.1462373 15.0268365 -2.02043018 10.03837402 -1 5 C-1.99 4.67 -2.98 4.34 -4 4 C-3.34 3.67 -2.68 3.34 -2 3 C-1.34 3.33 -0.68 3.66 0 4 C0 2.68 0 1.36 0 0 Z " fill="#EBECEA" transform="translate(106,116)"/>
<path d="M0 0 C0.99 0 1.98 0 3 0 C2.85097175 8.00688142 2.09011866 14.57037642 -3 21 C-5.8125 23.0625 -5.8125 23.0625 -8 24 C-8.33 23.01 -8.66 22.02 -9 21 C-8.443125 20.319375 -7.88625 19.63875 -7.3125 18.9375 C-4.6153727 15.51141937 -3.33879949 12.16744403 -1.83203125 8.109375 C-1 6 -1 6 0 5 C0.04063832 3.33382885 0.042721 1.66611905 0 0 Z " fill="#E8E9E7" transform="translate(82,112)"/>
<path d="M0 0 C0.7425 0.2475 1.485 0.495 2.25 0.75 C2.25 1.08 2.25 1.41 2.25 1.75 C1.363125 1.894375 0.47625 2.03875 -0.4375 2.1875 C-4.5661587 4.13498052 -5.80885501 6.02660742 -7.84765625 10.01953125 C-9.45092044 14.87096706 -9.13384588 19.70882408 -8.75 24.75 C-7.43 25.41 -6.11 26.07 -4.75 26.75 C-7.125 26.875 -7.125 26.875 -9.75 26.75 C-12.468516 24.031484 -12.11261605 22.42205652 -12.1875 18.625 C-12.09630309 12.27629205 -10.83600242 8.5404856 -6.75 3.75 C-6.09 2.904375 -5.43 2.05875 -4.75 1.1875 C-2.75 -0.25 -2.75 -0.25 0 0 Z " fill="#C9CBC7" transform="translate(75.75,107.25)"/>
<path d="M0 0 C8.75 -0.125 8.75 -0.125 11 1 C10.67 2.32 10.34 3.64 10 5 C9.01 4.67 8.02 4.34 7 4 C7 4.66 7 5.32 7 6 C5.68 6 4.36 6 3 6 C3.33 7.98 3.66 9.96 4 12 C3.34 12 2.68 12 2 12 C1.34 8.04 0.68 4.08 0 0 Z " fill="#B5B8B2" transform="translate(79,106)"/>
<path d="M0 0 C2 3.75 2 3.75 2 6 C1.34 6 0.68 6 0 6 C0.061875 7.8253125 0.061875 7.8253125 0.125 9.6875 C0.13754508 13.21894127 -0.40001783 15.80003566 -2 19 C-3.15837573 15.52487282 -2.77265943 13.86329714 -2.0625 10.3125 C-1.77052734 8.82169922 -1.77052734 8.82169922 -1.47265625 7.30078125 C-1.31667969 6.54152344 -1.16070312 5.78226562 -1 5 C-1.99 4.67 -2.98 4.34 -4 4 C-3.34 3.67 -2.68 3.34 -2 3 C-1.34 3.33 -0.68 3.66 0 4 C0 2.68 0 1.36 0 0 Z " fill="#767B71" transform="translate(106,116)"/>
<path d="M0 0 C0.33 1.32 0.66 2.64 1 4 C0.34 4 -0.32 4 -1 4 C-1 5.32 -1 6.64 -1 8 C-3 10 -3 10 -5.1640625 10.1953125 C-6.38222656 10.16050781 -6.38222656 10.16050781 -7.625 10.125 C-8.44226563 10.10695312 -9.25953125 10.08890625 -10.1015625 10.0703125 C-10.72804688 10.04710937 -11.35453125 10.02390625 -12 10 C-12 9.67 -12 9.34 -12 9 C-10.948125 8.814375 -9.89625 8.62875 -8.8125 8.4375 C-4.04002892 7.1279805 -2.50108148 4.09267879 0 0 Z " fill="#878C82" transform="translate(102,135)"/>
<path d="M0 0 C1.65 0.33 3.3 0.66 5 1 C5 1.33 5 1.66 5 2 C4.0925 2.185625 3.185 2.37125 2.25 2.5625 C-2.208036 4.53432362 -2.91981256 6.67961071 -5 11 C-5.66 10.01 -6.32 9.02 -7 8 C-4.69 5.36 -2.38 2.72 0 0 Z " fill="#D2D4D0" transform="translate(73,107)"/>
<path d="M0 0 C3.25543229 0.34879632 4.01873107 1.02133261 6.25 3.5625 C6.8275 4.366875 7.405 5.17125 8 6 C5.03 5.505 5.03 5.505 2 5 C1.67 5.99 1.34 6.98 1 8 C0.67 5.36 0.34 2.72 0 0 Z " fill="#CED0CD" transform="translate(85,109)"/>
<path d="M0 0 C1.45823212 -0.0270043 2.91660675 -0.04639787 4.375 -0.0625 C5.18710938 -0.07410156 5.99921875 -0.08570312 6.8359375 -0.09765625 C9 0 9 0 11 1 C10.67 2.32 10.34 3.64 10 5 C9.34 4.34 8.68 3.68 8 3 C6.03309626 2.32707499 6.03309626 2.32707499 3.875 1.875 C2.59625 1.58625 1.3175 1.2975 0 1 C0 0.67 0 0.34 0 0 Z " fill="#1A2312" transform="translate(79,106)"/>
<path d="M0 0 C0.99 0.33 1.98 0.66 3 1 C3 3.31 3 5.62 3 8 C2.01 7.34 1.02 6.68 0 6 C-0.1875 2.875 -0.1875 2.875 0 0 Z " fill="#CFD1CD" transform="translate(106,122)"/>
<path d="M0 0 C5.75 -0.125 5.75 -0.125 8 1 C8 1.66 8 2.32 8 3 C7.01 3.33 6.02 3.66 5 4 C2.3125 2.0625 2.3125 2.0625 0 0 Z " fill="#BFC1BC" transform="translate(67,135)"/>
<path d="M0 0 C0.99 0 1.98 0 3 0 C3 1.98 3 3.96 3 6 C2.01 5.67 1.02 5.34 0 5 C0 3.35 0 1.7 0 0 Z " fill="#FAFAFA" transform="translate(82,112)"/>
</svg>
