<svg width="219" height="219" viewBox="0 0 219 219" fill="none" xmlns="http://www.w3.org/2000/svg">
<g filter="url(#filter0_d_4506_57022)">
<path d="M170.546 105.208C165.345 103.839 159.231 103.109 151.931 103.109C141.803 103.109 138.061 105.573 132.86 109.497C132.586 109.679 132.313 109.953 132.039 110.227L123.37 119.443C116.161 127.199 102.93 127.199 95.6301 119.443L86.9613 110.318C86.6876 109.953 86.4138 109.679 86.1401 109.497C80.8476 105.573 77.1063 103.109 67.0688 103.109C59.7688 103.109 53.6551 103.748 48.4538 105.208C26.7363 111.048 26.7363 128.294 26.7363 143.442V151.928C26.7363 174.832 26.7363 200.747 75.5551 200.747H143.445C175.839 200.747 192.264 184.322 192.264 151.928V143.442C192.264 128.294 192.264 111.048 170.546 105.208Z" fill="#EDEDED"/>
<path opacity="0.4" d="M134.949 18.25H84.0317C43.6992 18.25 43.6992 39.6938 43.6992 58.5825V111.416C43.6992 113.424 44.6117 115.249 46.163 116.435C47.7142 117.621 49.813 118.078 51.7292 117.53C55.8355 116.435 60.9455 115.888 67.0592 115.888C73.173 115.888 74.4505 116.618 78.1005 119.355L86.4042 128.115C92.3355 134.503 100.822 138.153 109.582 138.153C118.342 138.153 126.737 134.503 132.759 128.115L141.063 119.355C144.713 116.618 145.99 115.888 152.104 115.888C158.218 115.888 163.328 116.435 167.434 117.53C169.35 118.078 171.358 117.621 173 116.435C174.552 115.249 175.464 113.333 175.464 111.416V58.5825C175.282 39.6938 175.282 18.25 134.949 18.25Z" fill="#EDEDED"/>
</g>
<path d="M109.5 100.375C124.619 100.375 136.875 88.1188 136.875 73C136.875 57.8812 124.619 45.625 109.5 45.625C94.3812 45.625 82.125 57.8812 82.125 73C82.125 88.1188 94.3812 100.375 109.5 100.375Z" stroke="#DDDEDF" stroke-width="2.25" stroke-miterlimit="10" stroke-linecap="round" stroke-linejoin="round"/>
<path d="M111.211 64.4453V70.8099C111.211 73.2053 109.979 75.4636 107.858 76.6955L102.656 79.8438" stroke="#DDDEDF" stroke-width="2.25" stroke-miterlimit="10" stroke-linecap="round" stroke-linejoin="round"/>
<defs>
<filter id="filter0_d_4506_57022" x="17.0613" y="15.325" width="184.877" height="201.85" filterUnits="userSpaceOnUse" color-interpolation-filters="sRGB">
<feFlood flood-opacity="0" result="BackgroundImageFix"/>
<feColorMatrix in="SourceAlpha" type="matrix" values="0 0 0 0 0 0 0 0 0 0 0 0 0 0 0 0 0 0 127 0" result="hardAlpha"/>
<feOffset dy="6.75"/>
<feGaussianBlur stdDeviation="4.8375"/>
<feComposite in2="hardAlpha" operator="out"/>
<feColorMatrix type="matrix" values="0 0 0 0 0 0 0 0 0 0 0 0 0 0 0 0 0 0 0.15 0"/>
<feBlend mode="normal" in2="BackgroundImageFix" result="effect1_dropShadow_4506_57022"/>
<feBlend mode="normal" in="SourceGraphic" in2="effect1_dropShadow_4506_57022" result="shape"/>
</filter>
</defs>
</svg>
