<svg width="19" height="19" viewBox="0 0 19 19" fill="none" xmlns="http://www.w3.org/2000/svg">
<path opacity="0.4" d="M16.5 3.59067V5.12624C15.965 4.73251 15.3514 4.44115 14.6827 4.29153C14.3365 4.20491 13.9668 4.16553 13.5892 4.16553C10.875 4.16553 8.67221 6.37043 8.67221 9.08719C8.67221 9.9849 8.91611 10.8669 9.38027 11.6228C9.77363 12.2843 10.3243 12.8355 10.9222 13.2056C11.1267 13.3395 11.3392 13.4576 11.5594 13.56V15.442C11.5594 15.9224 11.2448 16.5602 10.8514 16.7965L9.75 17.5131C8.72728 18.1509 7.31904 17.4343 7.31904 16.1586V11.9457C7.31904 11.3866 7.00437 10.67 6.68968 10.2763L3.70806 7.0949C3.3147 6.6933 3 5.97671 3 5.50423V3.66942C3 2.71659 3.70803 2 4.56555 2H14.9345C15.792 2 16.5 2.71658 16.5 3.59067Z" fill="#616265"/>
<path d="M13.875 7.91016V9.35881L14.6019 10.0857" stroke="#616265" stroke-width="1.125" stroke-linecap="round" stroke-linejoin="round"/>
<path d="M10.5 9.125C10.5 7.26096 12.011 5.75 13.875 5.75C15.739 5.75 17.25 7.26096 17.25 9.125C17.25 10.205 16.7412 11.1708 15.9519 11.7887H15.9467C15.3756 12.2352 14.659 12.5 13.875 12.5C13.1013 12.5 12.39 12.2404 11.8188 11.799H11.8137C11.014 11.1812 10.5 10.2154 10.5 9.125Z" stroke="#616265" stroke-width="1.125" stroke-linecap="round" stroke-linejoin="round"/>
</svg>
