<svg width="8" height="17" viewBox="0 0 8 17" fill="none" xmlns="http://www.w3.org/2000/svg">
<path d="M3.37887 2.21662L3.4048 0H4.81338L4.78746 2.21662H3.37887ZM3.01593 16.8188L3.04185 14.6453H4.45908L4.43315 16.8188H3.01593ZM3.68997 14.973C3.13115 14.973 2.60113 14.9299 2.09991 14.8436C1.60446 14.7631 1.17814 14.6654 0.820954 14.5504C0.463767 14.4354 0.207399 14.329 0.0518497 14.2313L0.475289 12.5839C0.69421 12.7104 0.967861 12.834 1.29624 12.9548C1.62462 13.0755 1.98469 13.1761 2.37645 13.2566C2.7682 13.3314 3.16571 13.3688 3.56899 13.3688C4.35826 13.3688 4.96029 13.2365 5.37509 12.972C5.78989 12.7075 5.99729 12.2763 5.99729 11.6783C5.99729 11.2758 5.89359 10.9394 5.68619 10.6691C5.47879 10.3931 5.16769 10.1344 4.75289 9.89288C4.34385 9.65138 3.83112 9.384 3.21468 9.09075C2.69042 8.832 2.18057 8.5215 1.68512 8.15925C1.19542 7.797 0.792149 7.3715 0.475289 6.88275C0.15843 6.394 0 5.83338 0 5.20088C0 4.57988 0.120983 4.0595 0.362948 3.63975C0.610675 3.21425 0.941937 2.87212 1.35673 2.61338C1.77153 2.35463 2.23242 2.16775 2.73939 2.05275C3.25213 1.93775 3.77639 1.88025 4.31217 1.88025C5.09568 1.88025 5.7438 1.95788 6.25653 2.11313C6.76927 2.26262 7.13798 2.41212 7.36266 2.56162L6.96515 4.15725C6.67133 3.97325 6.32567 3.80938 5.92815 3.66563C5.5364 3.51612 4.99774 3.44137 4.31217 3.44137C3.89161 3.44137 3.50274 3.496 3.14555 3.60525C2.78836 3.7145 2.50031 3.88125 2.28139 4.1055C2.06247 4.32975 1.95301 4.61725 1.95301 4.968C1.95301 5.36475 2.03366 5.69825 2.19497 5.9685C2.36204 6.233 2.62993 6.48313 2.99864 6.71888C3.36735 6.94888 3.85128 7.21913 4.45043 7.52963C4.88252 7.75388 5.30884 7.9925 5.72939 8.2455C6.14995 8.49275 6.53019 8.76875 6.87009 9.0735C7.21575 9.37825 7.4894 9.729 7.69104 10.1258C7.89844 10.5168 8.00214 10.9653 8.00214 11.4713C8.00214 12.2533 7.81779 12.9059 7.44908 13.4291C7.08613 13.9466 6.57915 14.3348 5.92815 14.5935C5.28291 14.8465 4.53685 14.973 3.68997 14.973Z" fill="#808080"/>
</svg>
