<svg width="20" height="20" viewBox="0 0 20 20" fill="none" xmlns="http://www.w3.org/2000/svg">
<path d="M14.3667 18.9584H5.6334C3.30006 18.9584 1.81673 17.5667 1.6834 15.2417L1.25006 8.36669C1.1834 7.32502 1.54173 6.32502 2.2584 5.56669C2.96673 4.80835 3.96673 4.37502 5.00006 4.37502C5.26673 4.37502 5.52506 4.21669 5.65006 3.96669L6.25006 2.77502C6.74173 1.80002 7.97506 1.04169 9.05006 1.04169H10.9584C12.0334 1.04169 13.2584 1.80002 13.7501 2.76669L14.3501 3.98335C14.4751 4.21669 14.7251 4.37502 15.0001 4.37502C16.0334 4.37502 17.0334 4.80835 17.7417 5.56669C18.4584 6.33335 18.8167 7.32502 18.7501 8.36669L18.3167 15.25C18.1667 17.6084 16.7251 18.9584 14.3667 18.9584ZM9.05006 2.29169C8.4334 2.29169 7.65006 2.77502 7.36673 3.33335L6.76673 4.53335C6.41673 5.20835 5.74173 5.62502 5.00006 5.62502C4.30006 5.62502 3.65006 5.90835 3.16673 6.41669C2.69173 6.92502 2.45006 7.59169 2.50006 8.28335L2.9334 15.1667C3.0334 16.85 3.94173 17.7084 5.6334 17.7084H14.3667C16.0501 17.7084 16.9584 16.85 17.0667 15.1667L17.5001 8.28335C17.5417 7.59169 17.3084 6.92502 16.8334 6.41669C16.3501 5.90835 15.7001 5.62502 15.0001 5.62502C14.2584 5.62502 13.5834 5.20835 13.2334 4.55002L12.6251 3.33335C12.3501 2.78335 11.5667 2.30002 10.9501 2.30002H9.05006V2.29169Z" fill="#2A2D32"/>
<path d="M11.25 7.29169H8.75C8.40833 7.29169 8.125 7.00835 8.125 6.66669C8.125 6.32502 8.40833 6.04169 8.75 6.04169H11.25C11.5917 6.04169 11.875 6.32502 11.875 6.66669C11.875 7.00835 11.5917 7.29169 11.25 7.29169Z" fill="#2A2D32"/>
<path d="M9.99935 15.625C8.15768 15.625 6.66602 14.1333 6.66602 12.2916C6.66602 10.45 8.15768 8.95831 9.99935 8.95831C11.841 8.95831 13.3327 10.45 13.3327 12.2916C13.3327 14.1333 11.841 15.625 9.99935 15.625ZM9.99935 10.2083C8.84935 10.2083 7.91602 11.1416 7.91602 12.2916C7.91602 13.4416 8.84935 14.375 9.99935 14.375C11.1493 14.375 12.0827 13.4416 12.0827 12.2916C12.0827 11.1416 11.1493 10.2083 9.99935 10.2083Z" fill="#2A2D32"/>
</svg>
