<svg width="24" height="24" viewBox="0 0 24 24" fill="none" xmlns="http://www.w3.org/2000/svg">
<g clip-path="url(#clip0_2_37593)">
<path d="M0.771484 6.38171C0.771484 5.17899 1.12319 4.15212 1.86125 3.41406L3.14483 4.69765C1.7162 6.12114 2.96385 10.5469 7.03152 14.6185C11.0992 18.69 15.5276 19.9364 16.9549 18.5103L18.2385 19.7939C15.8305 22.2019 10.3457 20.4934 5.75436 15.9008C2.56979 12.7149 0.771484 9.10034 0.771484 6.38171Z" fill="#009A46"/>
<path d="M8.86541 20.9005C7.6627 20.9005 6.63583 20.5488 5.89648 19.8108L7.18007 18.5272C8.60613 19.9533 13.0319 18.7056 17.1035 14.6354C21.175 10.5651 22.4201 6.13933 20.994 4.71327L22.2776 3.42969C24.6869 5.83769 22.9771 11.3224 18.3845 15.9138C15.1986 19.1035 11.584 20.9005 8.86541 20.9005Z" fill="#FF5805"/>
<path d="M18.8089 14.0786C18.0297 11.8349 16.4381 9.43715 14.3266 7.32694C9.73523 2.73428 4.25047 1.02454 1.84247 3.43383C1.67175 3.60583 1.81937 4.0307 2.17364 4.38497C2.5279 4.73923 2.95277 4.88556 3.12349 4.71485C4.55083 3.28879 8.97663 4.53643 13.0469 8.60796C14.9722 10.5333 16.4073 12.6833 17.0991 14.6729C17.705 16.4173 17.646 17.8241 16.94 18.5301C16.768 18.7008 16.9169 19.1269 17.2699 19.4799C17.6229 19.8329 18.049 19.9818 18.221 19.8098C19.4545 18.5763 19.6637 16.5379 18.8089 14.0786Z" fill="#F5AFCB"/>
<path d="M22.2764 3.43583C21.0403 2.19974 19.0045 1.99051 16.5426 2.84666C14.3002 3.62451 11.9012 5.21744 9.79096 7.32765C5.19959 11.919 3.48985 17.4038 5.89786 19.8131C6.06986 19.9838 6.49472 19.8362 6.84899 19.4832C7.20326 19.1302 7.35087 18.7041 7.17887 18.5321C5.74896 17.106 7.00045 12.6802 11.072 8.60867C12.9974 6.68329 15.1474 5.24825 17.1369 4.5564C18.8813 3.95183 20.2881 4.00959 20.9954 4.71556C21.1661 4.88628 21.5922 4.73866 21.9452 4.3844C22.2982 4.03013 22.4471 3.60654 22.2764 3.43583Z" fill="#FF9B00"/>
</g>
<defs>
<clipPath id="clip0_2_37593">
<rect width="24" height="24" fill="white"/>
</clipPath>
</defs>
</svg>
