<svg width="94" height="93" viewBox="0 0 94 93" fill="none" xmlns="http://www.w3.org/2000/svg">
<path d="M85.8857 53.8644V62.7381C85.8857 76.8431 77.4138 85.2519 63.2029 85.2519H30.4867C20.5313 85.2519 13.3477 81.1056 9.99023 73.7431L10.4197 73.4331L29.6278 60.6456C32.7511 58.5531 37.1627 58.7856 39.9346 61.1881L41.262 62.2731C44.3072 64.8694 49.2263 64.8694 52.2715 62.2731L68.5125 48.4394C71.5577 45.8431 76.4768 45.8431 79.522 48.4394L85.8857 53.8644Z" fill="#C7C7C9"/>
<path opacity="0.4" d="M81.8691 31H70.3911C65.4329 31 62.4658 28.055 62.4658 23.1338V11.7413C62.4658 10.1913 62.7781 8.87375 63.3247 7.75C63.2857 7.75 63.2466 7.75 63.2076 7.75H30.4913C16.2805 7.75 7.80859 16.1588 7.80859 30.2638V62.7363C7.80859 66.96 8.55037 70.6413 9.99488 73.7413L10.4243 73.4313L29.6324 60.6438C32.7557 58.5513 37.1673 58.7838 39.9392 61.1863L41.2666 62.2713C44.3118 64.8675 49.231 64.8675 52.2761 62.2713L68.5171 48.4375C71.5623 45.8413 76.4815 45.8413 79.5267 48.4375L85.8903 53.8625V30.2638C85.8903 30.225 85.8903 30.1863 85.8903 30.1475C84.7581 30.69 83.4307 31 81.8691 31Z" fill="#C7C7C9"/>
<path d="M35.1433 40.2263C40.275 40.2263 44.435 36.0972 44.435 31.0038C44.435 25.9103 40.275 21.7812 35.1433 21.7812C30.0116 21.7812 25.8516 25.9103 25.8516 31.0038C25.8516 36.0972 30.0116 40.2263 35.1433 40.2263Z" fill="#C7C7C9"/>
<path d="M81.8721 3.875H70.394C65.4359 3.875 62.4688 6.82 62.4688 11.7413V23.1338C62.4688 28.055 65.4359 31 70.394 31H81.8721C86.8302 31 89.7974 28.055 89.7974 23.1338V11.7413C89.7974 6.82 86.8302 3.875 81.8721 3.875ZM74.2201 25.4588C74.1029 25.575 73.8296 25.73 73.6344 25.73L69.5742 26.3113C69.4571 26.35 69.3009 26.35 69.1838 26.35C68.5982 26.35 68.0906 26.1563 67.7393 25.7688C67.2708 25.3038 67.0756 24.645 67.1927 23.9475L67.7783 19.9175C67.8174 19.7238 67.9345 19.4525 68.0516 19.3363L74.6885 12.7488C74.8057 13.02 74.9228 13.33 75.0399 13.64C75.1961 13.95 75.3522 14.2213 75.5084 14.4925C75.6255 14.725 75.7817 14.9575 75.9379 15.1125C76.094 15.345 76.2502 15.5775 76.3673 15.6938C76.4454 15.81 76.4844 15.8488 76.5235 15.8875C76.8748 16.3138 77.2652 16.7013 77.6166 16.9725C77.6947 17.05 77.7728 17.1275 77.8118 17.1275C78.007 17.2825 78.2413 17.4763 78.3974 17.5925C78.6317 17.7475 78.8269 17.9025 79.0611 18.0188C79.3344 18.1738 79.6467 18.3288 79.9591 18.4838C80.2714 18.6388 80.5837 18.755 80.857 18.8325L74.2201 25.4588ZM83.5508 16.1975L82.3015 17.4375C82.2234 17.5538 82.1063 17.5925 81.9892 17.5925C81.9501 17.5925 81.9111 17.5925 81.8721 17.5925C79.0611 16.7788 76.8358 14.57 76.0159 11.78C75.9769 11.625 76.0159 11.47 76.1331 11.3538L77.4214 10.075C79.5296 7.9825 81.5207 8.02125 83.5899 10.075C84.644 11.1213 85.1515 12.1288 85.1515 13.1363C85.1125 14.1438 84.6049 15.1513 83.5508 16.1975Z" fill="#C7C7C9"/>
</svg>
