<svg width="110" height="47" viewBox="0 0 110 47" fill="none" xmlns="http://www.w3.org/2000/svg">
<path d="M57.1797 6.73852C56.8575 6.73852 56.5522 6.67324 56.2978 6.54262C54.6527 5.67489 52.5157 5.67489 50.8536 6.54262C50.3448 6.8132 49.5476 6.80385 49.0558 6.52394C48.5639 6.24403 48.5809 5.80544 49.0897 5.53486C51.7186 4.14463 55.3989 4.14463 58.0447 5.53486C58.5535 5.80544 58.5704 6.24403 58.0786 6.52394C57.8581 6.66389 57.5189 6.73852 57.1797 6.73852Z" fill="#EBECED"/>
<path d="M60.2572 4.48678C59.9576 4.48678 59.658 4.39202 59.4373 4.20239C58.6962 3.57933 57.8606 3.07804 56.9776 2.71233C54.7703 1.80482 52.3579 1.80482 50.1663 2.71233C49.2833 3.07804 48.4635 3.57933 47.7066 4.20239C47.2494 4.5952 46.4926 4.59518 46.0353 4.18884C45.5781 3.78249 45.5939 3.1458 46.0511 2.753C46.9814 1.9674 48.022 1.34433 49.1414 0.883803C51.9953 -0.294601 55.1486 -0.294601 57.9867 0.883803C59.1062 1.34433 60.1468 1.9674 61.0771 2.753C61.5501 3.1458 61.55 3.78249 61.0928 4.18884C60.8721 4.37846 60.5725 4.48678 60.2572 4.48678Z" fill="#EBECED"/>
<path d="M49.957 39.7146C50.2793 39.7146 50.5845 39.7799 50.8389 39.9105C52.4841 40.7782 54.621 40.7782 56.2831 39.9105C56.7919 39.6399 57.5891 39.6493 58.0809 39.9292C58.5728 40.2091 58.5558 40.6477 58.047 40.9183C55.4182 42.3085 51.7378 42.3085 49.092 40.9183C48.5832 40.6477 48.5663 40.2091 49.0581 39.9292C49.2786 39.7892 49.6178 39.7146 49.957 39.7146Z" fill="#EBECED"/>
<path d="M46.8796 41.9663C47.1791 41.9663 47.4787 42.0611 47.6994 42.2507C48.4405 42.8738 49.2761 43.3751 50.1591 43.7408C52.3665 44.6483 54.7788 44.6483 56.9704 43.7408C57.8534 43.3751 58.6733 42.8738 59.4301 42.2507C59.8873 41.8579 60.6441 41.8579 61.1014 42.2643C61.5586 42.6706 61.5428 43.3073 61.0856 43.7001C60.1553 44.4857 59.1147 45.1088 57.9953 45.5693C55.1415 46.7477 51.9881 46.7477 49.15 45.5693C48.0306 45.1088 46.9899 44.4857 46.0596 43.7001C45.5866 43.3073 45.5867 42.6706 46.0439 42.2643C46.2647 42.0747 46.5642 41.9663 46.8796 41.9663Z" fill="#EBECED"/>
<circle cx="86.5348" cy="22.8512" r="22.8512" fill="#635BFF"/>
<circle cx="22.8512" cy="22.8512" r="22.8512" fill="#131517"/>
<circle cx="53.9451" cy="23.2274" r="14.2352" fill="white"/>
<rect x="42.709" y="11.9922" width="22.4766" height="22.4766" rx="11.2383" fill="#EBECED"/>
<g opacity="0.4">
<path d="M49.2139 23.2344H58.6782" stroke="#616265" stroke-width="2.24766" stroke-linecap="round"/>
<path d="M53.9463 27.9643V18.5" stroke="#616265" stroke-width="2.24766" stroke-linecap="round"/>
</g>
<g opacity="0.4">
<path d="M49.2139 23.2344H58.6782" stroke="#616265" stroke-width="2.24766" stroke-linecap="round"/>
<path d="M53.9463 27.9643V18.5" stroke="#616265" stroke-width="2.24766" stroke-linecap="round"/>
</g>
<g opacity="0.4">
<path d="M53.9482 18.5V27.9643" stroke="#616265" stroke-width="2.24766" stroke-linecap="round"/>
<path d="M49.2164 23.2344H58.6807" stroke="#616265" stroke-width="2.24766" stroke-linecap="round"/>
</g>
<g opacity="0.4">
<path d="M53.9482 18.5V27.9643" stroke="#616265" stroke-width="2.24766" stroke-linecap="round"/>
<path d="M49.2164 23.2344H58.6807" stroke="#616265" stroke-width="2.24766" stroke-linecap="round"/>
</g>
</svg>
