<svg width="20" height="20" viewBox="0 0 20 20" fill="none" xmlns="http://www.w3.org/2000/svg">
<path d="M9.99935 18.9584C5.05768 18.9584 1.04102 14.9417 1.04102 10.0001C1.04102 5.05841 5.05768 1.04175 9.99935 1.04175C14.941 1.04175 18.9577 5.05841 18.9577 10.0001C18.9577 14.9417 14.941 18.9584 9.99935 18.9584ZM9.99935 2.29175C5.74935 2.29175 2.29102 5.75008 2.29102 10.0001C2.29102 14.2501 5.74935 17.7084 9.99935 17.7084C14.2493 17.7084 17.7077 14.2501 17.7077 10.0001C17.7077 5.75008 14.2493 2.29175 9.99935 2.29175Z" fill="#2A2D32"/>
<path d="M7.49922 18.125H6.66589C6.32422 18.125 6.04089 17.8417 6.04089 17.5C6.04089 17.1583 6.30755 16.8833 6.64922 16.875C5.34089 12.4083 5.34089 7.59167 6.64922 3.125C6.30755 3.11667 6.04089 2.84167 6.04089 2.5C6.04089 2.15833 6.32422 1.875 6.66589 1.875H7.49922C7.69922 1.875 7.89089 1.975 8.00755 2.13333C8.12422 2.3 8.15755 2.50833 8.09089 2.7C6.52422 7.40833 6.52422 12.5917 8.09089 17.3083C8.15755 17.5 8.12422 17.7083 8.00755 17.875C7.89089 18.025 7.69922 18.125 7.49922 18.125Z" fill="#2A2D32"/>
<path d="M12.5 18.125C12.4333 18.125 12.3667 18.1167 12.3 18.0917C11.975 17.9833 11.7917 17.625 11.9083 17.3C13.475 12.5917 13.475 7.40832 11.9083 2.69165C11.8 2.36665 11.975 2.00832 12.3 1.89999C12.6333 1.79165 12.9833 1.96665 13.0917 2.29165C14.75 7.25832 14.75 12.725 13.0917 17.6833C13.0083 17.9583 12.7583 18.125 12.5 18.125Z" fill="#2A2D32"/>
<path d="M10 14.3332C7.675 14.3332 5.35833 14.0082 3.125 13.3499C3.11667 13.6832 2.84167 13.9582 2.5 13.9582C2.15833 13.9582 1.875 13.6749 1.875 13.3332V12.4999C1.875 12.2999 1.975 12.1082 2.13333 11.9916C2.3 11.8749 2.50833 11.8416 2.7 11.9082C7.40833 13.4749 12.6 13.4749 17.3083 11.9082C17.5 11.8416 17.7083 11.8749 17.875 11.9916C18.0417 12.1082 18.1333 12.2999 18.1333 12.4999V13.3332C18.1333 13.6749 17.85 13.9582 17.5083 13.9582C17.1667 13.9582 16.8917 13.6916 16.8833 13.3499C14.6417 14.0082 12.325 14.3332 10 14.3332Z" fill="#2A2D32"/>
<path d="M17.4992 8.12497C17.4325 8.12497 17.3658 8.11663 17.2992 8.09163C12.5908 6.52497 7.39917 6.52497 2.69084 8.09163C2.3575 8.19997 2.0075 8.02497 1.89917 7.69997C1.79917 7.36663 1.97417 7.01663 2.29917 6.9083C7.26584 5.24997 12.7325 5.24997 17.6908 6.9083C18.0158 7.01663 18.1992 7.37497 18.0825 7.69997C18.0075 7.9583 17.7575 8.12497 17.4992 8.12497Z" fill="#2A2D32"/>
</svg>
