<svg width="39" height="39" viewBox="0 0 39 39" fill="none" xmlns="http://www.w3.org/2000/svg">
<path d="M19.34 36.6527C9.78449 36.6527 2.01758 28.8858 2.01758 19.3303C2.01758 9.77472 9.78449 2.00781 19.34 2.00781C28.8956 2.00781 36.6625 9.77472 36.6625 19.3303C36.6625 19.9909 36.1146 20.5388 35.454 20.5388C34.7933 20.5388 34.2454 19.9909 34.2454 19.3303C34.2454 11.1122 27.5581 4.4249 19.34 4.4249C11.1219 4.4249 4.43467 11.1122 4.43467 19.3303C4.43467 27.5484 11.1219 34.2356 19.34 34.2356C20.0007 34.2356 20.5486 34.7835 20.5486 35.4442C20.5486 36.1049 20.0007 36.6527 19.34 36.6527Z" fill="#737577"/>
<path d="M14.5117 35.0393H12.9004C12.2397 35.0393 11.6918 34.4915 11.6918 33.8308C11.6918 33.1701 12.2074 32.6384 12.8681 32.6222C10.3382 23.9852 10.3382 14.6713 12.8681 6.03428C12.2236 6.01816 11.6918 5.4864 11.6918 4.82573C11.6918 4.16506 12.2397 3.61719 12.9004 3.61719H14.5117C14.8985 3.61719 15.2691 3.81055 15.4947 4.11671C15.7203 4.43899 15.7848 4.84183 15.6558 5.21245C12.6264 14.3168 12.6264 24.3558 15.6558 33.4602C15.7848 33.8308 15.7203 34.2336 15.4947 34.5559C15.2691 34.8782 14.8985 35.0393 14.5117 35.0393Z" fill="#737577"/>
<path d="M26.5216 20.5422C25.861 20.5422 25.3131 19.9943 25.3131 19.3337C25.3131 14.5317 24.5396 9.77808 23.0249 5.21784C22.8154 4.5894 23.1538 3.89648 23.7823 3.687C24.4107 3.47752 25.1036 3.81596 25.3131 4.44441C26.9084 9.24635 27.7302 14.2578 27.7302 19.3337C27.7302 19.9943 27.1823 20.5422 26.5216 20.5422Z" fill="#737577"/>
<path d="M19.338 27.7241C14.8261 27.7241 10.3626 27.0796 6.04404 25.8066C6.02793 26.4511 5.49617 26.9829 4.8355 26.9829C4.17483 26.9829 3.62695 26.435 3.62695 25.7743V24.1629C3.62695 23.7762 3.82032 23.4056 4.12648 23.18C4.43265 22.9544 4.85162 22.8899 5.22224 23.0188C9.78248 24.5335 14.5361 25.3071 19.338 25.3071C19.9987 25.3071 20.5466 25.8549 20.5466 26.5156C20.5466 27.1763 19.9987 27.7241 19.338 27.7241Z" fill="#737577"/>
<path d="M33.8425 15.7108C33.7136 15.7108 33.5847 15.6947 33.4558 15.6464C24.3514 12.617 14.3124 12.617 5.20806 15.6464C4.57962 15.8559 3.88672 15.5174 3.67724 14.889C3.46776 14.2605 3.80615 13.5676 4.4346 13.3581C14.0385 10.1515 24.6092 10.1515 34.197 13.3581C34.8255 13.5676 35.1638 14.2605 34.9544 14.889C34.8255 15.3885 34.342 15.7108 33.8425 15.7108Z" fill="#737577"/>
<path d="M25.4964 36.6548C24.884 36.6548 24.3039 36.4291 23.885 36.0102C23.3855 35.5106 23.1598 34.7855 23.2726 34.0282L23.5788 31.8528C23.6594 31.2889 23.9978 30.612 24.4006 30.2092L30.1049 24.5049C30.8784 23.7314 31.6358 23.3285 32.4576 23.248C33.4727 23.1513 34.4557 23.5703 35.3903 24.5049C36.3249 25.4395 36.7439 26.4225 36.6472 27.4376C36.5666 28.2433 36.1477 29.0167 35.3903 29.7902L29.686 35.4946C29.2831 35.8975 28.6225 36.2358 28.0585 36.3163L25.8831 36.6225C25.7381 36.6386 25.6253 36.6548 25.4964 36.6548ZM32.7315 25.6489C32.7154 25.6489 32.6993 25.6489 32.6832 25.6489C32.4576 25.665 32.1514 25.8585 31.813 26.213L26.1087 31.9173C26.0603 31.9656 25.9798 32.1267 25.9798 32.1912L25.6897 34.2054L27.704 33.9154C27.7684 33.8993 27.9296 33.8187 27.9779 33.7704L33.6822 28.066C34.0206 27.7276 34.2301 27.4215 34.2462 27.1959C34.2784 26.8736 33.9562 26.4869 33.6822 26.213C33.4244 25.9552 33.0538 25.6489 32.7315 25.6489Z" fill="#737577"/>
<path d="M33.7134 30.9668C33.6006 30.9668 33.4878 30.9507 33.3911 30.9185C31.2641 30.3222 29.5721 28.6303 28.9759 26.5033C28.7986 25.8587 29.1693 25.1981 29.8138 25.0208C30.4584 24.8436 31.119 25.2141 31.3124 25.8587C31.683 27.18 32.7304 28.2274 34.0518 28.5981C34.6963 28.7753 35.0669 29.4521 34.8897 30.0805C34.7286 30.6123 34.2451 30.9668 33.7134 30.9668Z" fill="#737577"/>
</svg>
