<svg width="21" height="22" viewBox="0 0 21 22" fill="none" xmlns="http://www.w3.org/2000/svg">
<g clip-path="url(#clip0_4032_38668)">
<path d="M20.9878 11.0829C20.9878 10.1918 20.9164 9.54152 20.7618 8.86719H10.707V12.8891H16.6089C16.49 13.8886 15.8474 15.3938 14.4195 16.4053L14.3995 16.54L17.5786 19.0323L17.7989 19.0546C19.8217 17.164 20.9878 14.3823 20.9878 11.0829Z" fill="#4285F4"/>
<path d="M10.7075 21.6708C13.599 21.6708 16.0263 20.7074 17.7994 19.0456L14.42 16.3964C13.5157 17.0346 12.302 17.4801 10.7075 17.4801C7.87555 17.4801 5.47196 15.5896 4.61514 12.9766L4.48955 12.9874L1.18386 15.5764L1.14062 15.698C2.90167 19.2382 6.519 21.6708 10.7075 21.6708Z" fill="#34A853"/>
<path d="M4.6168 12.983C4.39072 12.3087 4.25988 11.5861 4.25988 10.8395C4.25988 10.0929 4.39072 9.37041 4.60491 8.69608L4.59892 8.55246L1.2518 5.92188L1.14229 5.97459C0.416473 7.44371 0 9.09347 0 10.8395C0 12.5856 0.416473 14.2353 1.14229 15.7044L4.6168 12.983Z" fill="#FBBC05"/>
<path d="M10.7075 4.19053C12.7184 4.19053 14.0749 5.06958 14.8484 5.80418L17.8707 2.81779C16.0145 1.07173 13.599 0 10.7075 0C6.519 0 2.90167 2.43243 1.14062 5.9727L4.60325 8.69419C5.47196 6.08112 7.87556 4.19053 10.7075 4.19053Z" fill="#EB4335"/>
</g>
<defs>
<clipPath id="clip0_4032_38668">
<rect width="21" height="21.75" fill="white"/>
</clipPath>
</defs>
</svg>
