<svg width="18" height="15" viewBox="0 0 18 15" fill="none" xmlns="http://www.w3.org/2000/svg">
<path d="M9.77344 7.0609L11.4577 8.97201L13.7227 10.4087L14.1167 7.07297L13.7227 3.8125L11.4143 5.07454L9.77344 7.0609Z" fill="#00832D"/>
<path d="M0 10.0886V12.9311C0 13.5802 0.530672 14.1071 1.18464 14.1071H4.04814L4.64109 11.9594L4.04814 10.0886L2.08359 9.5L0 10.0886Z" fill="#0066DA"/>
<path d="M4.04814 0L0 4.01849L2.08372 4.60573L4.04814 4.01849L4.63031 2.17319L4.04814 0Z" fill="#E94235"/>
<path d="M0 10.0916H4.04814V4.01562H0V10.0916Z" fill="#2684FC"/>
<path d="M16.3086 1.69743L13.7227 3.80345V10.3995L16.3194 12.5137C16.7081 12.816 17.2767 12.5405 17.2767 12.05V2.15169C17.2767 1.65576 16.6945 1.38161 16.3086 1.69743Z" fill="#00AC47"/>
<path d="M9.77432 7.05469V10.092H4.04883V14.1105H12.5389C13.1929 14.1105 13.7236 13.5836 13.7236 12.9345V10.4025L9.77432 7.05469Z" fill="#00AC47"/>
<path d="M12.5389 0H4.04883V4.01849H9.77432V7.05581L13.7236 3.8074V1.17597C13.7236 0.526785 13.1929 0 12.5389 0Z" fill="#FFBA00"/>
</svg>
