<svg width="20" height="20" viewBox="0 0 20 20" fill="none" xmlns="http://www.w3.org/2000/svg">
<mask id="mask0_3957_33061" style="mask-type:luminance" maskUnits="userSpaceOnUse" x="0" y="0" width="20" height="20">
<path d="M20 0H0V20H20V0Z" fill="white"/>
</mask>
<g mask="url(#mask0_3957_33061)">
<path d="M0 10C0 1.765 1.765 0 10 0C18.235 0 20 1.765 20 10C20 18.235 18.235 20 10 20C1.765 20 0 18.235 0 10Z" fill="#13B601" fill-opacity="0.2"/>
<g opacity="0.6" filter="url(#filter0_f_3957_33061)">
<path d="M10.0003 17.856C13.9452 17.856 17.1431 16.8966 17.1431 15.7132C17.1431 14.5297 13.9452 13.5703 10.0003 13.5703C6.05539 13.5703 2.85742 14.5297 2.85742 15.7132C2.85742 16.8966 6.05539 17.856 10.0003 17.856Z" fill="url(#paint0_linear_3957_33061)"/>
</g>
</g>
<path d="M12.3811 8.81027V4.04836C12.3811 3.89049 12.4438 3.73909 12.5555 3.62746C12.6671 3.51584 12.8185 3.45312 12.9763 3.45312C13.1342 3.45312 13.2856 3.51584 13.3973 3.62746C13.5089 3.73909 13.5716 3.89049 13.5716 4.04836V8.81027C13.5716 8.96813 13.5089 9.11955 13.3973 9.23113C13.2856 9.34277 13.1342 9.40548 12.9763 9.40548C12.8185 9.40548 12.6671 9.34277 12.5555 9.23113C12.4438 9.11955 12.3811 8.96813 12.3811 8.81027ZM7.024 10.596C6.86613 10.596 6.71473 10.6587 6.6031 10.7703C6.49147 10.8819 6.42876 11.0333 6.42876 11.1912V15.9531C6.42876 16.111 6.49147 16.2624 6.6031 16.374C6.71473 16.4856 6.86613 16.5483 7.024 16.5483C7.18185 16.5483 7.33327 16.4856 7.44492 16.374C7.55649 16.2624 7.6192 16.111 7.6192 15.9531V11.1912C7.6192 11.0333 7.55649 10.8819 7.44492 10.7703C7.33327 10.6587 7.18185 10.596 7.024 10.596ZM7.6192 5.94122V4.04836C7.6192 3.89049 7.55649 3.73909 7.44492 3.62746C7.33327 3.51584 7.18185 3.45312 7.024 3.45312C6.86613 3.45312 6.71473 3.51584 6.6031 3.62746C6.49147 3.73909 6.42876 3.89049 6.42876 4.04836V5.94122C6.03161 6.08163 5.69688 6.35793 5.48374 6.72127C5.2706 7.0846 5.19277 7.51162 5.264 7.92677C5.33523 8.34198 5.55095 8.71855 5.87301 8.99005C6.19507 9.26155 6.60275 9.41048 7.024 9.41048C7.4452 9.41048 7.85292 9.26155 8.17499 8.99005C8.49706 8.71855 8.71277 8.34198 8.78399 7.92677C8.85527 7.51162 8.77742 7.0846 8.56427 6.72127C8.35113 6.35793 8.01642 6.08163 7.6192 5.94122ZM12.9763 10.596C12.5576 10.5993 12.1533 10.7496 11.8341 11.0207C11.5149 11.2918 11.3012 11.6665 11.2303 12.0793C11.1594 12.492 11.2358 12.9165 11.4461 13.2786C11.6565 13.6408 11.9874 13.9174 12.3811 14.0603V15.9531C12.3811 16.111 12.4438 16.2624 12.5555 16.374C12.6671 16.4856 12.8185 16.5483 12.9763 16.5483C13.1342 16.5483 13.2856 16.4856 13.3973 16.374C13.5089 16.2624 13.5716 16.111 13.5716 15.9531V14.0603C13.9653 13.9174 14.2963 13.6408 14.5066 13.2786C14.717 12.9165 14.7933 12.492 14.7224 12.0793C14.6516 11.6665 14.4378 11.2918 14.1186 11.0207C13.7995 10.7496 13.3951 10.5993 12.9763 10.596Z" fill="url(#paint1_radial_3957_33061)"/>
<defs>
<filter id="filter0_f_3957_33061" x="-1.14258" y="9.57031" width="22.2852" height="12.2891" filterUnits="userSpaceOnUse" color-interpolation-filters="sRGB">
<feFlood flood-opacity="0" result="BackgroundImageFix"/>
<feBlend mode="normal" in="SourceGraphic" in2="BackgroundImageFix" result="shape"/>
<feGaussianBlur stdDeviation="2" result="effect1_foregroundBlur_3957_33061"/>
</filter>
<linearGradient id="paint0_linear_3957_33061" x1="10.0003" y1="13.5703" x2="10.0003" y2="17.856" gradientUnits="userSpaceOnUse">
<stop stop-color="#13B601" stop-opacity="0"/>
<stop offset="1" stop-color="#13B601"/>
</linearGradient>
<radialGradient id="paint1_radial_3957_33061" cx="0" cy="0" r="1" gradientUnits="userSpaceOnUse" gradientTransform="translate(5.23818 3.45326) rotate(53.601) scale(16.0261 9.62557)">
<stop stop-color="#89DA80"/>
<stop offset="0.5" stop-color="#13B601"/>
</radialGradient>
</defs>
</svg>
