<svg width="25" height="25" viewBox="0 0 25 25" fill="none" xmlns="http://www.w3.org/2000/svg">
<path d="M7.17371 11.0161H5.12416C2.6442 11.0161 1.28125 9.65317 1.28125 7.17322V5.12367C1.28125 2.64371 2.6442 1.28076 5.12416 1.28076H7.17371C9.65366 1.28076 11.0166 2.64371 11.0166 5.12367V7.17322C11.0166 9.65317 9.65366 11.0161 7.17371 11.0161ZM5.12416 2.81792C3.50501 2.81792 2.81841 3.50452 2.81841 5.12367V7.17322C2.81841 8.79236 3.50501 9.47896 5.12416 9.47896H7.17371C8.79285 9.47896 9.47945 8.79236 9.47945 7.17322V5.12367C9.47945 3.50452 8.79285 2.81792 7.17371 2.81792H5.12416Z" fill="#2A2D32"/>
<path d="M19.4706 11.0161H17.421C14.9411 11.0161 13.5781 9.65317 13.5781 7.17322V5.12367C13.5781 2.64371 14.9411 1.28076 17.421 1.28076H19.4706C21.9505 1.28076 23.3135 2.64371 23.3135 5.12367V7.17322C23.3135 9.65317 21.9505 11.0161 19.4706 11.0161ZM17.421 2.81792C15.8019 2.81792 15.1153 3.50452 15.1153 5.12367V7.17322C15.1153 8.79236 15.8019 9.47896 17.421 9.47896H19.4706C21.0897 9.47896 21.7763 8.79236 21.7763 7.17322V5.12367C21.7763 3.50452 21.0897 2.81792 19.4706 2.81792H17.421Z" fill="#2A2D32"/>
<path d="M19.4706 23.3135H17.421C14.9411 23.3135 13.5781 21.9505 13.5781 19.4706V17.421C13.5781 14.9411 14.9411 13.5781 17.421 13.5781H19.4706C21.9505 13.5781 23.3135 14.9411 23.3135 17.421V19.4706C23.3135 21.9505 21.9505 23.3135 19.4706 23.3135ZM17.421 15.1153C15.8019 15.1153 15.1153 15.8019 15.1153 17.421V19.4706C15.1153 21.0897 15.8019 21.7763 17.421 21.7763H19.4706C21.0897 21.7763 21.7763 21.0897 21.7763 19.4706V17.421C21.7763 15.8019 21.0897 15.1153 19.4706 15.1153H17.421Z" fill="#2A2D32"/>
<path d="M7.17371 23.3135H5.12416C2.6442 23.3135 1.28125 21.9505 1.28125 19.4706V17.421C1.28125 14.9411 2.6442 13.5781 5.12416 13.5781H7.17371C9.65366 13.5781 11.0166 14.9411 11.0166 17.421V19.4706C11.0166 21.9505 9.65366 23.3135 7.17371 23.3135ZM5.12416 15.1153C3.50501 15.1153 2.81841 15.8019 2.81841 17.421V19.4706C2.81841 21.0897 3.50501 21.7763 5.12416 21.7763H7.17371C8.79285 21.7763 9.47945 21.0897 9.47945 19.4706V17.421C9.47945 15.8019 8.79285 15.1153 7.17371 15.1153H5.12416Z" fill="#2A2D32"/>
</svg>
