<svg width="49" height="41" viewBox="0 0 49 41" fill="none" xmlns="http://www.w3.org/2000/svg">
<rect width="48.5085" height="40.1841" rx="8.03682" fill="#E2E8FC"/>
<path d="M32.5268 20.2559C31.8547 20.1094 31.0648 20.0312 30.1216 20.0312C28.8128 20.0312 28.3294 20.295 27.6574 20.7149C27.622 20.7345 27.5866 20.7638 27.5513 20.7931L26.4312 21.7795C25.488 22.6 23.7902 22.6097 22.847 21.7698L21.7269 20.7931C21.6915 20.7638 21.6561 20.7345 21.6208 20.7149C20.9487 20.295 20.4653 20.0312 19.1566 20.0312C18.2134 20.0312 17.4234 20.1094 16.7514 20.2559C13.9453 20.881 13.9453 22.7269 13.9453 24.3482V25.2566C13.9453 27.7081 13.9453 30.4819 20.2531 30.4819H29.0251C33.2106 30.4819 35.3329 28.7238 35.3329 25.2566V24.3482C35.3329 22.7269 35.3329 20.881 32.5268 20.2559ZM27.3862 26.9658H21.892C21.4439 26.9658 21.0784 26.663 21.0784 26.2821C21.0784 25.9012 21.4439 25.5984 21.892 25.5984H27.3862C27.8342 25.5984 28.1997 25.9012 28.1997 26.2821C28.1997 26.663 27.8342 26.9658 27.3862 26.9658Z" fill="#146AEB"/>
<path d="M33.1402 15.2623V18.8761C33.0931 18.8566 33.0341 18.8468 32.987 18.837C32.1616 18.6514 31.2302 18.5635 30.1219 18.5635C28.3062 18.5635 27.4573 19.0031 26.5848 19.55C26.4669 19.6184 26.3608 19.7063 26.2665 19.7844L25.1346 20.7709C25.0285 20.8685 24.8399 20.9271 24.6395 20.9271C24.439 20.9271 24.2504 20.8685 24.1325 20.7611L23.0242 19.7942C22.9181 19.6965 22.8002 19.6086 22.6823 19.5402C21.8334 19.0031 20.9727 18.5635 19.157 18.5635C18.0487 18.5635 17.1173 18.6514 16.2919 18.837C16.2448 18.8468 16.1858 18.8566 16.1387 18.8761V15.2623C16.1387 13.2405 16.1387 10.9453 21.35 10.9453H27.9289C33.1402 10.9453 33.1402 13.2405 33.1402 15.2623Z" fill="#146AEB"/>
</svg>
