<svg width="15" height="15" viewBox="0 0 15 15" fill="none" xmlns="http://www.w3.org/2000/svg">
<path d="M5.36119 6.459C5.29347 6.45257 5.21221 6.45257 5.13772 6.459C3.52599 6.40751 2.24609 5.15243 2.24609 3.60772C2.24609 2.03082 3.58694 0.75 5.25284 0.75C6.91197 0.75 8.25958 2.03082 8.25958 3.60772C8.25281 5.15243 6.97291 6.40751 5.36119 6.459Z" stroke="#A2A5A6" stroke-width="1.50004" stroke-linecap="round" stroke-linejoin="round"/>
<path d="M1.97911 8.83651C0.340297 9.87919 0.340297 11.5784 1.97911 12.6146C3.84139 13.7989 6.89554 13.7989 8.75783 12.6146C10.3966 11.5719 10.3966 9.87275 8.75783 8.83651C6.90232 7.65866 3.84817 7.65866 1.97911 8.83651Z" stroke="#A2A5A6" stroke-width="1.50004" stroke-linecap="round" stroke-linejoin="round"/>
<path d="M10.2755 2.03906C11.5893 2.03906 12.6457 3.04956 12.6457 4.29177C12.6457 5.50823 11.6299 6.49942 10.3636 6.54448C10.3094 6.53804 10.2484 6.53804 10.1875 6.54448" stroke="#A2A5A6" stroke-width="1.50004" stroke-linecap="round" stroke-linejoin="round"/>
<path d="M11.582 12.3383C12.0696 12.2418 12.5301 12.0551 12.9093 11.7784C13.9658 11.0253 13.9658 9.78313 12.9093 9.03008C12.5369 8.75976 12.0832 8.57954 11.6023 8.47656" stroke="#A2A5A6" stroke-width="1.50004" stroke-linecap="round" stroke-linejoin="round"/>
</svg>
