<svg width="20" height="20" viewBox="0 0 20 20" fill="none" xmlns="http://www.w3.org/2000/svg">
<path d="M16.475 11.4584H13.1083C11.4333 11.4584 10.625 10.6834 10.625 9.08335V3.41669C10.625 1.81669 11.4417 1.04169 13.1083 1.04169H16.475C18.15 1.04169 18.9583 1.81669 18.9583 3.41669V9.08335C18.9583 10.6834 18.1417 11.4584 16.475 11.4584ZM13.1083 2.29169C12.05 2.29169 11.875 2.57502 11.875 3.41669V9.08335C11.875 9.92502 12.05 10.2084 13.1083 10.2084H16.475C17.5333 10.2084 17.7083 9.92502 17.7083 9.08335V3.41669C17.7083 2.57502 17.5333 2.29169 16.475 2.29169H13.1083V2.29169Z" fill="#2A2D32"/>
<path d="M16.475 18.9583H13.1083C11.4333 18.9583 10.625 18.1833 10.625 16.5833V15.0833C10.625 13.4833 11.4417 12.7083 13.1083 12.7083H16.475C18.15 12.7083 18.9583 13.4833 18.9583 15.0833V16.5833C18.9583 18.1833 18.1417 18.9583 16.475 18.9583ZM13.1083 13.9583C12.05 13.9583 11.875 14.2416 11.875 15.0833V16.5833C11.875 17.425 12.05 17.7083 13.1083 17.7083H16.475C17.5333 17.7083 17.7083 17.425 17.7083 16.5833V15.0833C17.7083 14.2416 17.5333 13.9583 16.475 13.9583H13.1083Z" fill="#2A2D32"/>
<path d="M6.89102 18.9584H3.52435C1.84935 18.9584 1.04102 18.1834 1.04102 16.5834V10.9167C1.04102 9.31669 1.85768 8.54169 3.52435 8.54169H6.89102C8.56602 8.54169 9.37435 9.31669 9.37435 10.9167V16.5834C9.37435 18.1834 8.55768 18.9584 6.89102 18.9584ZM3.52435 9.79169C2.46602 9.79169 2.29102 10.075 2.29102 10.9167V16.5834C2.29102 17.425 2.46602 17.7084 3.52435 17.7084H6.89102C7.94935 17.7084 8.12435 17.425 8.12435 16.5834V10.9167C8.12435 10.075 7.94935 9.79169 6.89102 9.79169H3.52435V9.79169Z" fill="#2A2D32"/>
<path d="M6.89102 7.29169H3.52435C1.84935 7.29169 1.04102 6.51669 1.04102 4.91669V3.41669C1.04102 1.81669 1.85768 1.04169 3.52435 1.04169H6.89102C8.56602 1.04169 9.37435 1.81669 9.37435 3.41669V4.91669C9.37435 6.51669 8.55768 7.29169 6.89102 7.29169ZM3.52435 2.29169C2.46602 2.29169 2.29102 2.57502 2.29102 3.41669V4.91669C2.29102 5.75835 2.46602 6.04169 3.52435 6.04169H6.89102C7.94935 6.04169 8.12435 5.75835 8.12435 4.91669V3.41669C8.12435 2.57502 7.94935 2.29169 6.89102 2.29169H3.52435V2.29169Z" fill="#2A2D32"/>
</svg>
