<svg width="73" height="73" viewBox="0 0 73 73" fill="none" xmlns="http://www.w3.org/2000/svg">
<path d="M23.6309 45.9226C22.388 45.9226 21.3574 44.892 21.3574 43.6492V30.918C21.3574 29.6752 22.388 28.6445 23.6309 28.6445C24.8737 28.6445 25.9043 29.6752 25.9043 30.918V43.6492C25.9043 44.892 24.8737 45.9226 23.6309 45.9226Z" fill="#FCFCFC"/>
<path d="M24.0985 32.2828C19.5819 32.2828 15.9141 28.615 15.9141 24.0985C15.9141 19.5819 19.5819 15.9141 24.0985 15.9141C28.615 15.9141 32.2829 19.5819 32.2829 24.0985C32.2829 28.615 28.615 32.2828 24.0985 32.2828ZM24.0985 20.4609C22.0979 20.4609 20.4609 22.0979 20.4609 24.0985C20.4609 26.0991 22.0979 27.7359 24.0985 27.7359C26.0991 27.7359 27.736 26.0991 27.736 24.0985C27.736 22.0979 26.0991 20.4609 24.0985 20.4609Z" fill="#FCFCFC"/>
<path d="M23.6437 56.8344C19.3697 56.8344 15.9141 53.3788 15.9141 49.1047C15.9141 44.8307 19.3697 41.375 23.6437 41.375C27.9178 41.375 31.3734 44.8307 31.3734 49.1047C31.3734 53.3788 27.9178 56.8344 23.6437 56.8344ZM23.6437 45.9219C21.8856 45.9219 20.4609 47.3466 20.4609 49.1047C20.4609 50.8629 21.8856 52.2875 23.6437 52.2875C25.4018 52.2875 26.8265 50.8629 26.8265 49.1047C26.8265 47.3466 25.4018 45.9219 23.6437 45.9219Z" fill="#FCFCFC"/>
<path d="M49.1027 56.8344C44.8286 56.8344 41.373 53.3788 41.373 49.1047C41.373 44.8307 44.8286 41.375 49.1027 41.375C53.3768 41.375 56.8324 44.8307 56.8324 49.1047C56.8324 53.3788 53.3768 56.8344 49.1027 56.8344ZM49.1027 45.9219C47.3446 45.9219 45.9199 47.3466 45.9199 49.1047C45.9199 50.8629 47.3446 52.2875 49.1027 52.2875C50.8608 52.2875 52.2855 50.8629 52.2855 49.1047C52.2855 47.3466 50.8608 45.9219 49.1027 45.9219Z" fill="#FCFCFC"/>
<path d="M47.5835 45.9855C46.6438 45.9855 45.7647 45.4096 45.4313 44.4699C44.2188 41.0143 40.9754 38.7104 37.3075 38.7104H37.2772L31.0328 38.7408H31.0025C26.6072 38.7408 22.7576 35.7701 21.6664 31.5264C21.3632 30.3139 22.0907 29.0711 23.3032 28.7679C24.4854 28.4648 25.7584 29.1923 26.0615 30.4048C26.6375 32.648 28.6684 34.2242 31.0025 34.2242C31.0025 34.2242 31.0025 34.2242 31.0328 34.2242L37.2772 34.1939C37.3075 34.1939 37.3076 34.1939 37.3379 34.1939C42.9154 34.1939 47.9169 37.7405 49.7659 43.0148C50.1903 44.197 49.5539 45.5004 48.3717 45.9248C48.0989 45.9551 47.826 45.9855 47.5835 45.9855Z" fill="#FCFCFC"/>
<path d="M45.4649 68.961H27.2773C10.8177 68.961 3.78516 61.9285 3.78516 45.4688V27.2813C3.78516 10.8216 10.8177 3.78906 27.2773 3.78906H45.4649C61.9245 3.78906 68.957 10.8216 68.957 27.2813V45.4688C68.957 61.9285 61.9245 68.961 45.4649 68.961ZM27.2773 8.33594C13.3033 8.33594 8.33203 13.3072 8.33203 27.2813V45.4688C8.33203 59.4428 13.3033 64.4141 27.2773 64.4141H45.4649C59.4389 64.4141 64.4102 59.4428 64.4102 45.4688V27.2813C64.4102 13.3072 59.4389 8.33594 45.4649 8.33594H27.2773Z" fill="#FCFCFC"/>
</svg>
