<svg width="28" height="28" viewBox="0 0 28 28" fill="none" xmlns="http://www.w3.org/2000/svg">
<mask id="mask0_1_10023" style="mask-type:luminance" maskUnits="userSpaceOnUse" x="0" y="0" width="28" height="28">
<path d="M28 0H0V28H28V0Z" fill="white"/>
</mask>
<g mask="url(#mask0_1_10023)">
<path d="M20.133 8.87369C20.483 9.70703 20.6663 10.582 20.6663 11.4987C20.6663 12.0737 20.5913 12.632 20.458 13.1653H7.54134C7.40801 12.632 7.33301 12.0737 7.33301 11.4987C7.33301 7.82369 10.3247 4.83203 13.9997 4.83203C14.9163 4.83203 15.7913 5.01536 16.6247 5.36536C16.0413 5.82369 15.6663 6.53203 15.6663 7.33203C15.6663 8.71536 16.783 9.83203 18.1663 9.83203C18.9663 9.83203 19.6747 9.45703 20.133 8.87369Z" fill="#646D7C"/>
<path d="M15.6667 19.5938H12.3333C11.875 19.5938 11.5 19.9687 11.5 20.427V20.6687C11.5 22.0437 12.625 23.1687 14 23.1687C15.375 23.1687 16.5 22.0437 16.5 20.6687V20.427C16.5 19.9687 16.125 19.5938 15.6667 19.5938Z" fill="#646D7C"/>
<path d="M8.2334 14.832C9.3834 16.8237 11.5417 18.1653 14.0001 18.1653C16.4584 18.1653 18.6167 16.8237 19.7667 14.832H8.2334Z" fill="#646D7C"/>
<path d="M18.1663 8.16667C18.6266 8.16667 18.9997 7.79357 18.9997 7.33333C18.9997 6.8731 18.6266 6.5 18.1663 6.5C17.7061 6.5 17.333 6.8731 17.333 7.33333C17.333 7.79357 17.7061 8.16667 18.1663 8.16667Z" fill="#646D7C"/>
</g>
</svg>
