<svg width="67" height="67" viewBox="0 0 67 67" fill="none" xmlns="http://www.w3.org/2000/svg">
<circle cx="33.1478" cy="33.1478" r="33.1478" fill="#EFF0F0"/>
<path d="M32.9396 31.0347C32.8033 31.0211 32.6396 31.0211 32.4897 31.0347C29.2448 30.9257 26.668 28.267 26.668 24.9949C26.668 21.6546 29.3675 18.9414 32.7215 18.9414C36.0618 18.9414 38.7749 21.6546 38.7749 24.9949C38.7613 28.267 36.1845 30.9257 32.9396 31.0347Z" stroke="#737577" stroke-width="2.3677" stroke-linecap="round" stroke-linejoin="round"/>
<path d="M26.1269 36.0666C22.8275 38.2753 22.8275 41.8746 26.1269 44.0697C29.8763 46.5784 36.0252 46.5784 39.7745 44.0697C43.0739 41.861 43.0739 38.2616 39.7745 36.0666C36.0388 33.5716 29.8899 33.5716 26.1269 36.0666Z" stroke="#737577" stroke-width="2.3677" stroke-linecap="round" stroke-linejoin="round"/>
<path d="M42.8257 21.668C45.4707 21.668 47.5976 23.8085 47.5976 26.4399C47.5976 29.0167 45.5525 31.1163 43.0029 31.2117C42.8938 31.1981 42.7711 31.1981 42.6484 31.2117" stroke="#737577" stroke-width="2.3677" stroke-linecap="round" stroke-linejoin="round"/>
<path d="M45.457 43.4812C46.4387 43.2767 47.3658 42.8813 48.1293 42.295C50.2562 40.6998 50.2562 38.0685 48.1293 36.4733C47.3794 35.9007 46.4659 35.5189 45.4979 35.3008" stroke="#737577" stroke-width="2.3677" stroke-linecap="round" stroke-linejoin="round"/>
<path d="M21.811 21.668C19.1661 21.668 17.0392 23.8085 17.0392 26.4399C17.0392 29.0167 19.0842 31.1163 21.6338 31.2117C21.7429 31.1981 21.8656 31.1981 21.9883 31.2117" stroke="#737577" stroke-width="2.3677" stroke-linecap="round" stroke-linejoin="round"/>
<path d="M19.2617 43.4812C18.2801 43.2767 17.353 42.8813 16.5895 42.295C14.4626 40.6998 14.4626 38.0685 16.5895 36.4733C17.3393 35.9007 18.2528 35.5189 19.2208 35.3008" stroke="#737577" stroke-width="2.3677" stroke-linecap="round" stroke-linejoin="round"/>
</svg>
