<svg width="20" height="20" viewBox="0 0 20 20" fill="none" xmlns="http://www.w3.org/2000/svg">
<path d="M10 18.9583C9.41667 18.9583 8.825 18.7333 8.38333 18.2917L6.95831 16.8833C6.60831 16.5333 6.12501 16.3416 5.63334 16.3416H5C3.275 16.3416 1.875 14.95 1.875 13.2417V4.14998C1.875 2.44165 3.275 1.05 5 1.05H15C16.725 1.05 18.125 2.44165 18.125 4.14998V13.2417C18.125 14.95 16.725 16.3416 15 16.3416H14.3667C13.875 16.3416 13.3917 16.5417 13.0417 16.8833L11.6167 18.2917C11.175 18.7333 10.5833 18.9583 10 18.9583ZM5 2.29166C3.96667 2.29166 3.125 3.12497 3.125 4.14164V13.2333C3.125 14.2583 3.96667 15.0833 5 15.0833H5.63334C6.45834 15.0833 7.25831 15.4167 7.84164 15.9917L9.26666 17.4C9.675 17.8 10.3333 17.8 10.7417 17.4L12.1666 15.9917C12.75 15.4167 13.55 15.0833 14.375 15.0833H15C16.0333 15.0833 16.875 14.25 16.875 13.2333V4.14164C16.875 3.11664 16.0333 2.29166 15 2.29166H5Z" fill="#808080"/>
<path d="M10 4.32507C11.1405 4.32507 12.0673 5.25107 12.0674 6.39148C12.0674 7.532 11.1405 8.45886 10 8.45886C8.8596 8.45871 7.93359 7.53191 7.93359 6.39148C7.93371 5.25116 8.85966 4.32522 10 4.32507ZM10 4.57507C8.99908 4.57522 8.18372 5.39051 8.18359 6.39148C8.18359 7.39253 8.99898 8.20871 10 8.20886C11.0011 8.20886 11.8174 7.39262 11.8174 6.39148C11.8173 5.39041 11.001 4.57507 10 4.57507Z" fill="#808080" stroke="#808080"/>
<path d="M13.3337 13.6751C12.992 13.6751 12.7087 13.3917 12.7087 13.0501C12.7087 11.9001 11.492 10.9585 10.0003 10.9585C8.50866 10.9585 7.29199 11.9001 7.29199 13.0501C7.29199 13.3917 7.00866 13.6751 6.66699 13.6751C6.32533 13.6751 6.04199 13.3917 6.04199 13.0501C6.04199 11.2084 7.81699 9.70845 10.0003 9.70845C12.1837 9.70845 13.9587 11.2084 13.9587 13.0501C13.9587 13.3917 13.6753 13.6751 13.3337 13.6751Z" fill="#808080"/>
</svg>
