<svg width="18" height="18" viewBox="0 0 18 18" fill="none" xmlns="http://www.w3.org/2000/svg">
<path d="M9.92837 16.1419C9.40391 16.584 8.5573 16.584 8.04783 16.1419L6.86406 15.1305C6.63929 14.9432 6.21224 14.7858 5.91255 14.7858H4.63888C3.84471 14.7858 3.19288 14.134 3.19288 13.3398V12.0662C3.19288 11.7665 3.03555 11.3469 2.84824 11.1222L1.8368 9.93839C1.39476 9.41394 1.39476 8.56732 1.8368 8.05785L2.84824 6.87408C3.03555 6.64932 3.19288 6.22975 3.19288 5.93007V4.65639C3.19288 3.86222 3.84471 3.2104 4.63888 3.2104H5.91255C6.21224 3.2104 6.6318 3.05306 6.85657 2.86576L8.04033 1.85431C8.56479 1.41227 9.41141 1.41227 9.92088 1.85431L11.1046 2.86576C11.3294 3.05306 11.7565 3.2104 12.0487 3.2104H13.3598C14.154 3.2104 14.8058 3.86222 14.8058 4.65639V5.93756C14.8058 6.22975 14.9556 6.65681 15.1429 6.87408L16.1544 8.06534C16.5889 8.5823 16.5889 9.42143 16.1544 9.93839L15.1429 11.1296C14.9556 11.3544 14.8058 11.774 14.8058 12.0662V13.3324C14.8058 14.1265 14.154 14.7783 13.3598 14.7783H12.0636C11.764 14.7783 11.3444 14.9357 11.1196 15.123L9.92837 16.1419Z" stroke="#B3B5B7" stroke-width="1.49844" stroke-linecap="round" stroke-linejoin="round"/>
<g opacity="0.4">
<path d="M8.99104 11.8875V8.26879" stroke="#B3B5B7" stroke-width="1.49844" stroke-linecap="round" stroke-linejoin="round"/>
<path d="M8.99689 5.98908H8.99017" stroke="#B3B5B7" stroke-width="1.49844" stroke-linecap="round" stroke-linejoin="round"/>
</g>
</svg>
