<svg width="17" height="17" viewBox="0 0 17 17" fill="none" xmlns="http://www.w3.org/2000/svg">
<g clip-path="url(#clip0_1_35188)">
<path d="M14.066 3.98835C14.066 4.32292 13.9331 4.64379 13.6965 4.88037C13.4599 5.11695 13.1391 5.24985 12.8045 5.24985C12.4699 5.24985 12.149 5.11695 11.9125 4.88037C11.6759 4.64379 11.543 4.32292 11.543 3.98835C11.543 3.65377 11.6759 3.3329 11.9125 3.09632C12.149 2.85975 12.4699 2.72684 12.8045 2.72684C13.1391 2.72684 13.4599 2.85975 13.6965 3.09632C13.9331 3.3329 14.066 3.65377 14.066 3.98835Z" fill="#A3A5A5"/>
<path fill-rule="evenodd" clip-rule="evenodd" d="M8.41206 12.6099C9.5273 12.6099 10.5969 12.1668 11.3855 11.3782C12.1741 10.5896 12.6171 9.52007 12.6171 8.40483C12.6171 7.28958 12.1741 6.22002 11.3855 5.43142C10.5969 4.64283 9.5273 4.1998 8.41206 4.1998C7.29682 4.1998 6.22725 4.64283 5.43866 5.43142C4.65006 6.22002 4.20703 7.28958 4.20703 8.40483C4.20703 9.52007 4.65006 10.5896 5.43866 11.3782C6.22725 12.1668 7.29682 12.6099 8.41206 12.6099ZM8.41206 10.9278C9.08121 10.9278 9.72294 10.662 10.1961 10.1889C10.6693 9.71571 10.9351 9.07397 10.9351 8.40483C10.9351 7.73568 10.6693 7.09394 10.1961 6.62078C9.72294 6.14763 9.08121 5.88181 8.41206 5.88181C7.74291 5.88181 7.10117 6.14763 6.62802 6.62078C6.15486 7.09394 5.88904 7.73568 5.88904 8.40483C5.88904 9.07397 6.15486 9.71571 6.62802 10.1889C7.10117 10.662 7.74291 10.9278 8.41206 10.9278Z" fill="#A3A5A5"/>
<path fill-rule="evenodd" clip-rule="evenodd" d="M0.00195312 8.0728C0.00195312 5.24702 0.00195312 3.83413 0.551761 2.75344C1.03593 1.80457 1.80797 1.03327 2.7573 0.550004C3.83694 -0.000854492 5.24773 -0.000854492 8.07561 -0.000854492H8.74841C11.5742 -0.000854492 12.9871 -0.000854492 14.0678 0.548953C15.017 1.03294 15.7887 1.805 16.2723 2.75449C16.8221 3.83413 16.8221 5.24492 16.8221 8.0728V8.7456C16.8221 11.5714 16.8221 12.9843 16.2723 14.065C15.7883 15.0142 15.0162 15.7859 14.0667 16.2695C12.9871 16.8193 11.5763 16.8193 8.74841 16.8193H8.07561C5.24983 16.8193 3.83694 16.8193 2.75625 16.2695C1.80699 15.7855 1.0353 15.0134 0.551761 14.0639C0.00195312 12.9843 0.00195312 11.5735 0.00195312 8.7456V8.0728ZM8.07561 1.68116H8.74841C10.1886 1.68116 11.1684 1.68221 11.9253 1.74423C12.6633 1.80415 13.0396 1.91348 13.3025 2.04805C13.936 2.37017 14.4512 2.88465 14.7742 3.5177C14.9077 3.78052 15.016 4.15897 15.077 4.89485C15.139 5.65176 15.1401 6.63153 15.1401 8.0728V8.7456C15.1401 10.1858 15.139 11.1656 15.077 11.9225C15.0171 12.6605 14.9077 13.0368 14.7732 13.2997C14.451 13.9332 13.9366 14.4484 13.3035 14.7714C13.0407 14.9049 12.6622 15.0132 11.9264 15.0742C11.1695 15.1362 10.1897 15.1372 8.74841 15.1372H8.07561C6.63539 15.1372 5.65561 15.1362 4.89871 15.0742C4.16073 15.0143 3.78438 14.9049 3.52156 14.7704C2.88805 14.4482 2.37283 13.9338 2.0498 13.3007C1.91629 13.0379 1.80801 12.6594 1.74704 11.9236C1.68502 11.1667 1.68396 10.1869 1.68396 8.7456V8.0728C1.68396 6.63258 1.68502 5.65281 1.74704 4.8959C1.80696 4.15792 1.91629 3.78157 2.05085 3.51875C2.37297 2.88524 2.88746 2.37002 3.52051 2.04699C3.78332 1.91348 4.16178 1.80521 4.89766 1.74423C5.65456 1.68221 6.63433 1.68116 8.07561 1.68116Z" fill="#A3A5A5"/>
</g>
<defs>
<clipPath id="clip0_1_35188">
<rect width="16.8201" height="16.8201" fill="white"/>
</clipPath>
</defs>
</svg>
