<svg width="49" height="41" viewBox="0 0 49 41" fill="none" xmlns="http://www.w3.org/2000/svg">
<rect width="48.3075" height="40.1841" rx="8.03682" fill="#F2E4F8"/>
<path d="M28.6313 11.6061L18.0289 14.5362C10.9018 16.5189 10.9018 19.7517 18.0289 21.7246L21.1756 22.5939L22.2205 25.2115C24.5923 31.14 28.4905 31.14 30.8622 25.2115L34.3964 16.4017C35.9697 12.446 33.3866 10.2875 28.6313 11.6061ZM29.0071 16.8607L24.5453 20.5917C24.3692 20.7382 24.1461 20.8066 23.923 20.8066C23.7 20.8066 23.4769 20.7382 23.3008 20.5917C22.9603 20.3084 22.9603 19.8396 23.3008 19.5564L27.7625 15.8254C28.103 15.5422 28.6666 15.5422 29.0071 15.8254C29.3476 16.1086 29.3476 16.5775 29.0071 16.8607Z" fill="#AB46DD"/>
</svg>
