<svg width="20" height="20" viewBox="0 0 20 20" fill="none" xmlns="http://www.w3.org/2000/svg">
<path d="M13.5668 18.4132H10.4001C9.93346 18.4132 8.9168 18.2715 8.37513 17.7298L5.85013 15.7798L6.6168 14.7882L9.20013 16.7882C9.40846 16.9882 9.93346 17.1548 10.4001 17.1548H13.5668C14.3168 17.1548 15.1251 16.5548 15.2918 15.8798L17.3085 9.75483C17.4418 9.38816 17.4168 9.05483 17.2418 8.81316C17.0585 8.55483 16.7251 8.40483 16.3168 8.40483H12.9835C12.5501 8.40483 12.1501 8.22149 11.8751 7.90483C11.5918 7.57983 11.4668 7.14649 11.5335 6.69649L11.9501 4.02149C12.0501 3.55483 11.7335 3.02983 11.2835 2.87983C10.8751 2.72983 10.3501 2.94649 10.1668 3.21316L6.75013 8.29649L5.7168 7.60483L9.13346 2.52149C9.65846 1.73816 10.8085 1.36316 11.7085 1.70483C12.7501 2.04649 13.4168 3.19649 13.1835 4.26316L12.7751 6.88816C12.7668 6.94649 12.7668 7.02983 12.8251 7.09649C12.8668 7.13816 12.9251 7.16316 12.9918 7.16316H16.3251C17.1418 7.16316 17.8501 7.50483 18.2668 8.09649C18.6751 8.67149 18.7585 9.42983 18.4918 10.1632L16.5001 16.2298C16.1918 17.4382 14.9085 18.4132 13.5668 18.4132Z" fill="#A9AAAA"/>
<path d="M4.4834 17.4974H3.65007C2.1084 17.4974 1.3584 16.7724 1.3584 15.2891V7.1224C1.3584 5.63906 2.1084 4.91406 3.65007 4.91406H4.4834C6.02507 4.91406 6.77507 5.63906 6.77507 7.1224V15.2891C6.77507 16.7724 6.02507 17.4974 4.4834 17.4974ZM3.65007 6.16406C2.74173 6.16406 2.6084 6.38073 2.6084 7.1224V15.2891C2.6084 16.0307 2.74173 16.2474 3.65007 16.2474H4.4834C5.39173 16.2474 5.52507 16.0307 5.52507 15.2891V7.1224C5.52507 6.38073 5.39173 6.16406 4.4834 6.16406H3.65007Z" fill="#A9AAAA"/>
</svg>
