<svg width="16" height="16" viewBox="0 0 16 16" fill="none" xmlns="http://www.w3.org/2000/svg">
<path d="M0 1.09026C0 0.488229 0.488045 0.000183105 1.09008 0.000183105H14.2674C14.8694 0.000183105 15.3575 0.48823 15.3575 1.09027V14.2676C15.3575 14.8696 14.8694 15.3577 14.2674 15.3577H1.09008C0.488046 15.3577 0 14.8696 0 14.2676V1.09026Z" fill="#A3A5A5"/>
<path d="M3.44359 4.76114C4.17937 4.76114 4.77585 4.16467 4.77585 3.42888C4.77585 2.69309 4.17937 2.09662 3.44359 2.09662C2.7078 2.09662 2.11133 2.69309 2.11133 3.42888C2.11133 4.16467 2.7078 4.76114 3.44359 4.76114Z" fill="white"/>
<path d="M5.99597 5.74572H8.20396V6.75722C8.20396 6.75722 8.80312 5.55888 10.4334 5.55888C11.8876 5.55888 13.0923 6.27528 13.0923 8.45892V13.0636H10.8042V9.01689C10.8042 7.72875 10.1165 7.58707 9.59246 7.58707C8.50489 7.58707 8.3187 8.52516 8.3187 9.18492V13.0636H5.99597V5.74572Z" fill="white"/>
<path d="M2.28222 5.74573H4.60495V13.0636H2.28222V5.74573Z" fill="white"/>
</svg>
