<svg width="25" height="25" viewBox="0 0 25 25" fill="none" xmlns="http://www.w3.org/2000/svg">
<path d="M4.09863 18.0356C4.32502 18.0356 4.50879 18.2194 4.50879 18.4458C4.50868 18.6721 4.32495 18.856 4.09863 18.856C3.87248 18.8558 3.68956 18.672 3.68945 18.4458C3.68945 18.2195 3.87241 18.0358 4.09863 18.0356ZM7.17285 18.2915H21.5205C21.6052 18.2917 21.6738 18.361 21.6738 18.4458C21.6737 18.5305 21.6052 18.5989 21.5205 18.5991H7.17285C7.08824 18.5989 7.01964 18.5305 7.01953 18.4458C7.01953 18.3611 7.08817 18.2918 7.17285 18.2915ZM4.09863 11.8872C4.32502 11.8872 4.50879 12.071 4.50879 12.2974C4.50857 12.5236 4.32488 12.7065 4.09863 12.7065C3.87255 12.7063 3.68967 12.5234 3.68945 12.2974C3.68945 12.0711 3.87241 11.8874 4.09863 11.8872ZM7.17285 12.1431H21.5205C21.6052 12.1433 21.6738 12.2126 21.6738 12.2974C21.6736 12.382 21.6051 12.4505 21.5205 12.4507H7.17285C7.08831 12.4504 7.01975 12.3819 7.01953 12.2974C7.01953 12.2126 7.08817 12.1433 7.17285 12.1431ZM4.09863 5.73877C4.3249 5.73877 4.50859 5.92173 4.50879 6.14795C4.50879 6.37434 4.32502 6.55811 4.09863 6.55811C3.87241 6.55791 3.68945 6.37422 3.68945 6.14795C3.68965 5.92185 3.87253 5.73896 4.09863 5.73877ZM7.17285 5.99463H21.5205C21.6051 5.99481 21.6736 6.06334 21.6738 6.14795C21.6738 6.23273 21.6052 6.30206 21.5205 6.30225H7.17285C7.08817 6.302 7.01953 6.23269 7.01953 6.14795C7.01973 6.06338 7.08829 5.99488 7.17285 5.99463Z" fill="#768387" stroke="#768387" stroke-width="1.22973"/>
</svg>
