<svg width="18" height="18" viewBox="0 0 18 18" fill="none" xmlns="http://www.w3.org/2000/svg">
<path d="M11.0625 7.5C11.4736 7.5 11.8125 7.83895 11.8125 8.25C11.8125 8.66105 11.4736 9 11.0625 9H6.9375C6.52645 9 6.1875 8.66105 6.1875 8.25C6.1875 7.83895 6.52645 7.5 6.9375 7.5H11.0625Z" fill="#A9AAAA" stroke="#A9AAAA" stroke-width="0.375"/>
<path d="M9 5.4375C9.41105 5.4375 9.75 5.77645 9.75 6.1875V10.3125C9.75 10.7236 9.41105 11.0625 9 11.0625C8.58895 11.0625 8.25 10.7236 8.25 10.3125V6.1875C8.25 5.77645 8.58895 5.4375 9 5.4375Z" fill="#A9AAAA" stroke="#A9AAAA" stroke-width="0.375"/>
<path d="M9.00879 0.75C11.8713 0.750023 15.168 2.43327 16.0244 6.21387C16.9621 10.3574 14.452 13.8116 12.2285 15.9521V15.9531C11.3229 16.8197 10.1582 17.2578 9.00098 17.2578C7.84393 17.2577 6.67997 16.8195 5.77441 15.9531L5.77344 15.9521C3.54994 13.8114 1.04086 10.3496 1.98633 6.20605C2.8428 2.43304 6.13861 0.7501 9.00098 0.75H9.00879ZM9.00098 2.25C6.87454 2.25009 4.17109 3.37935 3.4541 6.53613V6.53711C2.7171 9.75163 4.56208 12.5711 6.44434 14.4922L6.82129 14.8643V14.8652C8.04611 16.0476 9.96362 16.0475 11.1885 14.8652C13.182 12.9463 15.3347 9.96638 14.5635 6.53711L14.4902 6.24707C13.6709 3.31002 11.0613 2.25 9.00098 2.25Z" fill="#A9AAAA" stroke="#A9AAAA" stroke-width="0.375"/>
</svg>
