<svg width="19" height="19" viewBox="0 0 19 19" fill="none" xmlns="http://www.w3.org/2000/svg">
<path d="M9.75391 5.16406C11.4546 5.16406 12.8436 6.5451 12.8438 8.25391C12.8438 9.96345 11.4541 11.3369 9.75391 11.3369C8.05337 11.3368 6.6643 9.9557 6.66406 8.24707C6.66406 6.5376 8.05386 5.16419 9.75391 5.16406ZM9.75391 6.66406C8.8821 6.66419 8.16419 7.37563 8.16406 8.25391C8.16406 9.1328 8.87504 9.84363 9.75391 9.84375C10.6329 9.84375 11.3438 9.13287 11.3438 8.25391C11.3436 7.37556 10.6258 6.66406 9.75391 6.66406Z" fill="#CDCED0" stroke="#CDCED0" stroke-width="0.375009"/>
<path d="M9.7627 1.27344C12.6253 1.27344 15.9219 2.95659 16.7783 6.7373C17.7162 10.881 15.2069 14.3359 12.9834 16.4766H12.9824C12.0767 17.3432 10.9121 17.7812 9.75488 17.7812C8.59777 17.7811 7.43389 17.3431 6.52832 16.4766H6.52734C4.3037 14.3358 1.79463 10.8733 2.74023 6.72949L2.82715 6.38184C3.80188 2.85293 6.98196 1.2736 9.75488 1.27344H9.7627ZM9.75488 2.77344C7.69491 2.77359 5.09373 3.83346 4.28125 6.76953L4.20801 7.06055C3.42171 10.4898 5.57404 13.4697 7.5752 15.3887L7.69238 15.4961C8.91959 16.57 10.7558 16.5341 11.9424 15.3887C13.936 13.4697 16.0888 10.49 15.3174 7.06055L15.2441 6.77051C14.4247 3.83354 11.8152 2.77344 9.75488 2.77344Z" fill="#CDCED0" stroke="#CDCED0" stroke-width="0.375009"/>
</svg>
