<svg width="35" height="35" viewBox="0 0 35 35" fill="none" xmlns="http://www.w3.org/2000/svg">
<mask id="path-1-outside-1_3887_34438" maskUnits="userSpaceOnUse" x="8.20312" y="6.53125" width="18" height="22" fill="black">
<rect fill="white" x="8.20312" y="6.53125" width="18" height="22"/>
<path d="M10.6431 16.5433H9.22713V7.62725C9.29913 7.62725 9.36913 7.62725 9.43713 7.62725C9.50513 7.62725 9.57313 7.62725 9.64112 7.62725C9.70913 7.62725 9.77913 7.62725 9.85113 7.62725C10.1351 7.62725 10.4711 7.61125 10.8591 7.57925C11.2471 7.54725 11.6751 7.53125 12.1431 7.53125C12.5911 7.53125 13.0011 7.57925 13.3731 7.67525C13.7451 7.76725 14.0671 7.91525 14.3391 8.11925C14.6151 8.31925 14.8271 8.58125 14.9751 8.90525C15.1271 9.22525 15.2031 9.61525 15.2031 10.0753C15.2031 10.6113 15.1131 11.0633 14.9331 11.4313C14.7531 11.7993 14.4951 12.0893 14.1591 12.3013C13.8271 12.5133 13.4311 12.6553 12.9711 12.7273C12.8071 12.7513 12.6371 12.7713 12.4611 12.7873C12.2891 12.7993 12.0631 12.8093 11.7831 12.8173C11.5031 12.8213 11.1231 12.8233 10.6431 12.8233V16.5433ZM10.6431 11.8153C10.7271 11.8273 10.8551 11.8373 11.0271 11.8453C11.2031 11.8493 11.3811 11.8513 11.5611 11.8513C11.7411 11.8513 11.8831 11.8513 11.9871 11.8513C12.5631 11.8513 13.0071 11.7113 13.3191 11.4313C13.6311 11.1473 13.7871 10.7153 13.7871 10.1353C13.7871 9.79125 13.7291 9.50325 13.6131 9.27125C13.4971 9.03525 13.3031 8.85925 13.0311 8.74325C12.7631 8.62325 12.3991 8.56325 11.9391 8.56325C11.7071 8.56325 11.4771 8.57325 11.2491 8.59325C11.0251 8.60925 10.8231 8.63525 10.6431 8.67125V11.8153ZM14.2431 16.5433C14.1911 16.4633 14.1471 16.3813 14.1111 16.2973C14.0751 16.2133 14.0111 16.0753 13.9191 15.8833C13.7951 15.6153 13.6731 15.3133 13.5531 14.9773C13.4331 14.6373 13.3011 14.3073 13.1571 13.9873C13.0171 13.6673 12.8551 13.3973 12.6711 13.1773C12.4871 12.9533 12.2711 12.8233 12.0231 12.7873L12.5631 12.3673L13.4031 12.4393C13.6391 12.5393 13.8491 12.7193 14.0331 12.9793C14.2211 13.2393 14.3931 13.5413 14.5491 13.8853C14.7091 14.2253 14.8611 14.5713 15.0051 14.9233C15.1531 15.2753 15.3071 15.5953 15.4671 15.8833C15.5271 15.9953 15.5871 16.1073 15.6471 16.2193C15.7071 16.3273 15.7671 16.4353 15.8271 16.5433H14.2431Z"/>
<path d="M21.9332 16.6393C21.3892 16.6393 20.9272 16.5433 20.5472 16.3513C20.1672 16.1593 19.8592 15.8973 19.6232 15.5653C19.3872 15.2333 19.2153 14.8533 19.1073 14.4253C19.0033 13.9933 18.9532 13.5393 18.9572 13.0633C18.9692 12.3473 19.1112 11.7453 19.3832 11.2573C19.6552 10.7693 20.0232 10.4013 20.4872 10.1533C20.9513 9.90125 21.4732 9.77525 22.0532 9.77525C22.7812 9.77525 23.3632 9.94125 23.7992 10.2733C24.2393 10.6013 24.5553 11.0373 24.7472 11.5813C24.9432 12.1213 25.0372 12.7073 25.0292 13.3393C25.0172 14.0553 24.8753 14.6593 24.6033 15.1513C24.3353 15.6393 23.9692 16.0093 23.5052 16.2613C23.0452 16.5133 22.5212 16.6393 21.9332 16.6393ZM21.9692 15.6613C22.5173 15.6693 22.9293 15.4633 23.2052 15.0433C23.4853 14.6193 23.6252 14.0333 23.6252 13.2853C23.6252 12.8213 23.5693 12.4013 23.4573 12.0253C23.3453 11.6453 23.1693 11.3413 22.9293 11.1133C22.6933 10.8853 22.3893 10.7693 22.0173 10.7653C21.4733 10.7533 21.0633 10.9493 20.7873 11.3533C20.5113 11.7573 20.3733 12.3333 20.3733 13.0813C20.3733 13.5453 20.4293 13.9713 20.5413 14.3593C20.6532 14.7473 20.8273 15.0593 21.0633 15.2953C21.2993 15.5313 21.6012 15.6533 21.9692 15.6613Z"/>
<path d="M9.20312 27.7933V21.1213H10.4451L10.4511 21.8293C10.6151 21.7173 10.8211 21.5993 11.0691 21.4753C11.3211 21.3513 11.5911 21.2453 11.8791 21.1573C12.1711 21.0693 12.4611 21.0213 12.7491 21.0133C13.4651 20.9933 13.9791 21.1793 14.2911 21.5713C14.6031 21.9593 14.7591 22.6433 14.7591 23.6233V27.7933H13.3671V23.6953C13.3671 23.1353 13.2911 22.7333 13.1391 22.4893C12.9911 22.2453 12.6671 22.1373 12.1671 22.1653C12.0271 22.1693 11.8651 22.1953 11.6811 22.2433C11.5011 22.2873 11.3151 22.3533 11.1231 22.4413C10.9351 22.5253 10.7551 22.6333 10.5831 22.7653V27.7933H9.20312Z"/>
<path d="M23.2054 27.7933V26.9053L23.1334 26.8693V22.1413L23.1814 22.1053L23.1334 20.7853V18.0373H24.5134V27.7933H23.2054ZM21.3394 27.8893C20.8714 27.8893 20.4354 27.7733 20.0314 27.5413C19.6314 27.3093 19.3074 26.9573 19.0594 26.4853C18.8154 26.0133 18.6934 25.4153 18.6934 24.6913C18.6934 23.9673 18.8334 23.3313 19.1134 22.7833C19.3934 22.2313 19.7834 21.8013 20.2834 21.4933C20.7874 21.1813 21.3774 21.0253 22.0534 21.0253C22.4654 21.0253 22.8114 21.0753 23.0914 21.1753C23.3714 21.2713 23.5494 21.3533 23.6254 21.4213L23.1334 22.3033C23.0134 22.1993 22.8534 22.1273 22.6534 22.0873C22.4574 22.0473 22.2234 22.0273 21.9514 22.0273C21.6114 22.0273 21.3034 22.1213 21.0274 22.3093C20.7554 22.4973 20.5374 22.7773 20.3734 23.1493C20.2094 23.5213 20.1254 23.9813 20.1214 24.5293C20.1094 25.3133 20.2454 25.8873 20.5294 26.2513C20.8134 26.6153 21.2114 26.7973 21.7234 26.7973C22.0354 26.7973 22.3134 26.7393 22.5574 26.6233C22.8054 26.5073 22.9974 26.3953 23.1334 26.2873L23.3614 26.9713C23.2654 27.0713 23.1374 27.1933 22.9774 27.3373C22.8174 27.4813 22.6054 27.6093 22.3414 27.7213C22.0774 27.8333 21.7434 27.8893 21.3394 27.8893Z"/>
</mask>
<path d="M10.6431 16.5433H9.22713V7.62725C9.29913 7.62725 9.36913 7.62725 9.43713 7.62725C9.50513 7.62725 9.57313 7.62725 9.64112 7.62725C9.70913 7.62725 9.77913 7.62725 9.85113 7.62725C10.1351 7.62725 10.4711 7.61125 10.8591 7.57925C11.2471 7.54725 11.6751 7.53125 12.1431 7.53125C12.5911 7.53125 13.0011 7.57925 13.3731 7.67525C13.7451 7.76725 14.0671 7.91525 14.3391 8.11925C14.6151 8.31925 14.8271 8.58125 14.9751 8.90525C15.1271 9.22525 15.2031 9.61525 15.2031 10.0753C15.2031 10.6113 15.1131 11.0633 14.9331 11.4313C14.7531 11.7993 14.4951 12.0893 14.1591 12.3013C13.8271 12.5133 13.4311 12.6553 12.9711 12.7273C12.8071 12.7513 12.6371 12.7713 12.4611 12.7873C12.2891 12.7993 12.0631 12.8093 11.7831 12.8173C11.5031 12.8213 11.1231 12.8233 10.6431 12.8233V16.5433ZM10.6431 11.8153C10.7271 11.8273 10.8551 11.8373 11.0271 11.8453C11.2031 11.8493 11.3811 11.8513 11.5611 11.8513C11.7411 11.8513 11.8831 11.8513 11.9871 11.8513C12.5631 11.8513 13.0071 11.7113 13.3191 11.4313C13.6311 11.1473 13.7871 10.7153 13.7871 10.1353C13.7871 9.79125 13.7291 9.50325 13.6131 9.27125C13.4971 9.03525 13.3031 8.85925 13.0311 8.74325C12.7631 8.62325 12.3991 8.56325 11.9391 8.56325C11.7071 8.56325 11.4771 8.57325 11.2491 8.59325C11.0251 8.60925 10.8231 8.63525 10.6431 8.67125V11.8153ZM14.2431 16.5433C14.1911 16.4633 14.1471 16.3813 14.1111 16.2973C14.0751 16.2133 14.0111 16.0753 13.9191 15.8833C13.7951 15.6153 13.6731 15.3133 13.5531 14.9773C13.4331 14.6373 13.3011 14.3073 13.1571 13.9873C13.0171 13.6673 12.8551 13.3973 12.6711 13.1773C12.4871 12.9533 12.2711 12.8233 12.0231 12.7873L12.5631 12.3673L13.4031 12.4393C13.6391 12.5393 13.8491 12.7193 14.0331 12.9793C14.2211 13.2393 14.3931 13.5413 14.5491 13.8853C14.7091 14.2253 14.8611 14.5713 15.0051 14.9233C15.1531 15.2753 15.3071 15.5953 15.4671 15.8833C15.5271 15.9953 15.5871 16.1073 15.6471 16.2193C15.7071 16.3273 15.7671 16.4353 15.8271 16.5433H14.2431Z" fill="url(#paint0_linear_3887_34438)"/>
<path d="M21.9332 16.6393C21.3892 16.6393 20.9272 16.5433 20.5472 16.3513C20.1672 16.1593 19.8592 15.8973 19.6232 15.5653C19.3872 15.2333 19.2153 14.8533 19.1073 14.4253C19.0033 13.9933 18.9532 13.5393 18.9572 13.0633C18.9692 12.3473 19.1112 11.7453 19.3832 11.2573C19.6552 10.7693 20.0232 10.4013 20.4872 10.1533C20.9513 9.90125 21.4732 9.77525 22.0532 9.77525C22.7812 9.77525 23.3632 9.94125 23.7992 10.2733C24.2393 10.6013 24.5553 11.0373 24.7472 11.5813C24.9432 12.1213 25.0372 12.7073 25.0292 13.3393C25.0172 14.0553 24.8753 14.6593 24.6033 15.1513C24.3353 15.6393 23.9692 16.0093 23.5052 16.2613C23.0452 16.5133 22.5212 16.6393 21.9332 16.6393ZM21.9692 15.6613C22.5173 15.6693 22.9293 15.4633 23.2052 15.0433C23.4853 14.6193 23.6252 14.0333 23.6252 13.2853C23.6252 12.8213 23.5693 12.4013 23.4573 12.0253C23.3453 11.6453 23.1693 11.3413 22.9293 11.1133C22.6933 10.8853 22.3893 10.7693 22.0173 10.7653C21.4733 10.7533 21.0633 10.9493 20.7873 11.3533C20.5113 11.7573 20.3733 12.3333 20.3733 13.0813C20.3733 13.5453 20.4293 13.9713 20.5413 14.3593C20.6532 14.7473 20.8273 15.0593 21.0633 15.2953C21.2993 15.5313 21.6012 15.6533 21.9692 15.6613Z" fill="url(#paint1_linear_3887_34438)"/>
<path d="M9.20312 27.7933V21.1213H10.4451L10.4511 21.8293C10.6151 21.7173 10.8211 21.5993 11.0691 21.4753C11.3211 21.3513 11.5911 21.2453 11.8791 21.1573C12.1711 21.0693 12.4611 21.0213 12.7491 21.0133C13.4651 20.9933 13.9791 21.1793 14.2911 21.5713C14.6031 21.9593 14.7591 22.6433 14.7591 23.6233V27.7933H13.3671V23.6953C13.3671 23.1353 13.2911 22.7333 13.1391 22.4893C12.9911 22.2453 12.6671 22.1373 12.1671 22.1653C12.0271 22.1693 11.8651 22.1953 11.6811 22.2433C11.5011 22.2873 11.3151 22.3533 11.1231 22.4413C10.9351 22.5253 10.7551 22.6333 10.5831 22.7653V27.7933H9.20312Z" fill="url(#paint2_linear_3887_34438)"/>
<path d="M23.2054 27.7933V26.9053L23.1334 26.8693V22.1413L23.1814 22.1053L23.1334 20.7853V18.0373H24.5134V27.7933H23.2054ZM21.3394 27.8893C20.8714 27.8893 20.4354 27.7733 20.0314 27.5413C19.6314 27.3093 19.3074 26.9573 19.0594 26.4853C18.8154 26.0133 18.6934 25.4153 18.6934 24.6913C18.6934 23.9673 18.8334 23.3313 19.1134 22.7833C19.3934 22.2313 19.7834 21.8013 20.2834 21.4933C20.7874 21.1813 21.3774 21.0253 22.0534 21.0253C22.4654 21.0253 22.8114 21.0753 23.0914 21.1753C23.3714 21.2713 23.5494 21.3533 23.6254 21.4213L23.1334 22.3033C23.0134 22.1993 22.8534 22.1273 22.6534 22.0873C22.4574 22.0473 22.2234 22.0273 21.9514 22.0273C21.6114 22.0273 21.3034 22.1213 21.0274 22.3093C20.7554 22.4973 20.5374 22.7773 20.3734 23.1493C20.2094 23.5213 20.1254 23.9813 20.1214 24.5293C20.1094 25.3133 20.2454 25.8873 20.5294 26.2513C20.8134 26.6153 21.2114 26.7973 21.7234 26.7973C22.0354 26.7973 22.3134 26.7393 22.5574 26.6233C22.8054 26.5073 22.9974 26.3953 23.1334 26.2873L23.3614 26.9713C23.2654 27.0713 23.1374 27.1933 22.9774 27.3373C22.8174 27.4813 22.6054 27.6093 22.3414 27.7213C22.0774 27.8333 21.7434 27.8893 21.3394 27.8893Z" fill="url(#paint3_linear_3887_34438)"/>
<path d="M10.6431 16.5433H9.22713V7.62725C9.29913 7.62725 9.36913 7.62725 9.43713 7.62725C9.50513 7.62725 9.57313 7.62725 9.64112 7.62725C9.70913 7.62725 9.77913 7.62725 9.85113 7.62725C10.1351 7.62725 10.4711 7.61125 10.8591 7.57925C11.2471 7.54725 11.6751 7.53125 12.1431 7.53125C12.5911 7.53125 13.0011 7.57925 13.3731 7.67525C13.7451 7.76725 14.0671 7.91525 14.3391 8.11925C14.6151 8.31925 14.8271 8.58125 14.9751 8.90525C15.1271 9.22525 15.2031 9.61525 15.2031 10.0753C15.2031 10.6113 15.1131 11.0633 14.9331 11.4313C14.7531 11.7993 14.4951 12.0893 14.1591 12.3013C13.8271 12.5133 13.4311 12.6553 12.9711 12.7273C12.8071 12.7513 12.6371 12.7713 12.4611 12.7873C12.2891 12.7993 12.0631 12.8093 11.7831 12.8173C11.5031 12.8213 11.1231 12.8233 10.6431 12.8233V16.5433ZM10.6431 11.8153C10.7271 11.8273 10.8551 11.8373 11.0271 11.8453C11.2031 11.8493 11.3811 11.8513 11.5611 11.8513C11.7411 11.8513 11.8831 11.8513 11.9871 11.8513C12.5631 11.8513 13.0071 11.7113 13.3191 11.4313C13.6311 11.1473 13.7871 10.7153 13.7871 10.1353C13.7871 9.79125 13.7291 9.50325 13.6131 9.27125C13.4971 9.03525 13.3031 8.85925 13.0311 8.74325C12.7631 8.62325 12.3991 8.56325 11.9391 8.56325C11.7071 8.56325 11.4771 8.57325 11.2491 8.59325C11.0251 8.60925 10.8231 8.63525 10.6431 8.67125V11.8153ZM14.2431 16.5433C14.1911 16.4633 14.1471 16.3813 14.1111 16.2973C14.0751 16.2133 14.0111 16.0753 13.9191 15.8833C13.7951 15.6153 13.6731 15.3133 13.5531 14.9773C13.4331 14.6373 13.3011 14.3073 13.1571 13.9873C13.0171 13.6673 12.8551 13.3973 12.6711 13.1773C12.4871 12.9533 12.2711 12.8233 12.0231 12.7873L12.5631 12.3673L13.4031 12.4393C13.6391 12.5393 13.8491 12.7193 14.0331 12.9793C14.2211 13.2393 14.3931 13.5413 14.5491 13.8853C14.7091 14.2253 14.8611 14.5713 15.0051 14.9233C15.1531 15.2753 15.3071 15.5953 15.4671 15.8833C15.5271 15.9953 15.5871 16.1073 15.6471 16.2193C15.7071 16.3273 15.7671 16.4353 15.8271 16.5433H14.2431Z" stroke="url(#paint4_linear_3887_34438)" stroke-width="0.45" mask="url(#path-1-outside-1_3887_34438)"/>
<path d="M21.9332 16.6393C21.3892 16.6393 20.9272 16.5433 20.5472 16.3513C20.1672 16.1593 19.8592 15.8973 19.6232 15.5653C19.3872 15.2333 19.2153 14.8533 19.1073 14.4253C19.0033 13.9933 18.9532 13.5393 18.9572 13.0633C18.9692 12.3473 19.1112 11.7453 19.3832 11.2573C19.6552 10.7693 20.0232 10.4013 20.4872 10.1533C20.9513 9.90125 21.4732 9.77525 22.0532 9.77525C22.7812 9.77525 23.3632 9.94125 23.7992 10.2733C24.2393 10.6013 24.5553 11.0373 24.7472 11.5813C24.9432 12.1213 25.0372 12.7073 25.0292 13.3393C25.0172 14.0553 24.8753 14.6593 24.6033 15.1513C24.3353 15.6393 23.9692 16.0093 23.5052 16.2613C23.0452 16.5133 22.5212 16.6393 21.9332 16.6393ZM21.9692 15.6613C22.5173 15.6693 22.9293 15.4633 23.2052 15.0433C23.4853 14.6193 23.6252 14.0333 23.6252 13.2853C23.6252 12.8213 23.5693 12.4013 23.4573 12.0253C23.3453 11.6453 23.1693 11.3413 22.9293 11.1133C22.6933 10.8853 22.3893 10.7693 22.0173 10.7653C21.4733 10.7533 21.0633 10.9493 20.7873 11.3533C20.5113 11.7573 20.3733 12.3333 20.3733 13.0813C20.3733 13.5453 20.4293 13.9713 20.5413 14.3593C20.6532 14.7473 20.8273 15.0593 21.0633 15.2953C21.2993 15.5313 21.6012 15.6533 21.9692 15.6613Z" stroke="url(#paint5_linear_3887_34438)" stroke-width="0.45" mask="url(#path-1-outside-1_3887_34438)"/>
<path d="M9.20312 27.7933V21.1213H10.4451L10.4511 21.8293C10.6151 21.7173 10.8211 21.5993 11.0691 21.4753C11.3211 21.3513 11.5911 21.2453 11.8791 21.1573C12.1711 21.0693 12.4611 21.0213 12.7491 21.0133C13.4651 20.9933 13.9791 21.1793 14.2911 21.5713C14.6031 21.9593 14.7591 22.6433 14.7591 23.6233V27.7933H13.3671V23.6953C13.3671 23.1353 13.2911 22.7333 13.1391 22.4893C12.9911 22.2453 12.6671 22.1373 12.1671 22.1653C12.0271 22.1693 11.8651 22.1953 11.6811 22.2433C11.5011 22.2873 11.3151 22.3533 11.1231 22.4413C10.9351 22.5253 10.7551 22.6333 10.5831 22.7653V27.7933H9.20312Z" stroke="url(#paint6_linear_3887_34438)" stroke-width="0.45" mask="url(#path-1-outside-1_3887_34438)"/>
<path d="M23.2054 27.7933V26.9053L23.1334 26.8693V22.1413L23.1814 22.1053L23.1334 20.7853V18.0373H24.5134V27.7933H23.2054ZM21.3394 27.8893C20.8714 27.8893 20.4354 27.7733 20.0314 27.5413C19.6314 27.3093 19.3074 26.9573 19.0594 26.4853C18.8154 26.0133 18.6934 25.4153 18.6934 24.6913C18.6934 23.9673 18.8334 23.3313 19.1134 22.7833C19.3934 22.2313 19.7834 21.8013 20.2834 21.4933C20.7874 21.1813 21.3774 21.0253 22.0534 21.0253C22.4654 21.0253 22.8114 21.0753 23.0914 21.1753C23.3714 21.2713 23.5494 21.3533 23.6254 21.4213L23.1334 22.3033C23.0134 22.1993 22.8534 22.1273 22.6534 22.0873C22.4574 22.0473 22.2234 22.0273 21.9514 22.0273C21.6114 22.0273 21.3034 22.1213 21.0274 22.3093C20.7554 22.4973 20.5374 22.7773 20.3734 23.1493C20.2094 23.5213 20.1254 23.9813 20.1214 24.5293C20.1094 25.3133 20.2454 25.8873 20.5294 26.2513C20.8134 26.6153 21.2114 26.7973 21.7234 26.7973C22.0354 26.7973 22.3134 26.7393 22.5574 26.6233C22.8054 26.5073 22.9974 26.3953 23.1334 26.2873L23.3614 26.9713C23.2654 27.0713 23.1374 27.1933 22.9774 27.3373C22.8174 27.4813 22.6054 27.6093 22.3414 27.7213C22.0774 27.8333 21.7434 27.8893 21.3394 27.8893Z" stroke="url(#paint7_linear_3887_34438)" stroke-width="0.45" mask="url(#path-1-outside-1_3887_34438)"/>
<circle cx="17.5469" cy="17.6719" r="16.3125" stroke="url(#paint8_linear_3887_34438)" stroke-width="1.125"/>
<defs>
<linearGradient id="paint0_linear_3887_34438" x1="8.17114" y1="17.668" x2="26.9211" y2="17.668" gradientUnits="userSpaceOnUse">
<stop stop-color="#DB3EC6"/>
<stop offset="1" stop-color="#513BE2"/>
</linearGradient>
<linearGradient id="paint1_linear_3887_34438" x1="8.17114" y1="17.668" x2="26.9211" y2="17.668" gradientUnits="userSpaceOnUse">
<stop stop-color="#DB3EC6"/>
<stop offset="1" stop-color="#513BE2"/>
</linearGradient>
<linearGradient id="paint2_linear_3887_34438" x1="8.17114" y1="17.668" x2="26.9211" y2="17.668" gradientUnits="userSpaceOnUse">
<stop stop-color="#DB3EC6"/>
<stop offset="1" stop-color="#513BE2"/>
</linearGradient>
<linearGradient id="paint3_linear_3887_34438" x1="8.17114" y1="17.668" x2="26.9211" y2="17.668" gradientUnits="userSpaceOnUse">
<stop stop-color="#DB3EC6"/>
<stop offset="1" stop-color="#513BE2"/>
</linearGradient>
<linearGradient id="paint4_linear_3887_34438" x1="8.17114" y1="17.668" x2="26.9211" y2="17.668" gradientUnits="userSpaceOnUse">
<stop stop-color="#DB3EC6"/>
<stop offset="1" stop-color="#513BE2"/>
</linearGradient>
<linearGradient id="paint5_linear_3887_34438" x1="8.17114" y1="17.668" x2="26.9211" y2="17.668" gradientUnits="userSpaceOnUse">
<stop stop-color="#DB3EC6"/>
<stop offset="1" stop-color="#513BE2"/>
</linearGradient>
<linearGradient id="paint6_linear_3887_34438" x1="8.17114" y1="17.668" x2="26.9211" y2="17.668" gradientUnits="userSpaceOnUse">
<stop stop-color="#DB3EC6"/>
<stop offset="1" stop-color="#513BE2"/>
</linearGradient>
<linearGradient id="paint7_linear_3887_34438" x1="8.17114" y1="17.668" x2="26.9211" y2="17.668" gradientUnits="userSpaceOnUse">
<stop stop-color="#DB3EC6"/>
<stop offset="1" stop-color="#513BE2"/>
</linearGradient>
<linearGradient id="paint8_linear_3887_34438" x1="17.5469" y1="0.796875" x2="17.5469" y2="34.5469" gradientUnits="userSpaceOnUse">
<stop stop-color="#DB3EC6"/>
<stop offset="1" stop-color="#513BE2"/>
</linearGradient>
</defs>
</svg>
