<svg width="28" height="28" viewBox="0 0 28 28" fill="none" xmlns="http://www.w3.org/2000/svg">
<g clip-path="url(#clip0_1_10080)">
<mask id="mask0_1_10080" style="mask-type:luminance" maskUnits="userSpaceOnUse" x="-1" y="0" width="29" height="29">
<path d="M27.8027 0.3125H-0.197266V28.3125H27.8027V0.3125Z" fill="white"/>
</mask>
<g mask="url(#mask0_1_10080)">
<path d="M16.625 12.75H17.875C19.125 12.75 19.75 12.125 19.75 10.875V9.625C19.75 8.375 19.125 7.75 17.875 7.75H16.625C15.375 7.75 14.75 8.375 14.75 9.625V10.875C14.75 12.125 15.375 12.75 16.625 12.75Z" stroke="#646D7C" stroke-width="1.5" stroke-miterlimit="10" stroke-linecap="round" stroke-linejoin="round"/>
<path d="M9.125 20.25H10.375C11.625 20.25 12.25 19.625 12.25 18.375V17.125C12.25 15.875 11.625 15.25 10.375 15.25H9.125C7.875 15.25 7.25 15.875 7.25 17.125V18.375C7.25 19.625 7.875 20.25 9.125 20.25Z" stroke="#646D7C" stroke-width="1.5" stroke-miterlimit="10" stroke-linecap="round" stroke-linejoin="round"/>
<path d="M9.75 12.75C11.1307 12.75 12.25 11.6307 12.25 10.25C12.25 8.86929 11.1307 7.75 9.75 7.75C8.36929 7.75 7.25 8.86929 7.25 10.25C7.25 11.6307 8.36929 12.75 9.75 12.75Z" stroke="#646D7C" stroke-width="1.5" stroke-miterlimit="10" stroke-linecap="round" stroke-linejoin="round"/>
<path d="M17.25 20.25C18.6307 20.25 19.75 19.1307 19.75 17.75C19.75 16.3693 18.6307 15.25 17.25 15.25C15.8693 15.25 14.75 16.3693 14.75 17.75C14.75 19.1307 15.8693 20.25 17.25 20.25Z" stroke="#646D7C" stroke-width="1.5" stroke-miterlimit="10" stroke-linecap="round" stroke-linejoin="round"/>
</g>
</g>
<defs>
<clipPath id="clip0_1_10080">
<rect width="28" height="28" fill="white"/>
</clipPath>
</defs>
</svg>
