<svg width="20" height="20" viewBox="0 0 20 20" fill="none" xmlns="http://www.w3.org/2000/svg">
<path d="M18.2743 5.63025L15.466 16.9053C15.266 17.7469 14.516 18.3302 13.6493 18.3302H2.69929C1.44096 18.3302 0.540974 17.0969 0.915974 15.8885L4.4243 4.62195C4.66597 3.83861 5.39098 3.29688 6.20765 3.29688H16.4576C17.2493 3.29688 17.9076 3.78021 18.1826 4.44688C18.341 4.80521 18.3743 5.21358 18.2743 5.63025Z" stroke="#0088FF" stroke-width="1.5" stroke-miterlimit="10"/>
<path opacity="0.4" d="M13.334 18.3333H17.3173C18.3923 18.3333 19.234 17.425 19.159 16.35L18.334 5" stroke="#0088FF" stroke-width="1.5" stroke-miterlimit="10" stroke-linecap="round" stroke-linejoin="round"/>
<path d="M8.06641 5.31871L8.93308 1.71875" stroke="#0088FF" stroke-width="1.5" stroke-miterlimit="10" stroke-linecap="round" stroke-linejoin="round"/>
<path d="M13.6504 5.32758L14.4337 1.71094" stroke="#0088FF" stroke-width="1.5" stroke-miterlimit="10" stroke-linecap="round" stroke-linejoin="round"/>
<path opacity="0.4" d="M6.41602 10H13.0827" stroke="#0088FF" stroke-width="1.5" stroke-miterlimit="10" stroke-linecap="round" stroke-linejoin="round"/>
<path opacity="0.4" d="M5.58398 13.3359H12.2507" stroke="#0088FF" stroke-width="1.5" stroke-miterlimit="10" stroke-linecap="round" stroke-linejoin="round"/>
</svg>
