<svg width="20" height="20" viewBox="0 0 20 20" fill="none" xmlns="http://www.w3.org/2000/svg">
<path d="M10.0003 19.0057C9.42533 19.0057 8.88366 18.7141 8.50033 18.2057L7.25033 16.5391C7.22533 16.5057 7.12533 16.4641 7.08366 16.4557H6.66699C3.19199 16.4557 1.04199 15.5141 1.04199 10.8307V6.66406C1.04199 2.98073 2.98366 1.03906 6.66699 1.03906H13.3337C17.017 1.03906 18.9587 2.98073 18.9587 6.66406V10.8307C18.9587 14.5141 17.017 16.4557 13.3337 16.4557H12.917C12.8503 16.4557 12.792 16.4891 12.7503 16.5391L11.5003 18.2057C11.117 18.7141 10.5753 19.0057 10.0003 19.0057ZM6.66699 2.28906C3.68366 2.28906 2.29199 3.68073 2.29199 6.66406V10.8307C2.29199 14.5974 3.58366 15.2057 6.66699 15.2057H7.08366C7.50866 15.2057 7.99199 15.4474 8.25033 15.7891L9.50033 17.4557C9.79199 17.8391 10.2087 17.8391 10.5003 17.4557L11.7503 15.7891C12.0253 15.4224 12.4587 15.2057 12.917 15.2057H13.3337C16.317 15.2057 17.7087 13.8141 17.7087 10.8307V6.66406C17.7087 3.68073 16.317 2.28906 13.3337 2.28906H6.66699Z" fill="#A9AAAA"/>
<path d="M14.1663 7.28906H5.83301C5.49134 7.28906 5.20801 7.00573 5.20801 6.66406C5.20801 6.3224 5.49134 6.03906 5.83301 6.03906H14.1663C14.508 6.03906 14.7913 6.3224 14.7913 6.66406C14.7913 7.00573 14.508 7.28906 14.1663 7.28906Z" fill="#A9AAAA"/>
<path d="M10.833 11.4609H5.83301C5.49134 11.4609 5.20801 11.1776 5.20801 10.8359C5.20801 10.4943 5.49134 10.2109 5.83301 10.2109H10.833C11.1747 10.2109 11.458 10.4943 11.458 10.8359C11.458 11.1776 11.1747 11.4609 10.833 11.4609Z" fill="#A9AAAA"/>
</svg>
