<svg width="73" height="73" viewBox="0 0 73 73" fill="none" xmlns="http://www.w3.org/2000/svg">
<g filter="url(#filter0_d_1_4128)">
<path opacity="0.4" d="M28.7969 6.4375C37.8143 6.4375 45.5913 11.4241 49.0723 18.5645L49.0752 18.5693C50.4134 21.2163 51.1562 24.1593 51.1562 27.2812C51.1562 38.7809 41.1641 48.125 28.7969 48.125H28.6211L28.5088 48.2607L25.6895 51.6553L24.0234 53.6543C22.8159 55.0931 20.5326 54.8425 19.6406 53.2041L19.5586 53.041L15.498 44.1016L15.4551 44.0078L15.3721 43.9492L14.8691 43.585C9.72896 39.7537 6.4375 33.8758 6.4375 27.2812C6.4375 15.7816 16.4296 6.4375 28.7969 6.4375Z" fill="white" stroke="#E4E4E5" stroke-width="0.75"/>
<path d="M66.6882 38.9806C66.6882 45.9221 63.1113 52.0757 57.5944 55.9557L53.5326 64.8977C52.5929 66.9287 49.8647 67.3228 48.44 65.595L43.9538 60.1993C36.6182 60.1993 30.0707 56.9559 25.9785 51.8937L28.7976 48.4987C41.3469 48.4987 51.5319 39.0109 51.5319 27.28C51.5319 24.0972 50.7741 21.0963 49.4101 18.3984C59.3223 20.6719 66.6882 29.0381 66.6882 38.9806Z" fill="#E6658A"/>
<path d="M36.377 29.5547H21.2207C19.9779 29.5547 18.9473 28.5241 18.9473 27.2813C18.9473 26.0384 19.9779 25.0078 21.2207 25.0078H36.377C37.6198 25.0078 38.6504 26.0384 38.6504 27.2813C38.6504 28.5241 37.6198 29.5547 36.377 29.5547Z" fill="white"/>
</g>
<defs>
<filter id="filter0_d_1_4128" x="3.0625" y="6.0625" width="66.625" height="66.6229" filterUnits="userSpaceOnUse" color-interpolation-filters="sRGB">
<feFlood flood-opacity="0" result="BackgroundImageFix"/>
<feColorMatrix in="SourceAlpha" type="matrix" values="0 0 0 0 0 0 0 0 0 0 0 0 0 0 0 0 0 0 127 0" result="hardAlpha"/>
<feOffset dy="3"/>
<feGaussianBlur stdDeviation="1.5"/>
<feComposite in2="hardAlpha" operator="out"/>
<feColorMatrix type="matrix" values="0 0 0 0 0 0 0 0 0 0 0 0 0 0 0 0 0 0 0.17 0"/>
<feBlend mode="normal" in2="BackgroundImageFix" result="effect1_dropShadow_1_4128"/>
<feBlend mode="normal" in="SourceGraphic" in2="effect1_dropShadow_1_4128" result="shape"/>
</filter>
</defs>
</svg>
