<svg width="48" height="47" viewBox="0 0 48 47" fill="none" xmlns="http://www.w3.org/2000/svg">
<g filter="url(#filter0_d_3936_32872)">
<path d="M43.7045 16.2339V22.0403C43.7045 29.7823 39.7086 33.6532 31.717 33.6532H30.718C30.0986 33.6532 29.4993 33.9436 29.1197 34.4274L26.1228 38.2984C24.8042 40.0016 22.6464 40.0016 21.3278 38.2984L18.3309 34.4274C18.0112 34.0016 17.272 33.6532 16.7326 33.6532H15.7336C7.74193 33.6532 3.74609 31.7177 3.74609 22.0403V12.3629C3.74609 4.62097 7.74193 0.75 15.7336 0.75H27.7211" fill="white"/>
<path d="M43.7045 16.2339V22.0403C43.7045 29.7823 39.7086 33.6532 31.717 33.6532H30.718C30.0986 33.6532 29.4993 33.9435 29.1197 34.4274L26.1228 38.2984C24.8042 40.0016 22.6464 40.0016 21.3278 38.2984L18.3309 34.4274C18.0112 34.0016 17.272 33.6532 16.7326 33.6532H15.7336C7.74193 33.6532 3.74609 31.7177 3.74609 22.0403V12.3629C3.74609 4.62097 7.74193 0.75 15.7336 0.75H27.7211" stroke="#D9D9D9" stroke-width="1.49844" stroke-miterlimit="10" stroke-linecap="round" stroke-linejoin="round"/>
</g>
<path opacity="0.4" d="M38.7096 10.4274C41.4682 10.4274 43.7044 8.26105 43.7044 5.58871C43.7044 2.91636 41.4682 0.75 38.7096 0.75C35.9511 0.75 33.7148 2.91636 33.7148 5.58871C33.7148 8.26105 35.9511 10.4274 38.7096 10.4274Z" fill="white" stroke="#D9D9D9" stroke-width="1.49844" stroke-linecap="round" stroke-linejoin="round"/>
<circle cx="15.8613" cy="17.4824" r="1.87305" fill="#D9D9D9"/>
<circle cx="23.3535" cy="17.4824" r="1.87305" fill="#D9D9D9"/>
<circle cx="30.8457" cy="17.4824" r="1.87305" fill="#D9D9D9"/>
<defs>
<filter id="filter0_d_3936_32872" x="-0.000784636" y="0" width="47.4508" height="46.3219" filterUnits="userSpaceOnUse" color-interpolation-filters="sRGB">
<feFlood flood-opacity="0" result="BackgroundImageFix"/>
<feColorMatrix in="SourceAlpha" type="matrix" values="0 0 0 0 0 0 0 0 0 0 0 0 0 0 0 0 0 0 127 0" result="hardAlpha"/>
<feOffset dy="2.99688"/>
<feGaussianBlur stdDeviation="1.49844"/>
<feComposite in2="hardAlpha" operator="out"/>
<feColorMatrix type="matrix" values="0 0 0 0 0 0 0 0 0 0 0 0 0 0 0 0 0 0 0.11 0"/>
<feBlend mode="normal" in2="BackgroundImageFix" result="effect1_dropShadow_3936_32872"/>
<feBlend mode="normal" in="SourceGraphic" in2="effect1_dropShadow_3936_32872" result="shape"/>
</filter>
</defs>
</svg>
