<svg width="20" height="20" viewBox="0 0 20 20" fill="none" xmlns="http://www.w3.org/2000/svg">
<path d="M13.3332 18.9587H2.49984C1.69984 18.9587 1.0415 18.3003 1.0415 17.5003V6.66699C1.0415 2.98366 2.98317 1.04199 6.6665 1.04199H13.3332C17.0165 1.04199 18.9582 2.98366 18.9582 6.66699V13.3337C18.9582 17.017 17.0165 18.9587 13.3332 18.9587ZM6.6665 2.29199C3.68317 2.29199 2.2915 3.68366 2.2915 6.66699V17.5003C2.2915 17.617 2.38317 17.7087 2.49984 17.7087H13.3332C16.3165 17.7087 17.7082 16.317 17.7082 13.3337V6.66699C17.7082 3.68366 16.3165 2.29199 13.3332 2.29199H6.6665Z" fill="#AA5C00"/>
<path d="M12.9168 10.625H7.0835C6.74183 10.625 6.4585 10.3417 6.4585 10C6.4585 9.65833 6.74183 9.375 7.0835 9.375H12.9168C13.2585 9.375 13.5418 9.65833 13.5418 10C13.5418 10.3417 13.2585 10.625 12.9168 10.625Z" fill="#AA5C00"/>
<path d="M10 13.5413C9.65833 13.5413 9.375 13.258 9.375 12.9163V7.08301C9.375 6.74134 9.65833 6.45801 10 6.45801C10.3417 6.45801 10.625 6.74134 10.625 7.08301V12.9163C10.625 13.258 10.3417 13.5413 10 13.5413Z" fill="#AA5C00"/>
</svg>
