<svg width="30" height="26" viewBox="0 0 30 26" fill="none" xmlns="http://www.w3.org/2000/svg">
<path d="M23.0318 8.49078C24.3739 9.66442 25.096 10.6489 25.096 11.664C25.0959 12.6789 24.3743 13.6632 23.0326 14.8366L16.9679 20.1403C15.6259 21.3139 14.5001 21.9455 13.3394 21.9455C12.1787 21.9454 11.0536 21.3132 9.7116 20.1396L6.0728 16.9574C4.73115 15.784 4.00879 14.8004 4.00861 13.7855C4.00861 12.7704 4.73079 11.7859 6.0728 10.6123L12.1375 5.30856C13.4794 4.1351 14.6046 3.50401 15.7652 3.50401C16.9259 3.50401 18.0511 4.1351 19.393 5.30856L23.0318 8.49078ZM18.2014 6.35065C17.6613 5.87833 17.2144 5.53331 16.8165 5.30663C16.4205 5.08112 16.0848 4.98041 15.763 4.98069C15.4412 4.98101 15.1057 5.08275 14.7104 5.30856C14.3132 5.53543 13.8676 5.87972 13.3291 6.35065L7.26442 11.6544C6.72563 12.1255 6.33153 12.5155 6.07207 12.863C5.81393 13.2087 5.69749 13.5022 5.69716 13.7836C5.69691 14.0648 5.81284 14.358 6.0706 14.7041C6.3298 15.0521 6.72432 15.443 7.26442 15.9153L10.9032 19.0975C11.4434 19.57 11.8902 19.9148 12.2882 20.1416C12.6843 20.3672 13.0198 20.4691 13.3416 20.4688C13.6634 20.4685 13.9989 20.3667 14.3943 20.1409C14.7916 19.914 15.2367 19.5687 15.7755 19.0975L21.8402 13.7938C22.3787 13.3229 22.7731 12.9338 23.0326 12.5865C23.2907 12.2409 23.407 11.9473 23.4075 11.6659C23.4078 11.3845 23.292 11.0904 23.034 10.744C22.7748 10.396 22.3804 10.0053 21.8402 9.53288L18.2014 6.35065Z" fill="#DB3EC6" stroke="#A2A5A6" stroke-width="0.375"/>
<path d="M20.3068 9.81786C20.633 10.1035 20.6325 10.5745 20.3061 10.86C19.9796 11.1453 19.4418 11.1452 19.1152 10.86L16.6893 8.73848C16.3628 8.45293 16.3622 7.98201 16.6886 7.69638C17.0152 7.41077 17.5544 7.41077 17.881 7.69638L20.3068 9.81786Z" fill="#DB3EC6" stroke="#A2A5A6" stroke-width="0.375"/>
<path d="M12.7189 14.3305C13.5669 15.0721 13.5674 16.2753 12.7196 17.017C11.8715 17.7587 10.4949 17.7587 9.64683 17.017C8.799 16.2753 8.79954 15.0721 9.64756 14.3305C10.4956 13.5891 11.8708 13.5891 12.7189 14.3305ZM11.5331 15.3674C11.3443 15.2025 11.0339 15.2024 10.8451 15.3674C10.6563 15.5325 10.6565 15.804 10.8451 15.9692C11.0339 16.1343 11.3442 16.1343 11.5331 15.9692C11.7219 15.804 11.722 15.5326 11.5331 15.3674Z" fill="#DB3EC6" stroke="#A2A5A6" stroke-width="0.375"/>
</svg>
