<svg width="19" height="18" viewBox="0 0 19 18" fill="none" xmlns="http://www.w3.org/2000/svg">
<path d="M13.6055 6.75C14.8481 6.75 15.8555 5.74264 15.8555 4.5C15.8555 3.25736 14.8481 2.25 13.6055 2.25C12.3628 2.25 11.3555 3.25736 11.3555 4.5C11.3555 5.74264 12.3628 6.75 13.6055 6.75Z" fill="white"/>
<path d="M13.6055 15.75C14.8481 15.75 15.8555 14.7426 15.8555 13.5C15.8555 12.2574 14.8481 11.25 13.6055 11.25C12.3628 11.25 11.3555 12.2574 11.3555 13.5C11.3555 14.7426 12.3628 15.75 13.6055 15.75Z" fill="white"/>
<path d="M4.60547 6.75C5.84811 6.75 6.85547 5.74264 6.85547 4.5C6.85547 3.25736 5.84811 2.25 4.60547 2.25C3.36283 2.25 2.35547 3.25736 2.35547 4.5C2.35547 5.74264 3.36283 6.75 4.60547 6.75Z" fill="white"/>
<path d="M4.60547 15.75C5.84811 15.75 6.85547 14.7426 6.85547 13.5C6.85547 12.2574 5.84811 11.25 4.60547 11.25C3.36283 11.25 2.35547 12.2574 2.35547 13.5C2.35547 14.7426 3.36283 15.75 4.60547 15.75Z" fill="white"/>
</svg>
