<svg width="18" height="18" viewBox="0 0 18 18" fill="none" xmlns="http://www.w3.org/2000/svg">
<path d="M12.1675 1.50781H5.81414C3.74629 1.50781 2.99707 2.25703 2.99707 4.36234V13.6377C2.99707 15.743 3.74629 16.4922 5.81414 16.4922H12.16C14.2354 16.4922 14.9846 15.743 14.9846 13.6377V4.36234C14.9846 2.25703 14.2354 1.50781 12.1675 1.50781ZM8.99083 14.4693C8.27158 14.4693 7.67969 13.8774 7.67969 13.1582C7.67969 12.4389 8.27158 11.847 8.99083 11.847C9.71008 11.847 10.302 12.4389 10.302 13.1582C10.302 13.8774 9.71008 14.4693 8.99083 14.4693ZM10.4893 4.692H7.49239C7.18521 4.692 6.93047 4.43726 6.93047 4.13008C6.93047 3.8229 7.18521 3.56817 7.49239 3.56817H10.4893C10.7964 3.56817 11.0512 3.8229 11.0512 4.13008C11.0512 4.43726 10.7964 4.692 10.4893 4.692Z" fill="#CECECF"/>
</svg>
