<svg width="27" height="26" viewBox="0 0 27 26" fill="none" xmlns="http://www.w3.org/2000/svg">
<path d="M15.0425 7.95427C15.9212 7.07559 15.9212 5.65097 15.0425 4.77229C14.1638 3.89361 12.7392 3.89361 11.8605 4.77229C10.9818 5.65097 10.9818 7.07559 11.8605 7.95427C12.7392 8.83295 14.1638 8.83295 15.0425 7.95427Z" fill="white"/>
<path d="M21.4058 14.3185C22.2845 13.4398 22.2845 12.0152 21.4058 11.1365C20.5271 10.2579 19.1025 10.2579 18.2238 11.1365C17.3451 12.0152 17.3451 13.4398 18.2238 14.3185C19.1025 15.1972 20.5271 15.1972 21.4058 14.3185Z" fill="white"/>
<path d="M8.67531 14.3195C9.55399 13.4408 9.55399 12.0162 8.67531 11.1375C7.79663 10.2588 6.37201 10.2588 5.49333 11.1375C4.61465 12.0162 4.61465 13.4408 5.49333 14.3195C6.37201 15.1982 7.79663 15.1982 8.67531 14.3195Z" fill="white"/>
<path d="M15.0386 20.6838C15.9173 19.8051 15.9173 18.3805 15.0386 17.5018C14.1599 16.6231 12.7353 16.6231 11.8566 17.5018C10.9779 18.3805 10.9779 19.8051 11.8566 20.6838C12.7353 21.5624 14.1599 21.5624 15.0386 20.6838Z" fill="white"/>
</svg>
