<svg width="19" height="18" viewBox="0 0 19 18" fill="none" xmlns="http://www.w3.org/2000/svg">
<path d="M14.3906 6.75C15.6333 6.75 16.6406 5.74264 16.6406 4.5C16.6406 3.25736 15.6333 2.25 14.3906 2.25C13.148 2.25 12.1406 3.25736 12.1406 4.5C12.1406 5.74264 13.148 6.75 14.3906 6.75Z" fill="white"/>
<path d="M14.3906 15.75C15.6333 15.75 16.6406 14.7426 16.6406 13.5C16.6406 12.2574 15.6333 11.25 14.3906 11.25C13.148 11.25 12.1406 12.2574 12.1406 13.5C12.1406 14.7426 13.148 15.75 14.3906 15.75Z" fill="white"/>
<path d="M5.39062 6.75C6.63327 6.75 7.64062 5.74264 7.64062 4.5C7.64062 3.25736 6.63327 2.25 5.39062 2.25C4.14798 2.25 3.14062 3.25736 3.14062 4.5C3.14062 5.74264 4.14798 6.75 5.39062 6.75Z" fill="white"/>
<path d="M5.39062 15.75C6.63327 15.75 7.64062 14.7426 7.64062 13.5C7.64062 12.2574 6.63327 11.25 5.39062 11.25C4.14798 11.25 3.14062 12.2574 3.14062 13.5C3.14062 14.7426 4.14798 15.75 5.39062 15.75Z" fill="white"/>
</svg>
