<svg width="18" height="18" viewBox="0 0 18 18" fill="none" xmlns="http://www.w3.org/2000/svg">
<path d="M13.1484 0.75C14.6458 0.75 15.6874 0.974571 16.3438 1.63086C17.0001 2.2872 17.2246 3.32875 17.2246 4.82617V9.56836L17.2148 10.1094C17.1659 11.3236 16.924 12.1942 16.3506 12.7695C15.6951 13.4271 14.6536 13.6514 13.1562 13.6514H4.8252C3.32778 13.6514 2.28623 13.4269 1.62988 12.7705C0.973789 12.1142 0.74904 11.0733 0.749023 9.57617V4.82617C0.749023 3.32875 0.973539 2.2872 1.62988 1.63086C2.28623 0.974516 3.32778 0.75 4.8252 0.75H13.1484ZM4.8252 2.24902C4.23978 2.24902 3.78774 2.27423 3.4375 2.3457C3.08951 2.41676 2.85696 2.53074 2.69336 2.69434C2.52976 2.85793 2.41579 3.09048 2.34473 3.43848C2.27326 3.78872 2.24805 4.24076 2.24805 4.82617V9.56836C2.24805 10.1535 2.27333 10.6049 2.34473 10.9551C2.41578 11.3033 2.5297 11.5365 2.69336 11.7002C2.85696 11.8638 3.08952 11.9778 3.4375 12.0488C3.78774 12.1203 4.23978 12.1455 4.8252 12.1455H13.1484C13.7338 12.1455 14.1859 12.1203 14.5361 12.0488C14.8842 11.9778 15.1176 11.8638 15.2812 11.7002C15.4447 11.5366 15.5579 11.303 15.6289 10.9551C15.7003 10.6049 15.7266 10.1535 15.7266 9.56836V4.82617C15.7266 4.24076 15.7004 3.78872 15.6289 3.43848C15.5579 3.09079 15.4446 2.85791 15.2812 2.69434C15.1176 2.53072 14.8842 2.41676 14.5361 2.3457C14.1859 2.27423 13.7338 2.24902 13.1484 2.24902H4.8252Z" fill="#AAABAB" stroke="#AAABAB" stroke-width="0.37461"/>
<path d="M8.99023 12.1484C9.40073 12.1484 9.74002 12.487 9.74023 12.8975V16.4795C9.74003 16.89 9.40074 17.2285 8.99023 17.2285C8.57991 17.2283 8.24141 16.8898 8.24121 16.4795V12.8975C8.24143 12.4871 8.57992 12.1487 8.99023 12.1484Z" fill="#AAABAB" stroke="#AAABAB" stroke-width="0.37461"/>
<path d="M16.4824 8.99219C16.8929 8.99219 17.2322 9.33076 17.2324 9.74121C17.2324 10.1518 16.893 10.4912 16.4824 10.4912H1.49805C1.0876 10.491 0.749023 10.1517 0.749023 9.74121C0.749238 9.33089 1.08773 8.9924 1.49805 8.99219H16.4824Z" fill="#AAABAB" stroke="#AAABAB" stroke-width="0.37461"/>
<path d="M12.3618 15.7344C12.7723 15.7344 13.1106 16.0729 13.1108 16.4834C13.1108 16.894 12.7724 17.2334 12.3618 17.2334H5.61865C5.2082 17.2332 4.86963 16.8939 4.86963 16.4834C4.86984 16.0731 5.20833 15.7346 5.61865 15.7344H12.3618Z" fill="#AAABAB" stroke="#AAABAB" stroke-width="0.37461"/>
</svg>
