<svg width="30" height="21" viewBox="0 0 30 21" fill="none" xmlns="http://www.w3.org/2000/svg">
<circle cx="9.75385" cy="9.80463" r="8.99994" fill="url(#paint0_linear_4583_61964)"/>
<path d="M3.36725 16.1467C1.76069 14.5156 0.770516 12.2761 0.777826 9.80591C0.792708 4.83548 4.83433 0.81814 9.80473 0.832892C13.2047 0.843072 16.1578 2.73762 17.6804 5.52446C16.0545 3.87438 13.7963 2.84778 11.2968 2.8403C6.32647 2.82563 2.2848 6.84297 2.26987 11.8133C2.26517 13.3832 2.66449 14.8598 3.36725 16.1467Z" fill="#EE9A5F"/>
<circle cx="8.49609" cy="8.05468" r="0.749995" fill="#292D32"/>
<circle cx="11.9961" cy="8.05468" r="0.749995" fill="#292D32"/>
<path d="M11.6051 10.4375H9.15485C8.91663 10.4375 8.72266 10.7448 8.72266 11.1277C8.72266 12.5781 9.46793 13.7589 10.3834 13.7589C11.2988 13.7589 12.0441 12.5781 12.0441 11.1277C12.0407 10.7502 11.8433 10.4375 11.6051 10.4375Z" fill="#292D32"/>
<circle cx="19.4566" cy="10.3434" r="10.0699" fill="#FEFEFE"/>
<circle cx="19.3224" cy="10.217" r="8.66229" fill="url(#paint1_linear_4583_61964)"/>
<path d="M13.1817 16.327C11.6307 14.7565 10.6744 12.5976 10.6814 10.216C10.6958 5.43199 14.5864 1.56459 19.3704 1.57891C22.6387 1.58881 25.4779 3.40823 26.9449 6.08501C25.3805 4.50098 23.2101 3.51631 20.808 3.509C16.024 3.49468 12.1334 7.36116 12.119 12.1451C12.1145 13.6607 12.5015 15.0858 13.1817 16.327Z" fill="#EE9FBB"/>
<circle cx="18.1164" cy="8.53436" r="0.721857" fill="#292D32"/>
<circle cx="21.4875" cy="8.53436" r="0.721857" fill="#292D32"/>
<path d="M21.1102 12.4219H18.7519C18.5226 12.4219 18.3359 12.5402 18.3359 12.6876C18.3359 13.246 19.0533 13.7006 19.9343 13.7006C20.8154 13.7006 21.5327 13.246 21.5327 12.6876C21.5295 12.5423 21.3395 12.4219 21.1102 12.4219Z" fill="#292D32"/>
<defs>
<linearGradient id="paint0_linear_4583_61964" x1="14.0038" y1="9.80463" x2="3.50389" y2="16.8046" gradientUnits="userSpaceOnUse">
<stop stop-color="#E26824"/>
<stop offset="1" stop-color="#F08423"/>
</linearGradient>
<linearGradient id="paint1_linear_4583_61964" x1="23.413" y1="10.217" x2="13.307" y2="16.9543" gradientUnits="userSpaceOnUse">
<stop stop-color="#E96187"/>
<stop offset="1" stop-color="#F197B0"/>
</linearGradient>
</defs>
</svg>
