<svg width="25" height="25" viewBox="0 0 25 25" fill="none" xmlns="http://www.w3.org/2000/svg">
<path d="M15.364 23.3021H9.21836C3.65658 23.3021 1.28027 20.9258 1.28027 15.364V9.21842C1.28027 3.65664 3.65658 1.28033 9.21836 1.28033H15.364C20.9258 1.28033 23.3021 3.65664 23.3021 9.21842V15.364C23.3021 20.9258 20.9258 23.3021 15.364 23.3021ZM9.21836 2.81674C4.49648 2.81674 2.81668 4.49654 2.81668 9.21842V15.364C2.81668 20.0859 4.49648 21.7657 9.21836 21.7657H15.364C20.0858 21.7657 21.7657 20.0859 21.7657 15.364V9.21842C21.7657 4.49654 20.0858 2.81674 15.364 2.81674H9.21836Z" fill="#A9AAAA"/>
<path d="M12.2909 13.3155C11.7173 13.3155 11.2666 12.8546 11.2666 12.2912C11.2666 11.7279 11.7275 11.267 12.2909 11.267C12.8542 11.267 13.3151 11.7279 13.3151 12.2912C13.3151 12.8546 12.8645 13.3155 12.2909 13.3155Z" fill="#A9AAAA"/>
<path d="M16.3885 13.3155C15.8149 13.3155 15.3643 12.8546 15.3643 12.2912C15.3643 11.7279 15.8252 11.267 16.3885 11.267C16.9519 11.267 17.4128 11.7279 17.4128 12.2912C17.4128 12.8546 16.9621 13.3155 16.3885 13.3155Z" fill="#A9AAAA"/>
<path d="M8.19419 13.3155C7.6206 13.3155 7.16992 12.8546 7.16992 12.2912C7.16992 11.7279 7.63084 11.267 8.19419 11.267C8.75754 11.267 9.21846 11.7279 9.21846 12.2912C9.21846 12.8546 8.76778 13.3155 8.19419 13.3155Z" fill="#A9AAAA"/>
</svg>
