<svg width="17" height="19" viewBox="0 0 17 19" fill="none" xmlns="http://www.w3.org/2000/svg">
<g clip-path="url(#clip0_3972_33737)">
<path d="M14.0752 18.1562H2.9248V18.1572C2.92428 18.1569 2.92237 18.1551 2.91992 18.1523C2.91355 18.145 2.90625 18.1299 2.90625 18.1094V0.890625C2.90625 0.870113 2.91355 0.854996 2.91992 0.847656C2.92238 0.844911 2.92428 0.843056 2.9248 0.842773V0.84375H10.8896L10.8936 0.847656L14.0801 4.4082C14.083 4.41154 14.086 4.41719 14.0889 4.4248C14.0917 4.43266 14.0938 4.44234 14.0938 4.45215V18.1094C14.0938 18.1299 14.0865 18.145 14.0801 18.1523C14.0776 18.1551 14.0757 18.1569 14.0752 18.1572V18.1562Z" fill="#EAEAEA" stroke="#7762F6" stroke-width="0.5"/>
<path d="M14.6094 8.01562H2.39062C2.24392 8.01562 2.125 8.14854 2.125 8.3125V14.25C2.125 14.414 2.24392 14.5469 2.39062 14.5469H14.6094C14.7561 14.5469 14.875 14.414 14.875 14.25V8.3125C14.875 8.14854 14.7561 8.01562 14.6094 8.01562Z" fill="#7762F6"/>
<path d="M13.6025 4.25H11.125V1.48047L13.6025 4.25Z" fill="#7762F6" stroke="#7762F6"/>
<path d="M5.72461 13.2691H5.19336V9.30281H5.96102L6.46039 12.1528L6.93852 9.30281H7.67695V13.2691H7.1457V10.7753L6.68086 13.2691H6.24258L5.72461 10.7842V13.2691ZM8.9918 9.30578C9.10698 9.30008 9.22193 9.32174 9.32907 9.36933C9.43621 9.41692 9.53311 9.48936 9.61336 9.58188C9.75914 9.76541 9.83617 10.0046 9.82852 10.2498V10.8258C9.83036 10.9503 9.80966 11.0739 9.76766 11.1892C9.72567 11.3045 9.66324 11.4091 9.58414 11.4967C9.50816 11.5867 9.41625 11.6579 9.31426 11.706C9.21228 11.754 9.10246 11.7778 8.9918 11.7758H8.68367V13.2602H8.15242V9.30578H8.9918ZM9.31055 10.2617C9.31244 10.2161 9.30613 10.1705 9.29198 10.1277C9.27784 10.0849 9.25615 10.0456 9.2282 10.0123C9.1989 9.98014 9.16394 9.95508 9.12554 9.93873C9.08714 9.92238 9.04612 9.9151 9.00508 9.91734H8.68367V11.185H9.00508C9.04522 11.1856 9.08504 11.1769 9.12206 11.1596C9.15908 11.1422 9.1925 11.1165 9.22023 11.0841C9.24921 11.0524 9.27215 11.0145 9.28767 10.9727C9.3032 10.9308 9.31098 10.8859 9.31055 10.8406V10.2617ZM9.96664 11.8084L10.9123 9.29688H11.4435V11.8084H11.7862V12.4022H11.4462V13.2572H10.9149V12.4111H9.96664V11.8084ZM10.9123 11.8084V10.5705L10.4713 11.8084H10.9123Z" fill="white"/>
</g>
<defs>
<clipPath id="clip0_3972_33737">
<rect width="17" height="19" fill="white"/>
</clipPath>
</defs>
</svg>
