<svg width="20" height="20" viewBox="0 0 20 20" fill="none" xmlns="http://www.w3.org/2000/svg">
<path d="M13.1751 16.8181C12.9584 16.8181 12.7334 16.8097 12.4917 16.7847C12.0584 16.7514 11.5667 16.6681 11.0584 16.5431L9.65839 16.2097C5.81673 15.3014 4.55839 13.2681 5.45839 9.43473L6.27506 5.94306C6.45839 5.1514 6.67506 4.50973 6.94173 3.9764C8.37506 1.01806 11.1167 1.28473 13.0667 1.74306L14.4584 2.06806C16.4084 2.5264 17.6417 3.2514 18.3334 4.35973C19.0167 5.46806 19.1251 6.89306 18.6667 8.84306L17.8501 12.3264C17.1334 15.3764 15.6417 16.8181 13.1751 16.8181ZM10.9334 2.70973C9.54173 2.70973 8.65839 3.28473 8.06673 4.51806C7.85006 4.96806 7.65839 5.5264 7.49173 6.2264L6.67506 9.71806C5.93339 12.8681 6.79173 14.2431 9.94173 14.9931L11.3417 15.3264C11.7917 15.4347 12.2167 15.5014 12.6001 15.5347C14.8667 15.7597 15.9917 14.7681 16.6251 12.0431L17.4417 8.55973C17.8167 6.9514 17.7667 5.8264 17.2667 5.01806C16.7667 4.20973 15.7834 3.65973 14.1667 3.28473L12.7751 2.95973C12.0834 2.79306 11.4667 2.70973 10.9334 2.70973Z" fill="#A9AAAA"/>
<path d="M6.94155 18.5385C4.79988 18.5385 3.43321 17.2551 2.55821 14.5468L1.49155 11.2551C0.308214 7.58847 1.36655 5.52181 5.01655 4.33847L6.33321 3.91347C6.76655 3.78014 7.09155 3.68847 7.38321 3.63847C7.62488 3.58847 7.85821 3.68014 7.99988 3.87181C8.14155 4.06347 8.16655 4.31347 8.06655 4.53014C7.84988 4.97181 7.65821 5.53014 7.49988 6.23014L6.68321 9.72181C5.94155 12.8718 6.79988 14.2468 9.94988 14.9968L11.3499 15.3301C11.7999 15.4385 12.2249 15.5051 12.6082 15.5385C12.8749 15.5635 13.0915 15.7468 13.1665 16.0051C13.2332 16.2635 13.1332 16.5301 12.9165 16.6801C12.3665 17.0551 11.6749 17.3718 10.7999 17.6551L9.48321 18.0885C8.52488 18.3885 7.69155 18.5385 6.94155 18.5385ZM6.48321 5.18014L5.40821 5.53014C2.43321 6.48847 1.72488 7.88847 2.68321 10.8718L3.74988 14.1635C4.71655 17.1385 6.11655 17.8551 9.09155 16.8968L10.4082 16.4635C10.4582 16.4468 10.4999 16.4301 10.5499 16.4135L9.66655 16.2051C5.82488 15.2968 4.56655 13.2635 5.46655 9.43014L6.28321 5.93847C6.34155 5.67181 6.40821 5.41347 6.48321 5.18014Z" fill="#A9AAAA"/>
<path d="M14.5751 8.76108C14.5251 8.76108 14.4751 8.75274 14.4168 8.74441L10.3751 7.71941C10.0418 7.63608 9.84181 7.29441 9.92514 6.96108C10.0085 6.62774 10.3501 6.42774 10.6835 6.51108L14.7251 7.53608C15.0585 7.61941 15.2585 7.96108 15.1751 8.29441C15.1085 8.56941 14.8501 8.76108 14.5751 8.76108Z" fill="#A9AAAA"/>
<path d="M12.1333 11.5715C12.0833 11.5715 12.0333 11.5632 11.9749 11.5548L9.54994 10.9382C9.21661 10.8548 9.01661 10.5132 9.09994 10.1798C9.18328 9.84649 9.52494 9.64649 9.85828 9.72983L12.2833 10.3465C12.6166 10.4298 12.8166 10.7715 12.7333 11.1048C12.6666 11.3882 12.4166 11.5715 12.1333 11.5715Z" fill="#A9AAAA"/>
</svg>
