<svg width="20" height="20" viewBox="0 0 20 20" fill="none" xmlns="http://www.w3.org/2000/svg">
<path d="M13.333 18.9557H6.66634C4.14967 18.9557 2.70801 17.5141 2.70801 14.9974V6.8724C2.70801 4.2474 4.04134 2.91406 6.66634 2.91406C7.00801 2.91406 7.29134 3.1974 7.29134 3.53906C7.29134 3.8724 7.42468 4.18906 7.65801 4.42239C7.89134 4.65573 8.20801 4.78906 8.54134 4.78906H11.458C12.1497 4.78906 12.708 4.23073 12.708 3.53906C12.708 3.1974 12.9913 2.91406 13.333 2.91406C15.958 2.91406 17.2913 4.2474 17.2913 6.8724V14.9974C17.2913 17.5141 15.8497 18.9557 13.333 18.9557ZM6.12465 4.18073C4.80799 4.28907 3.95801 4.88073 3.95801 6.8724V14.9974C3.95801 16.8474 4.81634 17.7057 6.66634 17.7057H13.333C15.183 17.7057 16.0413 16.8474 16.0413 14.9974V6.8724C16.0413 4.88073 15.1914 4.2974 13.8747 4.18073C13.5914 5.2474 12.6163 6.03906 11.458 6.03906H8.54134C7.87467 6.03906 7.24968 5.78073 6.77468 5.30573C6.45801 4.98906 6.24132 4.60573 6.12465 4.18073Z" fill="#A9AAAA"/>
<path d="M11.4587 6.03906H8.54199C7.87533 6.03906 7.25033 5.78073 6.77533 5.30573C6.30033 4.83072 6.04199 4.20573 6.04199 3.53906C6.04199 2.16406 7.16699 1.03906 8.54199 1.03906H11.4587C12.1253 1.03906 12.7503 1.2974 13.2253 1.7724C13.7003 2.2474 13.9587 2.8724 13.9587 3.53906C13.9587 4.91406 12.8337 6.03906 11.4587 6.03906ZM8.54199 2.28906C7.85033 2.28906 7.29199 2.8474 7.29199 3.53906C7.29199 3.8724 7.42533 4.18906 7.65866 4.42239C7.89199 4.65573 8.20866 4.78906 8.54199 4.78906H11.4587C12.1503 4.78906 12.7087 4.23073 12.7087 3.53906C12.7087 3.20573 12.5753 2.88906 12.342 2.65573C12.1087 2.4224 11.792 2.28906 11.4587 2.28906H8.54199Z" fill="#A9AAAA"/>
<path d="M10.0003 11.4609H6.66699C6.32533 11.4609 6.04199 11.1776 6.04199 10.8359C6.04199 10.4943 6.32533 10.2109 6.66699 10.2109H10.0003C10.342 10.2109 10.6253 10.4943 10.6253 10.8359C10.6253 11.1776 10.342 11.4609 10.0003 11.4609Z" fill="#A9AAAA"/>
<path d="M13.3337 14.7891H6.66699C6.32533 14.7891 6.04199 14.5057 6.04199 14.1641C6.04199 13.8224 6.32533 13.5391 6.66699 13.5391H13.3337C13.6753 13.5391 13.9587 13.8224 13.9587 14.1641C13.9587 14.5057 13.6753 14.7891 13.3337 14.7891Z" fill="#A9AAAA"/>
</svg>
