<svg width="29" height="28" viewBox="0 0 29 28" fill="none" xmlns="http://www.w3.org/2000/svg">
<path d="M14.5237 3.39844C10.662 3.39844 7.52368 6.53677 7.52368 10.3984V13.7701C7.52368 14.4818 7.22035 15.5668 6.85868 16.1734L5.51701 18.4018C4.68868 19.7784 5.26035 21.3068 6.77701 21.8201C11.8053 23.5001 17.2303 23.5001 22.2587 21.8201C23.6703 21.3534 24.2887 19.6851 23.5187 18.4018L22.177 16.1734C21.827 15.5668 21.5237 14.4818 21.5237 13.7701V10.3984C21.5237 6.54844 18.3737 3.39844 14.5237 3.39844Z" stroke="#808080" stroke-width="1.5" stroke-miterlimit="10" stroke-linecap="round"/>
<path d="M16.6819 3.73563C16.3202 3.63063 15.9469 3.54896 15.5619 3.50229C14.4419 3.36229 13.3686 3.44396 12.3652 3.73563C12.7036 2.87229 13.5436 2.26562 14.5236 2.26562C15.5036 2.26562 16.3436 2.87229 16.6819 3.73563Z" stroke="#808080" stroke-width="1.5" stroke-miterlimit="10" stroke-linecap="round" stroke-linejoin="round"/>
<path d="M18.0234 22.2344C18.0234 24.1594 16.4484 25.7344 14.5234 25.7344C13.5668 25.7344 12.6801 25.3377 12.0501 24.7077C11.4201 24.0777 11.0234 23.191 11.0234 22.2344" stroke="#808080" stroke-width="1.5" stroke-miterlimit="10"/>
</svg>
