<svg width="20" height="20" viewBox="0 0 20 20" fill="none" xmlns="http://www.w3.org/2000/svg">
<path d="M14.541 18.9584C13.5994 18.9584 12.6077 18.7334 11.5827 18.3001C10.5827 17.8751 9.57435 17.2917 8.59102 16.5834C7.61602 15.8667 6.67435 15.0667 5.78268 14.1917C4.89935 13.3001 4.09935 12.3584 3.39102 11.3917C2.67435 10.3917 2.09935 9.39175 1.69102 8.42508C1.25768 7.39175 1.04102 6.39175 1.04102 5.45008C1.04102 4.80008 1.15768 4.18341 1.38268 3.60841C1.61602 3.01675 1.99102 2.46675 2.49935 1.99175C3.14102 1.35841 3.87435 1.04175 4.65768 1.04175C4.98268 1.04175 5.31602 1.11675 5.59935 1.25008C5.92435 1.40008 6.19935 1.62508 6.39935 1.92508L8.33268 4.65008C8.50768 4.89175 8.64102 5.12508 8.73268 5.35841C8.84102 5.60841 8.89935 5.85841 8.89935 6.10008C8.89935 6.41675 8.80768 6.72508 8.63268 7.01675C8.50768 7.24175 8.31602 7.48341 8.07435 7.72508L7.50768 8.31675C7.51602 8.34175 7.52435 8.35841 7.53268 8.37508C7.63268 8.55008 7.83268 8.85008 8.21602 9.30008C8.62435 9.76675 9.00768 10.1917 9.39102 10.5834C9.88268 11.0667 10.291 11.4501 10.6743 11.7667C11.1493 12.1667 11.4577 12.3667 11.641 12.4584L11.6243 12.5001L12.2327 11.9001C12.491 11.6417 12.741 11.4501 12.9827 11.3251C13.441 11.0417 14.0244 10.9917 14.6077 11.2334C14.8244 11.3251 15.0577 11.4501 15.3077 11.6251L18.0744 13.5917C18.3827 13.8001 18.6077 14.0667 18.741 14.3834C18.866 14.7001 18.9243 14.9917 18.9243 15.2834C18.9243 15.6834 18.8327 16.0834 18.6577 16.4584C18.4827 16.8334 18.266 17.1584 17.991 17.4584C17.516 17.9834 16.9993 18.3584 16.3993 18.6001C15.8243 18.8334 15.1994 18.9584 14.541 18.9584ZM4.65768 2.29175C4.19935 2.29175 3.77435 2.49175 3.36602 2.89175C2.98268 3.25008 2.71602 3.64175 2.54935 4.06675C2.37435 4.50008 2.29102 4.95841 2.29102 5.45008C2.29102 6.22508 2.47435 7.06675 2.84102 7.93341C3.21602 8.81675 3.74102 9.73341 4.40768 10.6501C5.07435 11.5667 5.83268 12.4584 6.66602 13.3001C7.49935 14.1251 8.39935 14.8917 9.32435 15.5667C10.2243 16.2251 11.1493 16.7584 12.066 17.1417C13.491 17.7501 14.8244 17.8917 15.9244 17.4334C16.3494 17.2584 16.7243 16.9917 17.066 16.6084C17.2577 16.4001 17.4077 16.1751 17.5327 15.9084C17.6327 15.7001 17.6827 15.4834 17.6827 15.2667C17.6827 15.1334 17.6577 15.0001 17.591 14.8501C17.566 14.8001 17.516 14.7084 17.3577 14.6001L14.591 12.6334C14.4243 12.5167 14.2743 12.4334 14.1327 12.3751C13.9493 12.3001 13.8743 12.2251 13.591 12.4001C13.4243 12.4834 13.2743 12.6084 13.1077 12.7751L12.4743 13.4001C12.1493 13.7167 11.6493 13.7917 11.266 13.6501L11.041 13.5501C10.6993 13.3667 10.2993 13.0834 9.85768 12.7084C9.45768 12.3667 9.02435 11.9667 8.49935 11.4501C8.09102 11.0334 7.68268 10.5917 7.25768 10.1001C6.86602 9.64175 6.58268 9.25008 6.40768 8.92508L6.30768 8.67508C6.25768 8.48341 6.24102 8.37508 6.24102 8.25841C6.24102 7.95841 6.34935 7.69175 6.55768 7.48341L7.18268 6.83341C7.34935 6.66675 7.47435 6.50841 7.55768 6.36675C7.62435 6.25841 7.64935 6.16675 7.64935 6.08341C7.64935 6.01675 7.62435 5.91675 7.58268 5.81675C7.52435 5.68341 7.43268 5.53341 7.31602 5.37508L5.38268 2.64175C5.29935 2.52508 5.19935 2.44175 5.07435 2.38341C4.94102 2.32508 4.79935 2.29175 4.65768 2.29175ZM11.6243 12.5084L11.491 13.0751L11.716 12.4917C11.6743 12.4834 11.641 12.4917 11.6243 12.5084Z" fill="#2A2D32"/>
</svg>
