<svg width="21" height="18" viewBox="0 0 21 18" fill="none" xmlns="http://www.w3.org/2000/svg">
<rect y="2.25" width="20.2289" height="14.9844" rx="3.7461" fill="#43BF34"/>
<path opacity="0.4" d="M10.1133 4.5C8.57976 4.5 7.33301 5.74675 7.33301 7.28031C7.33301 8.7846 8.50952 10.0021 10.0431 10.0548C10.0899 10.0489 10.1367 10.0489 10.1718 10.0548C10.1836 10.0548 10.1894 10.0548 10.2011 10.0548C10.207 10.0548 10.207 10.0548 10.2128 10.0548C11.7113 10.0021 12.8878 8.7846 12.8936 7.28031C12.8936 5.74675 11.6469 4.5 10.1133 4.5Z" fill="#F4F5F6"/>
<path d="M13.0864 9.85559C11.4533 8.76689 8.79005 8.76689 7.14528 9.85559C6.40192 10.3531 5.99219 11.0262 5.99219 11.7462C5.99219 12.4662 6.40192 13.1334 7.13943 13.6251C7.95889 14.1753 9.03589 14.4504 10.1129 14.4504C11.1899 14.4504 12.2669 14.1753 13.0864 13.6251C13.8239 13.1276 14.2336 12.4603 14.2336 11.7345C14.2277 11.0145 13.8239 10.3473 13.0864 9.85559Z" fill="#F4F5F6"/>
<rect x="2.24512" width="14.9844" height="1.49844" rx="0.74922" fill="#3CBD2C"/>
<rect x="15.7314" y="3.75" width="3.7461" height="1.49844" rx="0.74922" transform="rotate(-90 15.7314 3.75)" fill="#3CBD2C"/>
<rect x="2.24512" y="3.75" width="3.7461" height="1.49844" rx="0.74922" transform="rotate(-90 2.24512 3.75)" fill="#3CBD2C"/>
</svg>
