<svg width="115" height="115" viewBox="0 0 115 115" fill="none" xmlns="http://www.w3.org/2000/svg">
<g filter="url(#filter0_f_4119_46908)">
<ellipse cx="57.4993" cy="57.4322" rx="32.39" ry="32.3228" fill="#F2F2F2"/>
</g>
<path d="M57.499 21.4258C77.4232 21.4259 93.5713 37.5441 93.5713 57.4219C93.5713 77.2997 77.4232 93.4178 57.499 93.418C37.5747 93.418 21.4258 77.2998 21.4258 57.4219C21.4258 37.544 37.5747 21.4258 57.499 21.4258Z" fill="#F2F2F2" stroke="white" stroke-width="2.00868"/>
<mask id="mask0_4119_46908" style="mask-type:alpha" maskUnits="userSpaceOnUse" x="22" y="22" width="71" height="71">
<ellipse cx="57.5004" cy="57.4222" rx="34.9008" ry="34.8284" fill="white"/>
</mask>
<g mask="url(#mask0_4119_46908)">
<mask id="mask1_4119_46908" style="mask-type:luminance" maskUnits="userSpaceOnUse" x="50" y="38" width="55" height="55">
<path d="M50.4219 38.7699H104.154V92.3906H50.4219V38.7699Z" fill="white"/>
</mask>
<g mask="url(#mask1_4119_46908)">
<path d="M97.6692 53.7126L84.9432 41.0129C84.4076 40.5102 83.6968 40.2353 82.9616 40.2464C82.2264 40.2576 81.5244 40.554 81.0043 41.0728C80.4843 41.5915 80.187 42.292 80.1756 43.0257C80.1641 43.7594 80.4394 44.4688 80.943 45.0035L75.4863 50.4488L88.2124 63.1484L93.669 57.7031C94.1993 58.2325 94.9186 58.5299 95.6686 58.5301C96.04 58.5301 96.4078 58.4572 96.7509 58.3154C97.0941 58.1737 97.4059 57.9658 97.6685 57.7038C97.9312 57.4418 98.1396 57.1307 98.2817 56.7883C98.4239 56.4459 98.4971 56.079 98.4972 55.7084C98.4973 55.3377 98.4242 54.9707 98.2821 54.6283C98.1401 54.2859 97.9318 53.9747 97.6692 53.7126Z" fill="black" fill-opacity="0.03"/>
<path d="M82.9442 40.1936H61.7341C60.2341 40.1936 58.7954 40.7882 57.7347 41.8467C56.674 42.9053 56.0781 44.3409 56.0781 45.8379V85.3479C56.0781 86.8449 56.674 88.2805 57.7347 89.339C58.7954 90.3975 60.2341 90.9922 61.7341 90.9922H92.8423C94.3423 90.9922 95.781 90.3975 96.8417 89.339C97.9024 88.2805 98.4983 86.8449 98.4983 85.3479V55.7154H85.7722C84.3582 55.7154 82.9442 54.3043 82.9442 52.8932V40.1936Z" fill="black" fill-opacity="0.1"/>
<path d="M82.9432 40.1873H80.1152V52.887C80.1152 54.3839 80.7111 55.8196 81.7718 56.8781C82.8326 57.9366 84.2712 58.5312 85.7713 58.5312H98.4973V55.7091H85.7713C84.3572 55.7091 82.9432 54.298 82.9432 52.887V40.1873Z" fill="white"/>
<path d="M75.8725 55.8936C75.8725 56.2679 75.7235 56.6268 75.4583 56.8914C75.1931 57.156 74.8335 57.3047 74.4585 57.3047H63.1464C62.7714 57.3047 62.4118 57.156 62.1466 56.8914C61.8814 56.6268 61.7324 56.2679 61.7324 55.8936C61.7324 55.5194 61.8814 55.1605 62.1466 54.8958C62.4118 54.6312 62.7714 54.4825 63.1464 54.4825H74.4585C74.8335 54.4825 75.1931 54.6312 75.4583 54.8958C75.7235 55.1605 75.8725 55.5194 75.8725 55.8936Z" fill="white"/>
<path d="M75.8725 77.4327C75.8725 77.8069 75.7235 78.1658 75.4583 78.4305C75.1931 78.6951 74.8335 78.8438 74.4585 78.8438H63.1464C62.7714 78.8438 62.4118 78.6951 62.1466 78.4305C61.8814 78.1658 61.7324 77.8069 61.7324 77.4327C61.7324 77.0584 61.8814 76.6995 62.1466 76.4349C62.4118 76.1703 62.7714 76.0216 63.1464 76.0216H74.4585C74.8335 76.0216 75.1931 76.1703 75.4583 76.4349C75.7235 76.6995 75.8725 77.0584 75.8725 77.4327Z" fill="white"/>
<path d="M92.8405 62.7374C92.8405 63.1116 92.6916 63.4705 92.4264 63.7351C92.1612 63.9998 91.8015 64.1484 91.4265 64.1484H63.1464C62.7714 64.1484 62.4118 63.9998 62.1466 63.7351C61.8814 63.4705 61.7324 63.1116 61.7324 62.7374C61.7324 62.3631 61.8814 62.0042 62.1466 61.7396C62.4118 61.475 62.7714 61.3263 63.1464 61.3263H91.4265C91.8015 61.3263 92.1612 61.475 92.4264 61.7396C92.6916 62.0042 92.8405 62.3631 92.8405 62.7374Z" fill="white"/>
<path d="M87.5828 69.5723C87.5828 69.9489 87.4593 70.31 87.2396 70.5763C87.0198 70.8426 86.7218 70.9922 86.411 70.9922H62.9764C62.6657 70.9922 62.3676 70.8426 62.1479 70.5763C61.9281 70.31 61.8047 69.9489 61.8047 69.5723C61.8047 69.1958 61.9281 68.8346 62.1479 68.5683C62.3676 68.3021 62.6657 68.1525 62.9764 68.1525H86.411C86.7218 68.1525 87.0198 68.3021 87.2396 68.5683C87.4593 68.8346 87.5828 69.1958 87.5828 69.5723Z" fill="white"/>
</g>
<path d="M74.1526 80.6098L73.5898 81.1335L71.9193 79.3462L71.3262 78.7113L71.889 78.1875L72.4821 78.8224L74.1526 80.6098Z" fill="#F2F2F2"/>
<path d="M72.4821 78.8229C72.3923 78.9135 72.3 79.0026 72.2061 79.0902C72.1122 79.1777 72.0162 79.2637 71.9193 79.3462L71.3262 78.7113L71.8905 78.1875L72.4821 78.8229ZM74.2429 80.6942C74.1531 80.7849 74.0608 80.874 73.9669 80.9615C73.873 81.0491 73.7771 81.1351 73.6801 81.2175L73.087 80.5826L73.6514 80.0589L74.2429 80.6942Z" fill="black" fill-opacity="0.6"/>
<path d="M74.8186 72.277C74.7533 74.1089 74.1456 75.8803 73.072 77.3677C71.9985 78.8551 70.5073 79.9916 68.7869 80.6337C67.0664 81.2759 65.1939 81.3948 63.4058 80.9756C61.6176 80.5563 59.9941 79.6176 58.7402 78.2781C57.0599 76.4799 56.164 74.0892 56.2498 71.6319C56.3355 69.1746 57.3958 66.8518 59.1974 65.1746C62.9427 61.6879 68.8337 61.8921 72.3277 65.6307C73.1627 66.5191 73.8128 67.564 74.2403 68.7048C74.6679 69.8457 74.8644 71.0598 74.8186 72.277Z" fill="black" fill-opacity="0.6"/>
<path d="M73.0831 72.216C73.0152 74.1674 72.191 76.0164 70.7842 77.3735C69.3774 78.7306 67.4978 79.4899 65.5411 79.4915C65.4518 79.4915 65.362 79.49 65.2717 79.4869C64.8026 79.4708 64.336 79.4117 63.8778 79.3103C63.0052 79.1167 62.1746 78.7685 61.4253 78.2822C60.9075 77.9453 60.4327 77.5467 60.0113 77.0954C58.6606 75.6308 57.9451 73.6926 58.0211 71.7036C58.0971 69.7146 58.9583 67.8364 60.4169 66.4787C61.8755 65.1211 63.8129 64.3943 65.8065 64.4569C67.8001 64.5195 69.6879 65.3664 71.0581 66.8129C71.36 67.1358 71.6333 67.4842 71.8749 67.8543C72.3627 68.6014 72.7122 69.4298 72.9066 70.3001C73.0468 70.9287 73.1061 71.5725 73.0831 72.216Z" fill="#F2F2F2"/>
<path d="M68.0326 67.9229C66.8119 67.2315 65.366 67.0521 64.0128 67.4243C62.6596 67.7964 61.5099 68.6895 60.8164 69.9074" stroke="white" stroke-width="2.51085" stroke-linecap="round" stroke-linejoin="round"/>
<path d="M81.092 88.3722C80.7743 88.669 80.3553 88.8338 79.9201 88.833H79.8591C79.6339 88.826 79.4123 88.7744 79.2071 88.6815C79.0019 88.5885 78.8172 88.4559 78.6636 88.2913L72.3438 81.7711L74.8578 79.4297L81.1766 85.9464C81.487 86.2796 81.6524 86.7221 81.6365 87.1768C81.6207 87.6315 81.4248 88.0614 81.092 88.3722Z" fill="#808080"/>
<path d="M81.3157 88.1251C81.1568 88.3465 80.9474 88.5271 80.7047 88.6517C80.462 88.7764 80.1931 88.8415 79.9201 88.8419H79.8591C79.6337 88.8345 79.412 88.7827 79.2068 88.6894C79.0017 88.596 78.817 88.4631 78.6636 88.2981L72.3438 81.7778L72.7511 81.3984L79.0577 87.9039C79.2112 88.0685 79.3959 88.2012 79.6011 88.2943C79.8062 88.3874 80.0278 88.4389 80.2531 88.4461H80.3142C80.6735 88.447 81.024 88.3346 81.3157 88.1251Z" fill="black" fill-opacity="0.2"/>
<path d="M74.8242 80.1953L80.7752 86.134" stroke="white" stroke-width="0.50217" stroke-linecap="round" stroke-linejoin="round"/>
</g>
<g filter="url(#filter1_f_4119_46908)">
<ellipse cx="89.302" cy="38.8828" rx="8.11842" ry="8.10158" fill="url(#paint0_linear_4119_46908)"/>
</g>
<ellipse cx="87.4622" cy="37.0469" rx="8.11842" ry="8.10158" fill="url(#paint1_linear_4119_46908)"/>
<path d="M89.6256 34.8831C89.7041 34.9614 89.7486 35.0675 89.7486 35.1783C89.7486 35.2891 89.7041 35.3952 89.6256 35.4735L87.9687 37.127L89.6256 38.7805C89.704 38.8588 89.7485 38.9651 89.7486 39.0758C89.7486 39.1865 89.7047 39.2934 89.6263 39.3717C89.5478 39.45 89.4408 39.4938 89.3297 39.4938C89.2188 39.4937 89.1123 39.4493 89.0339 39.371L87.377 37.7175L85.72 39.371C85.6416 39.4493 85.5351 39.4937 85.4242 39.4938C85.3131 39.4938 85.2061 39.45 85.1276 39.3717C85.0492 39.2934 85.0053 39.1865 85.0053 39.0758C85.0054 38.9651 85.0499 38.8588 85.1283 38.7805L86.7852 37.127L85.1283 35.4735C85.0498 35.3952 85.0053 35.2891 85.0053 35.1783C85.0053 35.0675 85.0498 34.9614 85.1283 34.8831C85.2068 34.8048 85.3132 34.7603 85.4242 34.7603C85.5351 34.7603 85.6416 34.8048 85.72 34.8831L87.377 36.5365L89.0339 34.8831C89.1123 34.8048 89.2188 34.7603 89.3297 34.7603C89.4407 34.7603 89.5471 34.8048 89.6256 34.8831Z" fill="white" stroke="white" stroke-width="0.33478"/>
<defs>
<filter id="filter0_f_4119_46908" x="0.000873566" y="0.000873566" width="114.996" height="114.865" filterUnits="userSpaceOnUse" color-interpolation-filters="sRGB">
<feFlood flood-opacity="0" result="BackgroundImageFix"/>
<feBlend mode="normal" in="SourceGraphic" in2="BackgroundImageFix" result="shape"/>
<feGaussianBlur stdDeviation="12.5543" result="effect1_foregroundBlur_4119_46908"/>
</filter>
<filter id="filter1_f_4119_46908" x="74.488" y="24.0856" width="29.6275" height="29.5943" filterUnits="userSpaceOnUse" color-interpolation-filters="sRGB">
<feFlood flood-opacity="0" result="BackgroundImageFix"/>
<feBlend mode="normal" in="SourceGraphic" in2="BackgroundImageFix" result="shape"/>
<feGaussianBlur stdDeviation="3.3478" result="effect1_foregroundBlur_4119_46908"/>
</filter>
<linearGradient id="paint0_linear_4119_46908" x1="81.1836" y1="38.8828" x2="97.4204" y2="38.8828" gradientUnits="userSpaceOnUse">
<stop stop-color="#DB3EC6"/>
<stop offset="0.5" stop-color="#963DD4"/>
<stop offset="1" stop-color="#513BE2"/>
</linearGradient>
<linearGradient id="paint1_linear_4119_46908" x1="79.3438" y1="37.0469" x2="95.5806" y2="37.0469" gradientUnits="userSpaceOnUse">
<stop stop-color="#DB3EC6"/>
<stop offset="0.5" stop-color="#963DD4"/>
<stop offset="1" stop-color="#513BE2"/>
</linearGradient>
</defs>
</svg>
