<svg width="20" height="20" viewBox="0 0 20 20" fill="none" xmlns="http://www.w3.org/2000/svg">
<g opacity="0.4">
<path d="M15.4163 16.25H12.083H15.4163Z" fill="#CECECF"/>
<path d="M15.4163 16.25H12.083" stroke="#A9AAAA" stroke-width="1.5" stroke-linecap="round" stroke-linejoin="round"/>
<path d="M13.75 17.9193V14.5859" stroke="#A9AAAA" stroke-width="1.5" stroke-linecap="round" stroke-linejoin="round"/>
</g>
<path opacity="0.4" d="M10.1332 9.05573C10.0498 9.0474 9.94984 9.0474 9.85817 9.05573C7.87484 8.98906 6.29984 7.36406 6.29984 5.36406C6.2915 3.3224 7.94984 1.66406 9.9915 1.66406C12.0332 1.66406 13.6915 3.3224 13.6915 5.36406C13.6915 7.36406 12.1082 8.98906 10.1332 9.05573Z" stroke="#A9AAAA" stroke-width="1.5" stroke-linecap="round" stroke-linejoin="round"/>
<path d="M9.99121 18.176C8.47454 18.176 6.96621 17.7927 5.81621 17.026C3.79954 15.676 3.79954 13.476 5.81621 12.1344C8.10788 10.601 11.8662 10.601 14.1579 12.1344" stroke="#A9AAAA" stroke-width="1.5" stroke-linecap="round" stroke-linejoin="round"/>
</svg>
