<svg width="18" height="19" viewBox="0 0 18 19" fill="none" xmlns="http://www.w3.org/2000/svg">
<path d="M12.4103 7.10898C12.8906 5.92096 12.5918 3.54116 11.8326 2.50743C11.8326 2.50743 10.9082 1.44944 10.0998 1.1653C9.59838 0.98909 8.75196 0.973571 8.75196 0.973571C8.75196 0.973571 8.04044 0.892412 7.59671 0.973571C6.73424 1.13132 6.29133 1.50652 5.67128 2.12396C5.05122 2.74141 4.74325 3.19792 4.51602 4.04129C4.30169 4.83679 4.27058 5.3638 4.51602 6.15034C4.72652 6.82491 5.47873 7.6842 5.47873 7.6842C5.47873 7.6842 6.10624 8.31368 6.2489 8.8346C6.39157 9.35551 6.27631 9.59267 6.05643 9.98496C5.8732 10.3119 5.47873 10.5602 5.47873 10.5602C5.47873 10.5602 4.79503 11.0606 4.32348 11.3271C3.67943 11.6911 3.23463 11.73 2.59059 12.094C2.59059 12.094 1.76822 12.4348 1.43533 12.861C1.22888 13.1253 1.1444 13.3064 1.05025 13.6279C0.90287 14.1311 0.896994 14.4686 1.05025 14.97C1.17791 15.3877 1.31023 15.6277 1.62788 15.9287C2.04275 16.3218 2.97575 16.6956 2.97575 16.6956C2.97575 16.6956 3.63853 16.9701 4.13093 17.0791C5.86389 17.4625 8.94451 17.2708 8.94451 17.2708" stroke="#616265" stroke-width="1.875"/>
<rect x="-0.249404" y="-0.329115" width="1.22077" height="0.584318" rx="0.292159" transform="matrix(-0.990719 -0.13593 0.13706 -0.990563 12.8142 7.05316)" fill="#616265" stroke="#616265" stroke-width="0.584318"/>
<rect x="-0.253915" y="0.287719" width="1.22319" height="0.542831" rx="0.271415" transform="matrix(0.0625521 0.998042 -0.998074 0.0620286 9.45148 16.8827)" fill="#616265" stroke="#616265" stroke-width="0.542831"/>
<path d="M12.4103 7.10898C12.8906 5.92096 12.5918 3.54116 11.8326 2.50743C11.8326 2.50743 10.9082 1.44944 10.0998 1.1653C9.59838 0.98909 8.75196 0.973571 8.75196 0.973571C8.75196 0.973571 8.04044 0.892412 7.59671 0.973571C6.73424 1.13132 6.29133 1.50652 5.67128 2.12396C5.05122 2.74141 4.74325 3.19792 4.51602 4.04129C4.30169 4.83679 4.27058 5.3638 4.51602 6.15034C4.72652 6.82491 5.47873 7.6842 5.47873 7.6842C5.47873 7.6842 6.10624 8.31368 6.2489 8.8346C6.39157 9.35551 6.27631 9.59267 6.05643 9.98496C5.8732 10.3119 5.47873 10.5602 5.47873 10.5602C5.47873 10.5602 4.79503 11.0606 4.32348 11.3271C3.67943 11.6911 3.23463 11.73 2.59059 12.094C2.59059 12.094 1.76822 12.4348 1.43533 12.861C1.22888 13.1253 1.1444 13.3064 1.05025 13.6279C0.90287 14.1311 0.896994 14.4686 1.05025 14.97C1.17791 15.3877 1.31023 15.6277 1.62788 15.9287C2.04275 16.3218 2.97575 16.6956 2.97575 16.6956C2.97575 16.6956 3.63853 16.9701 4.13093 17.0791C5.86389 17.4625 8.94451 17.2708 8.94451 17.2708" stroke="#616265" stroke-width="1.875"/>
<rect x="-0.249404" y="-0.329115" width="1.22077" height="0.584318" rx="0.292159" transform="matrix(-0.990719 -0.13593 0.13706 -0.990563 12.8142 7.05316)" fill="#616265" stroke="#616265" stroke-width="0.584318"/>
<rect x="-0.253915" y="0.287719" width="1.22319" height="0.542831" rx="0.271415" transform="matrix(0.0625521 0.998042 -0.998074 0.0620286 9.45148 16.8827)" fill="#616265" stroke="#616265" stroke-width="0.542831"/>
<path d="M12.6855 10.9744C12.6855 10.6272 12.9667 10.346 13.3139 10.346C13.6611 10.346 13.9423 10.6272 13.9423 10.9744V13.4341H16.4019C16.7492 13.4341 17.0303 13.7153 17.0303 14.0625C17.0303 14.4097 16.7492 14.6909 16.4019 14.6909H13.9423V17.1506C13.9423 17.4978 13.6611 17.7789 13.3139 17.779C12.9667 17.779 12.6855 17.4978 12.6855 17.1506V14.6909H10.2258C9.87859 14.6909 9.59742 14.4097 9.59742 14.0625C9.59743 13.7153 9.87859 13.4341 10.2258 13.4341H12.6855V10.9744Z" fill="#616265" stroke="#616265" stroke-width="0.375"/>
</svg>
