<svg width="20" height="21" viewBox="0 0 20 21" fill="none" xmlns="http://www.w3.org/2000/svg">
<path fill-rule="evenodd" clip-rule="evenodd" d="M10.0013 1.54199C7.81518 1.54199 6.04297 3.3142 6.04297 5.50033C6.04297 7.68645 7.81518 9.45866 10.0013 9.45866C12.1874 9.45866 13.9596 7.68645 13.9596 5.50033C13.9596 3.3142 12.1874 1.54199 10.0013 1.54199ZM7.29297 5.50033C7.29297 4.00455 8.50553 2.79199 10.0013 2.79199C11.4971 2.79199 12.7096 4.00455 12.7096 5.50033C12.7096 6.9961 11.4971 8.20866 10.0013 8.20866C8.50553 8.20866 7.29297 6.9961 7.29297 5.50033Z" fill="#768387"/>
<path fill-rule="evenodd" clip-rule="evenodd" d="M7.5013 10.7087C5.31518 10.7087 3.54297 12.4809 3.54297 14.667C3.54297 16.8531 5.31517 18.6253 7.5013 18.6253H12.5013C14.6874 18.6253 16.4596 16.8531 16.4596 14.667C16.4596 12.4809 14.6874 10.7087 12.5013 10.7087H7.5013ZM4.79297 14.667C4.79297 13.1712 6.00553 11.9587 7.5013 11.9587H12.5013C13.9971 11.9587 15.2096 13.1712 15.2096 14.667C15.2096 16.1628 13.9971 17.3753 12.5013 17.3753H7.5013C6.00553 17.3753 4.79297 16.1628 4.79297 14.667Z" fill="#768387"/>
<path fill-rule="evenodd" clip-rule="evenodd" d="M10.0013 1.54199C7.81518 1.54199 6.04297 3.3142 6.04297 5.50033C6.04297 7.68645 7.81518 9.45866 10.0013 9.45866C12.1874 9.45866 13.9596 7.68645 13.9596 5.50033C13.9596 3.3142 12.1874 1.54199 10.0013 1.54199ZM7.29297 5.50033C7.29297 4.00455 8.50553 2.79199 10.0013 2.79199C11.4971 2.79199 12.7096 4.00455 12.7096 5.50033C12.7096 6.9961 11.4971 8.20866 10.0013 8.20866C8.50553 8.20866 7.29297 6.9961 7.29297 5.50033Z" stroke="#768387"/>
<path fill-rule="evenodd" clip-rule="evenodd" d="M7.5013 10.7087C5.31518 10.7087 3.54297 12.4809 3.54297 14.667C3.54297 16.8531 5.31517 18.6253 7.5013 18.6253H12.5013C14.6874 18.6253 16.4596 16.8531 16.4596 14.667C16.4596 12.4809 14.6874 10.7087 12.5013 10.7087H7.5013ZM4.79297 14.667C4.79297 13.1712 6.00553 11.9587 7.5013 11.9587H12.5013C13.9971 11.9587 15.2096 13.1712 15.2096 14.667C15.2096 16.1628 13.9971 17.3753 12.5013 17.3753H7.5013C6.00553 17.3753 4.79297 16.1628 4.79297 14.667Z" stroke="#768387"/>
</svg>
