<svg width="100" height="105" viewBox="0 0 100 105" fill="none" xmlns="http://www.w3.org/2000/svg">
<g filter="url(#filter0_d_1640_6313)">
<path opacity="0.4" d="M37.9733 15.7812C27.6341 15.7812 19.2285 24.1868 19.2285 34.526C19.2285 44.6679 27.1605 52.8761 37.4997 53.2313C37.8154 53.1918 38.1311 53.1918 38.3679 53.2313C38.4468 53.2313 38.4863 53.2313 38.5652 53.2313C38.6047 53.2313 38.6047 53.2313 38.6441 53.2313C48.7466 52.8761 56.6786 44.6679 56.718 34.526C56.718 24.1868 48.3125 15.7812 37.9733 15.7812Z" fill="#A3A5A5"/>
<path d="M58.0104 55.841C47.0003 48.5009 29.0448 48.5009 17.9558 55.841C12.944 59.1953 10.1816 63.7335 10.1816 68.5874C10.1816 73.4413 12.944 77.9401 17.9163 81.2549C23.4411 84.9644 30.7022 86.8192 37.9634 86.8192C45.2245 86.8192 52.4856 84.9644 58.0104 81.2549C62.9827 77.9006 65.7451 73.4019 65.7451 68.5085C65.7056 63.6546 62.9827 59.1558 58.0104 55.841Z" fill="#A3A5A5"/>
<path opacity="0.4" d="M81.3288 37.3793C81.9602 45.035 76.5144 51.7437 68.977 52.6513C68.9376 52.6513 68.9376 52.6513 68.8981 52.6513H68.7797C68.5429 52.6513 68.3062 52.6513 68.1088 52.7302C64.281 52.9276 54.671 52.5459 58.1248 49.4548C62.1894 45.8243 64.5177 40.3784 64.0442 34.459C63.768 31.2626 62.663 28.3423 61.0056 25.8562C62.5052 25.1064 64.2415 24.6328 66.0173 24.475C73.752 23.8041 80.658 29.5657 81.3288 37.3793Z" fill="#A3A5A5"/>
<path d="M89.033 65.8215C88.7173 69.6494 86.2706 72.9642 82.1665 75.2136C78.2203 77.384 73.248 78.4101 68.3151 78.2917C71.1564 75.7266 72.8139 72.5301 73.1296 69.1363C73.5242 64.243 71.1959 59.5469 66.5393 55.798C63.8953 53.7064 59.6673 53.2714 57.4629 50.8257C66.1841 48.3001 77.1548 49.997 83.9029 55.4428C87.5334 58.363 89.3882 62.0331 89.033 65.8215Z" fill="#A3A5A5"/>
</g>
<defs>
<filter id="filter0_d_1640_6313" x="0.000275612" y="12.7032" width="99.2573" height="91.4018" filterUnits="userSpaceOnUse" color-interpolation-filters="sRGB">
<feFlood flood-opacity="0" result="BackgroundImageFix"/>
<feColorMatrix in="SourceAlpha" type="matrix" values="0 0 0 0 0 0 0 0 0 0 0 0 0 0 0 0 0 0 127 0" result="hardAlpha"/>
<feOffset dy="7.10328"/>
<feGaussianBlur stdDeviation="5.09068"/>
<feComposite in2="hardAlpha" operator="out"/>
<feColorMatrix type="matrix" values="0 0 0 0 0 0 0 0 0 0 0 0 0 0 0 0 0 0 0.15 0"/>
<feBlend mode="normal" in2="BackgroundImageFix" result="effect1_dropShadow_1640_6313"/>
<feBlend mode="normal" in="SourceGraphic" in2="effect1_dropShadow_1640_6313" result="shape"/>
</filter>
</defs>
</svg>
