<svg width="20" height="20" viewBox="0 0 20 20" fill="none" xmlns="http://www.w3.org/2000/svg">
<path d="M10.0007 18.9667C9.09232 18.9667 8.19233 18.7 7.484 18.175L3.90065 15.5C2.95065 14.7917 2.20898 13.3167 2.20898 12.1334V5.9417C2.20898 4.65837 3.15067 3.2917 4.359 2.8417L8.51732 1.28337C9.34232 0.975041 10.6423 0.975041 11.4673 1.28337L15.634 2.8417C16.8423 3.2917 17.784 4.65837 17.784 5.9417V12.1334C17.784 13.3167 17.0423 14.7917 16.0923 15.5L12.509 18.175C11.809 18.7 10.909 18.9667 10.0007 18.9667ZM8.95899 2.45004L4.80066 4.00836C4.084 4.27503 3.45898 5.17504 3.45898 5.9417V12.1334C3.45898 12.925 4.01733 14.0334 4.64233 14.5L8.22565 17.175C9.18399 17.8917 10.809 17.8917 11.7673 17.175L15.3507 14.5C15.984 14.025 16.534 12.9167 16.534 12.1334V5.9417C16.534 5.18337 15.909 4.28336 15.1923 4.00836L11.034 2.45004C10.484 2.2417 9.51732 2.2417 8.95899 2.45004Z" fill="#2A2D32"/>
<path d="M9.9996 9.72506C9.98293 9.72506 9.96626 9.72506 9.94126 9.72506C8.73293 9.69172 7.84961 8.76672 7.84961 7.64172C7.84961 6.49172 8.79126 5.55005 9.94126 5.55005C11.0913 5.55005 12.0329 6.49172 12.0329 7.64172C12.0246 8.77506 11.1413 9.69171 10.0163 9.73337C10.0079 9.72504 10.0079 9.72506 9.9996 9.72506ZM9.94126 6.80005C9.47459 6.80005 9.09961 7.17506 9.09961 7.64172C9.09961 8.10006 9.45794 8.46671 9.90794 8.48337C9.90794 8.48337 9.9496 8.48337 9.9996 8.48337C10.4413 8.45837 10.7829 8.09172 10.7829 7.64172C10.7913 7.17506 10.4079 6.80005 9.94126 6.80005Z" fill="#2A2D32"/>
<path d="M10 14.4583C9.28334 14.4583 8.55835 14.2667 8.00002 13.8917C7.44168 13.525 7.125 12.9834 7.125 12.4084C7.125 11.8334 7.44168 11.2917 8.00002 10.9167C9.12502 10.1667 10.8833 10.175 12 10.9167C12.5583 11.2833 12.875 11.825 12.875 12.4C12.875 12.975 12.5583 13.5167 12 13.8917C11.4417 14.2667 10.7167 14.4583 10 14.4583ZM8.69167 11.95C8.48334 12.0833 8.36667 12.25 8.375 12.4C8.375 12.55 8.49167 12.7167 8.69167 12.85C9.39167 13.3167 10.6083 13.3167 11.3083 12.85C11.5167 12.7167 11.6333 12.55 11.6333 12.4C11.6333 12.25 11.5167 12.0833 11.3167 11.95C10.6167 11.4917 9.39167 11.4917 8.69167 11.95Z" fill="#2A2D32"/>
</svg>
