<svg width="20" height="20" viewBox="0 0 20 20" fill="none" xmlns="http://www.w3.org/2000/svg">
<path d="M10.1331 9.68073C10.1081 9.68073 10.0915 9.68073 10.0665 9.68073C10.0248 9.6724 9.96647 9.6724 9.91647 9.68073C7.4998 9.60573 5.6748 7.70573 5.6748 5.36406C5.6748 2.98073 7.61647 1.03906 9.9998 1.03906C12.3831 1.03906 14.3248 2.98073 14.3248 5.36406C14.3165 7.70573 12.4831 9.60573 10.1581 9.68073C10.1498 9.68073 10.1415 9.68073 10.1331 9.68073ZM9.9998 2.28906C8.30814 2.28906 6.92481 3.6724 6.92481 5.36406C6.92481 7.03073 8.2248 8.3724 9.88314 8.43073C9.9248 8.4224 10.0415 8.4224 10.1498 8.43073C11.7831 8.35573 13.0665 7.01406 13.0748 5.36406C13.0748 3.6724 11.6915 2.28906 9.9998 2.28906Z" fill="#A9AAAA"/>
<path d="M10.1413 18.7943C8.50801 18.7943 6.86634 18.3776 5.62467 17.5443C4.46634 16.7776 3.83301 15.7276 3.83301 14.5859C3.83301 13.4443 4.46634 12.3859 5.62467 11.6109C8.12467 9.9526 12.1747 9.9526 14.658 11.6109C15.808 12.3776 16.4497 13.4276 16.4497 14.5693C16.4497 15.7109 15.8163 16.7693 14.658 17.5443C13.408 18.3776 11.7747 18.7943 10.1413 18.7943ZM6.31634 12.6609C5.51634 13.1943 5.08301 13.8776 5.08301 14.5943C5.08301 15.3026 5.52467 15.9859 6.31634 16.5109C8.39134 17.9026 11.8913 17.9026 13.9663 16.5109C14.7663 15.9776 15.1997 15.2943 15.1997 14.5776C15.1997 13.8693 14.758 13.1859 13.9663 12.6609C11.8913 11.2776 8.39134 11.2776 6.31634 12.6609Z" fill="#A9AAAA"/>
</svg>
