<svg width="34" height="35" viewBox="0 0 34 35" fill="none" xmlns="http://www.w3.org/2000/svg">
<ellipse cx="16.6733" cy="16.5637" rx="16.6636" ry="16.5623" fill="url(#paint0_linear_2_39549)"/>
<path d="M10.4151 31.9512C4.31523 29.4763 0.0244452 23.5129 0.0453843 16.5619C0.0731004 7.41497 7.55636 0.022637 16.7593 0.0500236C18.4037 0.0549438 19.9914 0.297249 21.4906 0.742817C21.3031 0.734168 21.1144 0.728026 20.9252 0.727463C12.5028 0.702664 5.65106 8.76877 5.62087 18.7445C5.60519 23.9498 7.45052 28.6461 10.4151 31.9512Z" fill="#F06475"/>
<ellipse cx="16.8512" cy="9.21461" rx="1.11101" ry="1.10426" fill="#292D32"/>
<ellipse cx="23.3161" cy="9.21461" rx="1.11101" ry="1.10426" fill="#292D32"/>
<path d="M22.1122 13.8184H18.424C18.0654 13.8184 17.7734 14.3803 17.7734 15.0803C17.7734 17.7324 18.8953 19.8915 20.2732 19.8915C21.6512 19.8915 22.773 17.7324 22.773 15.0803C22.7679 14.3902 22.4708 13.8184 22.1122 13.8184Z" fill="#292D32"/>
<defs>
<linearGradient id="paint0_linear_2_39549" x1="19.9962" y1="19.2548" x2="6.52177" y2="28.8062" gradientUnits="userSpaceOnUse">
<stop stop-color="#E3D0E4"/>
<stop offset="1" stop-color="#F2B7C8"/>
</linearGradient>
</defs>
</svg>
