<svg width="20" height="20" viewBox="0 0 20 20" fill="none" xmlns="http://www.w3.org/2000/svg">
<path d="M8.78361 18.2807C8.59194 18.2807 8.4086 18.1974 8.2836 18.0307L7.44193 16.9057C7.26693 16.6724 7.03362 16.5391 6.78362 16.5224C6.52528 16.5057 6.28359 16.6224 6.08359 16.8307C4.87526 18.1224 3.9586 18.0141 3.51694 17.8474C3.06694 17.6724 2.30859 17.0974 2.30859 15.2474V5.86407C2.30859 2.16407 3.37526 1.03906 6.86693 1.03906H13.1586C16.6503 1.03906 17.7169 2.16407 17.7169 5.86407V9.41405C17.7169 9.75572 17.4336 10.0391 17.0919 10.0391C16.7503 10.0391 16.4669 9.75572 16.4669 9.41405V5.86407C16.4669 2.85574 15.9419 2.28906 13.1586 2.28906H6.86693C4.08359 2.28906 3.55859 2.85574 3.55859 5.86407V15.2474C3.55859 16.1224 3.77526 16.6057 3.97526 16.6807C4.12526 16.7391 4.53361 16.6557 5.16695 15.9807C5.62528 15.4974 6.22527 15.2391 6.85027 15.2724C7.46694 15.3057 8.05027 15.6307 8.44194 16.1557L9.29193 17.2807C9.50026 17.5557 9.44194 17.9474 9.16694 18.1557C9.04194 18.2474 8.90861 18.2807 8.78361 18.2807Z" fill="#A9AAAA"/>
<path d="M13.3337 6.46094H6.66699C6.32533 6.46094 6.04199 6.1776 6.04199 5.83594C6.04199 5.49427 6.32533 5.21094 6.66699 5.21094H13.3337C13.6753 5.21094 13.9587 5.49427 13.9587 5.83594C13.9587 6.1776 13.6753 6.46094 13.3337 6.46094Z" fill="#A9AAAA"/>
<path d="M12.5 9.78906H7.5C7.15833 9.78906 6.875 9.50573 6.875 9.16406C6.875 8.8224 7.15833 8.53906 7.5 8.53906H12.5C12.8417 8.53906 13.125 8.8224 13.125 9.16406C13.125 9.50573 12.8417 9.78906 12.5 9.78906Z" fill="#A9AAAA"/>
<path d="M12.3503 18.1513C12.0336 18.1513 11.7336 18.0346 11.517 17.818C11.2586 17.5596 11.142 17.1846 11.2003 16.793L11.3586 15.668C11.4003 15.3763 11.5753 15.0263 11.7836 14.818L14.7336 11.868C15.1336 11.468 15.5253 11.2596 15.9503 11.218C16.467 11.168 16.9836 11.3846 17.4669 11.868C17.9503 12.3513 18.1669 12.8596 18.1169 13.3846C18.0753 13.8013 17.8586 14.2013 17.4669 14.6013L14.517 17.5513C14.3086 17.7596 13.9586 17.9346 13.6669 17.9763L12.5419 18.1347C12.4753 18.143 12.417 18.1513 12.3503 18.1513ZM16.092 12.4597C16.0836 12.4597 16.0753 12.4597 16.067 12.4597C15.9503 12.468 15.7919 12.5763 15.6169 12.7513L12.667 15.7013C12.642 15.7263 12.6003 15.8097 12.6003 15.843L12.4503 16.8847L13.492 16.7346C13.5253 16.7263 13.6086 16.6846 13.6336 16.6596L16.5836 13.7097C16.7586 13.5263 16.867 13.3763 16.8753 13.2596C16.892 13.093 16.7253 12.893 16.5836 12.7513C16.4503 12.618 16.2586 12.4597 16.092 12.4597Z" fill="#A9AAAA"/>
<path d="M16.5998 15.2078C16.5415 15.2078 16.4832 15.1995 16.4332 15.1828C15.3332 14.8745 14.4582 13.9995 14.1498 12.8995C14.0582 12.5661 14.2498 12.2244 14.5832 12.1244C14.9165 12.0328 15.2582 12.2245 15.3498 12.5578C15.5415 13.2411 16.0832 13.7828 16.7665 13.9744C17.0998 14.0661 17.2915 14.4161 17.1998 14.7495C17.1248 15.0245 16.8748 15.2078 16.5998 15.2078Z" fill="#A9AAAA"/>
</svg>
