<svg width="16" height="16" viewBox="0 0 16 16" fill="none" xmlns="http://www.w3.org/2000/svg">
<path d="M3.92078 11.542C4.00647 11.6062 4.09562 11.6658 4.18738 11.7217C4.32491 11.8053 4.46848 11.88 4.61804 11.9434C4.66786 11.9645 4.71839 11.9842 4.76941 12.0029L4.92371 12.0557C4.61089 11.9581 4.31766 11.8156 4.05164 11.6357L3.92078 11.542ZM3.7948 11.4434C3.50636 11.2052 3.25858 10.9196 3.06335 10.5986C3.17483 10.7818 3.30362 10.9534 3.44714 11.1113C3.48324 11.151 3.52053 11.1896 3.55847 11.2275C3.59608 11.2651 3.63435 11.3021 3.67371 11.3379L3.7948 11.4434ZM3.34265 6.75391C3.3087 6.79501 3.27601 6.83717 3.24402 6.87988L3.15027 7.01074C3.18025 6.96641 3.21102 6.92267 3.24304 6.87988L3.34265 6.75391ZM3.5575 6.5166L3.55847 6.51758L3.5575 6.5166ZM4.76843 5.74219H4.76941C4.56538 5.81704 4.37061 5.91103 4.18738 6.02246C4.09547 6.07839 4.00661 6.13885 3.92078 6.20312L3.7948 6.30176C4.08294 6.06383 4.41142 5.87328 4.76843 5.74219ZM5.40613 5.57715H5.4071H5.40613Z" fill="#808080" stroke="#808080"/>
<mask id="path-2-inside-1_6535_39972" fill="white">
<path d="M11.7133 7.70854C11.5866 7.70854 11.46 7.66188 11.36 7.56188C11.1666 7.36854 11.1666 7.04854 11.36 6.85521L12.7133 5.50188L11.36 4.14854C11.1666 3.95521 11.1666 3.63521 11.36 3.44188C11.5533 3.24854 11.8733 3.24854 12.0666 3.44188L13.7733 5.14854C13.9666 5.34187 13.9666 5.66187 13.7733 5.85521L12.0666 7.56188C11.9666 7.66188 11.84 7.70854 11.7133 7.70854Z"/>
</mask>
<path d="M11.7133 7.70854C11.5866 7.70854 11.46 7.66188 11.36 7.56188C11.1666 7.36854 11.1666 7.04854 11.36 6.85521L12.7133 5.50188L11.36 4.14854C11.1666 3.95521 11.1666 3.63521 11.36 3.44188C11.5533 3.24854 11.8733 3.24854 12.0666 3.44188L13.7733 5.14854C13.9666 5.34187 13.9666 5.66187 13.7733 5.85521L12.0666 7.56188C11.9666 7.66188 11.84 7.70854 11.7133 7.70854Z" fill="#808080"/>
<path d="M11.36 6.85521L12.0671 7.56232L12.0671 7.56231L11.36 6.85521ZM12.7133 5.50188L13.4204 6.20898L14.1275 5.50188L13.4204 4.79477L12.7133 5.50188ZM11.36 4.14854L12.0671 3.44144L12.0671 3.44143L11.36 4.14854ZM12.0666 3.44188L12.7737 2.73477L12.7737 2.73477L12.0666 3.44188ZM13.7733 5.14854L13.0662 5.85565V5.85565L13.7733 5.14854ZM13.7733 5.85521L13.0662 5.1481L13.0662 5.1481L13.7733 5.85521ZM12.0666 7.56188L12.7737 8.26898L12.7737 8.26898L12.0666 7.56188ZM11.7133 7.70854V6.70854C11.8375 6.70854 11.9697 6.75735 12.0671 6.85477L11.36 7.56188L10.6529 8.26898C10.9503 8.5664 11.3357 8.70854 11.7133 8.70854V7.70854ZM11.36 7.56188L12.0671 6.85477C12.2643 7.05196 12.2643 7.36512 12.0671 7.56232L11.36 6.85521L10.6529 6.1481C10.069 6.73196 10.069 7.68512 10.6529 8.26898L11.36 7.56188ZM11.36 6.85521L12.0671 7.56231L13.4204 6.20898L12.7133 5.50188L12.0062 4.79477L10.6529 6.1481L11.36 6.85521ZM12.7133 5.50188L13.4204 4.79477L12.0671 3.44144L11.36 4.14854L10.6529 4.85565L12.0062 6.20898L12.7133 5.50188ZM11.36 4.14854L12.0671 3.44143C12.2643 3.63863 12.2643 3.95179 12.0671 4.14898L11.36 3.44188L10.6529 2.73477C10.069 3.31863 10.069 4.27179 10.6529 4.85565L11.36 4.14854ZM11.36 3.44188L12.0671 4.14898C11.8699 4.34617 11.5567 4.34617 11.3595 4.14898L12.0666 3.44188L12.7737 2.73477C12.1899 2.15091 11.2367 2.15091 10.6529 2.73477L11.36 3.44188ZM12.0666 3.44188L11.3595 4.14898L13.0662 5.85565L13.7733 5.14854L14.4804 4.44143L12.7737 2.73477L12.0666 3.44188ZM13.7733 5.14854L13.0662 5.85565C12.869 5.65846 12.869 5.34529 13.0662 5.1481L13.7733 5.85521L14.4804 6.56231C15.0643 5.97846 15.0643 5.02529 14.4804 4.44143L13.7733 5.14854ZM13.7733 5.85521L13.0662 5.1481L11.3595 6.85477L12.0666 7.56188L12.7737 8.26898L14.4804 6.56231L13.7733 5.85521ZM12.0666 7.56188L11.3595 6.85477C11.4569 6.75735 11.5891 6.70854 11.7133 6.70854V7.70854V8.70854C12.0909 8.70854 12.4763 8.5664 12.7737 8.26898L12.0666 7.56188Z" fill="#808080" mask="url(#path-2-inside-1_6535_39972)"/>
</svg>
