<svg width="50" height="50" viewBox="0 0 50 50" fill="none" xmlns="http://www.w3.org/2000/svg">
<rect width="49.5112" height="50.0016" rx="11.0129" fill="#F5ECF8"/>
<path d="M17.6416 18.2048C17.6416 15.1016 20.1572 12.5859 23.2604 12.5859H23.8223C26.9255 12.5859 29.4412 15.1016 29.4412 18.2048V19.3285H17.6416V18.2048Z" fill="#967CA3"/>
<circle cx="30.4587" cy="30.9427" r="5.67952" stroke="#967CA3" stroke-width="1.57327"/>
<rect x="0.235948" y="0.235948" width="6.97714" height="1.1225" rx="0.561249" transform="matrix(-1 0.000181316 0.000181316 -1 34.1828 31.8078)" fill="#967CA3" stroke="#967CA3" stroke-width="0.471982"/>
<path d="M29.3261 21.6289C30.0268 19.8881 29.5909 16.401 28.4832 14.8863C28.4832 14.8863 27.1343 13.3361 25.9547 12.9197C25.2231 12.6615 23.9881 12.6388 23.9881 12.6388C23.9881 12.6388 22.9499 12.5199 22.3025 12.6388C21.044 12.8699 20.3978 13.4197 19.4931 14.3244C18.5883 15.2292 18.139 15.8981 17.8074 17.1339C17.4947 18.2995 17.4493 19.0717 17.8074 20.2242C18.1145 21.2127 19.2121 22.4718 19.2121 22.4718C19.2121 22.4718 20.1277 23.3941 20.3359 24.1574C20.544 24.9207 20.3759 25.2682 20.055 25.843C19.7877 26.322 19.2121 26.6859 19.2121 26.6859C19.2121 26.6859 18.2145 27.4191 17.5265 27.8097C16.5867 28.3431 15.9377 28.4 14.998 28.9334C14.998 28.9334 13.7981 29.4327 13.3123 30.0572C13.0111 30.4445 12.8878 30.7099 12.7504 31.181C12.5354 31.9182 12.5268 32.4128 12.7504 33.1476C12.9367 33.7596 13.1298 34.1113 13.5933 34.5523C14.1986 35.1282 15.56 35.676 15.56 35.676C15.56 35.676 16.5271 36.0783 17.2455 36.2379C19.7741 36.7998 24.2691 36.5189 24.2691 36.5189" stroke="#967CA3" stroke-width="1.68565"/>
<rect x="30.0886" y="22.4922" width="1.6989" height="1.71225" rx="0.849448" transform="rotate(-172.155 30.0886 22.4922)" fill="#967CA3"/>
<rect x="24.9662" y="35.6328" width="1.68695" height="1.58413" rx="0.792065" transform="rotate(86.4287 24.9662 35.6328)" fill="#967CA3"/>
</svg>
