<svg width="151" height="103" viewBox="0 0 151 103" fill="none" xmlns="http://www.w3.org/2000/svg">
<path opacity="0.4" d="M82.4651 42.2827C83.8307 42.4186 85.1377 43.5966 85.414 44.9463L85.4147 44.9456L86.5875 50.6786L86.5868 50.6793C86.6794 51.1307 86.642 51.6974 86.4832 52.2537C86.3244 52.8101 86.0574 53.3098 85.7376 53.6428L81.8523 57.7494C80.5811 59.093 78.4585 59.151 77.122 57.8866L70.6029 51.7186C69.2675 50.4552 69.2115 48.3269 70.4835 46.9824L74.4353 42.8055C74.7311 42.4929 75.1874 42.2083 75.7045 42.0154C76.2215 41.8225 76.7554 41.7372 77.1901 41.7808L77.1929 41.7807L82.4651 42.2827Z" fill="#2A2D32" stroke="black"/>
<path d="M80.058 46.5572L81.7527 48.1606C82.7129 49.0692 82.7523 50.5967 81.8412 51.5597L80.2432 53.2487C79.3283 54.2157 77.8011 54.2534 76.8388 53.3429L75.1498 51.7449C74.1882 50.8351 74.1457 49.3021 75.0555 48.3405L76.6535 46.6515C77.5685 45.6846 79.0957 45.6469 80.058 46.5572ZM75.1768 48.4553C74.3285 49.352 74.3679 50.7752 75.2645 51.6236L76.0512 52.3679L78.3359 49.9532L75.9211 47.6686L75.1768 48.4553ZM76.1725 52.4827L76.9592 53.227C77.856 54.0754 79.2799 54.0367 80.1283 53.14L80.8726 52.3533L78.4572 50.068L76.1725 52.4827ZM79.9432 46.6785C79.0465 45.8302 77.6232 45.8696 76.7749 46.7662L76.0305 47.5529L78.4453 49.8376L80.7299 47.4228L79.9432 46.6785ZM78.5666 49.9523L80.982 52.2376L81.7263 51.4509C82.5746 50.5542 82.5346 49.1303 81.6379 48.2819L80.8512 47.5376L78.5666 49.9523Z" fill="#2A2D32" stroke="black"/>
<circle cx="79.3889" cy="48.2404" r="30.6158" stroke="#E6E7E8" stroke-width="0.74922"/>
<circle cx="78.9509" cy="48.6833" r="36.3712" stroke="#E6E7E8" stroke-width="0.74922"/>
<circle cx="78.509" cy="49.1262" r="42.1266" stroke="#E6E7E8" stroke-width="0.74922"/>
<circle cx="78.5079" cy="49.129" r="48.3247" stroke="#E6E7E8" stroke-width="0.74922"/>
<circle cx="107.135" cy="83.9102" r="18.7305" fill="url(#paint0_linear_3955_38032)"/>
<path opacity="0.4" d="M98.5909 81.8358C97.4861 83.719 98.1189 86.1482 100.002 87.253C101.849 88.3367 104.192 87.769 105.361 85.9238C105.388 85.8621 105.422 85.8046 105.454 85.7657C105.463 85.7513 105.467 85.7441 105.475 85.7297C105.479 85.7226 105.479 85.7226 105.484 85.7154C106.498 83.8374 105.851 81.5155 104.008 80.4246C102.125 79.3198 99.6957 79.9527 98.5909 81.8358Z" fill="#EB0B00"/>
<path d="M109.465 83.3064C106.952 84.5275 105.033 87.7979 105.185 90.6019C105.26 91.8732 105.792 92.8613 106.676 93.3799C107.56 93.8986 108.675 93.8762 109.81 93.3247C111.076 92.7148 112.189 91.5905 112.965 90.2679C113.741 88.9454 114.179 87.4247 114.094 86.022C114.014 84.7579 113.49 83.7741 112.599 83.2512C111.71 82.7397 110.6 82.755 109.465 83.3064Z" fill="#EB0B00"/>
<path opacity="0.4" d="M107.062 76.1894C108.524 76.8925 109.164 78.6012 108.524 80.0711C108.52 80.0783 108.52 80.0783 108.516 80.0855L108.503 80.107C108.478 80.1501 108.452 80.1933 108.446 80.2376C108.072 80.9559 107.474 81.4649 106.782 81.7061C106.555 80.5779 105.812 79.5719 104.683 79.0256C104.072 78.7344 103.422 78.6236 102.792 78.6598C102.815 78.3066 102.915 77.9397 103.076 77.5994C103.78 76.1189 105.567 75.4767 107.062 76.1894Z" fill="#EB0B00"/>
<path d="M114.554 78.6543C115.217 79.1209 115.56 79.9207 115.531 80.9086C115.504 81.8593 115.16 82.8746 114.611 83.7604C114.448 82.9688 114.043 82.3253 113.458 81.9052C112.609 81.3104 111.505 81.2327 110.324 81.6803C109.661 81.9384 109.03 82.3219 108.449 82.8021C108.921 80.9438 110.402 79.1269 112.115 78.4797C113.035 78.1305 113.902 78.1848 114.554 78.6543Z" fill="#EB0B00"/>
<rect x="106.375" y="6.5625" width="37.791" height="37.791" rx="8.99063" transform="rotate(-10 106.375 6.5625)" fill="#E2E8FC"/>
<path opacity="0.4" d="M124.163 14.4515C122.01 14.8143 120.555 16.8597 120.918 19.0126C121.274 21.1245 123.213 22.5553 125.379 22.2664C125.443 22.2471 125.509 22.236 125.56 22.2359C125.576 22.2332 125.584 22.2318 125.601 22.229C125.609 22.2276 125.609 22.2276 125.617 22.2262C127.708 21.7977 129.072 19.8101 128.724 17.6968C128.361 15.5438 126.316 14.0886 124.163 14.4515Z" fill="#003BFF"/>
<path d="M130.02 23.7332C127.47 22.5912 123.731 23.2214 121.679 25.1391C120.753 26.0135 120.337 27.0554 120.508 28.0662C120.678 29.0769 121.411 29.9168 122.563 30.4325C123.844 31.011 125.421 31.1424 126.933 30.8875C128.445 30.6327 129.892 29.9916 130.912 29.0252C131.83 28.1522 132.247 27.1185 132.075 26.0995C131.897 25.0902 131.172 24.249 130.02 23.7332Z" fill="#003BFF"/>
<path opacity="0.4" d="M133.933 17.3212C134.333 18.8932 133.435 20.4813 131.897 20.9349C131.889 20.9363 131.889 20.9363 131.881 20.9377L131.856 20.9418C131.807 20.9501 131.757 20.9584 131.719 20.9818C130.929 21.1572 130.155 21.0258 129.525 20.6502C130.244 19.7515 130.538 18.5358 130.231 17.3198C130.062 16.6639 129.729 16.0946 129.297 15.6351C129.583 15.4263 129.928 15.2667 130.292 15.1715C131.879 14.7604 133.519 15.7177 133.933 17.3212Z" fill="#003BFF"/>
<path d="M136.857 24.6438C136.926 25.452 136.533 26.2281 135.757 26.8405C135.012 27.431 134.012 27.8192 132.981 27.9677C133.482 27.3338 133.715 26.61 133.662 25.8923C133.572 24.8594 132.923 23.9633 131.822 23.3461C131.198 23.0034 130.498 22.7663 129.757 22.6293C131.484 21.7972 133.828 21.7655 135.425 22.6627C136.283 23.1433 136.798 23.8425 136.857 24.6438Z" fill="#003BFF"/>
<rect x="26.4902" y="8.98438" width="37.461" height="37.461" rx="8.99063" transform="rotate(45 26.4902 8.98438)" fill="#F2E4F8"/>
<path opacity="0.4" d="M31.4394 27.2643C29.9334 25.6835 27.4239 25.6228 25.8432 27.1289C24.2926 28.6062 24.1931 31.0146 25.6448 32.647C25.6969 32.6896 25.7428 32.7378 25.7713 32.7798C25.7828 32.7918 25.7885 32.7979 25.8 32.8099C25.8058 32.816 25.8058 32.816 25.8115 32.822C27.3374 34.3148 29.7478 34.3318 31.3041 32.8606C32.8848 31.3545 32.9455 28.845 31.4394 27.2643Z" fill="#B200FF"/>
<path d="M27.0296 37.3174C26.548 34.5649 23.9326 31.8198 21.1951 31.1936C19.9522 30.916 18.856 31.1547 18.1139 31.8617C17.3718 32.5688 17.0864 33.6464 17.3039 34.8895C17.5415 36.2745 18.3156 37.6548 19.3733 38.7649C20.431 39.8751 21.7723 40.715 23.1442 41.0193C24.3813 41.2909 25.4715 41.058 26.2196 40.3452C26.956 39.6321 27.2471 38.5605 27.0296 37.3174Z" fill="#B200FF"/>
<path opacity="0.4" d="M34.5357 36.9663C33.4572 38.178 31.6383 38.3226 30.4016 37.3025C30.3959 37.2964 30.3959 37.2964 30.3901 37.2904L30.3729 37.2723C30.3384 37.2361 30.3039 37.1999 30.2631 37.1812C29.6753 36.6247 29.3507 35.9096 29.3095 35.1777C30.4566 35.2703 31.6284 34.833 32.4644 33.8983C32.9129 33.3905 33.1984 32.7962 33.3371 32.1806C33.6701 32.3007 33.9955 32.4971 34.2783 32.7457C35.5075 33.8305 35.6326 35.7256 34.5357 36.9663Z" fill="#B200FF"/>
<path d="M30.1035 43.4905C29.4722 43.9998 28.609 44.1086 27.6673 43.8088C26.7607 43.5216 25.8795 42.9108 25.1791 42.1394C25.9851 42.2002 26.7152 41.988 27.2801 41.5419C28.0857 40.8894 28.4645 39.8494 28.3594 38.5914C28.294 37.8825 28.099 37.1705 27.7975 36.4794C29.454 37.4449 30.7926 39.3693 30.9429 41.1943C31.0253 42.1748 30.7344 42.9929 30.1035 43.4905Z" fill="#B200FF"/>
<defs>
<linearGradient id="paint0_linear_3955_38032" x1="107.135" y1="65.1797" x2="107.135" y2="102.641" gradientUnits="userSpaceOnUse">
<stop stop-color="#F8E7E1"/>
<stop offset="1" stop-color="#FBDFEB"/>
</linearGradient>
</defs>
</svg>
