<svg width="26" height="26" viewBox="0 0 26 26" fill="none" xmlns="http://www.w3.org/2000/svg">
<rect width="25.5064" height="25.5064" rx="9.00225" fill="#FAE1E9"/>
<path d="M6.28809 11.5566C6.03184 11.5566 5.81934 11.3441 5.81934 11.0879V9.52539C5.81934 7.71289 7.29434 6.24414 9.10059 6.24414H10.6631C10.9193 6.24414 11.1318 6.45664 11.1318 6.71289C11.1318 6.96914 10.9193 7.18164 10.6631 7.18164H9.10059C7.80684 7.18164 6.75684 8.23164 6.75684 9.52539V11.0879C6.75684 11.3441 6.54434 11.5566 6.28809 11.5566Z" fill="#F31A7C" stroke="#F31A7C" stroke-width="0.180045"/>
<path d="M18.7891 11.5566C18.5328 11.5566 18.3203 11.3441 18.3203 11.0879V9.52539C18.3203 8.23164 17.2703 7.18164 15.9766 7.18164H14.4141C14.1578 7.18164 13.9453 6.96914 13.9453 6.71289C13.9453 6.45664 14.1578 6.24414 14.4141 6.24414H15.9766C17.7828 6.24414 19.2578 7.71289 19.2578 9.52539V11.0879C19.2578 11.3441 19.0453 11.5566 18.7891 11.5566Z" fill="#F31A7C" stroke="#F31A7C" stroke-width="0.180045"/>
<path d="M15.9775 19.6816H15.04C14.7838 19.6816 14.5713 19.4691 14.5713 19.2129C14.5713 18.9566 14.7838 18.7441 15.04 18.7441H15.9775C17.2713 18.7441 18.3213 17.6941 18.3213 16.4004V15.4629C18.3213 15.2066 18.5338 14.9941 18.79 14.9941C19.0463 14.9941 19.2588 15.2066 19.2588 15.4629V16.4004C19.2588 18.2129 17.7838 19.6816 15.9775 19.6816Z" fill="#F31A7C" stroke="#F31A7C" stroke-width="0.180045"/>
<path d="M10.6631 19.6816H9.10059C7.29434 19.6816 5.81934 18.2129 5.81934 16.4004V14.8379C5.81934 14.5816 6.03184 14.3691 6.28809 14.3691C6.54434 14.3691 6.75684 14.5816 6.75684 14.8379V16.4004C6.75684 17.6941 7.80684 18.7441 9.10059 18.7441H10.6631C10.9193 18.7441 11.1318 18.9566 11.1318 19.2129C11.1318 19.4691 10.9193 19.6816 10.6631 19.6816Z" fill="#F31A7C" stroke="#F31A7C" stroke-width="0.180045"/>
<path d="M13.7876 16.8691H11.2876C9.7751 16.8691 8.94385 16.0379 8.94385 14.5254V11.4004C8.94385 9.88789 9.7751 9.05664 11.2876 9.05664H13.7876C15.3001 9.05664 16.1313 9.88789 16.1313 11.4004V14.5254C16.1313 16.0379 15.3001 16.8691 13.7876 16.8691ZM11.2876 9.99414C10.3001 9.99414 9.88135 10.4129 9.88135 11.4004V14.5254C9.88135 15.5129 10.3001 15.9316 11.2876 15.9316H13.7876C14.7751 15.9316 15.1938 15.5129 15.1938 14.5254V11.4004C15.1938 10.4129 14.7751 9.99414 13.7876 9.99414H11.2876Z" fill="#F31A7C" stroke="#F31A7C" stroke-width="0.180045"/>
<path d="M16.9131 13.4336H8.16309C7.90684 13.4336 7.69434 13.2211 7.69434 12.9648C7.69434 12.7086 7.90684 12.4961 8.16309 12.4961H16.9131C17.1693 12.4961 17.3818 12.7086 17.3818 12.9648C17.3818 13.2211 17.1693 13.4336 16.9131 13.4336Z" fill="#F31A7C" stroke="#F31A7C" stroke-width="0.180045"/>
</svg>
