<svg width="25" height="25" viewBox="0 0 25 25" fill="none" xmlns="http://www.w3.org/2000/svg">
<path d="M11.3749 3.07422C15.9569 3.07422 19.6756 6.79292 19.6756 11.3749C19.6756 15.9569 15.9569 19.6756 11.3749 19.6756C6.79292 19.6756 3.07422 15.9569 3.07422 11.3749C3.07422 6.79292 6.79292 3.07422 11.3749 3.07422ZM11.3749 17.831C14.9414 17.831 17.831 14.9414 17.831 11.3749C17.831 7.80745 14.9414 4.91881 11.3749 4.91881C7.80745 4.91881 4.91881 7.80745 4.91881 11.3749C4.91881 14.9414 7.80745 17.831 11.3749 17.831ZM19.2006 17.8965L21.8098 20.5047L20.5047 21.8098L17.8965 19.2006L19.2006 17.8965V17.8965Z" fill="#A4A4A4"/>
</svg>
