<svg width="18" height="18" viewBox="0 0 18 18" fill="none" xmlns="http://www.w3.org/2000/svg">
<path d="M15.0003 8.25005C15.0003 11.9776 11.9778 15.0002 8.25017 15.0002C4.52258 15.0002 1.5 11.9776 1.5 8.25005C1.5 4.52245 4.52258 1.49988 8.25017 1.49988" stroke="#909EA3" stroke-width="1.50004" stroke-linecap="round" stroke-linejoin="round"/>
<path d="M10.1259 4.59639C9.86341 3.77137 10.1709 2.74385 11.0409 2.46634C11.4985 2.31634 12.061 2.44384 12.3835 2.88635C12.6835 2.42884 13.2685 2.32384 13.7185 2.46634C14.5885 2.74385 14.896 3.77137 14.6335 4.59639C14.221 5.90893 12.781 6.59144 12.3835 6.59144C11.9785 6.59144 10.5534 5.92393 10.1259 4.59639Z" stroke="#909EA3" stroke-width="1.50004" stroke-linecap="round" stroke-linejoin="round"/>
<path d="M14.1963 15.5167C14.5939 16.7167 15.5014 16.8367 16.1989 15.7867C16.8364 14.8266 16.4164 14.0391 15.2614 14.0391C14.4064 14.0316 13.9263 14.6991 14.1963 15.5167Z" stroke="#909EA3" stroke-width="1.50004" stroke-linecap="round" stroke-linejoin="round"/>
</svg>
