<svg width="16" height="16" viewBox="0 0 16 16" fill="none" xmlns="http://www.w3.org/2000/svg">
<mask id="path-1-inside-1_6535_7641" fill="white">
<path d="M9.46663 8.29688H6.1333C5.85997 8.29688 5.6333 8.07021 5.6333 7.79688C5.6333 7.52354 5.85997 7.29688 6.1333 7.29688H9.46663C9.73997 7.29688 9.96663 7.52354 9.96663 7.79688C9.96663 8.07021 9.73997 8.29688 9.46663 8.29688Z"/>
</mask>
<path d="M9.46663 8.29688H6.1333C5.85997 8.29688 5.6333 8.07021 5.6333 7.79688C5.6333 7.52354 5.85997 7.29688 6.1333 7.29688H9.46663C9.73997 7.29688 9.96663 7.52354 9.96663 7.79688C9.96663 8.07021 9.73997 8.29688 9.46663 8.29688Z" fill="#808080"/>
<path d="M9.46663 8.29688V7.29688H6.1333V8.29688V9.29688H9.46663V8.29688ZM6.1333 8.29688V7.29688C6.41225 7.29688 6.6333 7.51792 6.6333 7.79688H5.6333H4.6333C4.6333 8.62249 5.30768 9.29688 6.1333 9.29688V8.29688ZM5.6333 7.79688H6.6333C6.6333 8.07583 6.41225 8.29688 6.1333 8.29688V7.29688V6.29688C5.30768 6.29688 4.6333 6.97126 4.6333 7.79688H5.6333ZM6.1333 7.29688V8.29688H9.46663V7.29688V6.29688H6.1333V7.29688ZM9.46663 7.29688V8.29688C9.18768 8.29688 8.96663 8.07583 8.96663 7.79688H9.96663H10.9666C10.9666 6.97126 10.2923 6.29688 9.46663 6.29688V7.29688ZM9.96663 7.79688H8.96663C8.96663 7.51792 9.18768 7.29688 9.46663 7.29688V8.29688V9.29688C10.2923 9.29688 10.9666 8.62249 10.9666 7.79688H9.96663Z" fill="#808080" mask="url(#path-1-inside-1_6535_7641)"/>
<mask id="path-3-inside-2_6535_7641" fill="white">
<path d="M7.80005 9.96615C7.52672 9.96615 7.30005 9.73948 7.30005 9.46615V6.13281C7.30005 5.85948 7.52672 5.63281 7.80005 5.63281C8.07338 5.63281 8.30005 5.85948 8.30005 6.13281V9.46615C8.30005 9.73948 8.07338 9.96615 7.80005 9.96615Z"/>
</mask>
<path d="M7.80005 9.96615C7.52672 9.96615 7.30005 9.73948 7.30005 9.46615V6.13281C7.30005 5.85948 7.52672 5.63281 7.80005 5.63281C8.07338 5.63281 8.30005 5.85948 8.30005 6.13281V9.46615C8.30005 9.73948 8.07338 9.96615 7.80005 9.96615Z" fill="#808080"/>
<path d="M7.80005 9.96615V8.96615C8.079 8.96615 8.30005 9.18719 8.30005 9.46615H7.30005H6.30005C6.30005 10.2918 6.97443 10.9661 7.80005 10.9661V9.96615ZM7.30005 9.46615H8.30005V6.13281H7.30005H6.30005V9.46615H7.30005ZM7.30005 6.13281H8.30005C8.30005 6.41176 8.079 6.63281 7.80005 6.63281V5.63281V4.63281C6.97443 4.63281 6.30005 5.30719 6.30005 6.13281H7.30005ZM7.80005 5.63281V6.63281C7.5211 6.63281 7.30005 6.41176 7.30005 6.13281H8.30005H9.30005C9.30005 5.30719 8.62567 4.63281 7.80005 4.63281V5.63281ZM8.30005 6.13281H7.30005V9.46615H8.30005H9.30005V6.13281H8.30005ZM8.30005 9.46615H7.30005C7.30005 9.18719 7.5211 8.96615 7.80005 8.96615V9.96615V10.9661C8.62567 10.9661 9.30005 10.2918 9.30005 9.46615H8.30005Z" fill="#808080" mask="url(#path-3-inside-2_6535_7641)"/>
<path d="M1.50916 6.19336C1.48518 6.2934 1.46385 6.39429 1.4447 6.49609C1.46388 6.3943 1.48515 6.29339 1.50916 6.19336ZM5.56091 1.69727C5.51746 1.71263 5.47404 1.72786 5.43103 1.74414C5.47403 1.72785 5.51747 1.71264 5.56091 1.69727Z" fill="#2A2D32" stroke="#808080"/>
<path d="M14.6666 15.1676C14.54 15.1676 14.4133 15.1209 14.3133 15.0209L12.98 13.6876C12.7866 13.4943 12.7866 13.1743 12.98 12.9809C13.1733 12.7876 13.4933 12.7876 13.6866 12.9809L15.02 14.3143C15.2133 14.5076 15.2133 14.8276 15.02 15.0209C14.92 15.1209 14.7933 15.1676 14.6666 15.1676Z" fill="#2A2D32"/>
</svg>
