<svg width="16" height="16" viewBox="0 0 16 16" fill="none" xmlns="http://www.w3.org/2000/svg">
<mask id="path-1-inside-1_6535_39977" fill="white">
<path d="M9.33333 8.29688H6C5.72667 8.29688 5.5 8.07021 5.5 7.79688C5.5 7.52354 5.72667 7.29688 6 7.29688H9.33333C9.60667 7.29688 9.83333 7.52354 9.83333 7.79688C9.83333 8.07021 9.60667 8.29688 9.33333 8.29688Z"/>
</mask>
<path d="M9.33333 8.29688H6C5.72667 8.29688 5.5 8.07021 5.5 7.79688C5.5 7.52354 5.72667 7.29688 6 7.29688H9.33333C9.60667 7.29688 9.83333 7.52354 9.83333 7.79688C9.83333 8.07021 9.60667 8.29688 9.33333 8.29688Z" fill="#808080"/>
<path d="M9.33333 8.29688V7.29688H6V8.29688V9.29688H9.33333V8.29688ZM6 8.29688V7.29688C6.27895 7.29688 6.5 7.51792 6.5 7.79688H5.5H4.5C4.5 8.62249 5.17438 9.29688 6 9.29688V8.29688ZM5.5 7.79688H6.5C6.5 8.07583 6.27895 8.29688 6 8.29688V7.29688V6.29688C5.17438 6.29688 4.5 6.97126 4.5 7.79688H5.5ZM6 7.29688V8.29688H9.33333V7.29688V6.29688H6V7.29688ZM9.33333 7.29688V8.29688C9.05438 8.29688 8.83333 8.07583 8.83333 7.79688H9.83333H10.8333C10.8333 6.97126 10.159 6.29688 9.33333 6.29688V7.29688ZM9.83333 7.79688H8.83333C8.83333 7.51792 9.05438 7.29688 9.33333 7.29688V8.29688V9.29688C10.159 9.29688 10.8333 8.62249 10.8333 7.79688H9.83333Z" fill="#808080" mask="url(#path-1-inside-1_6535_39977)"/>
<path d="M1.50916 6.19336C1.48518 6.2934 1.46385 6.39429 1.4447 6.49609C1.46388 6.3943 1.48515 6.29339 1.50916 6.19336ZM5.56091 1.69727C5.51746 1.71263 5.47404 1.72786 5.43103 1.74414C5.47403 1.72785 5.51747 1.71264 5.56091 1.69727Z" fill="#808080" stroke="#808080"/>
<mask id="path-4-inside-2_6535_39977" fill="white">
<path d="M14.6666 15.1676C14.54 15.1676 14.4133 15.1209 14.3133 15.0209L12.98 13.6876C12.7866 13.4943 12.7866 13.1743 12.98 12.9809C13.1733 12.7876 13.4933 12.7876 13.6866 12.9809L15.02 14.3143C15.2133 14.5076 15.2133 14.8276 15.02 15.0209C14.92 15.1209 14.7933 15.1676 14.6666 15.1676Z"/>
</mask>
<path d="M14.6666 15.1676C14.54 15.1676 14.4133 15.1209 14.3133 15.0209L12.98 13.6876C12.7866 13.4943 12.7866 13.1743 12.98 12.9809C13.1733 12.7876 13.4933 12.7876 13.6866 12.9809L15.02 14.3143C15.2133 14.5076 15.2133 14.8276 15.02 15.0209C14.92 15.1209 14.7933 15.1676 14.6666 15.1676Z" fill="#2A2D32"/>
<path d="M14.3133 15.0209L13.6062 15.728L14.3133 15.0209ZM12.98 13.6876L13.6871 12.9805L12.98 13.6876ZM13.6866 12.9809L12.9795 13.688L13.6866 12.9809ZM15.02 14.3143L15.7271 13.6072L15.02 14.3143ZM14.6666 15.1676V14.1676C14.7909 14.1676 14.923 14.2164 15.0204 14.3138L14.3133 15.0209L13.6062 15.728C13.9036 16.0255 14.2891 16.1676 14.6666 16.1676V15.1676ZM14.3133 15.0209L15.0204 14.3138L13.6871 12.9805L12.98 13.6876L12.2729 14.3947L13.6062 15.728L14.3133 15.0209ZM12.98 13.6876L13.6871 12.9805C13.8843 13.1777 13.8843 13.4909 13.6871 13.688L12.98 12.9809L12.2729 12.2738C11.689 12.8577 11.689 13.8109 12.2729 14.3947L12.98 13.6876ZM12.98 12.9809L13.6871 13.688C13.4899 13.8852 13.1767 13.8852 12.9795 13.688L13.6866 12.9809L14.3937 12.2738C13.8099 11.69 12.8567 11.69 12.2729 12.2738L12.98 12.9809ZM13.6866 12.9809L12.9795 13.688L14.3129 15.0214L15.02 14.3143L15.7271 13.6072L14.3937 12.2738L13.6866 12.9809ZM15.02 14.3143L14.3129 15.0214C14.1157 14.8242 14.1157 14.511 14.3129 14.3138L15.02 15.0209L15.7271 15.728C16.3109 15.1442 16.3109 14.191 15.7271 13.6072L15.02 14.3143ZM15.02 15.0209L14.3129 14.3138C14.4103 14.2164 14.5424 14.1676 14.6666 14.1676V15.1676V16.1676C15.0442 16.1676 15.4296 16.0255 15.7271 15.728L15.02 15.0209Z" fill="#808080" mask="url(#path-4-inside-2_6535_39977)"/>
</svg>
