<svg width="20" height="20" viewBox="0 0 20 20" fill="none" xmlns="http://www.w3.org/2000/svg">
<path d="M1.01695 8.09478C1.23041 6.84583 2.17341 5.91716 3.4333 5.73685L12.4415 4.43206L12.6393 4.41025C13.6258 4.33391 14.5841 4.77273 15.1725 5.58264C15.7609 6.39257 15.8822 7.43957 15.5047 8.35421L15.4229 8.53561L11.3979 16.6975C11.1823 17.141 10.8767 17.4986 10.5062 17.7679C9.91693 18.196 9.17954 18.3807 8.40904 18.2691C7.15403 18.0859 6.20769 17.1546 6.00012 15.9055L5.5866 13.4224C5.51647 13.0005 5.27066 12.6198 4.91607 12.3765L4.75773 12.2815L2.52048 11.1162C1.39667 10.5328 0.803348 9.34497 1.01695 8.09478ZM2.90664 7.29642C2.5504 7.55524 2.35783 7.94811 2.295 8.31538L2.29421 8.31595C2.19796 8.86562 2.37414 9.58624 3.1191 9.97632L5.35313 11.1356L5.3537 11.1364C6.15071 11.5539 6.70974 12.3232 6.86047 13.2103L6.86105 13.211L7.2732 15.694L7.27378 15.6947C7.40922 16.5263 8.0439 16.9131 8.59741 16.9916C9.15276 17.0702 9.86877 16.8871 10.2417 16.1313L14.2661 7.96857L14.3508 7.76456C14.5136 7.28355 14.4361 6.76707 14.1313 6.34758C13.8265 5.9281 13.3593 5.69479 12.8515 5.70093L12.6313 5.71849L3.61514 7.01222L3.61456 7.01143C3.32554 7.05381 3.0932 7.16088 2.90664 7.29642Z" fill="white" stroke="white" stroke-width="0.25"/>
<rect x="9.82066" y="10.3339" width="4.5324" height="1.3206" rx="0.6603" transform="rotate(144 9.82066 10.3339)" fill="white" stroke="white" stroke-width="0.25"/>
</svg>
