<svg width="20" height="20" viewBox="0 0 20 20" fill="none" xmlns="http://www.w3.org/2000/svg">
<path d="M11.8501 18.0225C10.8667 18.0225 9.47507 17.3308 8.37506 14.0225L7.77506 12.2225L5.97506 11.6225C2.67507 10.5225 1.9834 9.13083 1.9834 8.1475C1.9834 7.1725 2.67507 5.7725 5.97506 4.66416L13.0501 2.30583C14.8167 1.71416 16.2917 1.88916 17.2001 2.78916C18.1084 3.68916 18.2834 5.1725 17.6917 6.93916L15.3334 14.0142C14.2251 17.3308 12.8334 18.0225 11.8501 18.0225ZM6.36673 5.85583C4.05006 6.63083 3.22506 7.5475 3.22506 8.1475C3.22506 8.7475 4.05006 9.66416 6.36673 10.4308L8.46673 11.1308C8.65006 11.1892 8.80007 11.3392 8.8584 11.5225L9.5584 13.6225C10.3251 15.9392 11.2501 16.7642 11.8501 16.7642C12.4501 16.7642 13.3667 15.9392 14.1417 13.6225L16.5001 6.5475C16.9251 5.26416 16.8501 4.21416 16.3084 3.6725C15.7667 3.13083 14.7167 3.06416 13.4417 3.48916L6.36673 5.85583Z" fill="#A9AAAA"/>
<path d="M8.42467 11.9974C8.26634 11.9974 8.10801 11.9391 7.98301 11.8141C7.74134 11.5724 7.74134 11.1724 7.98301 10.9307L10.9663 7.93906C11.208 7.6974 11.608 7.6974 11.8497 7.93906C12.0913 8.18073 12.0913 8.58073 11.8497 8.8224L8.86634 11.8141C8.74967 11.9391 8.58301 11.9974 8.42467 11.9974Z" fill="#A9AAAA"/>
</svg>
