<svg width="15" height="14" viewBox="0 0 15 14" fill="none" xmlns="http://www.w3.org/2000/svg">
<path d="M1.62368 6.71409C1.65122 5.76571 2.24404 4.97614 3.1426 4.71129L9.26546 2.89275C10.0172 2.66753 10.8258 2.88614 11.3707 3.46157C11.8815 4.0011 12.0766 4.76572 11.8955 5.48399L11.8547 5.62694L9.85877 11.8034L9.85741 11.8034C9.746 12.1539 9.56088 12.4517 9.31878 12.6901C8.93269 13.0703 8.41341 13.284 7.84295 13.2815C6.91146 13.2765 6.12628 12.6826 5.84771 11.7781L5.31964 10.0617C5.23793 9.79671 5.04799 9.57305 4.80172 9.44809L4.69312 9.40156L3.02681 8.79926C2.15034 8.48371 1.59619 7.66336 1.62368 6.71409ZM3.02375 6.03559C2.84894 6.20773 2.75974 6.4363 2.73529 6.65538L2.72819 6.7487C2.71606 7.11412 2.8919 7.56024 3.39809 7.74436L3.3974 7.74505L5.06037 8.34241L5.06104 8.34312C5.6058 8.54139 6.04586 8.95842 6.28154 9.48995L6.36976 9.72511L6.89783 11.4414L6.89851 11.4422C7.05779 11.9656 7.4902 12.1571 7.85026 12.1575C8.21285 12.1579 8.64535 11.9753 8.81376 11.4554L10.8104 5.27816L10.8456 5.13931C10.9061 4.81407 10.8117 4.48873 10.5815 4.24557C10.3185 3.96779 9.94411 3.86686 9.57753 3.97631L9.57684 3.97699L3.44727 5.78844C3.26666 5.84236 3.12922 5.93176 3.02375 6.03559Z" fill="#513BE2" stroke="#513BE2" stroke-width="0.375094"/>
<rect x="9.81988" y="6.30834" width="3.37584" height="1.12528" rx="0.562641" transform="rotate(136 9.81988 6.30834)" fill="#513BE2" stroke="#513BE2" stroke-width="0.375094"/>
</svg>
