<svg width="20" height="20" viewBox="0 0 20 20" fill="none" xmlns="http://www.w3.org/2000/svg">
<path d="M15.834 18.9583C15.4923 18.9583 15.209 18.675 15.209 18.3333V9.16667C15.209 8.82501 15.4923 8.54167 15.834 8.54167C16.1757 8.54167 16.459 8.82501 16.459 9.16667V18.3333C16.459 18.675 16.1757 18.9583 15.834 18.9583Z" fill="#808080"/>
<path d="M15.834 6.45834C15.4923 6.45834 15.209 6.175 15.209 5.83334V1.66667C15.209 1.32501 15.4923 1.04167 15.834 1.04167C16.1757 1.04167 16.459 1.32501 16.459 1.66667V5.83334C16.459 6.175 16.1757 6.45834 15.834 6.45834Z" fill="#808080"/>
<path d="M10 18.9583C9.65833 18.9583 9.375 18.675 9.375 18.3333V14.1667C9.375 13.825 9.65833 13.5417 10 13.5417C10.3417 13.5417 10.625 13.825 10.625 14.1667V18.3333C10.625 18.675 10.3417 18.9583 10 18.9583Z" fill="#808080"/>
<path d="M10 11.4583C9.65833 11.4583 9.375 11.175 9.375 10.8333V1.66667C9.375 1.32501 9.65833 1.04167 10 1.04167C10.3417 1.04167 10.625 1.32501 10.625 1.66667V10.8333C10.625 11.175 10.3417 11.4583 10 11.4583Z" fill="#808080"/>
<path d="M4.16602 18.9583C3.82435 18.9583 3.54102 18.675 3.54102 18.3333V9.16667C3.54102 8.82501 3.82435 8.54167 4.16602 8.54167C4.50768 8.54167 4.79102 8.82501 4.79102 9.16667V18.3333C4.79102 18.675 4.50768 18.9583 4.16602 18.9583Z" fill="#808080"/>
<path d="M4.16602 6.45834C3.82435 6.45834 3.54102 6.175 3.54102 5.83334V1.66667C3.54102 1.32501 3.82435 1.04167 4.16602 1.04167C4.50768 1.04167 4.79102 1.32501 4.79102 1.66667V5.83334C4.79102 6.175 4.50768 6.45834 4.16602 6.45834Z" fill="#808080"/>
<path d="M5.83333 9.79167H2.5C2.15833 9.79167 1.875 9.50834 1.875 9.16667C1.875 8.82501 2.15833 8.54167 2.5 8.54167H5.83333C6.175 8.54167 6.45833 8.82501 6.45833 9.16667C6.45833 9.50834 6.175 9.79167 5.83333 9.79167Z" fill="#808080"/>
<path d="M17.4993 9.79167H14.166C13.8243 9.79167 13.541 9.50834 13.541 9.16667C13.541 8.82501 13.8243 8.54167 14.166 8.54167H17.4993C17.841 8.54167 18.1243 8.82501 18.1243 9.16667C18.1243 9.50834 17.841 9.79167 17.4993 9.79167Z" fill="#808080"/>
<path d="M11.6673 11.4583H8.33398C7.99232 11.4583 7.70898 11.175 7.70898 10.8333C7.70898 10.4917 7.99232 10.2083 8.33398 10.2083H11.6673C12.009 10.2083 12.2923 10.4917 12.2923 10.8333C12.2923 11.175 12.009 11.4583 11.6673 11.4583Z" fill="#808080"/>
</svg>
