<svg width="20" height="20" viewBox="0 0 20 20" fill="none" xmlns="http://www.w3.org/2000/svg">
<path d="M10 13.125C8.275 13.125 6.875 11.725 6.875 10C6.875 8.275 8.275 6.875 10 6.875C11.725 6.875 13.125 8.275 13.125 10C13.125 11.725 11.725 13.125 10 13.125ZM10 8.125C8.96667 8.125 8.125 8.96667 8.125 10C8.125 11.0333 8.96667 11.875 10 11.875C11.0333 11.875 11.875 11.0333 11.875 10C11.875 8.96667 11.0333 8.125 10 8.125Z" fill="#A9AAAA"/>
<path d="M12.6753 18.4893C12.5003 18.4893 12.3253 18.4643 12.1503 18.4226C11.6337 18.281 11.2003 17.956 10.9253 17.4976L10.8253 17.331C10.3337 16.481 9.65866 16.481 9.16699 17.331L9.07533 17.4893C8.80033 17.956 8.36699 18.2893 7.85033 18.4226C7.32533 18.5643 6.78366 18.4893 6.32533 18.2143L4.89199 17.3893C4.38366 17.0976 4.01699 16.6226 3.85866 16.0476C3.70866 15.4726 3.78366 14.881 4.07533 14.3726C4.31699 13.9476 4.38366 13.5643 4.24199 13.3226C4.10033 13.081 3.74199 12.9393 3.25033 12.9393C2.03366 12.9393 1.04199 11.9476 1.04199 10.731V9.2643C1.04199 8.04763 2.03366 7.05597 3.25033 7.05597C3.74199 7.05597 4.10033 6.9143 4.24199 6.67264C4.38366 6.43097 4.32533 6.04764 4.07533 5.62263C3.78366 5.1143 3.70866 4.5143 3.85866 3.94763C4.00866 3.37263 4.37533 2.89763 4.89199 2.60597L6.33366 1.78097C7.27533 1.22263 8.51699 1.54763 9.08366 2.50597L9.18366 2.67263C9.67533 3.52263 10.3503 3.52263 10.842 2.67263L10.9337 2.5143C11.5003 1.54763 12.742 1.22263 13.692 1.7893L15.1253 2.6143C15.6337 2.90597 16.0003 3.38097 16.1587 3.95597C16.3087 4.53097 16.2337 5.12263 15.942 5.63097C15.7003 6.05597 15.6337 6.4393 15.7753 6.68097C15.917 6.92264 16.2753 7.0643 16.767 7.0643C17.9837 7.0643 18.9753 8.05597 18.9753 9.27263V10.7393C18.9753 11.956 17.9837 12.9476 16.767 12.9476C16.2753 12.9476 15.917 13.0893 15.7753 13.331C15.6337 13.5726 15.692 13.956 15.942 14.381C16.2337 14.8893 16.317 15.4893 16.1587 16.056C16.0087 16.631 15.642 17.106 15.1253 17.3976L13.6837 18.2226C13.367 18.3976 13.0253 18.4893 12.6753 18.4893ZM10.0003 15.406C10.742 15.406 11.4337 15.8726 11.9087 16.6976L12.0003 16.856C12.1003 17.031 12.267 17.156 12.467 17.206C12.667 17.256 12.867 17.231 13.0337 17.131L14.4753 16.2976C14.692 16.1726 14.8587 15.9643 14.9253 15.7143C14.992 15.4643 14.9587 15.206 14.8337 14.9893C14.3587 14.1726 14.3003 13.331 14.667 12.6893C15.0337 12.0476 15.792 11.681 16.742 11.681C17.2753 11.681 17.7003 11.256 17.7003 10.7226V9.25597C17.7003 8.73097 17.2753 8.29763 16.742 8.29763C15.792 8.29763 15.0337 7.93097 14.667 7.2893C14.3003 6.64763 14.3587 5.80597 14.8337 4.9893C14.9587 4.77263 14.992 4.5143 14.9253 4.2643C14.8587 4.0143 14.7003 3.8143 14.4837 3.68097L13.042 2.85597C12.6837 2.6393 12.2087 2.7643 11.992 3.13097L11.9003 3.2893C11.4253 4.1143 10.7337 4.58097 9.99199 4.58097C9.25033 4.58097 8.55866 4.1143 8.08366 3.2893L7.99199 3.12263C7.78366 2.77263 7.31699 2.64763 6.95866 2.85597L5.51699 3.6893C5.30033 3.8143 5.13366 4.02263 5.06699 4.27263C5.00033 4.52263 5.03366 4.78097 5.15866 4.99763C5.63366 5.8143 5.69199 6.65597 5.32533 7.29764C4.95866 7.9393 4.20033 8.30597 3.25033 8.30597C2.71699 8.30597 2.29199 8.73097 2.29199 9.2643V10.731C2.29199 11.256 2.71699 11.6893 3.25033 11.6893C4.20033 11.6893 4.95866 12.056 5.32533 12.6976C5.69199 13.3393 5.63366 14.181 5.15866 14.9976C5.03366 15.2143 5.00033 15.4726 5.06699 15.7226C5.13366 15.9726 5.29199 16.1726 5.50866 16.306L6.95033 17.131C7.12533 17.2393 7.33366 17.2643 7.52533 17.2143C7.72533 17.1643 7.89199 17.031 8.00033 16.856L8.09199 16.6976C8.56699 15.881 9.25866 15.406 10.0003 15.406Z" fill="#A9AAAA"/>
</svg>
