<svg width="20" height="20" viewBox="0 0 20 20" fill="none" xmlns="http://www.w3.org/2000/svg">
<path d="M9.99954 18.8557C9.44121 18.8557 8.87454 18.7307 8.43288 18.4724L3.84954 15.8307C1.98288 14.5724 1.86621 14.3807 1.86621 12.4057V7.58906C1.86621 5.61406 1.97454 5.4224 3.80788 4.18073L8.42454 1.51406C9.29954 1.00573 10.6745 1.00573 11.5495 1.51406L16.1495 4.16406C18.0162 5.4224 18.1329 5.61406 18.1329 7.58906V12.3974C18.1329 14.3724 18.0245 14.5641 16.1912 15.8057L11.5745 18.4724C11.1245 18.7307 10.5579 18.8557 9.99954 18.8557ZM9.99954 2.38906C9.64954 2.38906 9.30788 2.45573 9.06621 2.5974L4.48288 5.2474C3.12454 6.16406 3.12454 6.16406 3.12454 7.58906V12.3974C3.12454 13.8224 3.12454 13.8224 4.51621 14.7641L9.06621 17.3891C9.55788 17.6724 10.4495 17.6724 10.9412 17.3891L15.5245 14.7391C16.8745 13.8224 16.8745 13.8224 16.8745 12.3974V7.58906C16.8745 6.16406 16.8745 6.16406 15.4829 5.2224L10.9329 2.5974C10.6912 2.45573 10.3495 2.38906 9.99954 2.38906Z" fill="#A9AAAA"/>
<path d="M10 13.125C8.275 13.125 6.875 11.725 6.875 10C6.875 8.275 8.275 6.875 10 6.875C11.725 6.875 13.125 8.275 13.125 10C13.125 11.725 11.725 13.125 10 13.125ZM10 8.125C8.96667 8.125 8.125 8.96667 8.125 10C8.125 11.0333 8.96667 11.875 10 11.875C11.0333 11.875 11.875 11.0333 11.875 10C11.875 8.96667 11.0333 8.125 10 8.125Z" fill="#A9AAAA"/>
</svg>
