<svg width="20" height="20" viewBox="0 0 20 20" fill="none" xmlns="http://www.w3.org/2000/svg">
<path d="M9.7666 18.9609H6.0166C2.55827 18.9609 1.0166 17.4193 1.0166 13.9609V10.2109C1.0166 6.7526 2.55827 5.21094 6.0166 5.21094H9.7666C13.2249 5.21094 14.7666 6.7526 14.7666 10.2109V13.9609C14.7666 17.4193 13.2249 18.9609 9.7666 18.9609ZM6.0166 6.46094C3.24993 6.46094 2.2666 7.44427 2.2666 10.2109V13.9609C2.2666 16.7276 3.24993 17.7109 6.0166 17.7109H9.7666C12.5333 17.7109 13.5166 16.7276 13.5166 13.9609V10.2109C13.5166 7.44427 12.5333 6.46094 9.7666 6.46094H6.0166Z" fill="#A9AAAA"/>
<path d="M14.1413 11.4302C13.983 11.4302 13.833 11.3719 13.7163 11.2635C13.583 11.1469 13.5163 10.9802 13.5163 10.8052V10.2052C13.5163 7.43854 12.533 6.45521 9.76634 6.45521H9.16634C8.99134 6.45521 8.82468 6.38021 8.70801 6.25521C8.59134 6.12187 8.53301 5.95521 8.54968 5.78021C8.79134 3.08021 11.0163 1.04688 13.733 1.04688C16.333 1.04688 18.5497 2.98854 18.883 5.56354C18.9163 5.76354 18.9413 6.00521 18.9413 6.25521C18.9413 8.97187 16.908 11.1969 14.208 11.4385C14.183 11.4302 14.1663 11.4302 14.1413 11.4302ZM9.90801 5.20521C13.2163 5.24687 14.7247 6.74687 14.7663 10.0635C16.4663 9.61354 17.683 8.07187 17.683 6.24687C17.683 6.07187 17.6663 5.90521 17.6413 5.74687C17.383 3.76354 15.6997 2.28854 13.7247 2.28854C11.8997 2.28854 10.3663 3.50521 9.90801 5.20521Z" fill="#A9AAAA"/>
</svg>
