<svg width="28" height="28" viewBox="0 0 28 28" fill="none" xmlns="http://www.w3.org/2000/svg">
<g clip-path="url(#clip0_1_10094)">
<mask id="mask0_1_10094" style="mask-type:luminance" maskUnits="userSpaceOnUse" x="-1" y="0" width="29" height="29">
<path d="M27.8027 0.3125H-0.197266V28.3125H27.8027V0.3125Z" fill="white"/>
</mask>
<g mask="url(#mask0_1_10094)">
<path d="M18.167 10.6702V17.9619C18.167 18.414 18.1524 18.815 18.1014 19.1723C17.8899 21.09 16.9857 21.6077 14.5212 21.6077H13.0628C10.5982 21.6077 9.69408 21.09 9.48262 19.1723C9.43158 18.815 9.41699 18.414 9.41699 17.9619V10.6702C9.41699 10.2182 9.43158 9.81712 9.48262 9.45983C9.69408 7.54212 10.5982 7.02441 13.0628 7.02441H14.5212C16.9857 7.02441 17.8899 7.54212 18.1014 9.45983C18.1524 9.81712 18.167 10.2182 18.167 10.6702Z" stroke="#646D7C" stroke-width="1.5" stroke-linecap="round" stroke-linejoin="round"/>
<path d="M9.41691 17.9625C9.41691 18.4146 9.43149 18.8156 9.48254 19.1729C9.38045 19.1802 9.28566 19.1802 9.17629 19.1802H8.92837C6.98879 19.1802 6.50024 18.6917 6.50024 16.7448V11.8885C6.50024 9.94167 6.98879 9.45312 8.92837 9.45312H9.17629C9.28566 9.45312 9.38045 9.45313 9.48254 9.46042C9.43149 9.81771 9.41691 10.2188 9.41691 10.6708V17.9625Z" stroke="#646D7C" stroke-width="1.5" stroke-linecap="round" stroke-linejoin="round"/>
<path d="M21.0836 11.8885V16.7448C21.0836 18.6917 20.5951 19.1802 18.6555 19.1802H18.4076C18.2982 19.1802 18.2034 19.1802 18.1013 19.1729C18.1524 18.8156 18.1669 18.4146 18.1669 17.9625V10.6708C18.1669 10.2188 18.1524 9.81771 18.1013 9.46042C18.2034 9.45313 18.2982 9.45312 18.4076 9.45312H18.6555C20.5951 9.45312 21.0836 9.94167 21.0836 11.8885Z" stroke="#646D7C" stroke-width="1.5" stroke-linecap="round" stroke-linejoin="round"/>
</g>
</g>
<defs>
<clipPath id="clip0_1_10094">
<rect width="28" height="28" fill="white"/>
</clipPath>
</defs>
</svg>
