<svg width="24" height="23" viewBox="0 0 24 23" fill="none" xmlns="http://www.w3.org/2000/svg">
<circle cx="12.0042" cy="11.5237" r="11.2503" fill="url(#paint0_linear_4583_61701)"/>
<path d="M11.1845 7.15625L13.1034 10.4798H9.2656L11.1845 7.15625Z" fill="#F31A7C"/>
<path d="M11.1845 7.15625L13.1034 10.4798H9.2656L11.1845 7.15625Z" fill="#F31A7C"/>
<path d="M11.1866 15.5781L9.26774 12.2545H13.1055L11.1866 15.5781Z" fill="#F31A7C"/>
<path d="M11.1866 15.5781L9.26774 12.2545H13.1055L11.1866 15.5781Z" fill="#F31A7C"/>
<path d="M6.75391 11.589L10.0775 9.67008V13.5078L6.75391 11.589Z" fill="#F31A7C"/>
<path d="M6.75391 11.589L10.0775 9.67008V13.5078L6.75391 11.589Z" fill="#F31A7C"/>
<path d="M15.6172 11.5907L12.2936 13.5096V9.67185L15.6172 11.5907Z" fill="#F31A7C"/>
<path d="M15.6172 11.5907L12.2936 13.5096V9.67185L15.6172 11.5907Z" fill="#F31A7C"/>
<rect x="9.85547" y="10.2578" width="2.65887" height="2.65887" fill="#F31A7C"/>
<rect x="9.85547" y="10.2578" width="2.65887" height="2.65887" fill="#F31A7C"/>
<path d="M15.0091 6.27344L15.5143 7.14848H14.5039L15.0091 6.27344Z" fill="#F31A7C"/>
<path d="M15.0091 6.27344L15.5143 7.14848H14.5039L15.0091 6.27344Z" fill="#F31A7C"/>
<path d="M15.0104 8.49219L14.5052 7.61715H15.5156L15.0104 8.49219Z" fill="#F31A7C"/>
<path d="M15.0104 8.49219L14.5052 7.61715H15.5156L15.0104 8.49219Z" fill="#F31A7C"/>
<path d="M13.8438 7.44008L14.7188 6.93487V7.94528L13.8438 7.44008Z" fill="#F31A7C"/>
<path d="M13.8438 7.44008L14.7188 6.93487V7.94528L13.8438 7.44008Z" fill="#F31A7C"/>
<path d="M16.1758 7.44273L15.3007 7.94794V6.93753L16.1758 7.44273Z" fill="#F31A7C"/>
<path d="M16.1758 7.44273L15.3007 7.94794V6.93753L16.1758 7.44273Z" fill="#F31A7C"/>
<rect x="14.6602" y="7.09375" width="0.699704" height="0.699704" fill="#F31A7C"/>
<rect x="14.6602" y="7.09375" width="0.699704" height="0.699704" fill="#F31A7C"/>
<path d="M15.8959 13.8047L16.4011 14.6797H15.3907L15.8959 13.8047Z" fill="#F31A7C"/>
<path d="M15.8959 13.8047L16.4011 14.6797H15.3907L15.8959 13.8047Z" fill="#F31A7C"/>
<path d="M15.8971 16.0234L15.3919 15.1484H16.4023L15.8971 16.0234Z" fill="#F31A7C"/>
<path d="M15.8971 16.0234L15.3919 15.1484H16.4023L15.8971 16.0234Z" fill="#F31A7C"/>
<path d="M14.7305 14.9713L15.6055 14.4661V15.4765L14.7305 14.9713Z" fill="#F31A7C"/>
<path d="M14.7305 14.9713L15.6055 14.4661V15.4765L14.7305 14.9713Z" fill="#F31A7C"/>
<path d="M17.0625 14.974L16.1875 15.4792V14.4688L17.0625 14.974Z" fill="#F31A7C"/>
<path d="M17.0625 14.974L16.1875 15.4792V14.4688L17.0625 14.974Z" fill="#F31A7C"/>
<rect x="15.5469" y="14.625" width="0.699704" height="0.699704" fill="#F31A7C"/>
<rect x="15.5469" y="14.625" width="0.699704" height="0.699704" fill="#F31A7C"/>
<defs>
<linearGradient id="paint0_linear_4583_61701" x1="12.0042" y1="0.273437" x2="12.0042" y2="22.774" gradientUnits="userSpaceOnUse">
<stop stop-color="#F8E7E1"/>
<stop offset="1" stop-color="#FBDFEB"/>
</linearGradient>
</defs>
</svg>
