<svg width="34" height="34" viewBox="0 0 34 34" fill="none" xmlns="http://www.w3.org/2000/svg">
<g clip-path="url(#clip0_1_10152)">
<mask id="mask0_1_10152" style="mask-type:luminance" maskUnits="userSpaceOnUse" x="0" y="0" width="34" height="34">
<path d="M34 0H0V34H34V0Z" fill="white"/>
</mask>
<g mask="url(#mask0_1_10152)">
<mask id="mask1_1_10152" style="mask-type:luminance" maskUnits="userSpaceOnUse" x="0" y="0" width="34" height="34">
<path d="M34 0H0V34H34V0Z" fill="white"/>
</mask>
<g mask="url(#mask1_1_10152)">
<path d="M0 17C0 3.0005 3.0005 0 17 0C30.9995 0 34 3.0005 34 17C34 30.9995 30.9995 34 17 34C3.0005 34 0 30.9995 0 17Z" fill="#AA5C00" fill-opacity="0.2"/>
</g>
<path d="M24.4471 10.7749C24.8721 11.7868 25.0947 12.8493 25.0947 13.9625C25.0947 14.6607 25.0037 15.3386 24.8418 15.9862H9.15727C8.99537 15.3386 8.9043 14.6607 8.9043 13.9625C8.9043 9.49992 12.5371 5.86719 16.9996 5.86719C18.1126 5.86719 19.1751 6.0898 20.1871 6.5148C19.4787 7.07135 19.0233 7.93147 19.0233 8.9029C19.0233 10.5827 20.3793 11.9386 22.059 11.9386C23.0304 11.9386 23.8906 11.4833 24.4471 10.7749Z" fill="#AA5C00"/>
<path d="M19.0239 23.792H14.9762C14.4197 23.792 13.9644 24.2473 13.9644 24.8039V25.0973C13.9644 26.767 15.3304 28.1331 17.0001 28.1331C18.6697 28.1331 20.0358 26.767 20.0358 25.0973V24.8039C20.0358 24.2473 19.5804 23.792 19.0239 23.792Z" fill="#AA5C00"/>
<path d="M9.99756 18.0107C11.394 20.4292 14.0148 22.0583 17 22.0583C19.9851 22.0583 22.6059 20.4292 24.0023 18.0107H9.99756Z" fill="#AA5C00"/>
<path d="M22.0592 9.91639C22.6182 9.91639 23.0712 9.46334 23.0712 8.90448C23.0712 8.34563 22.6182 7.89258 22.0592 7.89258C21.5004 7.89258 21.0474 8.34563 21.0474 8.90448C21.0474 9.46334 21.5004 9.91639 22.0592 9.91639Z" fill="#AA5C00"/>
</g>
</g>
<defs>
<clipPath id="clip0_1_10152">
<rect width="34" height="34" fill="white"/>
</clipPath>
</defs>
</svg>
