<svg width="20" height="20" viewBox="0 0 20 20" fill="none" xmlns="http://www.w3.org/2000/svg">
<path d="M3.35093 8.86345C3.35093 8.86345 0.222427 5.92467 0.827734 3.79816C1.36914 1.89615 2.89828 0.630254 4.86484 0.758988C6.67792 0.877675 7.6074 2.15579 8.39731 3.79816C9.25409 5.57956 9.2552 6.57544 8.39843 8.35683M8.39843 8.35683C8.39843 10.1371 9.22718 11.8488 8.39731 13.4222C7.6041 14.9261 6.55543 16.0815 4.86484 15.9548C3.32992 15.8399 2.00323 14.9581 1.83701 13.4222C1.68354 12.0041 3.85668 9.87642 3.85668 9.87642C3.85668 9.87642 4.62164 9.23877 5.36948 8.86345C6.42709 8.33266 7.21598 8.35683 8.39843 8.35683ZM8.39902 8.43982C8.39902 8.43982 9.2923 14.8245 11.4251 14.4353C12.3946 14.2583 13.0022 13.7999 13.4437 12.9157C13.9494 11.9026 14.2226 10.1465 15.4622 10.383C16.6867 10.6167 15.2288 13.5182 16.4715 13.4222C17.3052 13.3578 17.1922 12.168 17.9854 11.9026C18.5463 11.715 19.4994 11.9026 19.4994 11.9026" stroke="#A1A2A2" stroke-width="1.50004"/>
<path d="M1.33203 18.4844H19.499V19.4974H1.33203V18.4844Z" fill="#A1A2A2"/>
</svg>
