<svg width="20" height="20" viewBox="0 0 20 20" fill="none" xmlns="http://www.w3.org/2000/svg">
<path d="M14.4835 17.2938H9.0918C8.75013 17.2938 8.4668 17.0104 8.4668 16.6687C8.4668 16.3271 8.75013 16.0437 9.0918 16.0437H14.4835C17.0335 16.0437 17.6335 15.6271 17.7001 13.3604C16.6001 13.0771 15.7835 12.0771 15.7835 10.8937C15.7835 9.70208 16.6001 8.69375 17.7085 8.41042V8.19375C17.7085 5.45208 17.2251 4.96875 14.4835 4.96875H9.7918V10.0021C9.7918 10.3438 9.50846 10.6271 9.1668 10.6271C8.82513 10.6271 8.5418 10.3438 8.5418 10.0021V4.34375C8.5418 4.00208 8.82513 3.71875 9.1668 3.71875H14.4835C17.9168 3.71875 18.9585 4.76042 18.9585 8.19375V8.96042C18.9585 9.30208 18.6751 9.58542 18.3335 9.58542C17.6168 9.58542 17.0335 10.1687 17.0335 10.8937C17.0335 11.6104 17.6168 12.1937 18.3335 12.1937C18.6751 12.1937 18.9585 12.4771 18.9585 12.8187C18.9585 16.2521 17.9168 17.2938 14.4835 17.2938Z" fill="#A9AAAA"/>
<path d="M9.16703 17.2938H6.8587C5.17536 17.2938 4.3087 16.0271 3.51703 14.1271L3.3587 13.7438C3.30036 13.5938 3.30036 13.4188 3.36703 13.2688C3.4337 13.1188 3.5587 12.9938 3.7087 12.9355C4.04203 12.8021 4.30036 12.5438 4.44203 12.2188C4.5837 11.8855 4.5837 11.5188 4.44203 11.1855C4.16703 10.4855 3.37536 10.1605 2.67536 10.4355C2.51703 10.5021 2.35036 10.4938 2.19203 10.4271C2.04203 10.3605 1.91703 10.2355 1.8587 10.0855L1.71703 9.72713C0.383697 6.48547 0.96703 5.0938 4.2087 3.75213L6.4087 2.85213C6.72536 2.7188 7.09203 2.87713 7.22536 3.1938L9.75036 9.31047C9.7837 9.38547 9.80036 9.4688 9.80036 9.55213V11.6688C9.80036 12.0105 9.51703 12.2938 9.17536 12.2938C8.8337 12.2938 8.55036 12.0105 8.55036 11.6688V9.6688L6.30036 4.2438L4.6837 4.91047C2.11703 5.9688 1.8087 6.6188 2.81703 9.1188C3.97536 8.95213 5.14203 9.57713 5.60036 10.7021C5.86703 11.3438 5.86703 12.0521 5.59203 12.6938C5.4087 13.1355 5.1087 13.5105 4.72536 13.7855C5.52536 15.6688 6.1087 16.0438 6.85036 16.0438H8.5337V14.1688C8.5337 13.8271 8.81703 13.5438 9.1587 13.5438C9.50036 13.5438 9.7837 13.8271 9.7837 14.1688V16.6688C9.79203 17.0105 9.5087 17.2938 9.16703 17.2938Z" fill="#A9AAAA"/>
<path d="M6.80866 17.2891H6.66699C6.32533 17.2891 6.04199 17.0057 6.04199 16.6641C6.04199 16.3224 6.32533 16.0391 6.66699 16.0391H6.80866C7.15033 16.0391 7.43366 16.3224 7.43366 16.6641C7.43366 17.0057 7.15033 17.2891 6.80866 17.2891Z" fill="#A9AAAA"/>
</svg>
