<svg width="20" height="20" viewBox="0 0 20 20" fill="none" xmlns="http://www.w3.org/2000/svg">
<path d="M7.29199 3.33594C7.29199 2.99076 7.01217 2.71094 6.66699 2.71094C6.32181 2.71094 6.04199 2.99076 6.04199 3.33594V4.22483C6.04199 4.57 6.32181 4.84983 6.66699 4.84983C7.01217 4.84983 7.29199 4.57 7.29199 4.22483V3.33594Z" fill="#A9AAAA"/>
<path d="M7.29199 6.89149C7.29199 6.54632 7.01217 6.26649 6.66699 6.26649C6.32181 6.26649 6.04199 6.54632 6.04199 6.89149V8.66927C6.04199 9.01445 6.32181 9.29427 6.66699 9.29427C7.01217 9.29427 7.29199 9.01445 7.29199 8.66927V6.89149Z" fill="#A9AAAA"/>
<path d="M7.29199 11.3359C7.29199 10.9908 7.01217 10.7109 6.66699 10.7109C6.32181 10.7109 6.04199 10.9908 6.04199 11.3359V13.1137C6.04199 13.4589 6.32182 13.7387 6.66699 13.7387C7.01217 13.7387 7.29199 13.4589 7.29199 13.1137V11.3359Z" fill="#A9AAAA"/>
<path d="M7.29199 15.7804C7.29199 15.4352 7.01217 15.1554 6.66699 15.1554C6.32182 15.1554 6.04199 15.4352 6.04199 15.7804V16.6693C6.04199 17.0144 6.32182 17.2943 6.66699 17.2943C7.01217 17.2943 7.29199 17.0144 7.29199 16.6693V15.7804Z" fill="#A9AAAA"/>
<path fill-rule="evenodd" clip-rule="evenodd" d="M13.0819 7.92955C12.6408 6.52696 10.6932 6.52696 10.2521 7.92955C10.2153 8.04632 10.1184 8.10655 10.0295 8.10655C8.54995 8.10655 8.02963 10.0005 9.14834 10.8401C9.23292 10.9036 9.27772 11.0272 9.24004 11.147C9.02475 11.8314 9.30179 12.4744 9.7738 12.8286C10.2487 13.1851 10.9512 13.2676 11.5361 12.8286C11.6156 12.769 11.7184 12.769 11.7978 12.8286C12.3828 13.2676 13.0852 13.1851 13.5602 12.8286C14.0322 12.4744 14.3092 11.8314 14.094 11.147C14.0563 11.0272 14.1011 10.9036 14.1856 10.8401C15.3044 10.0005 14.784 8.10655 13.3045 8.10655C13.2155 8.10655 13.1187 8.04632 13.0819 7.92955ZM11.4445 8.30461C11.5187 8.0686 11.8153 8.0686 11.8895 8.30461C12.0833 8.92064 12.6475 9.35655 13.3045 9.35655C13.3685 9.35655 13.4095 9.37555 13.4401 9.39998C13.4749 9.42783 13.5081 9.47333 13.527 9.53355C13.5653 9.65518 13.5323 9.76758 13.4353 9.84038C12.9164 10.2298 12.7087 10.909 12.9015 11.522C12.944 11.6569 12.896 11.7642 12.8099 11.8289C12.7658 11.8619 12.7198 11.8763 12.6815 11.8775C12.6484 11.8785 12.6041 11.8708 12.5482 11.8289C12.0242 11.4356 11.3098 11.4356 10.7858 11.8289C10.7299 11.8708 10.6856 11.8785 10.6525 11.8775C10.6142 11.8763 10.5682 11.8619 10.5241 11.8289C10.438 11.7642 10.39 11.6569 10.4324 11.522C10.6253 10.909 10.4175 10.2298 9.89867 9.84038C9.80167 9.76758 9.76872 9.65518 9.80698 9.53355C9.82592 9.47333 9.85904 9.42783 9.8939 9.39998C9.92447 9.37555 9.96549 9.35655 10.0295 9.35655C10.6865 9.35655 11.2507 8.92064 11.4445 8.30461Z" fill="#A9AAAA"/>
<path fill-rule="evenodd" clip-rule="evenodd" d="M5.3707 2.71094C2.98002 2.71094 1.04199 4.64897 1.04199 7.03964C1.04199 7.73275 1.43948 8.36445 2.06433 8.66438L2.47047 8.85932C3.42966 9.31973 3.42966 10.6855 2.47047 11.1459L2.06433 11.3408C1.43948 11.6408 1.04199 12.2725 1.04199 12.9656C1.04199 15.3562 2.98002 17.2943 5.3707 17.2943H14.63C17.0206 17.2943 18.9587 15.3562 18.9587 12.9656C18.9587 12.2725 18.5612 11.6408 17.9363 11.3408L17.5302 11.1459C16.571 10.6855 16.571 9.31973 17.5302 8.85932L17.9363 8.66438C18.5612 8.36445 18.9587 7.73275 18.9587 7.03964C18.9587 4.64897 17.0206 2.71094 14.63 2.71094H5.3707ZM2.29199 7.03964C2.29199 5.33932 3.67037 3.96094 5.3707 3.96094H14.63C16.3303 3.96094 17.7087 5.33932 17.7087 7.03964C17.7087 7.25202 17.5869 7.44557 17.3954 7.53747L16.9893 7.73242C15.0846 8.64665 15.0846 11.3586 16.9893 12.2728L17.3954 12.4677C17.5869 12.5596 17.7087 12.7532 17.7087 12.9656C17.7087 14.6659 16.3303 16.0443 14.63 16.0443H5.3707C3.67037 16.0443 2.29199 14.6659 2.29199 12.9656C2.29199 12.7532 2.41378 12.5596 2.60524 12.4677L3.01138 12.2728C4.91602 11.3586 4.91602 8.64664 3.01138 7.73242L2.60524 7.53747C2.41378 7.44557 2.29199 7.25202 2.29199 7.03964Z" fill="#A9AAAA"/>
</svg>
