<svg width="25" height="24" viewBox="0 0 25 24" fill="none" xmlns="http://www.w3.org/2000/svg">
<path d="M19.41 14.6888C19.41 15.9788 20.47 17.0287 21.76 17.0287C21.76 20.7787 20.82 21.7188 17.07 21.7188H7.69C3.94 21.7188 3 20.7787 3 17.0287V16.5688C4.29 16.5688 5.35 15.5087 5.35 14.2188C5.35 12.9288 4.29 11.8687 3 11.8687V11.4087C3.01 7.65875 3.94 6.71875 7.69 6.71875H17.06C20.81 6.71875 21.75 7.65875 21.75 11.4087V12.3488C20.46 12.3488 19.41 13.3888 19.41 14.6888Z" stroke="#808080" stroke-width="1.5" stroke-linecap="round" stroke-linejoin="round"/>
<path d="M16.7111 6.7225H7.62109L10.5511 3.7925C12.9411 1.4025 14.1411 1.4025 16.5311 3.7925L17.1311 4.3925C16.5011 5.0225 16.3511 5.9525 16.7111 6.7225Z" stroke="#808080" stroke-width="1.5" stroke-linecap="round" stroke-linejoin="round"/>
<path d="M10.3789 6.71875L10.3789 21.7188" stroke="#808080" stroke-width="1.5" stroke-linecap="round" stroke-linejoin="round" stroke-dasharray="5 5"/>
</svg>
