<svg width="20" height="20" viewBox="0 0 20 20" fill="none" xmlns="http://www.w3.org/2000/svg">
<path d="M13.9086 18.9609H6.09193C2.61693 18.9609 1.55859 17.9026 1.55859 14.4276V14.0443C1.55859 13.7026 1.84193 13.4193 2.18359 13.4193C2.91693 13.4193 3.51693 12.8193 3.51693 12.0859C3.51693 11.3526 2.91693 10.7526 2.18359 10.7526C1.84193 10.7526 1.55859 10.4693 1.55859 10.1276V9.74427C1.55859 6.26927 2.61693 5.21094 6.09193 5.21094H13.9086C17.3836 5.21094 18.4419 6.26927 18.4419 9.74427V10.5276C18.4419 10.8693 18.1586 11.1526 17.8169 11.1526C17.0836 11.1526 16.4836 11.7526 16.4836 12.4859C16.4836 13.2193 17.0836 13.8109 17.8169 13.8109C18.1586 13.8109 18.4419 14.0943 18.4419 14.4359C18.4336 17.9026 17.3753 18.9609 13.9086 18.9609ZM2.81693 14.5943C2.83359 17.2443 3.35859 17.7109 6.10026 17.7109H13.9169C16.5169 17.7109 17.1169 17.2859 17.1919 14.9776C16.0753 14.6943 15.2419 13.6859 15.2419 12.4776C15.2419 11.2693 16.0753 10.2526 17.2003 9.96927V9.73594C17.2003 6.94427 16.7086 6.4526 13.9169 6.4526H6.09193C3.35859 6.4526 2.83359 6.9276 2.80859 9.56927C3.93359 9.8526 4.76693 10.8693 4.76693 12.0776C4.76693 13.2859 3.93359 14.3109 2.81693 14.5943Z" fill="#A9AAAA"/>
<path d="M8.33301 8.54427C7.99134 8.54427 7.70801 8.26094 7.70801 7.91927V5.83594C7.70801 5.49427 7.99134 5.21094 8.33301 5.21094C8.67467 5.21094 8.95801 5.49427 8.95801 5.83594V7.91927C8.95801 8.26094 8.67467 8.54427 8.33301 8.54427Z" fill="#A9AAAA"/>
<path d="M8.33301 14.1031C7.99134 14.1031 7.70801 13.8198 7.70801 13.4781V10.7031C7.70801 10.3615 7.99134 10.0781 8.33301 10.0781C8.67467 10.0781 8.95801 10.3615 8.95801 10.7031V13.4781C8.95801 13.8198 8.67467 14.1031 8.33301 14.1031Z" fill="#A9AAAA"/>
<path d="M8.33301 18.9583C7.99134 18.9583 7.70801 18.675 7.70801 18.3333V16.25C7.70801 15.9083 7.99134 15.625 8.33301 15.625C8.67467 15.625 8.95801 15.9083 8.95801 16.25V18.3333C8.95801 18.675 8.67467 18.9583 8.33301 18.9583Z" fill="#A9AAAA"/>
<path d="M13.6082 6.46146H6.03315C5.78315 6.46146 5.54982 6.31146 5.45815 6.07813C5.36649 5.84479 5.41649 5.56979 5.59149 5.39479L8.03315 2.95313C10.2832 0.703125 11.6582 0.703125 13.8998 2.95313L14.3998 3.45312C14.5165 3.56979 14.5832 3.72813 14.5832 3.89479C14.5832 4.06146 14.5165 4.21979 14.3998 4.33646C14.0665 4.66979 13.9748 5.16146 14.1665 5.58646C14.2582 5.77813 14.2415 6.00313 14.1248 6.18646C14.0165 6.35313 13.8165 6.46146 13.6082 6.46146ZM7.54149 5.21146H12.8165C12.7998 4.76979 12.9082 4.32813 13.1332 3.94479L13.0248 3.83646C11.2832 2.09479 10.6665 2.09479 8.92482 3.83646L7.54149 5.21146Z" fill="#A9AAAA"/>
</svg>
