<svg width="20" height="20" viewBox="0 0 20 20" fill="none" xmlns="http://www.w3.org/2000/svg">
<path d="M1.66699 7.03964C1.66699 4.99414 3.3252 3.33594 5.3707 3.33594H14.63C16.6755 3.33594 18.3337 4.99414 18.3337 7.03964C18.3337 7.49238 18.074 7.90501 17.6659 8.10092L17.2597 8.29587C15.8278 8.98319 15.8278 11.022 17.2597 11.7093L17.6659 11.9043C18.074 12.1002 18.3337 12.5128 18.3337 12.9656C18.3337 15.0111 16.6755 16.6693 14.63 16.6693H5.3707C3.3252 16.6693 1.66699 15.0111 1.66699 12.9656C1.66699 12.5128 1.92663 12.1002 2.33479 11.9043L2.74093 11.7093C4.17284 11.022 4.17284 8.98319 2.74093 8.29587L2.33479 8.10092C1.92663 7.90501 1.66699 7.49238 1.66699 7.03964Z" stroke="#A9AAAA" stroke-width="1.5"/>
<path d="M11.667 3.33594L11.667 16.6693" stroke="#A9AAAA" stroke-width="1.5" stroke-linecap="round" stroke-dasharray="2 3"/>
</svg>
