<svg width="16" height="17" viewBox="0 0 16 17" fill="none" xmlns="http://www.w3.org/2000/svg">
<path d="M5.55747 13.9386C6.96625 13.9386 8.10829 12.9338 8.10829 11.3974V0H11.1674C10.9958 2.07857 13.07 4.08643 15.3575 4.0405V6.9062C13.4012 6.9062 11.7377 6.08216 11.1587 5.62484V11.3974C11.1587 13.9386 9.15206 16.8201 5.55747 16.8201C1.96289 16.8201 0 13.9386 0 11.3974C0 7.81085 3.80997 5.73078 6.33339 6.23918V9.15806C6.20644 9.11333 5.87908 9.04718 5.60024 9.04718C4.17976 8.99501 3.00666 10.1427 3.00666 11.3974C3.00666 12.8008 4.1487 13.9386 5.55747 13.9386Z" fill="#A3A5A5"/>
</svg>
