<svg width="38" height="38" viewBox="0 0 38 38" fill="none" xmlns="http://www.w3.org/2000/svg">
<circle cx="18.7547" cy="18.7547" r="18.7547" fill="url(#paint0_linear_151_9285)"/>
<path d="M17.4027 11.4805L20.6015 17.021H14.2038L17.4027 11.4805Z" fill="#F31A7C"/>
<path d="M17.4027 11.4805L20.6015 17.021H14.2038L17.4027 11.4805Z" fill="#F31A7C"/>
<path d="M17.3961 25.5156L14.1973 19.9751H20.595L17.3961 25.5156Z" fill="#F31A7C"/>
<path d="M17.3961 25.5156L14.1973 19.9751H20.595L17.3961 25.5156Z" fill="#F31A7C"/>
<path d="M10.0098 18.8688L15.5503 15.6699V22.0676L10.0098 18.8688Z" fill="#F31A7C"/>
<path d="M10.0098 18.8688L15.5503 15.6699V22.0676L10.0098 18.8688Z" fill="#F31A7C"/>
<path d="M24.7852 18.8656L19.2446 22.0644V15.6667L24.7852 18.8656Z" fill="#F31A7C"/>
<path d="M24.7852 18.8656L19.2446 22.0644V15.6667L24.7852 18.8656Z" fill="#F31A7C"/>
<rect x="15.1738" y="16.6523" width="4.43245" height="4.43245" fill="#F31A7C"/>
<rect x="15.1738" y="16.6523" width="4.43245" height="4.43245" fill="#F31A7C"/>
<path d="M23.7733 10L24.6155 11.4587H22.9311L23.7733 10Z" fill="#F31A7C"/>
<path d="M23.7733 10L24.6155 11.4587H22.9311L23.7733 10Z" fill="#F31A7C"/>
<path d="M23.7658 13.6953L22.9236 12.2366H24.608L23.7658 13.6953Z" fill="#F31A7C"/>
<path d="M23.7658 13.6953L22.9236 12.2366H24.608L23.7658 13.6953Z" fill="#F31A7C"/>
<path d="M21.8203 11.9455L23.279 11.1033V12.7877L21.8203 11.9455Z" fill="#F31A7C"/>
<path d="M21.8203 11.9455L23.279 11.1033V12.7877L21.8203 11.9455Z" fill="#F31A7C"/>
<path d="M25.709 11.9412L24.2503 12.7834V11.099L25.709 11.9412Z" fill="#F31A7C"/>
<path d="M25.709 11.9412L24.2503 12.7834V11.099L25.709 11.9412Z" fill="#F31A7C"/>
<rect x="23.1738" y="11.3633" width="1.16644" height="1.16644" fill="#F31A7C"/>
<rect x="23.1738" y="11.3633" width="1.16644" height="1.16644" fill="#F31A7C"/>
<path d="M25.2498 22.5586L26.092 24.0173H24.4076L25.2498 22.5586Z" fill="#F31A7C"/>
<path d="M25.2498 22.5586L26.092 24.0173H24.4076L25.2498 22.5586Z" fill="#F31A7C"/>
<path d="M25.2424 26.2539L24.4002 24.7952H26.0846L25.2424 26.2539Z" fill="#F31A7C"/>
<path d="M25.2424 26.2539L24.4002 24.7952H26.0846L25.2424 26.2539Z" fill="#F31A7C"/>
<path d="M23.2969 24.5041L24.7556 23.6619V25.3463L23.2969 24.5041Z" fill="#F31A7C"/>
<path d="M23.2969 24.5041L24.7556 23.6619V25.3463L23.2969 24.5041Z" fill="#F31A7C"/>
<path d="M27.1855 24.5037L25.7268 25.3459V23.6615L27.1855 24.5037Z" fill="#F31A7C"/>
<path d="M27.1855 24.5037L25.7268 25.3459V23.6615L27.1855 24.5037Z" fill="#F31A7C"/>
<rect x="24.6504" y="23.9219" width="1.16644" height="1.16644" fill="#F31A7C"/>
<rect x="24.6504" y="23.9219" width="1.16644" height="1.16644" fill="#F31A7C"/>
<defs>
<linearGradient id="paint0_linear_151_9285" x1="18.7547" y1="0" x2="18.7547" y2="37.5094" gradientUnits="userSpaceOnUse">
<stop stop-color="#F8E7E1"/>
<stop offset="1" stop-color="#FBDFEB"/>
</linearGradient>
</defs>
</svg>
