<svg width="20" height="20" viewBox="0 0 20 20" fill="none" xmlns="http://www.w3.org/2000/svg">
<path d="M16.6671 9.79173H3.33378C3.14212 9.79173 2.96712 9.7084 2.85045 9.5584C2.73378 9.41673 2.68378 9.21673 2.72545 9.0334L3.66712 4.5334C3.97545 3.07507 4.60045 1.7334 7.07545 1.7334H12.9338C15.4088 1.7334 16.0338 3.0834 16.3421 4.5334L17.2838 9.04173C17.3254 9.22507 17.2755 9.41673 17.1588 9.56673C17.0338 9.7084 16.8588 9.79173 16.6671 9.79173ZM4.10045 8.54173H15.8921L15.1088 4.79173C14.8754 3.70007 14.6005 2.9834 12.9255 2.9834H7.07545C5.40045 2.9834 5.12545 3.70007 4.89212 4.79173L4.10045 8.54173Z" fill="#2A2D32"/>
<path d="M16.632 18.9584H15.0654C13.7154 18.9584 13.457 18.1834 13.2904 17.6751L13.1237 17.1751C12.907 16.5417 12.882 16.4584 12.132 16.4584H7.86535C7.11535 16.4584 7.06535 16.6001 6.87369 17.1751L6.70702 17.6751C6.53202 18.1917 6.28202 18.9584 4.93202 18.9584H3.36535C2.70702 18.9584 2.07369 18.6834 1.63202 18.2001C1.19869 17.7251 0.990355 17.0917 1.04869 16.4584L1.51535 11.3834C1.64035 10.0084 2.00702 8.54175 4.68202 8.54175H15.3154C17.9904 8.54175 18.3487 10.0084 18.482 11.3834L18.9487 16.4584C19.007 17.0917 18.7987 17.7251 18.3654 18.2001C17.9237 18.6834 17.2904 18.9584 16.632 18.9584ZM7.86535 15.2084H12.132C13.6487 15.2084 14.007 15.8834 14.307 16.7667L14.482 17.2834C14.6237 17.7084 14.6237 17.7167 15.0737 17.7167H16.6404C16.9487 17.7167 17.2404 17.5917 17.4487 17.3667C17.6487 17.1501 17.7404 16.8751 17.7154 16.5834L17.2487 11.5084C17.1404 10.3834 17.007 9.80008 15.332 9.80008H4.68202C2.99869 9.80008 2.86535 10.3834 2.76535 11.5084L2.29869 16.5834C2.27369 16.8751 2.36535 17.1501 2.56535 17.3667C2.76535 17.5917 3.06535 17.7167 3.37369 17.7167H4.94035C5.39035 17.7167 5.39035 17.7084 5.53202 17.2917L5.69869 16.7834C5.90702 16.1167 6.21535 15.2084 7.86535 15.2084Z" fill="#2A2D32"/>
<path d="M3.33333 7.29175H2.5C2.15833 7.29175 1.875 7.00841 1.875 6.66675C1.875 6.32508 2.15833 6.04175 2.5 6.04175H3.33333C3.675 6.04175 3.95833 6.32508 3.95833 6.66675C3.95833 7.00841 3.675 7.29175 3.33333 7.29175Z" fill="#2A2D32"/>
<path d="M17.4993 7.29175H16.666C16.3243 7.29175 16.041 7.00841 16.041 6.66675C16.041 6.32508 16.3243 6.04175 16.666 6.04175H17.4993C17.841 6.04175 18.1243 6.32508 18.1243 6.66675C18.1243 7.00841 17.841 7.29175 17.4993 7.29175Z" fill="#2A2D32"/>
<path d="M10 4.79179C9.65833 4.79179 9.375 4.50846 9.375 4.16679V2.50012C9.375 2.15846 9.65833 1.87512 10 1.87512C10.3417 1.87512 10.625 2.15846 10.625 2.50012V4.16679C10.625 4.50846 10.3417 4.79179 10 4.79179Z" fill="#2A2D32"/>
<path d="M11.25 4.79175H8.75C8.40833 4.79175 8.125 4.50841 8.125 4.16675C8.125 3.82508 8.40833 3.54175 8.75 3.54175H11.25C11.5917 3.54175 11.875 3.82508 11.875 4.16675C11.875 4.50841 11.5917 4.79175 11.25 4.79175Z" fill="#2A2D32"/>
<path d="M7.5 13.1251H5C4.65833 13.1251 4.375 12.8418 4.375 12.5001C4.375 12.1585 4.65833 11.8751 5 11.8751H7.5C7.84167 11.8751 8.125 12.1585 8.125 12.5001C8.125 12.8418 7.84167 13.1251 7.5 13.1251Z" fill="#2A2D32"/>
<path d="M15 13.1251H12.5C12.1583 13.1251 11.875 12.8418 11.875 12.5001C11.875 12.1585 12.1583 11.8751 12.5 11.8751H15C15.3417 11.8751 15.625 12.1585 15.625 12.5001C15.625 12.8418 15.3417 13.1251 15 13.1251Z" fill="#2A2D32"/>
</svg>
