<svg width="20" height="21" viewBox="0 0 20 21" fill="none" xmlns="http://www.w3.org/2000/svg">
<g clip-path="url(#clip0_4238_52523)">
<path fill-rule="evenodd" clip-rule="evenodd" d="M7.94324 0.891066C7.69917 0.646988 7.30344 0.646988 7.05936 0.891066C6.81528 1.13514 6.81528 1.53087 7.05936 1.77495L8.49242 3.20801H8.30667C7.16357 3.208 6.26737 3.208 5.54708 3.26685C4.81363 3.32678 4.20771 3.45082 3.65926 3.73027C2.75765 4.18966 2.02462 4.92269 1.56523 5.8243C1.28578 6.37275 1.16174 6.97867 1.10181 7.71212C1.04296 8.43241 1.04296 9.32861 1.04297 10.4717V10.5276C1.04296 11.6707 1.04296 12.5669 1.10181 13.2872C1.16174 14.0207 1.28578 14.6266 1.56523 15.175C2.02462 16.0767 2.75765 16.8097 3.65926 17.2691C3.93314 17.4086 4.22181 17.5096 4.53396 17.5831L3.72603 18.3911C3.48195 18.6351 3.48195 19.0309 3.72603 19.275C3.9701 19.519 4.36583 19.519 4.60991 19.275L6.11843 17.7664C6.72822 17.7913 7.45068 17.7913 8.31585 17.7913H11.6866C12.5517 17.7913 13.2744 17.7913 13.8842 17.7664L15.3927 19.275C15.6368 19.519 16.0325 19.519 16.2766 19.275C16.5207 19.0309 16.5207 18.6351 16.2766 18.3911L15.4686 17.5831C15.7808 17.5096 16.0695 17.4086 16.3433 17.2691C17.2449 16.8097 17.978 16.0767 18.4374 15.175C18.7168 14.6266 18.8409 14.0207 18.9008 13.2872C18.9596 12.5669 18.9596 11.6708 18.9596 10.5277V10.4717C18.9596 9.32862 18.9596 8.4324 18.9008 7.71212C18.8409 6.97867 18.7168 6.37275 18.4374 5.8243C17.978 4.92269 17.2449 4.18966 16.3433 3.73027C15.7949 3.45082 15.189 3.32678 14.4555 3.26685C13.7352 3.208 12.839 3.208 11.6959 3.20801H11.5102L12.9432 1.77495C13.1873 1.53087 13.1873 1.13514 12.9432 0.891066C12.6992 0.646989 12.3034 0.646989 12.0594 0.891066L10.0013 2.94912L7.94324 0.891066ZM4.22675 4.84403C4.56961 4.66933 4.99272 4.56631 5.64887 4.5127C6.31232 4.45849 7.15755 4.45801 8.33464 4.45801H11.668C12.8451 4.45801 13.6903 4.45849 14.3537 4.5127C15.0099 4.56631 15.433 4.66933 15.7759 4.84403C16.4423 5.18358 16.9841 5.72538 17.3236 6.39179C17.4983 6.73465 17.6013 7.15776 17.6549 7.81391C17.7091 8.47736 17.7096 9.32259 17.7096 10.4997C17.7096 11.6768 17.7091 12.522 17.6549 13.1854C17.6013 13.8416 17.4983 14.2647 17.3236 14.6076C16.9841 15.274 16.4423 15.8158 15.7759 16.1553C15.3887 16.3526 14.9017 16.4575 14.0958 16.5046C13.4698 16.5411 12.6941 16.5413 11.668 16.5413H8.33464C7.31002 16.5413 6.53509 16.5411 5.90953 16.5047C5.10204 16.4578 4.61441 16.3528 4.22675 16.1553C3.56034 15.8158 3.01854 15.274 2.67899 14.6076C2.50429 14.2647 2.40127 13.8416 2.34766 13.1854C2.29346 12.522 2.29297 11.6768 2.29297 10.4997C2.29297 9.32259 2.29346 8.47736 2.34766 7.81391C2.40127 7.15776 2.50429 6.73465 2.67899 6.39179C3.01854 5.72538 3.56034 5.18358 4.22675 4.84403Z" fill="#768387"/>
</g>
<defs>
<clipPath id="clip0_4238_52523">
<rect width="20" height="20" fill="white" transform="translate(0 0.5)"/>
</clipPath>
</defs>
</svg>
