<svg width="32" height="32" viewBox="0 0 32 32" fill="none" xmlns="http://www.w3.org/2000/svg">
<circle cx="15.7539" cy="15.7539" r="15.7539" fill="#E5DEFA"/>
<path d="M13.3184 6.86523C13.7342 6.86544 14.0771 7.20912 14.0771 7.625C14.0771 8.04095 13.7343 8.38456 13.3184 8.38477H11.2861C9.68677 8.38481 8.38872 9.68287 8.38867 11.2822V13.3145C8.38846 13.7304 8.04485 14.0732 7.62891 14.0732C7.21303 14.0732 6.86935 13.7303 6.86914 13.3145V11.2822C6.86919 8.84241 8.85481 6.86528 11.2861 6.86523H13.3184Z" fill="#682FFF" stroke="#682FFF" stroke-width="0.300075"/>
<path d="M20.2275 6.86523C22.6588 6.86541 24.6435 8.84249 24.6436 11.2822V13.3145C24.6433 13.7302 24.3005 14.073 23.8848 14.0732C23.4688 14.0732 23.1252 13.7304 23.125 13.3145V11.2822C23.125 9.68294 21.8268 8.38494 20.2275 8.38477H18.1953C17.7793 8.38468 17.4355 8.04102 17.4355 7.625C17.4356 7.20905 17.7794 6.86532 18.1953 6.86523H20.2275Z" fill="#682FFF" stroke="#682FFF" stroke-width="0.300075"/>
<path d="M23.8838 18.248C24.2998 18.248 24.6435 18.5918 24.6436 19.0078V20.2266C24.6436 22.6665 22.658 24.6436 20.2266 24.6436H19.0078C18.5918 24.6435 18.248 24.2998 18.248 23.8838C18.2483 23.4679 18.5919 23.1251 19.0078 23.125H20.2266C21.826 23.125 23.125 21.826 23.125 20.2266V19.0078C23.1251 18.5919 23.4679 18.2483 23.8838 18.248Z" fill="#682FFF" stroke="#682FFF" stroke-width="0.300075"/>
<path d="M7.62891 17.4355C8.04493 17.4355 8.38859 17.7793 8.38867 18.1953V20.2275C8.38884 21.8268 9.68685 23.125 11.2861 23.125H13.3184C13.7343 23.1252 14.0771 23.4688 14.0771 23.8848C14.0769 24.3005 13.7341 24.6433 13.3184 24.6436H11.2861C8.85489 24.6435 6.86931 22.6673 6.86914 20.2275V18.1953C6.86922 17.7794 7.21295 17.4356 7.62891 17.4355Z" fill="#682FFF" stroke="#682FFF" stroke-width="0.300075"/>
<path d="M17.3809 10.5215C18.3908 10.5216 19.1959 10.8003 19.748 11.3525C20.3001 11.9048 20.5781 12.7098 20.5781 13.7197V17.7832C20.5781 18.7932 20.3002 19.5982 19.748 20.1504C19.1959 20.7026 18.3908 20.9804 17.3809 20.9805H14.1299C13.1199 20.9805 12.315 20.7025 11.7627 20.1504C11.2105 19.5982 10.9317 18.7932 10.9316 17.7832V13.7197C10.9316 12.7096 11.2104 11.9048 11.7627 11.3525C12.315 10.8003 13.1198 10.5215 14.1299 10.5215H17.3809ZM14.1299 12.041C13.5048 12.041 13.0955 12.174 12.8398 12.4297C12.5842 12.6854 12.4512 13.0946 12.4512 13.7197V17.7832C12.4512 18.408 12.5844 18.8166 12.8398 19.0723C13.0955 19.3279 13.5048 19.4619 14.1299 19.4619H17.3809C18.0057 19.4619 18.4143 19.3279 18.6699 19.0723C18.9255 18.8166 19.0586 18.4081 19.0586 17.7832V13.7197C19.0586 13.0946 18.9256 12.6854 18.6699 12.4297C18.4143 12.1742 18.0056 12.0411 17.3809 12.041H14.1299Z" fill="#682FFF" stroke="#682FFF" stroke-width="0.300075"/>
<path d="M21.4443 14.998C21.8604 14.998 22.204 15.3418 22.2041 15.7578C22.2041 16.1739 21.8604 16.5176 21.4443 16.5176H10.0664C9.6504 16.5175 9.30664 16.1738 9.30664 15.7578C9.30672 15.3419 9.65045 14.9981 10.0664 14.998H21.4443Z" fill="#682FFF" stroke="#682FFF" stroke-width="0.300075"/>
</svg>
