<svg width="16" height="16" viewBox="0 0 16 16" fill="none" xmlns="http://www.w3.org/2000/svg">
<path d="M5.15205 3.69106C5.34819 3.49668 5.3496 3.1801 5.15521 2.98397C4.96082 2.78783 4.64424 2.78642 4.44811 2.98081L3.48735 3.93304C3.12989 4.2873 2.83177 4.58275 2.61921 4.84743C2.39626 5.12505 2.22668 5.41681 2.18137 5.77227C2.17162 5.84874 2.16675 5.92567 2.16675 6.0026C2.16675 6.07954 2.17162 6.15647 2.18137 6.23293C2.22668 6.5884 2.39626 6.88016 2.61921 7.15778C2.83177 7.42245 3.12989 7.71791 3.48734 8.07217L4.44811 9.0244C4.64424 9.21879 4.96082 9.21737 5.15521 9.02124C5.3496 8.82511 5.34819 8.50853 5.15205 8.31414L4.2118 7.38225C3.82854 7.00238 3.57163 6.7467 3.3989 6.53161C3.39098 6.52175 3.38333 6.51208 3.37594 6.50261H9.33345C10.8983 6.50261 12.1668 7.77113 12.1668 9.33594C12.1668 10.9007 10.8983 12.1693 9.33345 12.1693H4.00011C3.72397 12.1693 3.50011 12.3931 3.50011 12.6693C3.50011 12.9454 3.72397 13.1693 4.00011 13.1693H9.33345C11.4505 13.1693 13.1668 11.453 13.1668 9.33594C13.1668 7.21885 11.4505 5.50261 9.33345 5.50261H3.37594C3.38333 5.49313 3.39098 5.48346 3.3989 5.4736C3.57163 5.25851 3.82854 5.00282 4.2118 4.62296L5.15205 3.69106Z" fill="#808080"/>
</svg>
