<svg width="21" height="21" viewBox="0 0 21 21" fill="none" xmlns="http://www.w3.org/2000/svg">
<path d="M18.446 7.50767V13.4928C18.446 14.4728 17.921 15.3829 17.0722 15.8816L11.8746 18.883C11.0258 19.373 9.97581 19.373 9.11829 18.883L3.92066 15.8816C3.07189 15.3916 2.54688 14.4816 2.54688 13.4928V7.50767C2.54688 6.52765 3.07189 5.61759 3.92066 5.11883L9.11829 2.11751C9.96706 1.6275 11.0171 1.6275 11.8746 2.11751L17.0722 5.11883C17.921 5.61759 18.446 6.5189 18.446 7.50767Z" stroke="#A1A2A2" stroke-width="1.50004" stroke-linecap="round" stroke-linejoin="round"/>
<path opacity="0.4" d="M10.5036 9.62445C11.6296 9.62445 12.5424 8.71164 12.5424 7.58564C12.5424 6.45964 11.6296 5.54688 10.5036 5.54688C9.37765 5.54688 8.46484 6.45964 8.46484 7.58564C8.46484 8.71164 9.37765 9.62445 10.5036 9.62445Z" stroke="#A1A2A2" stroke-width="1.50004" stroke-linecap="round" stroke-linejoin="round"/>
<path opacity="0.4" d="M14.0002 14.5791C14.0002 13.004 12.4339 11.7266 10.5001 11.7266C8.56629 11.7266 7 13.004 7 14.5791" stroke="#A1A2A2" stroke-width="1.50004" stroke-linecap="round" stroke-linejoin="round"/>
</svg>
