<svg width="27" height="28" viewBox="0 0 27 28" fill="none" xmlns="http://www.w3.org/2000/svg">
<ellipse cx="13.4896" cy="13.4834" rx="13.4829" ry="13.4834" fill="url(#paint0_linear_1_10327)"/>
<path d="M8.42478 26.0172C3.49079 24.0018 0.0206969 19.1487 0.0374448 13.4911C0.0597397 6.04448 6.11383 0.025858 13.5602 0.048125C14.9022 0.0521432 16.1976 0.252489 17.4198 0.621207C17.2599 0.613406 17.0989 0.607551 16.9374 0.607068C10.1227 0.586909 4.57906 7.15394 4.55458 15.2751C4.54191 19.5077 6.03112 23.327 8.42478 26.0172Z" fill="#F06475"/>
<ellipse cx="13.6272" cy="7.49268" rx="0.898897" ry="0.898929" fill="#292D32"/>
<ellipse cx="18.8688" cy="7.49268" rx="0.898897" ry="0.898929" fill="#292D32"/>
<path d="M17.8949 11.2422H14.9109C14.6208 11.2422 14.3845 11.6997 14.3845 12.2695C14.3845 14.4285 15.2922 16.1861 16.407 16.1861C17.5219 16.1861 18.4296 14.4285 18.4296 12.2695C18.4254 11.7077 18.185 11.2422 17.8949 11.2422Z" fill="#292D32"/>
<defs>
<linearGradient id="paint0_linear_1_10327" x1="16.1782" y1="15.6742" x2="5.23109" y2="23.3867" gradientUnits="userSpaceOnUse">
<stop stop-color="#E3D0E4"/>
<stop offset="1" stop-color="#F2B7C8"/>
</linearGradient>
</defs>
</svg>
