<svg width="27" height="28" viewBox="0 0 27 28" fill="none" xmlns="http://www.w3.org/2000/svg">
<ellipse cx="13.486" cy="13.4135" rx="13.486" ry="13.4135" fill="url(#paint0_linear_1_10376)"/>
<path d="M3.91892 22.8738C1.50655 20.4421 0.0212441 17.099 0.0323401 13.413C0.0547238 6.00502 6.11098 0.0179243 13.559 0.0401043C18.6508 0.0553705 23.0739 2.87576 25.3564 7.02546C22.9204 4.56805 19.5388 3.03949 15.7951 3.02822C8.34711 3.00604 2.29084 8.99313 2.26847 16.4011C2.26141 18.7465 2.86113 20.9525 3.91892 22.8738Z" fill="#B4BEFB"/>
<ellipse cx="8.44318" cy="10.6321" rx="0.949715" ry="0.94461" fill="#292D32"/>
<ellipse cx="14.0682" cy="10.6321" rx="0.949715" ry="0.94461" fill="#292D32"/>
<path d="M13.4442 16.3945H9.0226C8.59272 16.3945 8.24268 16.6014 8.24268 16.8591C8.24268 17.8353 9.58759 18.6301 11.2396 18.6301C12.8915 18.6301 14.2364 17.8353 14.2364 16.8591C14.2303 16.605 13.8741 16.3945 13.4442 16.3945Z" fill="#292D32"/>
<defs>
<linearGradient id="paint0_linear_1_10376" x1="19.8543" y1="13.4135" x2="4.173" y2="23.9242" gradientUnits="userSpaceOnUse">
<stop stop-color="#84A2F4"/>
<stop offset="1" stop-color="#B6C1F9"/>
</linearGradient>
</defs>
</svg>
