<svg width="30" height="29" viewBox="0 0 30 29" fill="none" xmlns="http://www.w3.org/2000/svg">
<g clip-path="url(#clip0_3861_29177)">
<path d="M11.2741 14.7789C10.6858 14.7789 10.2088 15.2558 10.2088 15.8442C10.2088 16.4326 10.6858 16.9095 11.2741 16.9095V15.8442V14.7789ZM18.3764 16.9095C18.9648 16.9095 19.4418 16.4326 19.4418 15.8442C19.4418 15.2558 18.9648 14.7789 18.3764 14.7789V15.8442V16.9095ZM13.7599 19.3953C13.7599 19.9837 14.2369 20.4607 14.8253 20.4607C15.4137 20.4607 15.8906 19.9837 15.8906 19.3953H14.8253H13.7599ZM15.8906 12.2931C15.8906 11.7047 15.4137 11.2277 14.8253 11.2277C14.2369 11.2277 13.7599 11.7047 13.7599 12.2931H14.8253H15.8906ZM6.61159 25.3673L7.23778 24.5054L6.61159 25.3673ZM5.30222 24.0579L6.1641 23.4317L5.30222 24.0579ZM24.3484 24.0579L23.4865 23.4317L24.3484 24.0579ZM23.039 25.3673L22.4128 24.5054L23.039 25.3673ZM23.039 6.32113L22.4128 7.18301L23.039 6.32113ZM24.3484 7.6305L23.4865 8.25669L24.3484 7.6305ZM6.61159 6.32113L7.23778 7.18301L6.61159 6.32113ZM5.30222 7.6305L6.1641 8.25669L5.30222 7.6305ZM19.0217 1.92932L18.6925 2.94252L19.0217 1.92932ZM22.8217 5.72927L21.8085 6.05848V6.05848L22.8217 5.72927ZM10.629 1.92932L10.9582 2.94252L10.629 1.92932ZM6.82904 5.72927L7.84224 6.05848L6.82904 5.72927ZM11.2741 15.8442V16.9095H18.3764V15.8442V14.7789H11.2741V15.8442ZM14.8253 19.3953H15.8906V12.2931H14.8253H13.7599V19.3953H14.8253ZM14.8253 26.4976V25.4323C12.5823 25.4323 10.9856 25.4308 9.75213 25.2972C8.53865 25.1657 7.8038 24.9166 7.23778 24.5054L6.61159 25.3673L5.9854 26.2291C6.97517 26.9482 8.12786 27.2643 9.52263 27.4155C10.8975 27.5644 12.6297 27.5629 14.8253 27.5629V26.4976ZM4.17188 15.8442H3.10653C3.10653 18.0398 3.10507 19.772 3.25403 21.1468C3.40514 22.5416 3.72123 23.6943 4.44034 24.6841L5.30222 24.0579L6.1641 23.4317C5.75286 22.8657 5.50378 22.1308 5.37231 20.9173C5.23868 19.6839 5.23722 18.0872 5.23722 15.8442H4.17188ZM6.61159 25.3673L7.23778 24.5054C6.82577 24.206 6.46344 23.8437 6.1641 23.4317L5.30222 24.0579L4.44034 24.6841C4.8711 25.277 5.3925 25.7984 5.9854 26.2291L6.61159 25.3673ZM25.4787 15.8442H24.4134C24.4134 18.0872 24.4119 19.6839 24.2783 20.9173C24.1468 22.1308 23.8977 22.8657 23.4865 23.4317L24.3484 24.0579L25.2102 24.6841C25.9293 23.6943 26.2454 22.5416 26.3965 21.1468C26.5455 19.772 26.544 18.0398 26.544 15.8442H25.4787ZM14.8253 26.4976V27.5629C17.0209 27.5629 18.7531 27.5644 20.1279 27.4155C21.5227 27.2643 22.6754 26.9482 23.6652 26.2291L23.039 25.3673L22.4128 24.5054C21.8468 24.9166 21.1119 25.1657 19.8984 25.2972C18.665 25.4308 17.0683 25.4323 14.8253 25.4323V26.4976ZM24.3484 24.0579L23.4865 23.4317C23.1871 23.8437 22.8248 24.206 22.4128 24.5054L23.039 25.3673L23.6652 26.2291C24.2581 25.7984 24.7795 25.277 25.2102 24.6841L24.3484 24.0579ZM25.4787 15.8442H26.544C26.544 13.6486 26.5455 11.9164 26.3965 10.5415C26.2454 9.14677 25.9293 7.99408 25.2102 7.00431L24.3484 7.6305L23.4865 8.25669C23.8977 8.82271 24.1468 9.55756 24.2783 10.771C24.4119 12.0045 24.4134 13.6012 24.4134 15.8442H25.4787ZM23.039 6.32113L22.4128 7.18301C22.8248 7.48235 23.1871 7.84468 23.4865 8.25669L24.3484 7.6305L25.2102 7.00431C24.7795 6.41141 24.2581 5.89001 23.6652 5.45925L23.039 6.32113ZM4.17188 15.8442H5.23722C5.23722 13.6012 5.23868 12.0045 5.37231 10.771C5.50378 9.55756 5.75286 8.82271 6.1641 8.25669L5.30222 7.6305L4.44034 7.00431C3.72123 7.99408 3.40514 9.14677 3.25403 10.5415C3.10507 11.9164 3.10653 13.6486 3.10653 15.8442H4.17188ZM6.61159 6.32113L5.9854 5.45925C5.39251 5.89001 4.8711 6.41142 4.44034 7.00431L5.30222 7.6305L6.1641 8.25669C6.46344 7.84468 6.82577 7.48235 7.23778 7.18301L6.61159 6.32113ZM14.8253 1.63965V2.70499C17.1115 2.70499 18.0019 2.71813 18.6925 2.94252L19.0217 1.92932L19.3509 0.916124C18.2585 0.561164 16.9457 0.574308 14.8253 0.574308V1.63965ZM19.0217 1.92932L18.6925 2.94252C20.17 3.42259 21.3284 4.58098 21.8085 6.05848L22.8217 5.72927L23.8349 5.40006C23.144 3.2739 21.4771 1.60696 19.3509 0.916124L19.0217 1.92932ZM14.8253 1.63965V0.574308C12.705 0.574308 11.3922 0.561164 10.2998 0.916124L10.629 1.92932L10.9582 2.94252C11.6488 2.71813 12.5392 2.70499 14.8253 2.70499V1.63965ZM10.629 1.92932L10.2998 0.916124C8.17361 1.60696 6.50667 3.2739 5.81584 5.40006L6.82904 5.72927L7.84224 6.05848C8.32231 4.58098 9.48069 3.42259 10.9582 2.94252L10.629 1.92932ZM6.69398 6.26275L7.74058 6.46172C7.76908 6.31181 7.8028 6.17986 7.84224 6.05848L6.82904 5.72927L5.81584 5.40006C5.74588 5.61536 5.69087 5.83506 5.64739 6.06379L6.69398 6.26275ZM14.8253 5.19078V4.12544C12.6673 4.12544 10.9578 4.12411 9.59651 4.26511C8.21867 4.40781 7.07355 4.70575 6.08849 5.38621L6.69398 6.26275L7.29948 7.1393C7.86625 6.74778 8.60636 6.50974 9.81601 6.38445C11.0422 6.25746 12.6224 6.25613 14.8253 6.25613V5.19078ZM6.69398 6.26275L6.08849 5.38621C6.05385 5.41014 6.01949 5.43448 5.9854 5.45925L6.61159 6.32113L7.23778 7.18301C7.25821 7.16817 7.27877 7.1536 7.29948 7.1393L6.69398 6.26275ZM22.9567 6.26286L24.0033 6.06391C23.9598 5.83514 23.9048 5.6154 23.8349 5.40006L22.8217 5.72927L21.8085 6.05848C21.8479 6.17988 21.8816 6.31186 21.9101 6.4618L22.9567 6.26286ZM14.8253 5.19078V6.25613C17.0283 6.25613 18.6085 6.25746 19.8347 6.38446C21.0443 6.50976 21.7844 6.74783 22.3512 7.13937L22.9567 6.26286L23.5623 5.38634C22.5772 4.70581 21.4321 4.40784 20.0542 4.26512C18.6928 4.12411 16.9833 4.12544 14.8253 4.12544V5.19078ZM22.9567 6.26286L22.3512 7.13937C22.3719 7.15365 22.3924 7.16819 22.4128 7.18301L23.039 6.32113L23.6652 5.45925C23.6311 5.43453 23.5968 5.41023 23.5623 5.38634L22.9567 6.26286Z" fill="#F5FAFC"/>
</g>
<defs>
<clipPath id="clip0_3861_29177">
<rect width="28.4091" height="28.4091" fill="white" transform="translate(0.621094 0.456055)"/>
</clipPath>
</defs>
</svg>
