<svg width="23" height="23" viewBox="0 0 23 23" fill="none" xmlns="http://www.w3.org/2000/svg">
<path opacity="0.34" d="M7.99219 11.4407L10.2906 13.7486L14.8968 9.13281" stroke="#A3A5A5" stroke-width="2.36776" stroke-linecap="round" stroke-linejoin="round"/>
<path d="M10.2501 2.33607C10.9081 1.77339 11.9858 1.77339 12.6534 2.33607L14.1602 3.63307C14.4463 3.88103 14.9804 4.0813 15.3618 4.0813H16.9831C17.994 4.0813 18.8237 4.911 18.8237 5.92191V7.54316C18.8237 7.9151 19.024 8.4587 19.2719 8.7448L20.5689 10.2516C21.1316 10.9097 21.1316 11.9873 20.5689 12.6549L19.2719 14.1617C19.024 14.4478 18.8237 14.9819 18.8237 15.3633V16.9846C18.8237 17.9955 17.994 18.8252 16.9831 18.8252H15.3618C14.9899 18.8252 14.4463 19.0255 14.1602 19.2734L12.6534 20.5704C11.9953 21.1331 10.9177 21.1331 10.2501 20.5704L8.74328 19.2734C8.45717 19.0255 7.92311 18.8252 7.54164 18.8252H5.89177C4.88087 18.8252 4.05117 17.9955 4.05117 16.9846V15.3538C4.05117 14.9819 3.8509 14.4478 3.61248 14.1617L2.32501 12.6454C1.77187 11.9873 1.77187 10.9192 2.32501 10.2612L3.61248 8.7448C3.8509 8.4587 4.05117 7.92464 4.05117 7.5527V5.91237C4.05117 4.90147 4.88087 4.07177 5.89177 4.07177H7.54164C7.91358 4.07177 8.45717 3.87149 8.74328 3.62354L10.2501 2.33607Z" stroke="#A3A5A5" stroke-width="2.36776" stroke-linecap="round" stroke-linejoin="round"/>
</svg>
