<svg width="22" height="22" viewBox="0 0 22 22" fill="none" xmlns="http://www.w3.org/2000/svg">
<path opacity="0.34" d="M7.59375 10.8768L9.77787 13.07L14.1552 8.68359" stroke="#D69712" stroke-width="2.25006" stroke-linecap="round" stroke-linejoin="round"/>
<path d="M9.74176 2.22134C10.3671 1.68664 11.3912 1.68664 12.0256 2.22134L13.4575 3.45387C13.7294 3.6895 14.2369 3.87982 14.5994 3.87982H16.14C17.1007 3.87982 17.8892 4.66827 17.8892 5.62892V7.16959C17.8892 7.52303 18.0795 8.03961 18.3151 8.31149L19.5476 9.7434C20.0823 10.3687 20.0823 11.3928 19.5476 12.0272L18.3151 13.4591C18.0795 13.731 17.8892 14.2385 17.8892 14.601V16.1417C17.8892 17.1023 17.1007 17.8908 16.14 17.8908H14.5994C14.2459 17.8908 13.7294 18.0811 13.4575 18.3167L12.0256 19.5493C11.4002 20.084 10.3762 20.084 9.74176 19.5493L8.30985 18.3167C8.03797 18.0811 7.53046 17.8908 7.16795 17.8908H5.60009C4.63945 17.8908 3.85099 17.1023 3.85099 16.1417V14.592C3.85099 14.2385 3.66067 13.731 3.4341 13.4591L2.21063 12.0181C1.685 11.3928 1.685 10.3778 2.21063 9.75246L3.4341 8.31149C3.66067 8.03961 3.85099 7.5321 3.85099 7.17865V5.61986C3.85099 4.65921 4.63945 3.87075 5.60009 3.87075H7.16795C7.52139 3.87075 8.03797 3.68044 8.30985 3.44481L9.74176 2.22134Z" stroke="#D69712" stroke-width="2.25006" stroke-linecap="round" stroke-linejoin="round"/>
</svg>
