<svg width="22" height="22" viewBox="0 0 22 22" fill="none" xmlns="http://www.w3.org/2000/svg">
<path opacity="0.34" d="M7.59375 10.8767L9.77781 13.0698L14.155 8.68359" stroke="#A3A5A5" stroke-width="2.25" stroke-linecap="round" stroke-linejoin="round"/>
<path d="M9.74156 2.22133C10.3669 1.68664 11.3909 1.68664 12.0253 2.22133L13.4572 3.45383C13.7291 3.68945 14.2366 3.87977 14.5991 3.87977H16.1397C17.1003 3.87977 17.8888 4.6682 17.8888 5.62883V7.16945C17.8888 7.52289 18.0791 8.03945 18.3147 8.31133L19.5472 9.7432C20.0819 10.3685 20.0819 11.3926 19.5472 12.027L18.3147 13.4588C18.0791 13.7307 17.8888 14.2382 17.8888 14.6007V16.1413C17.8888 17.102 17.1003 17.8904 16.1397 17.8904H14.5991C14.2456 17.8904 13.7291 18.0807 13.4572 18.3163L12.0253 19.5488C11.4 20.0835 10.3759 20.0835 9.74156 19.5488L8.30969 18.3163C8.03781 18.0807 7.53031 17.8904 7.16781 17.8904H5.6C4.63938 17.8904 3.85094 17.102 3.85094 16.1413V14.5916C3.85094 14.2382 3.66063 13.7307 3.43406 13.4588L2.21063 12.0179C1.685 11.3926 1.685 10.3776 2.21063 9.75227L3.43406 8.31133C3.66063 8.03945 3.85094 7.53195 3.85094 7.17852V5.61977C3.85094 4.65914 4.63938 3.8707 5.6 3.8707H7.16781C7.52125 3.8707 8.03781 3.68039 8.30969 3.44477L9.74156 2.22133Z" stroke="#A3A5A5" stroke-width="2.25" stroke-linecap="round" stroke-linejoin="round"/>
</svg>
