<svg width="29" height="30" viewBox="0 0 29 30" fill="none" xmlns="http://www.w3.org/2000/svg">
<g clip-path="url(#clip0_3861_29173)">
<path d="M18.9843 11.6129L14.8844 16.5327C14.0416 17.5441 13.6201 18.0498 13.0657 18.0498C12.5113 18.0498 12.0899 17.5441 11.247 16.5327L9.51457 14.4538M6.66753 6.90049C8.49962 7.35972 10.3656 6.2824 10.8839 4.46614C11.8502 1.0803 16.6486 1.0803 17.6149 4.46614C18.1332 6.2824 19.9992 7.35972 21.8313 6.90049C25.2467 6.04439 27.6459 10.1999 25.1968 12.7297C23.883 14.0867 23.883 16.2413 25.1968 17.5984C27.6459 20.1281 25.2467 24.2836 21.8313 23.4275C19.9992 22.9683 18.1332 24.0456 17.6149 25.8619C16.6486 29.2477 11.8502 29.2477 10.8839 25.8619C10.3656 24.0456 8.49962 22.9683 6.66753 23.4275C3.25217 24.2836 0.852971 20.1281 3.30206 17.5984C4.61582 16.2413 4.61582 14.0867 3.30206 12.7297C0.852972 10.1999 3.25217 6.04439 6.66753 6.90049Z" stroke="#F5FAFC" stroke-width="2.13068" stroke-linecap="round"/>
</g>
<defs>
<clipPath id="clip0_3861_29173">
<rect width="28.4091" height="28.4091" fill="white" transform="translate(0.0429688 0.956055)"/>
</clipPath>
</defs>
</svg>
