<svg width="20" height="20" viewBox="0 0 20 20" fill="none" xmlns="http://www.w3.org/2000/svg">
<g clip-path="url(#clip0_13_6689)">
<path d="M13.3331 7.50261L10.4468 10.9662C9.85339 11.6782 9.55671 12.0342 9.1664 12.0342C8.77608 12.0342 8.4794 11.6782 7.88603 10.9662L6.6664 9.50261M4.66208 4.1851C5.95188 4.5084 7.26553 3.74996 7.63044 2.47132C8.31069 0.0876866 11.6888 0.0876866 12.369 2.47132C12.7339 3.74996 14.0476 4.5084 15.3374 4.1851C17.7418 3.5824 19.4308 6.5079 17.7067 8.28883C16.7818 9.24418 16.7818 10.7611 17.7067 11.7164C19.4308 13.4973 17.7418 16.4228 15.3374 15.8201C14.0476 15.4968 12.7339 16.2553 12.369 17.5339C11.6888 19.9175 8.31069 19.9175 7.63044 17.5339C7.26553 16.2553 5.95188 15.4968 4.66208 15.8201C2.25767 16.4228 0.568633 13.4973 2.29279 11.7164C3.21767 10.7611 3.21768 9.24418 2.29279 8.28883C0.568633 6.5079 2.25767 3.5824 4.66208 4.1851Z" stroke="#768387" stroke-width="1.5" stroke-linecap="round"/>
</g>
<defs>
<clipPath id="clip0_13_6689">
<rect width="20" height="20" fill="white"/>
</clipPath>
</defs>
</svg>
