<svg width="20" height="20" viewBox="0 0 20 20" fill="none" xmlns="http://www.w3.org/2000/svg">
<path d="M4.16536 6.87467C3.82019 6.87467 3.54036 7.1545 3.54036 7.49967C3.54036 7.84485 3.82019 8.12467 4.16536 8.12467H7.4987C7.84388 8.12467 8.1237 7.84485 8.1237 7.49967C8.1237 7.1545 7.84388 6.87467 7.4987 6.87467H4.16536Z" fill="#768387"/>
<path fill-rule="evenodd" clip-rule="evenodd" d="M10.2863 2.76685C9.56596 2.708 8.66976 2.708 7.52666 2.70801H7.47073C6.32763 2.708 5.43144 2.708 4.71114 2.76685C3.97769 2.82678 3.37177 2.95082 2.82333 3.23027C1.92172 3.68966 1.18869 4.42269 0.729292 5.3243C0.449847 5.87275 0.3258 6.47867 0.265875 7.21212C0.207024 7.93241 0.207027 8.82861 0.207031 9.97171V10.0276C0.207027 11.1707 0.207024 12.0669 0.265875 12.7872C0.3258 13.5207 0.449847 14.1266 0.729292 14.675C1.18869 15.5767 1.92172 16.3097 2.82333 16.7691C3.37177 17.0485 3.97769 17.1726 4.71114 17.2325C5.43142 17.2913 6.3276 17.2913 7.47068 17.2913H7.52668C8.66975 17.2913 9.56597 17.2913 10.2863 17.2325C11.0197 17.1726 11.6256 17.0485 12.1741 16.7691C13.0757 16.3097 13.8087 15.5767 14.2681 14.675C14.3098 14.5932 14.348 14.5101 14.3831 14.4254C15.3554 14.8502 16.1515 15.195 16.7978 15.3703C17.4852 15.5568 18.1549 15.5952 18.7535 15.2035C19.3521 14.8118 19.585 14.1829 19.6894 13.4783C19.7904 12.796 19.7904 11.8961 19.7904 10.7915V9.20786C19.7904 8.10322 19.7904 7.20331 19.6894 6.52106C19.585 5.8165 19.3521 5.18751 18.7535 4.79582C18.1549 4.40413 17.4852 4.44254 16.7978 4.62903C16.1515 4.80435 15.3554 5.14915 14.3831 5.57392C14.348 5.48925 14.3098 5.40613 14.2681 5.3243C13.8087 4.42269 13.0757 3.68966 12.1741 3.23027C11.6256 2.95082 11.0197 2.82678 10.2863 2.76685ZM14.7476 13.2206L14.6891 13.195C14.7904 12.3999 14.7904 11.4025 14.7904 10.0873V9.91212C14.7904 8.59701 14.7904 7.59944 14.6891 6.80434L14.7476 6.77879C15.8198 6.31026 16.5595 5.98886 17.1251 5.83542C17.6795 5.68503 17.9136 5.74005 18.0691 5.84179C18.2245 5.94354 18.3687 6.13599 18.4528 6.70421C18.5387 7.28395 18.5404 8.09041 18.5404 9.26054V10.7388C18.5404 11.9089 18.5387 12.7154 18.4528 13.2951C18.3687 13.8634 18.2245 14.0558 18.0691 14.1576C17.9136 14.2593 17.6795 14.3143 17.1251 14.1639C16.5595 14.0105 15.8198 13.6891 14.7476 13.2206ZM3.39082 4.34403C3.73367 4.16933 4.15678 4.06631 4.81293 4.0127C5.47638 3.95849 6.32161 3.95801 7.4987 3.95801C8.67579 3.95801 9.52102 3.95849 10.1845 4.0127C10.8406 4.06631 11.2637 4.16933 11.6066 4.34403C12.273 4.68358 12.8148 5.22538 13.1543 5.89179C13.2514 6.08235 13.3261 6.29737 13.3825 6.56171C13.5369 7.28522 13.5404 8.28095 13.5404 9.99967C13.5404 11.7181 13.5369 12.7137 13.3826 13.4372C13.3262 13.7018 13.2515 13.9169 13.1543 14.1076C12.8148 14.774 12.273 15.3158 11.6066 15.6553C11.2637 15.83 10.8406 15.933 10.1845 15.9866C9.52102 16.0409 8.67579 16.0413 7.4987 16.0413C6.32161 16.0413 5.47638 16.0409 4.81293 15.9866C4.15678 15.933 3.73367 15.83 3.39082 15.6553C2.72441 15.3158 2.1826 14.774 1.84305 14.1076C1.66836 13.7647 1.56533 13.3416 1.51172 12.6854C1.45752 12.022 1.45703 11.1768 1.45703 9.99967C1.45703 8.82259 1.45752 7.97736 1.51172 7.31391C1.56533 6.65776 1.66836 6.23465 1.84305 5.89179C2.1826 5.22538 2.72441 4.68358 3.39082 4.34403Z" fill="#768387"/>
<path d="M4.16536 6.87467C3.82019 6.87467 3.54036 7.1545 3.54036 7.49967C3.54036 7.84485 3.82019 8.12467 4.16536 8.12467H7.4987C7.84388 8.12467 8.1237 7.84485 8.1237 7.49967C8.1237 7.1545 7.84388 6.87467 7.4987 6.87467H4.16536Z" stroke="#768387"/>
<path fill-rule="evenodd" clip-rule="evenodd" d="M10.2863 2.76685C9.56596 2.708 8.66976 2.708 7.52666 2.70801H7.47073C6.32763 2.708 5.43144 2.708 4.71114 2.76685C3.97769 2.82678 3.37177 2.95082 2.82333 3.23027C1.92172 3.68966 1.18869 4.42269 0.729292 5.3243C0.449847 5.87275 0.3258 6.47867 0.265875 7.21212C0.207024 7.93241 0.207027 8.82861 0.207031 9.97171V10.0276C0.207027 11.1707 0.207024 12.0669 0.265875 12.7872C0.3258 13.5207 0.449847 14.1266 0.729292 14.675C1.18869 15.5767 1.92172 16.3097 2.82333 16.7691C3.37177 17.0485 3.97769 17.1726 4.71114 17.2325C5.43142 17.2913 6.3276 17.2913 7.47068 17.2913H7.52668C8.66975 17.2913 9.56597 17.2913 10.2863 17.2325C11.0197 17.1726 11.6256 17.0485 12.1741 16.7691C13.0757 16.3097 13.8087 15.5767 14.2681 14.675C14.3098 14.5932 14.348 14.5101 14.3831 14.4254C15.3554 14.8502 16.1515 15.195 16.7978 15.3703C17.4852 15.5568 18.1549 15.5952 18.7535 15.2035C19.3521 14.8118 19.585 14.1829 19.6894 13.4783C19.7904 12.796 19.7904 11.8961 19.7904 10.7915V9.20786C19.7904 8.10322 19.7904 7.20331 19.6894 6.52106C19.585 5.8165 19.3521 5.18751 18.7535 4.79582C18.1549 4.40413 17.4852 4.44254 16.7978 4.62903C16.1515 4.80435 15.3554 5.14915 14.3831 5.57392C14.348 5.48925 14.3098 5.40613 14.2681 5.3243C13.8087 4.42269 13.0757 3.68966 12.1741 3.23027C11.6256 2.95082 11.0197 2.82678 10.2863 2.76685ZM14.7476 13.2206L14.6891 13.195C14.7904 12.3999 14.7904 11.4025 14.7904 10.0873V9.91212C14.7904 8.59701 14.7904 7.59944 14.6891 6.80434L14.7476 6.77879C15.8198 6.31026 16.5595 5.98886 17.1251 5.83542C17.6795 5.68503 17.9136 5.74005 18.0691 5.84179C18.2245 5.94354 18.3687 6.13599 18.4528 6.70421C18.5387 7.28395 18.5404 8.09041 18.5404 9.26054V10.7388C18.5404 11.9089 18.5387 12.7154 18.4528 13.2951C18.3687 13.8634 18.2245 14.0558 18.0691 14.1576C17.9136 14.2593 17.6795 14.3143 17.1251 14.1639C16.5595 14.0105 15.8198 13.6891 14.7476 13.2206ZM3.39082 4.34403C3.73367 4.16933 4.15678 4.06631 4.81293 4.0127C5.47638 3.95849 6.32161 3.95801 7.4987 3.95801C8.67579 3.95801 9.52102 3.95849 10.1845 4.0127C10.8406 4.06631 11.2637 4.16933 11.6066 4.34403C12.273 4.68358 12.8148 5.22538 13.1543 5.89179C13.2514 6.08235 13.3261 6.29737 13.3825 6.56171C13.5369 7.28522 13.5404 8.28095 13.5404 9.99967C13.5404 11.7181 13.5369 12.7137 13.3826 13.4372C13.3262 13.7018 13.2515 13.9169 13.1543 14.1076C12.8148 14.774 12.273 15.3158 11.6066 15.6553C11.2637 15.83 10.8406 15.933 10.1845 15.9866C9.52102 16.0409 8.67579 16.0413 7.4987 16.0413C6.32161 16.0413 5.47638 16.0409 4.81293 15.9866C4.15678 15.933 3.73367 15.83 3.39082 15.6553C2.72441 15.3158 2.1826 14.774 1.84305 14.1076C1.66836 13.7647 1.56533 13.3416 1.51172 12.6854C1.45752 12.022 1.45703 11.1768 1.45703 9.99967C1.45703 8.82259 1.45752 7.97736 1.51172 7.31391C1.56533 6.65776 1.66836 6.23465 1.84305 5.89179C2.1826 5.22538 2.72441 4.68358 3.39082 4.34403Z" stroke="#768387"/>
</svg>
