<svg width="19" height="18" viewBox="0 0 19 18" fill="none" xmlns="http://www.w3.org/2000/svg">
<rect width="14.9844" height="1.49844" rx="0.74922" fill="#682FFF"/>
<rect x="13.4863" y="3.75" width="3.7461" height="1.49844" rx="0.74922" transform="rotate(-90 13.4863 3.75)" fill="#682FFF"/>
<rect y="3.75" width="3.7461" height="1.49844" rx="0.74922" transform="rotate(-90 0 3.75)" fill="#682FFF"/>
<path d="M0 3H14.9844C17.0533 3 18.7305 4.67719 18.7305 6.7461V13.4891C18.7305 15.558 17.0533 17.2352 14.9844 17.2352H3.7461C1.67719 17.2352 0 15.558 0 13.4891V3Z" fill="#682FFF"/>
<mask id="path-5-inside-1_4506_57471" fill="white">
<path d="M14.2354 9.73985C14.2354 8.4985 15.2417 7.49219 16.483 7.49219H18.7307V11.9875H16.483C15.2417 11.9875 14.2354 10.9812 14.2354 9.73985Z"/>
</mask>
<path d="M14.2354 9.73985C14.2354 8.4985 15.2417 7.49219 16.483 7.49219H18.7307V11.9875H16.483C15.2417 11.9875 14.2354 10.9812 14.2354 9.73985Z" fill="#682FFF"/>
<path d="M13.1115 9.73985C13.1115 7.87782 14.621 6.36836 16.483 6.36836H18.7307V8.61602H16.483C15.8623 8.61602 15.3592 9.11917 15.3592 9.73985H13.1115ZM18.7307 13.1113H16.483C14.621 13.1113 13.1115 11.6019 13.1115 9.73985H15.3592C15.3592 10.3605 15.8623 10.8637 16.483 10.8637H18.7307V13.1113ZM16.483 13.1113C14.621 13.1113 13.1115 11.6019 13.1115 9.73985C13.1115 7.87782 14.621 6.36836 16.483 6.36836V8.61602C15.8623 8.61602 15.3592 9.11917 15.3592 9.73985C15.3592 10.3605 15.8623 10.8637 16.483 10.8637V13.1113ZM18.7307 7.49219V11.9875V7.49219Z" fill="white" mask="url(#path-5-inside-1_4506_57471)"/>
</svg>
