<svg width="23" height="23" viewBox="0 0 23 23" fill="none" xmlns="http://www.w3.org/2000/svg">
<path d="M11.25 0C5.04 0 0 5.04 0 11.25C0 17.46 5.04 22.5 11.25 22.5C17.46 22.5 22.5 17.46 22.5 11.25C22.5 5.04 17.46 0 11.25 0ZM13.0838 13.8263C13.0838 14.4 12.6225 14.8612 12.0487 14.8612L7.90875 14.895C6.17625 14.9062 4.76999 13.5113 4.76999 11.7788V8.62877C4.76999 8.05502 5.23125 7.59375 5.805 7.59375H9.95626C11.6775 7.59375 13.0725 8.98874 13.0725 10.71V13.8263H13.0838ZM17.7188 13.5C17.7188 13.9838 17.1788 14.2763 16.7738 14.0063L14.6137 12.5663C14.445 12.4538 14.3438 12.2625 14.3438 12.06V10.4625C14.3438 10.26 14.445 10.0688 14.6137 9.95626L16.7738 8.51626C17.1788 8.24626 17.7188 8.53874 17.7188 9.02249V13.5Z" fill="#4A8CFF"/>
</svg>
